G04*
G04 #@! TF.GenerationSoftware,Altium Limited,Altium Designer,18.1.11 (251)*
G04*
G04 Layer_Color=32768*
%FSLAX25Y25*%
%MOIN*%
G70*
G01*
G75*
%ADD11C,0.00394*%
%ADD88C,0.00197*%
D11*
X119291Y28543D02*
X122441D01*
X120866Y26969D02*
Y30118D01*
X119291Y50210D02*
X122441D01*
X120866Y48635D02*
Y51785D01*
X119291Y71877D02*
X122441D01*
X120866Y70302D02*
Y73451D01*
X119291Y93543D02*
X122441D01*
X120866Y91969D02*
Y95118D01*
X119291Y115210D02*
X122441D01*
X120866Y113635D02*
Y116785D01*
X119291Y136877D02*
X122441D01*
X120866Y135302D02*
Y138451D01*
X119291Y158543D02*
X122441D01*
X120866Y156968D02*
Y160118D01*
X119291Y180210D02*
X122441D01*
X120866Y178635D02*
Y181785D01*
X119291Y201877D02*
X122441D01*
X120866Y200302D02*
Y203451D01*
X119291Y223543D02*
X122441D01*
X120866Y221968D02*
Y225118D01*
X119291Y245210D02*
X122441D01*
X120866Y243635D02*
Y246785D01*
X119291Y266877D02*
X122441D01*
X120866Y265302D02*
Y268451D01*
X119291Y288543D02*
X122441D01*
X120866Y286968D02*
Y290118D01*
X119291Y310210D02*
X122441D01*
X120866Y308635D02*
Y311785D01*
X361024Y192913D02*
X364961D01*
X362992Y190945D02*
Y194882D01*
X259649Y109055D02*
X263389D01*
X261519Y107185D02*
Y110925D01*
X291322Y116535D02*
X295259D01*
X293290Y114567D02*
Y118504D01*
X247736Y175330D02*
X251476D01*
X249606Y173460D02*
Y177200D01*
X362598Y207874D02*
Y211811D01*
X360630Y209842D02*
X364567D01*
X362598Y218898D02*
Y222835D01*
X360630Y220866D02*
X364567D01*
X237012Y66535D02*
Y69685D01*
X235437Y68110D02*
X238587D01*
X237008Y76870D02*
Y80610D01*
X235138Y78740D02*
X238878D01*
X242717Y318504D02*
X245866D01*
X244291Y316929D02*
Y320079D01*
X242028Y323622D02*
X245768D01*
X243898Y321752D02*
Y325492D01*
X201772Y370669D02*
Y374606D01*
X199803Y372638D02*
X203740D01*
X300000Y325886D02*
Y329823D01*
X298031Y327854D02*
X301969D01*
X287008Y325886D02*
Y329823D01*
X285039Y327854D02*
X288976D01*
X274803Y325886D02*
Y329823D01*
X272835Y327854D02*
X276772D01*
X311811Y325984D02*
Y329921D01*
X309842Y327953D02*
X313779D01*
X273031Y140650D02*
X276969D01*
X275000Y138681D02*
Y142618D01*
X284908Y140650D02*
X288845D01*
X286877Y138681D02*
Y142618D01*
X308661Y140650D02*
X312598D01*
X310630Y138681D02*
Y142618D01*
X309055Y251279D02*
X312992D01*
X311024Y249311D02*
Y253248D01*
X296982Y251279D02*
X300919D01*
X298950Y249311D02*
Y253248D01*
X285433Y251181D02*
X289370D01*
X287402Y249213D02*
Y253150D01*
X273228Y251230D02*
X277165D01*
X275197Y249262D02*
Y253199D01*
X35138Y76772D02*
X38878D01*
X37008Y74902D02*
Y78642D01*
X228346Y362795D02*
Y366732D01*
X226378Y364764D02*
X230315D01*
X120866Y351968D02*
Y355118D01*
X119291Y353543D02*
X122441D01*
X120866Y330302D02*
Y333451D01*
X119291Y331876D02*
X122441D01*
X273228Y160630D02*
X277165D01*
X275197Y158661D02*
Y162598D01*
X287073Y158661D02*
Y162598D01*
X285105Y160630D02*
X289042D01*
X296982D02*
X300919D01*
X298950Y158661D02*
Y162598D01*
X310827Y158661D02*
Y162598D01*
X308858Y160630D02*
X312795D01*
X308858Y229134D02*
X312795D01*
X310827Y227165D02*
Y231102D01*
X298950Y227165D02*
Y231102D01*
X296982Y229134D02*
X300919D01*
X285105D02*
X289042D01*
X287073Y227165D02*
Y231102D01*
X275197Y227165D02*
Y231102D01*
X273228Y229134D02*
X277165D01*
X27953Y57480D02*
X31890D01*
X29921Y55512D02*
Y59449D01*
Y45669D02*
Y49606D01*
X27953Y47638D02*
X31890D01*
X40355Y345472D02*
X44292D01*
X42323Y343504D02*
Y347441D01*
X42323Y357283D02*
Y361221D01*
X40354Y359252D02*
X44291D01*
X240158Y115256D02*
Y118996D01*
X238287Y117126D02*
X242028D01*
X229331Y118110D02*
X233268D01*
X231299Y116142D02*
Y120079D01*
X251969Y346457D02*
Y350394D01*
X250000Y348425D02*
X253937D01*
X275098Y64173D02*
Y68110D01*
X273130Y66142D02*
X277067D01*
X287073Y64173D02*
Y68110D01*
X285105Y66142D02*
X289042D01*
X219488Y119095D02*
X223425D01*
X221457Y117126D02*
Y121063D01*
X213583Y116240D02*
Y119980D01*
X211713Y118110D02*
X215453D01*
X234350Y130905D02*
X238090D01*
X236221Y129035D02*
Y132776D01*
X32972Y65354D02*
X36713D01*
X34843Y63484D02*
Y67224D01*
X26575Y330709D02*
X30512D01*
X28543Y328740D02*
Y332677D01*
X225590Y183465D02*
X229528D01*
X227559Y181496D02*
Y185433D01*
X281398Y88287D02*
Y92224D01*
X279429Y90256D02*
X283366D01*
X279528Y116240D02*
X283465D01*
X281496Y114272D02*
Y118209D01*
X305020Y88287D02*
Y92224D01*
X303051Y90256D02*
X306988D01*
X303150Y116240D02*
X307087D01*
X305118Y114272D02*
Y118209D01*
X305413Y302362D02*
Y306299D01*
X303445Y304331D02*
X307382D01*
X305256Y275394D02*
Y279331D01*
X303287Y277362D02*
X307224D01*
X281791Y302362D02*
Y306299D01*
X279823Y304331D02*
X283760D01*
X281752Y275394D02*
Y279331D01*
X279784Y277362D02*
X283720D01*
X296785Y140650D02*
X300722D01*
X298753Y138681D02*
Y142618D01*
X311024Y64173D02*
Y68110D01*
X309055Y66142D02*
X312992D01*
X159941Y28543D02*
X163878D01*
X161909Y26575D02*
Y30512D01*
X159941Y50197D02*
X163878D01*
X161909Y48228D02*
Y52165D01*
X159941Y71850D02*
X163878D01*
X161909Y69882D02*
Y73819D01*
X159941Y93504D02*
X163878D01*
X161909Y91535D02*
Y95472D01*
X159941Y115157D02*
X163878D01*
X161909Y113189D02*
Y117126D01*
X159941Y136811D02*
X163878D01*
X161909Y134843D02*
Y138779D01*
X159941Y158465D02*
X163878D01*
X161909Y156496D02*
Y160433D01*
X159941Y180118D02*
X163878D01*
X161909Y178150D02*
Y182087D01*
X159941Y201772D02*
X163878D01*
X161909Y199803D02*
Y203740D01*
X159941Y223425D02*
X163878D01*
X161909Y221457D02*
Y225394D01*
X159941Y245079D02*
X163878D01*
X161909Y243110D02*
Y247047D01*
X159941Y266732D02*
X163878D01*
X161909Y264764D02*
Y268701D01*
X159941Y288386D02*
X163878D01*
X161909Y286417D02*
Y290354D01*
X159941Y310039D02*
X163878D01*
X161909Y308071D02*
Y312008D01*
X159941Y331693D02*
X163878D01*
X161909Y329724D02*
Y333661D01*
X159941Y353346D02*
X163878D01*
X161909Y351378D02*
Y355315D01*
X175197Y28543D02*
X179134D01*
X177165Y26575D02*
Y30512D01*
Y48228D02*
Y52165D01*
X175197Y50197D02*
X179134D01*
X175197Y71850D02*
X179134D01*
X177165Y69882D02*
Y73819D01*
Y91535D02*
Y95472D01*
X175197Y93504D02*
X179134D01*
X175197Y115157D02*
X179134D01*
X177165Y113189D02*
Y117126D01*
Y134843D02*
Y138779D01*
X175197Y136811D02*
X179134D01*
X175197Y158465D02*
X179134D01*
X177165Y156496D02*
Y160433D01*
Y178150D02*
Y182087D01*
X175197Y180118D02*
X179134D01*
X175197Y201772D02*
X179134D01*
X177165Y199803D02*
Y203740D01*
X177166Y221457D02*
Y225394D01*
X175197Y223425D02*
X179134D01*
X175197Y245079D02*
X179134D01*
X177166Y243110D02*
Y247047D01*
Y264764D02*
Y268701D01*
X175197Y266732D02*
X179134D01*
X175197Y288386D02*
X179134D01*
X177165Y286417D02*
Y290354D01*
Y308071D02*
Y312008D01*
X175197Y310039D02*
X179134D01*
X175197Y331693D02*
X179134D01*
X177165Y329724D02*
Y333661D01*
X177165Y351378D02*
Y355315D01*
X175197Y353346D02*
X179134D01*
X133957Y28543D02*
X137697D01*
X135827Y26673D02*
Y30413D01*
X133957Y50210D02*
X137697D01*
X135827Y48340D02*
Y52080D01*
X133957Y71877D02*
X137697D01*
X135827Y70007D02*
Y73747D01*
X133957Y93543D02*
X137697D01*
X135827Y91673D02*
Y95413D01*
X133957Y115210D02*
X137697D01*
X135827Y113340D02*
Y117080D01*
X133957Y136877D02*
X137697D01*
X135827Y135006D02*
Y138747D01*
X133957Y158543D02*
X137697D01*
X135827Y156673D02*
Y160413D01*
X133957Y180210D02*
X137697D01*
X135827Y178340D02*
Y182080D01*
X133957Y201877D02*
X137697D01*
X135827Y200007D02*
Y203747D01*
X133957Y223543D02*
X137697D01*
X135827Y221673D02*
Y225413D01*
X133957Y245210D02*
X137697D01*
X135827Y243340D02*
Y247080D01*
X133957Y266877D02*
X137697D01*
X135827Y265006D02*
Y268747D01*
X133957Y288543D02*
X137697D01*
X135827Y286673D02*
Y290413D01*
X133957Y310210D02*
X137697D01*
X135827Y308340D02*
Y312080D01*
X133957Y331876D02*
X137697D01*
X135827Y330007D02*
Y333747D01*
X133957Y353543D02*
X137697D01*
X135827Y351673D02*
Y355413D01*
X92716Y26772D02*
Y30709D01*
X90748Y28740D02*
X94685D01*
X92716Y48425D02*
Y52362D01*
X90748Y50394D02*
X94685D01*
X92716Y70079D02*
Y74016D01*
X90748Y72047D02*
X94685D01*
X92716Y91732D02*
Y95669D01*
X90748Y93701D02*
X94685D01*
X92716Y113386D02*
Y117323D01*
X90748Y115354D02*
X94685D01*
X92716Y135039D02*
Y138976D01*
X90748Y137008D02*
X94685D01*
X92716Y156693D02*
Y160630D01*
X90748Y158661D02*
X94685D01*
X92716Y178346D02*
Y182283D01*
X90748Y180315D02*
X94685D01*
X92716Y200000D02*
Y203937D01*
X90748Y201969D02*
X94685D01*
X92716Y221654D02*
Y225590D01*
X90748Y223622D02*
X94685D01*
X92716Y243307D02*
Y247244D01*
X90748Y245276D02*
X94685D01*
X92716Y264961D02*
Y268898D01*
X90748Y266929D02*
X94685D01*
X92716Y286614D02*
Y290551D01*
X90748Y288583D02*
X94685D01*
X92716Y308268D02*
Y312205D01*
X90748Y310236D02*
X94685D01*
X92716Y329921D02*
Y333858D01*
X90748Y331890D02*
X94685D01*
X92716Y351575D02*
Y355512D01*
X90748Y353543D02*
X94685D01*
X46260Y324803D02*
X50197D01*
X48228Y322835D02*
Y326772D01*
X100394Y378937D02*
Y382874D01*
X98425Y380906D02*
X102362D01*
X149606Y378937D02*
Y382874D01*
X147638Y380906D02*
X151575D01*
X299048Y64173D02*
Y68110D01*
X297080Y66142D02*
X301017D01*
X380315Y192193D02*
Y195933D01*
X378445Y194063D02*
X382185D01*
X301575Y192224D02*
Y195965D01*
X299705Y194095D02*
X303445D01*
X309728Y192209D02*
Y195949D01*
X307858Y194079D02*
X311598D01*
X331857Y234350D02*
Y238090D01*
X329987Y236221D02*
X333727D01*
X331857Y246161D02*
Y249902D01*
X329987Y248031D02*
X333727D01*
X331857Y257972D02*
Y261713D01*
X329987Y259842D02*
X333727D01*
X331890Y269783D02*
Y273524D01*
X330020Y271654D02*
X333760D01*
X331857Y281594D02*
Y285335D01*
X329987Y283465D02*
X333727D01*
X331890Y293406D02*
Y297146D01*
X330020Y295276D02*
X333760D01*
X331857Y305217D02*
Y308957D01*
X329987Y307087D02*
X333727D01*
X331857Y317027D02*
Y320768D01*
X329987Y318898D02*
X333727D01*
X236758Y173327D02*
Y177067D01*
X234888Y175197D02*
X238629D01*
X247566Y152756D02*
X251306D01*
X249436Y150886D02*
Y154626D01*
X255906Y158742D02*
Y162679D01*
X253937Y160711D02*
X257874D01*
X252461Y168701D02*
X256201D01*
X254331Y166831D02*
Y170571D01*
X274410Y189370D02*
Y193307D01*
X272441Y191339D02*
X276378D01*
X235335Y272638D02*
X239075D01*
X237205Y270768D02*
Y274508D01*
X239173Y260827D02*
X243110D01*
X241142Y258858D02*
Y262795D01*
X216535Y238583D02*
X220472D01*
X218504Y236614D02*
Y240551D01*
X118601Y26772D02*
Y30709D01*
X116633Y28740D02*
X120570D01*
X118601Y48425D02*
Y52362D01*
X116633Y50394D02*
X120570D01*
X118601Y70079D02*
Y74016D01*
X116633Y72047D02*
X120570D01*
X118601Y91732D02*
Y95669D01*
X116633Y93701D02*
X120570D01*
X118601Y113386D02*
Y117323D01*
X116633Y115354D02*
X120570D01*
X118601Y135039D02*
Y138976D01*
X116633Y137008D02*
X120570D01*
X118601Y156693D02*
Y160630D01*
X116633Y158661D02*
X120570D01*
X118601Y178347D02*
Y182283D01*
X116633Y180315D02*
X120570D01*
X118601Y200000D02*
Y203937D01*
X116633Y201969D02*
X120570D01*
X118601Y221654D02*
Y225591D01*
X116633Y223622D02*
X120570D01*
X118601Y243307D02*
Y247244D01*
X116633Y245276D02*
X120570D01*
X118601Y264961D02*
Y268898D01*
X116633Y266929D02*
X120570D01*
X118601Y286614D02*
Y290551D01*
X116633Y288583D02*
X120570D01*
X118601Y308268D02*
Y312205D01*
X116633Y310236D02*
X120570D01*
X118601Y329921D02*
Y333858D01*
X116633Y331890D02*
X120570D01*
X118601Y351575D02*
Y355512D01*
X116633Y353543D02*
X120570D01*
X144193Y24606D02*
X147933D01*
X146063Y22736D02*
Y26476D01*
X144193Y46260D02*
X147933D01*
X146063Y44390D02*
Y48130D01*
X144193Y67913D02*
X147933D01*
X146063Y66043D02*
Y69784D01*
X144193Y89567D02*
X147933D01*
X146063Y87697D02*
Y91437D01*
X144193Y111221D02*
X147933D01*
X146063Y109350D02*
Y113091D01*
X144193Y132874D02*
X147933D01*
X146063Y131004D02*
Y134744D01*
X144193Y154528D02*
X147933D01*
X146063Y152657D02*
Y156398D01*
X144193Y176181D02*
X147933D01*
X146063Y174311D02*
Y178051D01*
X144193Y197835D02*
X147933D01*
X146063Y195965D02*
Y199705D01*
X144193Y219488D02*
X147933D01*
X146063Y217618D02*
Y221358D01*
X144193Y241142D02*
X147933D01*
X146063Y239272D02*
Y243012D01*
X144193Y262795D02*
X147933D01*
X146063Y260925D02*
Y264665D01*
X144193Y284449D02*
X147933D01*
X146063Y282579D02*
Y286319D01*
X144193Y306102D02*
X147933D01*
X146063Y304232D02*
Y307972D01*
X144193Y327756D02*
X147933D01*
X146063Y325886D02*
Y329626D01*
X144193Y349409D02*
X147933D01*
X146063Y347539D02*
Y351279D01*
X144193Y32480D02*
X147933D01*
X146063Y30610D02*
Y34350D01*
X144193Y54134D02*
X147933D01*
X146063Y52264D02*
Y56004D01*
X144193Y75787D02*
X147933D01*
X146063Y73917D02*
Y77658D01*
X144193Y97441D02*
X147933D01*
X146063Y95571D02*
Y99311D01*
X144193Y119095D02*
X147933D01*
X146063Y117224D02*
Y120965D01*
X144193Y140748D02*
X147933D01*
X146063Y138878D02*
Y142618D01*
X144193Y162402D02*
X147933D01*
X146063Y160531D02*
Y164272D01*
X144193Y184055D02*
X147933D01*
X146063Y182185D02*
Y185925D01*
X144193Y205709D02*
X147933D01*
X146063Y203839D02*
Y207579D01*
X144193Y227362D02*
X147933D01*
X146063Y225492D02*
Y229232D01*
X144193Y249016D02*
X147933D01*
X146063Y247146D02*
Y250886D01*
X144193Y270669D02*
X147933D01*
X146063Y268799D02*
Y272539D01*
X144193Y292323D02*
X147933D01*
X146063Y290453D02*
Y294193D01*
X144193Y313976D02*
X147933D01*
X146063Y312106D02*
Y315846D01*
X144193Y335630D02*
X147933D01*
X146063Y333760D02*
Y337500D01*
X144193Y357283D02*
X147933D01*
X146063Y355413D02*
Y359154D01*
X132283Y28051D02*
Y31791D01*
X130413Y29921D02*
X134153D01*
X132283Y49705D02*
Y53445D01*
X130413Y51575D02*
X134153D01*
X132283Y93012D02*
Y96752D01*
X130413Y94882D02*
X134153D01*
X132283Y114665D02*
Y118405D01*
X130413Y116535D02*
X134153D01*
X132283Y136319D02*
Y140059D01*
X130413Y138189D02*
X134153D01*
X132283Y157972D02*
Y161713D01*
X130413Y159843D02*
X134153D01*
X132283Y179626D02*
Y183366D01*
X130413Y181496D02*
X134153D01*
X132283Y201279D02*
Y205020D01*
X130413Y203150D02*
X134153D01*
X132283Y222933D02*
Y226673D01*
X130413Y224803D02*
X134153D01*
X132283Y244587D02*
Y248327D01*
X130413Y246457D02*
X134153D01*
X132283Y266240D02*
Y269980D01*
X130413Y268110D02*
X134153D01*
X132283Y287894D02*
Y291634D01*
X130413Y289764D02*
X134153D01*
X132283Y309547D02*
Y313287D01*
X130413Y311417D02*
X134153D01*
X132283Y352854D02*
Y356594D01*
X130413Y354724D02*
X134153D01*
X132283Y331201D02*
Y334941D01*
X130413Y333071D02*
X134153D01*
X132283Y71358D02*
Y75098D01*
X130413Y73228D02*
X134153D01*
X240945Y153248D02*
Y156988D01*
X239075Y155118D02*
X242815D01*
X243307Y76870D02*
Y80610D01*
X241437Y78740D02*
X245177D01*
X249606Y76870D02*
Y80610D01*
X247736Y78740D02*
X251476D01*
X249606Y66535D02*
Y69685D01*
X248031Y68110D02*
X251181D01*
X243309Y66535D02*
Y69685D01*
X241734Y68110D02*
X244884D01*
D88*
X126181Y25787D02*
Y31299D01*
X115551Y25787D02*
Y31299D01*
Y25787D02*
X126181D01*
X115551Y31299D02*
X126181D01*
Y47454D02*
Y52966D01*
X115551Y47454D02*
Y52966D01*
Y47454D02*
X126181D01*
X115551Y52966D02*
X126181D01*
Y69121D02*
Y74633D01*
X115551Y69121D02*
Y74633D01*
Y69121D02*
X126181D01*
X115551Y74633D02*
X126181D01*
Y90787D02*
Y96299D01*
X115551Y90787D02*
Y96299D01*
Y90787D02*
X126181D01*
X115551Y96299D02*
X126181D01*
Y112454D02*
Y117966D01*
X115551Y112454D02*
Y117966D01*
Y112454D02*
X126181D01*
X115551Y117966D02*
X126181D01*
Y134121D02*
Y139632D01*
X115551Y134121D02*
Y139632D01*
Y134121D02*
X126181D01*
X115551Y139632D02*
X126181D01*
Y155787D02*
Y161299D01*
X115551Y155787D02*
Y161299D01*
Y155787D02*
X126181D01*
X115551Y161299D02*
X126181D01*
Y177454D02*
Y182966D01*
X115551Y177454D02*
Y182966D01*
Y177454D02*
X126181D01*
X115551Y182966D02*
X126181D01*
Y199121D02*
Y204632D01*
X115551Y199121D02*
Y204632D01*
Y199121D02*
X126181D01*
X115551Y204632D02*
X126181D01*
Y220787D02*
Y226299D01*
X115551Y220787D02*
Y226299D01*
Y220787D02*
X126181D01*
X115551Y226299D02*
X126181D01*
Y242454D02*
Y247966D01*
X115551Y242454D02*
Y247966D01*
Y242454D02*
X126181D01*
X115551Y247966D02*
X126181D01*
Y264121D02*
Y269633D01*
X115551Y264121D02*
Y269633D01*
Y264121D02*
X126181D01*
X115551Y269633D02*
X126181D01*
Y285787D02*
Y291299D01*
X115551Y285787D02*
Y291299D01*
Y285787D02*
X126181D01*
X115551Y291299D02*
X126181D01*
Y307454D02*
Y312966D01*
X115551Y307454D02*
Y312966D01*
Y307454D02*
X126181D01*
X115551Y312966D02*
X126181D01*
X354724Y186024D02*
Y199803D01*
X371260Y186024D02*
Y199803D01*
X354724Y186024D02*
X371260D01*
X354724Y199803D02*
X371260D01*
X264472Y103937D02*
Y114173D01*
X258566Y103937D02*
Y114173D01*
Y103937D02*
X264472D01*
X258566Y114173D02*
X264472D01*
X278723Y105709D02*
Y127362D01*
X307857Y105709D02*
Y127362D01*
X278723Y105709D02*
X307857D01*
X278723Y127362D02*
X307857D01*
X244488Y172377D02*
Y178283D01*
X254724Y172377D02*
Y178283D01*
X244488Y172377D02*
X254724D01*
X244488Y178283D02*
X254724D01*
X353740Y205315D02*
X371457D01*
X353740Y214370D02*
X371457D01*
X353740Y205315D02*
Y214370D01*
X371457Y205315D02*
Y214370D01*
X353740Y225394D02*
X371457D01*
X353740Y216339D02*
X371457D01*
Y225394D01*
X353740Y216339D02*
Y225394D01*
X234256Y73425D02*
X239768D01*
X234256Y62795D02*
X239768D01*
Y73425D01*
X234256Y62795D02*
Y73425D01*
X234055Y73622D02*
X239961D01*
X234055Y83858D02*
X239961D01*
X234055Y73622D02*
Y83858D01*
X239961Y73622D02*
Y83858D01*
X238976Y315748D02*
Y321260D01*
X249606Y315748D02*
Y321260D01*
X238976D02*
X249606D01*
X238976Y315748D02*
X249606D01*
X249016Y320669D02*
Y326575D01*
X238779Y320669D02*
Y326575D01*
Y320669D02*
X249016D01*
X238779Y326575D02*
X249016D01*
X197835Y365945D02*
X205709D01*
X197835Y379331D02*
X205709D01*
X197835Y365945D02*
Y379331D01*
X205709Y365945D02*
Y379331D01*
X295472Y318799D02*
X304528D01*
X295472Y336909D02*
X304528D01*
X295472Y318799D02*
Y336909D01*
X304528Y318799D02*
Y336909D01*
X282480Y318799D02*
X291535D01*
X282480Y336909D02*
X291535D01*
X282480Y318799D02*
Y336909D01*
X291535Y318799D02*
Y336909D01*
X270276Y318799D02*
X279331D01*
X270276Y336909D02*
X279331D01*
X270276Y318799D02*
Y336909D01*
X279331Y318799D02*
Y336909D01*
X307283Y318898D02*
X316339D01*
X307283Y337008D02*
X316339D01*
X307283Y318898D02*
Y337008D01*
X316339Y318898D02*
Y337008D01*
X270472Y131791D02*
Y149508D01*
X279528Y131791D02*
Y149508D01*
X270472Y131791D02*
X279528D01*
X270472Y149508D02*
X279528D01*
X282349Y131791D02*
Y149508D01*
X291404Y131791D02*
Y149508D01*
X282349Y131791D02*
X291404D01*
X282349Y149508D02*
X291404D01*
X306102Y131791D02*
Y149508D01*
X315158Y131791D02*
Y149508D01*
X306102Y131791D02*
X315158D01*
X306102Y149508D02*
X315158D01*
X315551Y242421D02*
Y260138D01*
X306496Y242421D02*
Y260138D01*
X315551D01*
X306496Y242421D02*
X315551D01*
X303478D02*
Y260138D01*
X294423Y242421D02*
Y260138D01*
X303478D01*
X294423Y242421D02*
X303478D01*
X291929Y242323D02*
Y260039D01*
X282874Y242323D02*
Y260039D01*
X291929D01*
X282874Y242323D02*
X291929D01*
X279724Y242372D02*
Y260089D01*
X270669Y242372D02*
Y260089D01*
X279724D01*
X270669Y242372D02*
X279724D01*
X39961Y71653D02*
Y81890D01*
X34055Y71653D02*
Y81890D01*
X39961D01*
X34055Y71653D02*
X39961D01*
X214173Y341929D02*
X242520D01*
X214173Y387598D02*
X242520D01*
X214173Y341929D02*
Y387598D01*
X242520Y341929D02*
Y387598D01*
X115551Y356299D02*
X126181D01*
X115551Y350787D02*
X126181D01*
X115551D02*
Y356299D01*
X126181Y350787D02*
Y356299D01*
X115551Y334632D02*
X126181D01*
X115551Y329121D02*
X126181D01*
X115551D02*
Y334632D01*
X126181Y329121D02*
Y334632D01*
X271850Y153150D02*
Y168110D01*
X278543Y153150D02*
Y168110D01*
X271850Y153150D02*
X278543D01*
X271850Y168110D02*
X278543D01*
X283727D02*
X290420D01*
X283727Y153150D02*
X290420D01*
Y168110D01*
X283727Y153150D02*
Y168110D01*
X295604Y153150D02*
Y168110D01*
X302297Y153150D02*
Y168110D01*
X295604Y153150D02*
X302297D01*
X295604Y168110D02*
X302297D01*
X307480D02*
X314173D01*
X307480Y153150D02*
X314173D01*
Y168110D01*
X307480Y153150D02*
Y168110D01*
X314173Y221654D02*
Y236614D01*
X307480Y221654D02*
Y236614D01*
X314173D01*
X307480Y221654D02*
X314173D01*
X295604D02*
X302297D01*
X295604Y236614D02*
X302297D01*
X295604Y221654D02*
Y236614D01*
X302297Y221654D02*
Y236614D01*
X290420Y221654D02*
Y236614D01*
X283727Y221654D02*
Y236614D01*
X290420D01*
X283727Y221654D02*
X290420D01*
X271850D02*
X278543D01*
X271850Y236614D02*
X278543D01*
X271850Y221654D02*
Y236614D01*
X278543Y221654D02*
Y236614D01*
X20866Y53543D02*
Y61417D01*
X38976Y53543D02*
Y61417D01*
X20866D02*
X38976D01*
X20866Y53543D02*
X38976D01*
X20866Y51575D02*
X38976D01*
X20866Y43701D02*
X38976D01*
X20866D02*
Y51575D01*
X38976Y43701D02*
Y51575D01*
X33268Y341535D02*
Y349409D01*
X51378Y341535D02*
Y349409D01*
X33268D02*
X51378D01*
X33268Y341535D02*
X51378D01*
X33268Y363189D02*
X51378D01*
X33268Y355315D02*
X51378D01*
X33268D02*
Y363189D01*
X51378Y355315D02*
Y363189D01*
X237205Y111811D02*
X243110D01*
X237205Y122441D02*
X243110D01*
X237205Y111811D02*
Y122441D01*
X243110Y111811D02*
Y122441D01*
X235236Y111417D02*
Y124803D01*
X227362Y111417D02*
Y124803D01*
X235236D01*
X227362Y111417D02*
X235236D01*
X247441Y357480D02*
X256496D01*
X247441Y339370D02*
X256496D01*
Y357480D01*
X247441Y339370D02*
Y357480D01*
X270571Y75197D02*
X279626D01*
X270571Y57087D02*
X279626D01*
Y75197D01*
X270571Y57087D02*
Y75197D01*
X282546D02*
X291601D01*
X282546Y57087D02*
X291601D01*
Y75197D01*
X282546Y57087D02*
Y75197D01*
X217520Y112402D02*
Y125787D01*
X225394Y112402D02*
Y125787D01*
X217520Y112402D02*
X225394D01*
X217520Y125787D02*
X225394D01*
X210630Y123425D02*
X216535D01*
X210630Y112795D02*
X216535D01*
Y123425D01*
X210630Y112795D02*
Y123425D01*
X230906Y127953D02*
Y133858D01*
X241535Y127953D02*
Y133858D01*
X230906D02*
X241535D01*
X230906Y127953D02*
X241535D01*
X29528Y62402D02*
Y68307D01*
X40157Y62402D02*
Y68307D01*
X29528D02*
X40157D01*
X29528Y62402D02*
X40157D01*
X19291Y324410D02*
Y337008D01*
X37795Y324410D02*
Y337008D01*
X19291D02*
X37795D01*
X19291Y324410D02*
X37795D01*
X197244Y153150D02*
Y213779D01*
X257874Y153150D02*
Y213779D01*
X197244D02*
X257874D01*
X197244Y153150D02*
X257874D01*
X273721Y100492D02*
X289075D01*
X273721Y80020D02*
X289075D01*
Y100492D01*
X273721Y80020D02*
Y100492D01*
X273622Y104823D02*
Y127657D01*
X289370Y104823D02*
Y127657D01*
X273622Y104823D02*
X289370D01*
X273622Y127657D02*
X289370D01*
X297342Y100492D02*
X312697D01*
X297342Y80020D02*
X312697D01*
Y100492D01*
X297342Y80020D02*
Y100492D01*
X297244Y104823D02*
Y127657D01*
X312992Y104823D02*
Y127657D01*
X297244Y104823D02*
X312992D01*
X297244Y127657D02*
X312992D01*
X297736Y294094D02*
X313090D01*
X297736Y314567D02*
X313090D01*
X297736Y294094D02*
Y314567D01*
X313090Y294094D02*
Y314567D01*
X297382Y265945D02*
X313130D01*
X297382Y288779D02*
X313130D01*
X297382Y265945D02*
Y288779D01*
X313130Y265945D02*
Y288779D01*
X274114Y294094D02*
X289469D01*
X274114Y314567D02*
X289469D01*
X274114Y294094D02*
Y314567D01*
X289469Y294094D02*
Y314567D01*
X273878Y265945D02*
X289626D01*
X273878Y288779D02*
X289626D01*
X273878Y265945D02*
Y288779D01*
X289626Y265945D02*
Y288779D01*
X294226Y131791D02*
Y149508D01*
X303281Y131791D02*
Y149508D01*
X294226Y131791D02*
X303281D01*
X294226Y149508D02*
X303281D01*
X306496Y75197D02*
X315551D01*
X306496Y57087D02*
X315551D01*
Y75197D01*
X306496Y57087D02*
Y75197D01*
X155217Y24606D02*
Y32480D01*
X168602Y24606D02*
Y32480D01*
X155217D02*
X168602D01*
X155217Y24606D02*
X168602D01*
X155217Y46260D02*
Y54134D01*
X168602Y46260D02*
Y54134D01*
X155217D02*
X168602D01*
X155217Y46260D02*
X168602D01*
X155217Y67913D02*
Y75787D01*
X168602Y67913D02*
Y75787D01*
X155217D02*
X168602D01*
X155217Y67913D02*
X168602D01*
X155217Y89567D02*
Y97441D01*
X168602Y89567D02*
Y97441D01*
X155217D02*
X168602D01*
X155217Y89567D02*
X168602D01*
X155217Y111221D02*
Y119095D01*
X168602Y111221D02*
Y119095D01*
X155217D02*
X168602D01*
X155217Y111221D02*
X168602D01*
X155217Y132874D02*
Y140748D01*
X168602Y132874D02*
Y140748D01*
X155217D02*
X168602D01*
X155217Y132874D02*
X168602D01*
X155217Y154527D02*
Y162402D01*
X168602Y154527D02*
Y162402D01*
X155217D02*
X168602D01*
X155217Y154527D02*
X168602D01*
X155217Y176181D02*
Y184055D01*
X168602Y176181D02*
Y184055D01*
X155217D02*
X168602D01*
X155217Y176181D02*
X168602D01*
X155217Y197835D02*
Y205709D01*
X168602Y197835D02*
Y205709D01*
X155217D02*
X168602D01*
X155217Y197835D02*
X168602D01*
X155217Y219488D02*
Y227362D01*
X168602Y219488D02*
Y227362D01*
X155217D02*
X168602D01*
X155217Y219488D02*
X168602D01*
X155217Y241142D02*
Y249016D01*
X168602Y241142D02*
Y249016D01*
X155217D02*
X168602D01*
X155217Y241142D02*
X168602D01*
X155217Y262795D02*
Y270669D01*
X168602Y262795D02*
Y270669D01*
X155217D02*
X168602D01*
X155217Y262795D02*
X168602D01*
X155217Y284449D02*
Y292323D01*
X168602Y284449D02*
Y292323D01*
X155217D02*
X168602D01*
X155217Y284449D02*
X168602D01*
X155217Y306102D02*
Y313976D01*
X168602Y306102D02*
Y313976D01*
X155217D02*
X168602D01*
X155217Y306102D02*
X168602D01*
X155217Y327756D02*
Y335630D01*
X168602Y327756D02*
Y335630D01*
X155217D02*
X168602D01*
X155217Y327756D02*
X168602D01*
X155217Y349410D02*
Y357283D01*
X168602Y349410D02*
Y357283D01*
X155217D02*
X168602D01*
X155217Y349410D02*
X168602D01*
X181102Y19488D02*
Y37598D01*
X173228Y19488D02*
Y37598D01*
X181102D01*
X173228Y19488D02*
X181102D01*
X173228Y41142D02*
X181102D01*
X173228Y59252D02*
X181102D01*
X173228Y41142D02*
Y59252D01*
X181102Y41142D02*
Y59252D01*
Y62795D02*
Y80905D01*
X173228Y62795D02*
Y80905D01*
X181102D01*
X173228Y62795D02*
X181102D01*
X173228Y84449D02*
X181102D01*
X173228Y102559D02*
X181102D01*
X173228Y84449D02*
Y102559D01*
X181102Y84449D02*
Y102559D01*
Y106102D02*
Y124213D01*
X173228Y106102D02*
Y124213D01*
X181102D01*
X173228Y106102D02*
X181102D01*
X173228Y127756D02*
X181102D01*
X173228Y145866D02*
X181102D01*
X173228Y127756D02*
Y145866D01*
X181102Y127756D02*
Y145866D01*
Y149409D02*
Y167520D01*
X173228Y149409D02*
Y167520D01*
X181102D01*
X173228Y149409D02*
X181102D01*
X173228Y171063D02*
X181102D01*
X173228Y189173D02*
X181102D01*
X173228Y171063D02*
Y189173D01*
X181102Y171063D02*
Y189173D01*
Y192717D02*
Y210827D01*
X173228Y192717D02*
Y210827D01*
X181102D01*
X173228Y192717D02*
X181102D01*
X173229Y214370D02*
X181103D01*
X173229Y232480D02*
X181103D01*
X173229Y214370D02*
Y232480D01*
X181103Y214370D02*
Y232480D01*
Y236024D02*
Y254134D01*
X173229Y236024D02*
Y254134D01*
X181103D01*
X173229Y236024D02*
X181103D01*
X173229Y257677D02*
X181103D01*
X173229Y275787D02*
X181103D01*
X173229Y257677D02*
Y275787D01*
X181103Y257677D02*
Y275787D01*
X181102Y279331D02*
Y297441D01*
X173228Y279331D02*
Y297441D01*
X181102D01*
X173228Y279331D02*
X181102D01*
X173228Y300984D02*
X181102D01*
X173228Y319094D02*
X181102D01*
X173228Y300984D02*
Y319094D01*
X181102Y300984D02*
Y319094D01*
X181102Y322638D02*
Y340748D01*
X173228Y322638D02*
Y340748D01*
X181102D01*
X173228Y322638D02*
X181102D01*
X173228Y344291D02*
X181102D01*
X173228Y362402D02*
X181102D01*
X173228Y344291D02*
Y362402D01*
X181102Y344291D02*
Y362402D01*
X130709Y25591D02*
Y31496D01*
X140945Y25591D02*
Y31496D01*
X130709D02*
X140945D01*
X130709Y25591D02*
X140945D01*
X130709Y47257D02*
Y53163D01*
X140945Y47257D02*
Y53163D01*
X130709D02*
X140945D01*
X130709Y47257D02*
X140945D01*
X130709Y68924D02*
Y74829D01*
X140945Y68924D02*
Y74829D01*
X130709D02*
X140945D01*
X130709Y68924D02*
X140945D01*
X130709Y90591D02*
Y96496D01*
X140945Y90591D02*
Y96496D01*
X130709D02*
X140945D01*
X130709Y90591D02*
X140945D01*
X130709Y112257D02*
Y118163D01*
X140945Y112257D02*
Y118163D01*
X130709D02*
X140945D01*
X130709Y112257D02*
X140945D01*
X130709Y133924D02*
Y139829D01*
X140945Y133924D02*
Y139829D01*
X130709D02*
X140945D01*
X130709Y133924D02*
X140945D01*
X130709Y155590D02*
Y161496D01*
X140945Y155590D02*
Y161496D01*
X130709D02*
X140945D01*
X130709Y155590D02*
X140945D01*
X130709Y177257D02*
Y183163D01*
X140945Y177257D02*
Y183163D01*
X130709D02*
X140945D01*
X130709Y177257D02*
X140945D01*
X130709Y198924D02*
Y204829D01*
X140945Y198924D02*
Y204829D01*
X130709D02*
X140945D01*
X130709Y198924D02*
X140945D01*
X130709Y220590D02*
Y226496D01*
X140945Y220590D02*
Y226496D01*
X130709D02*
X140945D01*
X130709Y220590D02*
X140945D01*
X130709Y242257D02*
Y248163D01*
X140945Y242257D02*
Y248163D01*
X130709D02*
X140945D01*
X130709Y242257D02*
X140945D01*
X130709Y263924D02*
Y269829D01*
X140945Y263924D02*
Y269829D01*
X130709D02*
X140945D01*
X130709Y263924D02*
X140945D01*
X130709Y285591D02*
Y291496D01*
X140945Y285591D02*
Y291496D01*
X130709D02*
X140945D01*
X130709Y285591D02*
X140945D01*
X130709Y307257D02*
Y313163D01*
X140945Y307257D02*
Y313163D01*
X130709D02*
X140945D01*
X130709Y307257D02*
X140945D01*
X130709Y328924D02*
Y334829D01*
X140945Y328924D02*
Y334829D01*
X130709D02*
X140945D01*
X130709Y328924D02*
X140945D01*
X130709Y350590D02*
Y356496D01*
X140945Y350590D02*
Y356496D01*
X130709D02*
X140945D01*
X130709Y350590D02*
X140945D01*
X77756Y21260D02*
X107677D01*
X77756Y36220D02*
X107677D01*
Y21260D02*
Y36220D01*
X77756Y21260D02*
Y36220D01*
Y42913D02*
X107677D01*
X77756Y57874D02*
X107677D01*
Y42913D02*
Y57874D01*
X77756Y42913D02*
Y57874D01*
Y64567D02*
X107677D01*
X77756Y79527D02*
X107677D01*
Y64567D02*
Y79527D01*
X77756Y64567D02*
Y79527D01*
Y86221D02*
X107677D01*
X77756Y101181D02*
X107677D01*
Y86221D02*
Y101181D01*
X77756Y86221D02*
Y101181D01*
Y107874D02*
X107677D01*
X77756Y122835D02*
X107677D01*
Y107874D02*
Y122835D01*
X77756Y107874D02*
Y122835D01*
Y129527D02*
X107677D01*
X77756Y144488D02*
X107677D01*
Y129527D02*
Y144488D01*
X77756Y129527D02*
Y144488D01*
Y151181D02*
X107677D01*
X77756Y166142D02*
X107677D01*
Y151181D02*
Y166142D01*
X77756Y151181D02*
Y166142D01*
Y172835D02*
X107677D01*
X77756Y187795D02*
X107677D01*
Y172835D02*
Y187795D01*
X77756Y172835D02*
Y187795D01*
Y194488D02*
X107677D01*
X77756Y209449D02*
X107677D01*
Y194488D02*
Y209449D01*
X77756Y194488D02*
Y209449D01*
Y216142D02*
X107677D01*
X77756Y231102D02*
X107677D01*
Y216142D02*
Y231102D01*
X77756Y216142D02*
Y231102D01*
Y237795D02*
X107677D01*
X77756Y252756D02*
X107677D01*
Y237795D02*
Y252756D01*
X77756Y237795D02*
Y252756D01*
Y259449D02*
X107677D01*
X77756Y274409D02*
X107677D01*
Y259449D02*
Y274409D01*
X77756Y259449D02*
Y274409D01*
Y281102D02*
X107677D01*
X77756Y296063D02*
X107677D01*
Y281102D02*
Y296063D01*
X77756Y281102D02*
Y296063D01*
Y302756D02*
X107677D01*
X77756Y317717D02*
X107677D01*
Y302756D02*
Y317717D01*
X77756Y302756D02*
Y317717D01*
Y324409D02*
X107677D01*
X77756Y339370D02*
X107677D01*
Y324409D02*
Y339370D01*
X77756Y324409D02*
Y339370D01*
Y346063D02*
X107677D01*
X77756Y361024D02*
X107677D01*
Y346063D02*
Y361024D01*
X77756Y346063D02*
Y361024D01*
X43701Y315945D02*
Y333661D01*
X52756Y315945D02*
Y333661D01*
X43701Y315945D02*
X52756D01*
X43701Y333661D02*
X52756D01*
X85433Y373425D02*
X115354D01*
X85433Y388386D02*
X115354D01*
Y373425D02*
Y388386D01*
X85433Y373425D02*
Y388386D01*
X134646Y373425D02*
X164567D01*
X134646Y388386D02*
X164567D01*
Y373425D02*
Y388386D01*
X134646Y373425D02*
Y388386D01*
X294521Y75197D02*
X303576D01*
X294521Y57087D02*
X303576D01*
Y75197D01*
X294521Y57087D02*
Y75197D01*
X377362Y199181D02*
X383268D01*
X377362Y188945D02*
X383268D01*
X377362D02*
Y199181D01*
X383268Y188945D02*
Y199181D01*
X298622Y188976D02*
X304528D01*
X298622Y199213D02*
X304528D01*
Y188976D02*
Y199213D01*
X298622Y188976D02*
Y199213D01*
X306776Y188961D02*
X312681D01*
X306776Y199197D02*
X312681D01*
Y188961D02*
Y199197D01*
X306776Y188961D02*
Y199197D01*
X326739Y233268D02*
X336975D01*
X326739Y239173D02*
X336975D01*
X326739Y233268D02*
Y239173D01*
X336975Y233268D02*
Y239173D01*
X326739Y245079D02*
X336975D01*
X326739Y250984D02*
X336975D01*
X326739Y245079D02*
Y250984D01*
X336975Y245079D02*
Y250984D01*
X326739Y256890D02*
X336975D01*
X326739Y262795D02*
X336975D01*
X326739Y256890D02*
Y262795D01*
X336975Y256890D02*
Y262795D01*
X326772Y268701D02*
X337008D01*
X326772Y274606D02*
X337008D01*
X326772Y268701D02*
Y274606D01*
X337008Y268701D02*
Y274606D01*
X326739Y280512D02*
X336975D01*
X326739Y286417D02*
X336975D01*
X326739Y280512D02*
Y286417D01*
X336975Y280512D02*
Y286417D01*
X326772Y292323D02*
X337008D01*
X326772Y298228D02*
X337008D01*
X326772Y292323D02*
Y298228D01*
X337008Y292323D02*
Y298228D01*
X326739Y304134D02*
X336975D01*
X326739Y310039D02*
X336975D01*
X326739Y304134D02*
Y310039D01*
X336975Y304134D02*
Y310039D01*
X326739Y315945D02*
X336975D01*
X326739Y321850D02*
X336975D01*
X326739Y315945D02*
Y321850D01*
X336975Y315945D02*
Y321850D01*
X231640Y178150D02*
X241877D01*
X231640Y172244D02*
X241877D01*
Y178150D01*
X231640Y172244D02*
Y178150D01*
X244318Y149803D02*
Y155709D01*
X254554Y149803D02*
Y155709D01*
X244318Y149803D02*
X254554D01*
X244318Y155709D02*
X254554D01*
X249213Y156774D02*
X262598D01*
X249213Y164648D02*
X262598D01*
X249213Y156774D02*
Y164648D01*
X262598Y156774D02*
Y164648D01*
X259646Y165748D02*
Y171653D01*
X249016Y165748D02*
Y171653D01*
X259646D01*
X249016Y165748D02*
X259646D01*
X267717Y195276D02*
X281102D01*
X267717Y187402D02*
X281102D01*
Y195276D01*
X267717Y187402D02*
Y195276D01*
X231890Y269685D02*
Y275591D01*
X242520Y269685D02*
Y275591D01*
X231890Y269685D02*
X242520D01*
X231890Y275591D02*
X242520D01*
X231890Y254528D02*
Y267126D01*
X250394Y254528D02*
Y267126D01*
X231890Y254528D02*
X250394D01*
X231890Y267126D02*
X250394D01*
X214567Y231890D02*
Y245276D01*
X222441Y231890D02*
Y245276D01*
X214567D02*
X222441D01*
X214567Y231890D02*
X222441D01*
X111022Y21850D02*
X126180D01*
X111022Y35630D02*
X126180D01*
X111022Y21850D02*
Y35630D01*
X126180Y21850D02*
Y35630D01*
X111022Y43504D02*
X126180D01*
X111022Y57284D02*
X126180D01*
X111022Y43504D02*
Y57284D01*
X126180Y43504D02*
Y57284D01*
X111022Y65158D02*
X126180D01*
X111022Y78937D02*
X126180D01*
X111022Y65158D02*
Y78937D01*
X126180Y65158D02*
Y78937D01*
X111022Y86811D02*
X126180D01*
X111022Y100591D02*
X126180D01*
X111022Y86811D02*
Y100591D01*
X126180Y86811D02*
Y100591D01*
X111022Y108465D02*
X126180D01*
X111022Y122244D02*
X126180D01*
X111022Y108465D02*
Y122244D01*
X126180Y108465D02*
Y122244D01*
X111022Y130118D02*
X126180D01*
X111022Y143898D02*
X126180D01*
X111022Y130118D02*
Y143898D01*
X126180Y130118D02*
Y143898D01*
X111022Y151772D02*
X126180D01*
X111022Y165551D02*
X126180D01*
X111022Y151772D02*
Y165551D01*
X126180Y151772D02*
Y165551D01*
X111022Y173425D02*
X126180D01*
X111022Y187205D02*
X126180D01*
X111022Y173425D02*
Y187205D01*
X126180Y173425D02*
Y187205D01*
X111022Y195079D02*
X126180D01*
X111022Y208858D02*
X126180D01*
X111022Y195079D02*
Y208858D01*
X126180Y195079D02*
Y208858D01*
X111022Y216732D02*
X126180D01*
X111022Y230512D02*
X126180D01*
X111022Y216732D02*
Y230512D01*
X126180Y216732D02*
Y230512D01*
X111022Y238386D02*
X126180D01*
X111022Y252165D02*
X126180D01*
X111022Y238386D02*
Y252165D01*
X126180Y238386D02*
Y252165D01*
X111022Y260039D02*
X126180D01*
X111022Y273819D02*
X126180D01*
X111022Y260039D02*
Y273819D01*
X126180Y260039D02*
Y273819D01*
X111022Y281693D02*
X126180D01*
X111022Y295472D02*
X126180D01*
X111022Y281693D02*
Y295472D01*
X126180Y281693D02*
Y295472D01*
X111022Y303346D02*
X126180D01*
X111022Y317126D02*
X126180D01*
X111022Y303346D02*
Y317126D01*
X126180Y303346D02*
Y317126D01*
X111022Y325000D02*
X126180D01*
X111022Y338779D02*
X126180D01*
X111022Y325000D02*
Y338779D01*
X126180Y325000D02*
Y338779D01*
X111022Y346654D02*
X126180D01*
X111022Y360433D02*
X126180D01*
X111022Y346654D02*
Y360433D01*
X126180Y346654D02*
Y360433D01*
X151181Y21654D02*
Y27559D01*
X140945Y21654D02*
Y27559D01*
X151181D01*
X140945Y21654D02*
X151181D01*
Y43307D02*
Y49213D01*
X140945Y43307D02*
Y49213D01*
X151181D01*
X140945Y43307D02*
X151181D01*
Y64961D02*
Y70866D01*
X140945Y64961D02*
Y70866D01*
X151181D01*
X140945Y64961D02*
X151181D01*
Y86614D02*
Y92520D01*
X140945Y86614D02*
Y92520D01*
X151181D01*
X140945Y86614D02*
X151181D01*
Y108268D02*
Y114173D01*
X140945Y108268D02*
Y114173D01*
X151181D01*
X140945Y108268D02*
X151181D01*
Y129921D02*
Y135827D01*
X140945Y129921D02*
Y135827D01*
X151181D01*
X140945Y129921D02*
X151181D01*
Y151575D02*
Y157480D01*
X140945Y151575D02*
Y157480D01*
X151181D01*
X140945Y151575D02*
X151181D01*
Y173228D02*
Y179134D01*
X140945Y173228D02*
Y179134D01*
X151181D01*
X140945Y173228D02*
X151181D01*
Y194882D02*
Y200787D01*
X140945Y194882D02*
Y200787D01*
X151181D01*
X140945Y194882D02*
X151181D01*
Y216535D02*
Y222441D01*
X140945Y216535D02*
Y222441D01*
X151181D01*
X140945Y216535D02*
X151181D01*
Y238189D02*
Y244094D01*
X140945Y238189D02*
Y244094D01*
X151181D01*
X140945Y238189D02*
X151181D01*
Y259843D02*
Y265748D01*
X140945Y259843D02*
Y265748D01*
X151181D01*
X140945Y259843D02*
X151181D01*
Y281496D02*
Y287402D01*
X140945Y281496D02*
Y287402D01*
X151181D01*
X140945Y281496D02*
X151181D01*
Y303150D02*
Y309055D01*
X140945Y303150D02*
Y309055D01*
X151181D01*
X140945Y303150D02*
X151181D01*
Y324803D02*
Y330709D01*
X140945Y324803D02*
Y330709D01*
X151181D01*
X140945Y324803D02*
X151181D01*
Y346457D02*
Y352362D01*
X140945Y346457D02*
Y352362D01*
X151181D01*
X140945Y346457D02*
X151181D01*
Y29528D02*
Y35433D01*
X140945Y29528D02*
Y35433D01*
X151181D01*
X140945Y29528D02*
X151181D01*
Y51181D02*
Y57087D01*
X140945Y51181D02*
Y57087D01*
X151181D01*
X140945Y51181D02*
X151181D01*
Y72835D02*
Y78740D01*
X140945Y72835D02*
Y78740D01*
X151181D01*
X140945Y72835D02*
X151181D01*
Y94488D02*
Y100394D01*
X140945Y94488D02*
Y100394D01*
X151181D01*
X140945Y94488D02*
X151181D01*
Y116142D02*
Y122047D01*
X140945Y116142D02*
Y122047D01*
X151181D01*
X140945Y116142D02*
X151181D01*
Y137795D02*
Y143701D01*
X140945Y137795D02*
Y143701D01*
X151181D01*
X140945Y137795D02*
X151181D01*
Y159449D02*
Y165354D01*
X140945Y159449D02*
Y165354D01*
X151181D01*
X140945Y159449D02*
X151181D01*
Y181102D02*
Y187008D01*
X140945Y181102D02*
Y187008D01*
X151181D01*
X140945Y181102D02*
X151181D01*
Y202756D02*
Y208661D01*
X140945Y202756D02*
Y208661D01*
X151181D01*
X140945Y202756D02*
X151181D01*
Y224410D02*
Y230315D01*
X140945Y224410D02*
Y230315D01*
X151181D01*
X140945Y224410D02*
X151181D01*
Y246063D02*
Y251969D01*
X140945Y246063D02*
Y251969D01*
X151181D01*
X140945Y246063D02*
X151181D01*
Y267717D02*
Y273622D01*
X140945Y267717D02*
Y273622D01*
X151181D01*
X140945Y267717D02*
X151181D01*
Y289370D02*
Y295276D01*
X140945Y289370D02*
Y295276D01*
X151181D01*
X140945Y289370D02*
X151181D01*
Y311024D02*
Y316929D01*
X140945Y311024D02*
Y316929D01*
X151181D01*
X140945Y311024D02*
X151181D01*
Y332677D02*
Y338583D01*
X140945Y332677D02*
Y338583D01*
X151181D01*
X140945Y332677D02*
X151181D01*
Y354331D02*
Y360236D01*
X140945Y354331D02*
Y360236D01*
X151181D01*
X140945Y354331D02*
X151181D01*
X129331Y24803D02*
X135236D01*
X129331Y35039D02*
X135236D01*
Y24803D02*
Y35039D01*
X129331Y24803D02*
Y35039D01*
Y46457D02*
X135236D01*
X129331Y56693D02*
X135236D01*
Y46457D02*
Y56693D01*
X129331Y46457D02*
Y56693D01*
Y89764D02*
X135236D01*
X129331Y100000D02*
X135236D01*
Y89764D02*
Y100000D01*
X129331Y89764D02*
Y100000D01*
Y111417D02*
X135236D01*
X129331Y121653D02*
X135236D01*
Y111417D02*
Y121653D01*
X129331Y111417D02*
Y121653D01*
Y133071D02*
X135236D01*
X129331Y143307D02*
X135236D01*
Y133071D02*
Y143307D01*
X129331Y133071D02*
Y143307D01*
Y154724D02*
X135236D01*
X129331Y164961D02*
X135236D01*
Y154724D02*
Y164961D01*
X129331Y154724D02*
Y164961D01*
Y176378D02*
X135236D01*
X129331Y186614D02*
X135236D01*
Y176378D02*
Y186614D01*
X129331Y176378D02*
Y186614D01*
Y198031D02*
X135236D01*
X129331Y208268D02*
X135236D01*
Y198031D02*
Y208268D01*
X129331Y198031D02*
Y208268D01*
Y219685D02*
X135236D01*
X129331Y229921D02*
X135236D01*
Y219685D02*
Y229921D01*
X129331Y219685D02*
Y229921D01*
Y241339D02*
X135236D01*
X129331Y251575D02*
X135236D01*
Y241339D02*
Y251575D01*
X129331Y241339D02*
Y251575D01*
Y262992D02*
X135236D01*
X129331Y273228D02*
X135236D01*
Y262992D02*
Y273228D01*
X129331Y262992D02*
Y273228D01*
Y284646D02*
X135236D01*
X129331Y294882D02*
X135236D01*
Y284646D02*
Y294882D01*
X129331Y284646D02*
Y294882D01*
Y306299D02*
X135236D01*
X129331Y316535D02*
X135236D01*
Y306299D02*
Y316535D01*
X129331Y306299D02*
Y316535D01*
Y349606D02*
X135236D01*
X129331Y359842D02*
X135236D01*
Y349606D02*
Y359842D01*
X129331Y349606D02*
Y359842D01*
Y327953D02*
X135236D01*
X129331Y338189D02*
X135236D01*
Y327953D02*
Y338189D01*
X129331Y327953D02*
Y338189D01*
Y68110D02*
X135236D01*
X129331Y78347D02*
X135236D01*
Y68110D02*
Y78347D01*
X129331Y68110D02*
Y78347D01*
X237992Y150000D02*
X243898D01*
X237992Y160236D02*
X243898D01*
Y150000D02*
Y160236D01*
X237992Y150000D02*
Y160236D01*
X240354Y83858D02*
X246260D01*
X240354Y73622D02*
X246260D01*
Y83858D01*
X240354Y73622D02*
Y83858D01*
X246654D02*
X252559D01*
X246654Y73622D02*
X252559D01*
Y83858D01*
X246654Y73622D02*
Y83858D01*
X246850Y73425D02*
X252362D01*
X246850Y62795D02*
X252362D01*
Y73425D01*
X246850Y62795D02*
Y73425D01*
X240553D02*
X246065D01*
X240553Y62795D02*
X246065D01*
Y73425D01*
X240553Y62795D02*
Y73425D01*
M02*
