G04*
G04 #@! TF.GenerationSoftware,Altium Limited,Altium Designer,18.1.11 (251)*
G04*
G04 Layer_Color=32896*
%FSLAX25Y25*%
%MOIN*%
G70*
G01*
G75*
%ADD10C,0.00984*%
%ADD12C,0.02362*%
%ADD13C,0.00787*%
%ADD14C,0.01000*%
%ADD15C,0.00591*%
D10*
X358169Y185827D02*
G03*
X358169Y185827I-492J0D01*
G01*
X283054Y104734D02*
G03*
X283054Y104734I-492J0D01*
G01*
X123818Y35827D02*
G03*
X123818Y35827I-492J0D01*
G01*
Y57480D02*
G03*
X123818Y57480I-492J0D01*
G01*
Y79134D02*
G03*
X123818Y79134I-492J0D01*
G01*
Y100787D02*
G03*
X123818Y100787I-492J0D01*
G01*
Y122441D02*
G03*
X123818Y122441I-492J0D01*
G01*
Y144095D02*
G03*
X123818Y144095I-492J0D01*
G01*
Y165748D02*
G03*
X123818Y165748I-492J0D01*
G01*
Y187402D02*
G03*
X123818Y187402I-492J0D01*
G01*
Y209055D02*
G03*
X123818Y209055I-492J0D01*
G01*
Y230709D02*
G03*
X123818Y230709I-492J0D01*
G01*
Y252362D02*
G03*
X123818Y252362I-492J0D01*
G01*
Y274016D02*
G03*
X123818Y274016I-492J0D01*
G01*
Y295669D02*
G03*
X123818Y295669I-492J0D01*
G01*
Y317323D02*
G03*
X123818Y317323I-492J0D01*
G01*
Y338976D02*
G03*
X123818Y338976I-492J0D01*
G01*
Y360630D02*
G03*
X123818Y360630I-492J0D01*
G01*
D12*
X292109Y110630D02*
G03*
X292109Y110630I-1181J0D01*
G01*
D13*
X361221Y187008D02*
X364764D01*
X361221Y198819D02*
X364764D01*
X361221Y187008D02*
Y198819D01*
X364764Y187008D02*
Y198819D01*
X286991Y106693D02*
Y126378D01*
X299589Y106693D02*
Y126378D01*
X286991Y106693D02*
X299589D01*
X286991Y126378D02*
X299589D01*
X360827Y206791D02*
X364370D01*
X360827Y212894D02*
X364370D01*
X360827Y223917D02*
X364370D01*
X360827Y217815D02*
X364370D01*
X238976Y255906D02*
X243307D01*
X238976Y265748D02*
X243307D01*
X115845Y22835D02*
Y25984D01*
Y22835D02*
X119782D01*
X115845Y31496D02*
Y34646D01*
X119782D01*
X115845Y44488D02*
Y47638D01*
Y44488D02*
X119782D01*
X115845Y53150D02*
Y56299D01*
X119782D01*
X115845Y66142D02*
Y69291D01*
Y66142D02*
X119782D01*
X115845Y74803D02*
Y77953D01*
X119782D01*
X115845Y87795D02*
Y90945D01*
Y87795D02*
X119782D01*
X115845Y96457D02*
Y99606D01*
X119782D01*
X115845Y109449D02*
Y112598D01*
Y109449D02*
X119782D01*
X115845Y118110D02*
Y121260D01*
X119782D01*
X115845Y131102D02*
Y134252D01*
Y131102D02*
X119782D01*
X115845Y139764D02*
Y142913D01*
X119782D01*
X115845Y152756D02*
Y155905D01*
Y152756D02*
X119782D01*
X115845Y161417D02*
Y164567D01*
X119782D01*
X115845Y174409D02*
Y177559D01*
Y174409D02*
X119782D01*
X115845Y183071D02*
Y186221D01*
X119782D01*
X115845Y196063D02*
Y199213D01*
Y196063D02*
X119782D01*
X115845Y204724D02*
Y207874D01*
X119782D01*
X115845Y217717D02*
Y220866D01*
Y217717D02*
X119782D01*
X115845Y226378D02*
Y229528D01*
X119782D01*
X115845Y239370D02*
Y242520D01*
Y239370D02*
X119782D01*
X115845Y248031D02*
Y251181D01*
X119782D01*
X115845Y261024D02*
Y264173D01*
Y261024D02*
X119782D01*
X115845Y269685D02*
Y272835D01*
X119782D01*
X115845Y282677D02*
Y285827D01*
Y282677D02*
X119782D01*
X115845Y291339D02*
Y294488D01*
X119782D01*
X115845Y304331D02*
Y307480D01*
Y304331D02*
X119782D01*
X115845Y312992D02*
Y316142D01*
X119782D01*
X115845Y325984D02*
Y329134D01*
Y325984D02*
X119782D01*
X115845Y334646D02*
Y337795D01*
X119782D01*
X115845Y347638D02*
Y350787D01*
Y347638D02*
X119782D01*
X115845Y356299D02*
Y359449D01*
X119782D01*
X39502Y122651D02*
X40158Y123306D01*
X41470D01*
X42126Y122651D01*
Y120027D01*
X41470Y119371D01*
X40158D01*
X39502Y120027D01*
X35566Y123306D02*
X38190D01*
Y119371D01*
X35566D01*
X38190Y121339D02*
X36878D01*
X34255Y123306D02*
Y119371D01*
X31631D01*
X30319Y123306D02*
Y119371D01*
X27695D01*
X26383Y122651D02*
X25727Y123306D01*
X24415D01*
X23759Y122651D01*
Y120027D01*
X24415Y119371D01*
X25727D01*
X26383Y120027D01*
Y122651D01*
X39502Y162651D02*
X40158Y163306D01*
X41470D01*
X42126Y162651D01*
Y160027D01*
X41470Y159371D01*
X40158D01*
X39502Y160027D01*
X35566Y163306D02*
X38190D01*
Y159371D01*
X35566D01*
X38190Y161339D02*
X36878D01*
X34255Y163306D02*
Y159371D01*
X31631D01*
X30319Y163306D02*
Y159371D01*
X27695D01*
X24415D02*
Y163306D01*
X26383Y161339D01*
X23759D01*
X39502Y202650D02*
X40158Y203306D01*
X41470D01*
X42126Y202650D01*
Y200027D01*
X41470Y199371D01*
X40158D01*
X39502Y200027D01*
X35566Y203306D02*
X38190D01*
Y199371D01*
X35566D01*
X38190Y201339D02*
X36878D01*
X34255Y203306D02*
Y199371D01*
X31631D01*
X30319Y203306D02*
Y199371D01*
X27695D01*
X26383Y202650D02*
X25727Y203306D01*
X24415D01*
X23759Y202650D01*
Y201994D01*
X24415Y201339D01*
X23759Y200683D01*
Y200027D01*
X24415Y199371D01*
X25727D01*
X26383Y200027D01*
Y200683D01*
X25727Y201339D01*
X26383Y201994D01*
Y202650D01*
X25727Y201339D02*
X24415D01*
X39502Y102650D02*
X40158Y103306D01*
X41470D01*
X42126Y102650D01*
Y100027D01*
X41470Y99371D01*
X40158D01*
X39502Y100027D01*
Y101339D01*
X40814D01*
X38190Y99371D02*
Y103306D01*
X35566Y99371D01*
Y103306D01*
X34255D02*
Y99371D01*
X32287D01*
X31631Y100027D01*
Y102650D01*
X32287Y103306D01*
X34255D01*
X39502Y152650D02*
X40158Y153306D01*
X41470D01*
X42126Y152650D01*
Y150027D01*
X41470Y149371D01*
X40158D01*
X39502Y150027D01*
X35566Y153306D02*
X38190D01*
Y149371D01*
X35566D01*
X38190Y151339D02*
X36878D01*
X34255Y153306D02*
Y149371D01*
X31631D01*
X30319Y153306D02*
Y149371D01*
X27695D01*
X26383Y152650D02*
X25727Y153306D01*
X24415D01*
X23759Y152650D01*
Y151995D01*
X24415Y151339D01*
X25071D01*
X24415D01*
X23759Y150683D01*
Y150027D01*
X24415Y149371D01*
X25727D01*
X26383Y150027D01*
X39502Y142650D02*
X40158Y143306D01*
X41470D01*
X42126Y142650D01*
Y140027D01*
X41470Y139371D01*
X40158D01*
X39502Y140027D01*
X35566Y143306D02*
X38190D01*
Y139371D01*
X35566D01*
X38190Y141339D02*
X36878D01*
X34255Y143306D02*
Y139371D01*
X31631D01*
X30319Y143306D02*
Y139371D01*
X27695D01*
X23759D02*
X26383D01*
X23759Y141995D01*
Y142650D01*
X24415Y143306D01*
X25727D01*
X26383Y142650D01*
X39502Y182650D02*
X40158Y183306D01*
X41470D01*
X42126Y182650D01*
Y180027D01*
X41470Y179371D01*
X40158D01*
X39502Y180027D01*
X35566Y183306D02*
X38190D01*
Y179371D01*
X35566D01*
X38190Y181339D02*
X36878D01*
X34255Y183306D02*
Y179371D01*
X31631D01*
X30319Y183306D02*
Y179371D01*
X27695D01*
X23759Y183306D02*
X25071Y182650D01*
X26383Y181339D01*
Y180027D01*
X25727Y179371D01*
X24415D01*
X23759Y180027D01*
Y180683D01*
X24415Y181339D01*
X26383D01*
X39502Y172651D02*
X40158Y173306D01*
X41470D01*
X42126Y172651D01*
Y170027D01*
X41470Y169371D01*
X40158D01*
X39502Y170027D01*
X35566Y173306D02*
X38190D01*
Y169371D01*
X35566D01*
X38190Y171339D02*
X36878D01*
X34255Y173306D02*
Y169371D01*
X31631D01*
X30319Y173306D02*
Y169371D01*
X27695D01*
X23759Y173306D02*
X26383D01*
Y171339D01*
X25071Y171994D01*
X24415D01*
X23759Y171339D01*
Y170027D01*
X24415Y169371D01*
X25727D01*
X26383Y170027D01*
X39502Y212650D02*
X40158Y213306D01*
X41470D01*
X42126Y212650D01*
Y210027D01*
X41470Y209371D01*
X40158D01*
X39502Y210027D01*
X35566Y213306D02*
X38190D01*
Y209371D01*
X35566D01*
X38190Y211339D02*
X36878D01*
X34255Y213306D02*
Y209371D01*
X31631D01*
X30319Y213306D02*
Y209371D01*
X27695D01*
X26383Y210027D02*
X25727Y209371D01*
X24415D01*
X23759Y210027D01*
Y212650D01*
X24415Y213306D01*
X25727D01*
X26383Y212650D01*
Y211995D01*
X25727Y211339D01*
X23759D01*
X39502Y232650D02*
X40158Y233306D01*
X41470D01*
X42126Y232650D01*
Y230027D01*
X41470Y229371D01*
X40158D01*
X39502Y230027D01*
X35566Y233306D02*
X38190D01*
Y229371D01*
X35566D01*
X38190Y231339D02*
X36878D01*
X34255Y233306D02*
Y229371D01*
X31631D01*
X30319Y233306D02*
Y229371D01*
X27695D01*
X26383D02*
X25071D01*
X25727D01*
Y233306D01*
X26383Y232650D01*
X23103Y229371D02*
X21791D01*
X22447D01*
Y233306D01*
X23103Y232650D01*
X39502Y132650D02*
X40158Y133306D01*
X41470D01*
X42126Y132650D01*
Y130027D01*
X41470Y129371D01*
X40158D01*
X39502Y130027D01*
X35566Y133306D02*
X38190D01*
Y129371D01*
X35566D01*
X38190Y131339D02*
X36878D01*
X34255Y133306D02*
Y129371D01*
X31631D01*
X30319Y133306D02*
Y129371D01*
X27695D01*
X26383D02*
X25071D01*
X25727D01*
Y133306D01*
X26383Y132650D01*
X39502Y192650D02*
X40158Y193306D01*
X41470D01*
X42126Y192650D01*
Y190027D01*
X41470Y189371D01*
X40158D01*
X39502Y190027D01*
X35566Y193306D02*
X38190D01*
Y189371D01*
X35566D01*
X38190Y191339D02*
X36878D01*
X34255Y193306D02*
Y189371D01*
X31631D01*
X30319Y193306D02*
Y189371D01*
X27695D01*
X26383Y193306D02*
X23759D01*
Y192650D01*
X26383Y190027D01*
Y189371D01*
X42126Y293962D02*
X39502D01*
X40814D01*
Y290027D01*
X37534D02*
X36222D01*
X35566Y290683D01*
Y291995D01*
X36222Y292651D01*
X37534D01*
X38190Y291995D01*
Y290683D01*
X37534Y290027D01*
X34255Y288715D02*
Y292651D01*
X32287D01*
X31631Y291995D01*
Y290683D01*
X32287Y290027D01*
X34255D01*
X39502Y242651D02*
X40158Y243306D01*
X41470D01*
X42126Y242651D01*
Y240027D01*
X41470Y239371D01*
X40158D01*
X39502Y240027D01*
X35566Y243306D02*
X38190D01*
Y239371D01*
X35566D01*
X38190Y241339D02*
X36878D01*
X34255Y243306D02*
Y239371D01*
X31631D01*
X30319Y243306D02*
Y239371D01*
X27695D01*
X26383D02*
X25071D01*
X25727D01*
Y243306D01*
X26383Y242651D01*
X20479Y239371D02*
X23103D01*
X20479Y241995D01*
Y242651D01*
X21135Y243306D01*
X22447D01*
X23103Y242651D01*
X39502Y282650D02*
X40158Y283306D01*
X41470D01*
X42126Y282650D01*
Y280027D01*
X41470Y279371D01*
X40158D01*
X39502Y280027D01*
X35566Y283306D02*
X38190D01*
Y279371D01*
X35566D01*
X38190Y281339D02*
X36878D01*
X34255Y283306D02*
Y279371D01*
X31631D01*
X30319Y283306D02*
Y279371D01*
X27695D01*
X26383D02*
X25071D01*
X25727D01*
Y283306D01*
X26383Y282650D01*
X20479Y283306D02*
X21791Y282650D01*
X23103Y281339D01*
Y280027D01*
X22447Y279371D01*
X21135D01*
X20479Y280027D01*
Y280683D01*
X21135Y281339D01*
X23103D01*
X42126Y113306D02*
Y109371D01*
X40158D01*
X39502Y110027D01*
Y110683D01*
X40158Y111339D01*
X42126D01*
X40158D01*
X39502Y111995D01*
Y112651D01*
X40158Y113306D01*
X42126D01*
X36222D02*
X37534D01*
X38190Y112651D01*
Y110027D01*
X37534Y109371D01*
X36222D01*
X35566Y110027D01*
Y112651D01*
X36222Y113306D01*
X34255D02*
X31631D01*
X32943D01*
Y109371D01*
X30319Y113306D02*
X27695D01*
X29007D01*
Y109371D01*
X24415Y113306D02*
X25727D01*
X26383Y112651D01*
Y110027D01*
X25727Y109371D01*
X24415D01*
X23759Y110027D01*
Y112651D01*
X24415Y113306D01*
X22447Y109371D02*
Y113306D01*
X21135Y111995D01*
X19824Y113306D01*
Y109371D01*
X39502Y222651D02*
X40158Y223306D01*
X41470D01*
X42126Y222651D01*
Y220027D01*
X41470Y219371D01*
X40158D01*
X39502Y220027D01*
X35566Y223306D02*
X38190D01*
Y219371D01*
X35566D01*
X38190Y221339D02*
X36878D01*
X34255Y223306D02*
Y219371D01*
X31631D01*
X30319Y223306D02*
Y219371D01*
X27695D01*
X26383D02*
X25071D01*
X25727D01*
Y223306D01*
X26383Y222651D01*
X23103D02*
X22447Y223306D01*
X21135D01*
X20479Y222651D01*
Y220027D01*
X21135Y219371D01*
X22447D01*
X23103Y220027D01*
Y222651D01*
X39502Y252650D02*
X40158Y253306D01*
X41470D01*
X42126Y252650D01*
Y250027D01*
X41470Y249371D01*
X40158D01*
X39502Y250027D01*
X35566Y253306D02*
X38190D01*
Y249371D01*
X35566D01*
X38190Y251339D02*
X36878D01*
X34255Y253306D02*
Y249371D01*
X31631D01*
X30319Y253306D02*
Y249371D01*
X27695D01*
X26383D02*
X25071D01*
X25727D01*
Y253306D01*
X26383Y252650D01*
X23103D02*
X22447Y253306D01*
X21135D01*
X20479Y252650D01*
Y251994D01*
X21135Y251339D01*
X21791D01*
X21135D01*
X20479Y250683D01*
Y250027D01*
X21135Y249371D01*
X22447D01*
X23103Y250027D01*
X39502Y272651D02*
X40158Y273306D01*
X41470D01*
X42126Y272651D01*
Y270027D01*
X41470Y269371D01*
X40158D01*
X39502Y270027D01*
X35566Y273306D02*
X38190D01*
Y269371D01*
X35566D01*
X38190Y271339D02*
X36878D01*
X34255Y273306D02*
Y269371D01*
X31631D01*
X30319Y273306D02*
Y269371D01*
X27695D01*
X26383D02*
X25071D01*
X25727D01*
Y273306D01*
X26383Y272651D01*
X20479Y273306D02*
X23103D01*
Y271339D01*
X21791Y271994D01*
X21135D01*
X20479Y271339D01*
Y270027D01*
X21135Y269371D01*
X22447D01*
X23103Y270027D01*
X39502Y262650D02*
X40158Y263306D01*
X41470D01*
X42126Y262650D01*
Y260027D01*
X41470Y259371D01*
X40158D01*
X39502Y260027D01*
X35566Y263306D02*
X38190D01*
Y259371D01*
X35566D01*
X38190Y261339D02*
X36878D01*
X34255Y263306D02*
Y259371D01*
X31631D01*
X30319Y263306D02*
Y259371D01*
X27695D01*
X26383D02*
X25071D01*
X25727D01*
Y263306D01*
X26383Y262650D01*
X21135Y259371D02*
Y263306D01*
X23103Y261339D01*
X20479D01*
X381496Y104723D02*
X378872D01*
X380184D01*
Y100787D01*
X377560Y104723D02*
X374937Y100787D01*
Y104723D02*
X377560Y100787D01*
X381496Y128345D02*
Y124409D01*
X380184Y125721D01*
X378872Y124409D01*
Y128345D01*
X377560Y124409D02*
Y127033D01*
X376248Y128345D01*
X374937Y127033D01*
Y124409D01*
Y126377D01*
X377560D01*
X373625Y128345D02*
Y124409D01*
Y125721D01*
X371001Y128345D01*
X372969Y126377D01*
X371001Y124409D01*
X367065Y128345D02*
X369689D01*
Y124409D01*
X367065D01*
X369689Y126377D02*
X368377D01*
X365753Y128345D02*
Y125065D01*
X365097Y124409D01*
X363785D01*
X363129Y125065D01*
Y128345D01*
X361817Y124409D02*
Y128345D01*
X359850D01*
X359193Y127689D01*
Y126377D01*
X359850Y125721D01*
X361817D01*
X378872Y98162D02*
X379528Y98818D01*
X380840D01*
X381496Y98162D01*
Y95538D01*
X380840Y94882D01*
X379528D01*
X378872Y95538D01*
Y96850D01*
X380184D01*
X377560Y94882D02*
Y98818D01*
X374937Y94882D01*
Y98818D01*
X373625D02*
Y94882D01*
X371657D01*
X371001Y95538D01*
Y98162D01*
X371657Y98818D01*
X373625D01*
X381496Y106693D02*
Y110629D01*
X379528D01*
X378872Y109973D01*
Y108661D01*
X379528Y108005D01*
X381496D01*
X380184D02*
X378872Y106693D01*
X377560Y110629D02*
X374937Y106693D01*
Y110629D02*
X377560Y106693D01*
X378872Y116534D02*
X381496D01*
Y114566D01*
X380184D01*
X381496D01*
Y112598D01*
X377560D02*
Y115222D01*
X376248Y116534D01*
X374937Y115222D01*
Y112598D01*
Y114566D01*
X377560D01*
X373625Y116534D02*
Y113254D01*
X372969Y112598D01*
X371657D01*
X371001Y113254D01*
Y116534D01*
X369689D02*
Y112598D01*
X367065D01*
X365753Y116534D02*
X363129D01*
X364441D01*
Y112598D01*
X361817Y111943D02*
X359193D01*
X357882Y112598D02*
Y116534D01*
X355258Y112598D01*
Y116534D01*
X381496Y122440D02*
Y119816D01*
X380184Y118504D01*
X378872Y119816D01*
Y122440D01*
X377560D02*
X376248D01*
X376904D01*
Y118504D01*
X377560D01*
X376248D01*
X372313Y122440D02*
X373625D01*
X374281Y121784D01*
Y119160D01*
X373625Y118504D01*
X372313D01*
X371657Y119160D01*
Y121784D01*
X372313Y122440D01*
X279921Y20734D02*
Y18110D01*
X277953D01*
Y19422D01*
Y18110D01*
X275985D01*
Y22046D02*
X278609D01*
X279921Y23358D01*
X278609Y24670D01*
X275985D01*
X277953D01*
Y22046D01*
X279921Y25982D02*
X276641D01*
X275985Y26638D01*
Y27950D01*
X276641Y28605D01*
X279921D01*
Y29917D02*
X275985D01*
Y32541D01*
X279921Y33853D02*
Y36477D01*
Y35165D01*
X275985D01*
X279921Y37789D02*
X275985D01*
Y40413D01*
X277953Y41725D02*
Y44348D01*
X279265Y43037D02*
X276641D01*
X290157Y20734D02*
Y18110D01*
X288189D01*
Y19422D01*
Y18110D01*
X286221D01*
Y22046D02*
X288845D01*
X290157Y23358D01*
X288845Y24670D01*
X286221D01*
X288189D01*
Y22046D01*
X290157Y25982D02*
X286877D01*
X286221Y26638D01*
Y27950D01*
X286877Y28605D01*
X290157D01*
Y29917D02*
X286221D01*
Y32541D01*
X290157Y33853D02*
Y36477D01*
Y35165D01*
X286221D01*
X290157Y37789D02*
X286221D01*
Y40413D01*
X288189Y41725D02*
Y44348D01*
X299343Y20734D02*
X299999Y20078D01*
Y18766D01*
X299343Y18110D01*
X296720D01*
X296064Y18766D01*
Y20078D01*
X296720Y20734D01*
X299999Y24014D02*
Y22702D01*
X299343Y22046D01*
X296720D01*
X296064Y22702D01*
Y24014D01*
X296720Y24670D01*
X299343D01*
X299999Y24014D01*
X296064Y25982D02*
X299999D01*
X298687Y27294D01*
X299999Y28605D01*
X296064D01*
Y29917D02*
X299999D01*
X298687Y31229D01*
X299999Y32541D01*
X296064D01*
X299999Y33853D02*
X296064D01*
Y36477D01*
X298031Y37789D02*
Y40413D01*
X299343Y39101D02*
X296720D01*
X309580Y20734D02*
X310236Y20078D01*
Y18766D01*
X309580Y18110D01*
X306956D01*
X306300Y18766D01*
Y20078D01*
X306956Y20734D01*
X310236Y24014D02*
Y22702D01*
X309580Y22046D01*
X306956D01*
X306300Y22702D01*
Y24014D01*
X306956Y24670D01*
X309580D01*
X310236Y24014D01*
X306300Y25982D02*
X310236D01*
X308924Y27294D01*
X310236Y28605D01*
X306300D01*
Y29917D02*
X310236D01*
X308924Y31229D01*
X310236Y32541D01*
X306300D01*
X310236Y33853D02*
X306300D01*
Y36477D01*
X308268Y37789D02*
Y40413D01*
X279921Y351049D02*
Y348425D01*
X277953D01*
Y349737D01*
Y348425D01*
X275985D01*
Y352361D02*
X278609D01*
X279921Y353673D01*
X278609Y354985D01*
X275985D01*
X277953D01*
Y352361D01*
X279921Y356297D02*
X276641D01*
X275985Y356953D01*
Y358265D01*
X276641Y358921D01*
X279921D01*
Y360232D02*
X275985D01*
Y362856D01*
X279921Y364168D02*
Y366792D01*
Y365480D01*
X275985D01*
X279921Y368104D02*
X275985D01*
X277953D01*
Y370728D01*
X279921D01*
X275985D01*
X277953Y372040D02*
Y374663D01*
X279265Y373352D02*
X276641D01*
X290157Y351049D02*
Y348425D01*
X288189D01*
Y349737D01*
Y348425D01*
X286221D01*
Y352361D02*
X288845D01*
X290157Y353673D01*
X288845Y354985D01*
X286221D01*
X288189D01*
Y352361D01*
X290157Y356297D02*
X286877D01*
X286221Y356953D01*
Y358265D01*
X286877Y358921D01*
X290157D01*
Y360232D02*
X286221D01*
Y362856D01*
X290157Y364168D02*
Y366792D01*
Y365480D01*
X286221D01*
X290157Y368104D02*
X286221D01*
X288189D01*
Y370728D01*
X290157D01*
X286221D01*
X288189Y372040D02*
Y374663D01*
X299343Y351049D02*
X299999Y350393D01*
Y349081D01*
X299343Y348425D01*
X296720D01*
X296064Y349081D01*
Y350393D01*
X296720Y351049D01*
X299999Y354329D02*
Y353017D01*
X299343Y352361D01*
X296720D01*
X296064Y353017D01*
Y354329D01*
X296720Y354985D01*
X299343D01*
X299999Y354329D01*
X296064Y356297D02*
X299999D01*
X298687Y357609D01*
X299999Y358921D01*
X296064D01*
Y360232D02*
X299999D01*
X298687Y361544D01*
X299999Y362856D01*
X296064D01*
X299999Y364168D02*
X296064D01*
X298031D01*
Y366792D01*
X299999D01*
X296064D01*
X298031Y368104D02*
Y370728D01*
X299343Y369416D02*
X296720D01*
X309580Y351049D02*
X310236Y350393D01*
Y349081D01*
X309580Y348425D01*
X306956D01*
X306300Y349081D01*
Y350393D01*
X306956Y351049D01*
X310236Y354329D02*
Y353017D01*
X309580Y352361D01*
X306956D01*
X306300Y353017D01*
Y354329D01*
X306956Y354985D01*
X309580D01*
X310236Y354329D01*
X306300Y356297D02*
X310236D01*
X308924Y357609D01*
X310236Y358921D01*
X306300D01*
Y360232D02*
X310236D01*
X308924Y361544D01*
X310236Y362856D01*
X306300D01*
X310236Y364168D02*
X306300D01*
X308268D01*
Y366792D01*
X310236D01*
X306300D01*
X308268Y368104D02*
Y370728D01*
X359185Y328608D02*
X359841Y327952D01*
Y326640D01*
X359185Y325984D01*
X356561D01*
X355906Y326640D01*
Y327952D01*
X356561Y328608D01*
X357873D01*
Y327296D01*
X355906Y329920D02*
X359841D01*
X355906Y332544D01*
X359841D01*
Y333856D02*
X355906D01*
Y335824D01*
X356561Y336480D01*
X359185D01*
X359841Y335824D01*
Y333856D01*
X348424Y325984D02*
Y328608D01*
Y327296D01*
X344488D01*
X348424Y329920D02*
X344488D01*
X346456D01*
Y332544D01*
X348424D01*
X344488D01*
X348424Y336480D02*
Y333856D01*
X344488D01*
Y336480D01*
X346456Y333856D02*
Y335168D01*
X344488Y337791D02*
X348424D01*
Y339759D01*
X347768Y340415D01*
X346456D01*
X345800Y339759D01*
Y337791D01*
Y339103D02*
X344488Y340415D01*
Y341727D02*
X348424D01*
X347112Y343039D01*
X348424Y344351D01*
X344488D01*
X348424Y345663D02*
Y346975D01*
Y346319D01*
X344488D01*
Y345663D01*
Y346975D01*
X347768Y351567D02*
X348424Y350911D01*
Y349599D01*
X347768Y348943D01*
X347112D01*
X346456Y349599D01*
Y350911D01*
X345800Y351567D01*
X345144D01*
X344488Y350911D01*
Y349599D01*
X345144Y348943D01*
X348424Y352878D02*
Y355502D01*
Y354190D01*
X344488D01*
X348424Y358782D02*
Y357470D01*
X347768Y356814D01*
X345144D01*
X344488Y357470D01*
Y358782D01*
X345144Y359438D01*
X347768D01*
X348424Y358782D01*
X344488Y360750D02*
X348424D01*
Y362718D01*
X347768Y363374D01*
X346456D01*
X345800Y362718D01*
Y360750D01*
Y362062D02*
X344488Y363374D01*
X238583Y134646D02*
X242518D01*
Y136614D01*
X241863Y137269D01*
X240551D01*
X239895Y136614D01*
Y134646D01*
Y135958D02*
X238583Y137269D01*
X241863Y138581D02*
X242518Y139237D01*
Y140549D01*
X241863Y141205D01*
X241207D01*
X240551Y140549D01*
Y139893D01*
Y140549D01*
X239895Y141205D01*
X239239D01*
X238583Y140549D01*
Y139237D01*
X239239Y138581D01*
X241863Y142517D02*
X242518Y143173D01*
Y144485D01*
X241863Y145141D01*
X239239D01*
X238583Y144485D01*
Y143173D01*
X239239Y142517D01*
X241863D01*
X141339Y60236D02*
Y64172D01*
X139371D01*
X138715Y63516D01*
Y62204D01*
X139371Y61548D01*
X141339D01*
X140027D02*
X138715Y60236D01*
X134779Y64172D02*
X137403D01*
Y62204D01*
X136091Y62860D01*
X135435D01*
X134779Y62204D01*
Y60892D01*
X135435Y60236D01*
X136747D01*
X137403Y60892D01*
X133467Y59580D02*
X130843D01*
X129531Y63516D02*
X128875Y64172D01*
X127564D01*
X126908Y63516D01*
Y62860D01*
X127564Y62204D01*
X128219D01*
X127564D01*
X126908Y61548D01*
Y60892D01*
X127564Y60236D01*
X128875D01*
X129531Y60892D01*
X141732Y318701D02*
Y322637D01*
X139764D01*
X139109Y321981D01*
Y320669D01*
X139764Y320013D01*
X141732D01*
X140420D02*
X139109Y318701D01*
X135173Y322637D02*
X137796D01*
Y320669D01*
X136485Y321325D01*
X135829D01*
X135173Y320669D01*
Y319357D01*
X135829Y318701D01*
X137141D01*
X137796Y319357D01*
X133861Y318045D02*
X131237D01*
X129925Y318701D02*
X128613D01*
X129269D01*
Y322637D01*
X129925Y321981D01*
X124021Y322637D02*
X126645D01*
Y320669D01*
X125333Y321325D01*
X124677D01*
X124021Y320669D01*
Y319357D01*
X124677Y318701D01*
X125989D01*
X126645Y319357D01*
X141339Y341732D02*
Y345668D01*
X139371D01*
X138715Y345012D01*
Y343700D01*
X139371Y343044D01*
X141339D01*
X140027D02*
X138715Y341732D01*
X134779Y345668D02*
X137403D01*
Y343700D01*
X136091Y344356D01*
X135435D01*
X134779Y343700D01*
Y342388D01*
X135435Y341732D01*
X136747D01*
X137403Y342388D01*
X133467Y341076D02*
X130843D01*
X129531Y341732D02*
X128219D01*
X128875D01*
Y345668D01*
X129531Y345012D01*
X123628Y345668D02*
X124940Y345012D01*
X126252Y343700D01*
Y342388D01*
X125596Y341732D01*
X124284D01*
X123628Y342388D01*
Y343044D01*
X124284Y343700D01*
X126252D01*
X141732Y298031D02*
Y301967D01*
X139764D01*
X139109Y301311D01*
Y299999D01*
X139764Y299343D01*
X141732D01*
X140420D02*
X139109Y298031D01*
X135173Y301967D02*
X137797D01*
Y299999D01*
X136485Y300655D01*
X135829D01*
X135173Y299999D01*
Y298687D01*
X135829Y298031D01*
X137141D01*
X137797Y298687D01*
X133861Y297375D02*
X131237D01*
X129925Y298031D02*
X128613D01*
X129269D01*
Y301967D01*
X129925Y301311D01*
X124677Y298031D02*
Y301967D01*
X126645Y299999D01*
X124021D01*
X141732Y275984D02*
Y279920D01*
X139764D01*
X139109Y279264D01*
Y277952D01*
X139764Y277296D01*
X141732D01*
X140420D02*
X139109Y275984D01*
X135173Y279920D02*
X137797D01*
Y277952D01*
X136485Y278608D01*
X135829D01*
X135173Y277952D01*
Y276640D01*
X135829Y275984D01*
X137141D01*
X137797Y276640D01*
X133861Y275328D02*
X131237D01*
X129925Y275984D02*
X128613D01*
X129269D01*
Y279920D01*
X129925Y279264D01*
X126645D02*
X125989Y279920D01*
X124677D01*
X124021Y279264D01*
Y278608D01*
X124677Y277952D01*
X125333D01*
X124677D01*
X124021Y277296D01*
Y276640D01*
X124677Y275984D01*
X125989D01*
X126645Y276640D01*
X141732Y254724D02*
Y258660D01*
X139764D01*
X139108Y258004D01*
Y256692D01*
X139764Y256036D01*
X141732D01*
X140420D02*
X139108Y254724D01*
X135172Y258660D02*
X137796D01*
Y256692D01*
X136484Y257348D01*
X135828D01*
X135172Y256692D01*
Y255380D01*
X135828Y254724D01*
X137140D01*
X137796Y255380D01*
X133861Y254068D02*
X131237D01*
X129925Y254724D02*
X128613D01*
X129269D01*
Y258660D01*
X129925Y258004D01*
X124021Y254724D02*
X126645D01*
X124021Y257348D01*
Y258004D01*
X124677Y258660D01*
X125989D01*
X126645Y258004D01*
X141076Y233071D02*
Y237007D01*
X139108D01*
X138452Y236351D01*
Y235039D01*
X139108Y234383D01*
X141076D01*
X139764D02*
X138452Y233071D01*
X134517Y237007D02*
X137140D01*
Y235039D01*
X135828Y235695D01*
X135172D01*
X134517Y235039D01*
Y233727D01*
X135172Y233071D01*
X136484D01*
X137140Y233727D01*
X133205Y232415D02*
X130581D01*
X129269Y233071D02*
X127957D01*
X128613D01*
Y237007D01*
X129269Y236351D01*
X125989Y233071D02*
X124677D01*
X125333D01*
Y237007D01*
X125989Y236351D01*
X141732Y211417D02*
Y215353D01*
X139764D01*
X139108Y214697D01*
Y213385D01*
X139764Y212729D01*
X141732D01*
X140420D02*
X139108Y211417D01*
X135172Y215353D02*
X137796D01*
Y213385D01*
X136484Y214041D01*
X135828D01*
X135172Y213385D01*
Y212073D01*
X135828Y211417D01*
X137140D01*
X137796Y212073D01*
X133861Y210761D02*
X131237D01*
X129925Y211417D02*
X128613D01*
X129269D01*
Y215353D01*
X129925Y214697D01*
X126645D02*
X125989Y215353D01*
X124677D01*
X124021Y214697D01*
Y212073D01*
X124677Y211417D01*
X125989D01*
X126645Y212073D01*
Y214697D01*
X141339Y190157D02*
Y194093D01*
X139371D01*
X138715Y193437D01*
Y192125D01*
X139371Y191469D01*
X141339D01*
X140027D02*
X138715Y190157D01*
X134779Y194093D02*
X137403D01*
Y192125D01*
X136091Y192781D01*
X135435D01*
X134779Y192125D01*
Y190813D01*
X135435Y190157D01*
X136747D01*
X137403Y190813D01*
X133467Y189502D02*
X130843D01*
X129531Y190813D02*
X128875Y190157D01*
X127564D01*
X126908Y190813D01*
Y193437D01*
X127564Y194093D01*
X128875D01*
X129531Y193437D01*
Y192781D01*
X128875Y192125D01*
X126908D01*
X141339Y168110D02*
Y172046D01*
X139371D01*
X138715Y171390D01*
Y170078D01*
X139371Y169422D01*
X141339D01*
X140027D02*
X138715Y168110D01*
X134779Y172046D02*
X137403D01*
Y170078D01*
X136091Y170734D01*
X135435D01*
X134779Y170078D01*
Y168766D01*
X135435Y168110D01*
X136747D01*
X137403Y168766D01*
X133467Y167454D02*
X130843D01*
X129531Y171390D02*
X128875Y172046D01*
X127564D01*
X126908Y171390D01*
Y170734D01*
X127564Y170078D01*
X126908Y169422D01*
Y168766D01*
X127564Y168110D01*
X128875D01*
X129531Y168766D01*
Y169422D01*
X128875Y170078D01*
X129531Y170734D01*
Y171390D01*
X128875Y170078D02*
X127564D01*
X141339Y146457D02*
Y150392D01*
X139371D01*
X138715Y149736D01*
Y148425D01*
X139371Y147769D01*
X141339D01*
X140027D02*
X138715Y146457D01*
X134779Y150392D02*
X137403D01*
Y148425D01*
X136091Y149081D01*
X135435D01*
X134779Y148425D01*
Y147113D01*
X135435Y146457D01*
X136747D01*
X137403Y147113D01*
X133467Y145801D02*
X130843D01*
X129531Y150392D02*
X126908D01*
Y149736D01*
X129531Y147113D01*
Y146457D01*
X141339Y124803D02*
Y128739D01*
X139371D01*
X138715Y128083D01*
Y126771D01*
X139371Y126115D01*
X141339D01*
X140027D02*
X138715Y124803D01*
X134779Y128739D02*
X137403D01*
Y126771D01*
X136091Y127427D01*
X135435D01*
X134779Y126771D01*
Y125459D01*
X135435Y124803D01*
X136747D01*
X137403Y125459D01*
X133467Y124147D02*
X130843D01*
X126908Y128739D02*
X128219Y128083D01*
X129531Y126771D01*
Y125459D01*
X128875Y124803D01*
X127564D01*
X126908Y125459D01*
Y126115D01*
X127564Y126771D01*
X129531D01*
X141339Y103543D02*
Y107479D01*
X139371D01*
X138715Y106823D01*
Y105511D01*
X139371Y104855D01*
X141339D01*
X140027D02*
X138715Y103543D01*
X134779Y107479D02*
X137403D01*
Y105511D01*
X136091Y106167D01*
X135435D01*
X134779Y105511D01*
Y104199D01*
X135435Y103543D01*
X136747D01*
X137403Y104199D01*
X133467Y102887D02*
X130843D01*
X126908Y107479D02*
X129531D01*
Y105511D01*
X128219Y106167D01*
X127564D01*
X126908Y105511D01*
Y104199D01*
X127564Y103543D01*
X128875D01*
X129531Y104199D01*
X141339Y81496D02*
Y85432D01*
X139371D01*
X138715Y84776D01*
Y83464D01*
X139371Y82808D01*
X141339D01*
X140027D02*
X138715Y81496D01*
X134779Y85432D02*
X137403D01*
Y83464D01*
X136091Y84120D01*
X135435D01*
X134779Y83464D01*
Y82152D01*
X135435Y81496D01*
X136747D01*
X137403Y82152D01*
X133467Y80840D02*
X130843D01*
X127564Y81496D02*
Y85432D01*
X129531Y83464D01*
X126908D01*
X141339Y38189D02*
Y42125D01*
X139371D01*
X138715Y41469D01*
Y40157D01*
X139371Y39501D01*
X141339D01*
X140027D02*
X138715Y38189D01*
X134779Y42125D02*
X137403D01*
Y40157D01*
X136091Y40813D01*
X135435D01*
X134779Y40157D01*
Y38845D01*
X135435Y38189D01*
X136747D01*
X137403Y38845D01*
X133467Y37533D02*
X130843D01*
X126908Y38189D02*
X129531D01*
X126908Y40813D01*
Y41469D01*
X127564Y42125D01*
X128875D01*
X129531Y41469D01*
X140683Y16535D02*
Y20471D01*
X138715D01*
X138059Y19815D01*
Y18503D01*
X138715Y17847D01*
X140683D01*
X139371D02*
X138059Y16535D01*
X134123Y20471D02*
X136747D01*
Y18503D01*
X135435Y19159D01*
X134779D01*
X134123Y18503D01*
Y17191D01*
X134779Y16535D01*
X136091D01*
X136747Y17191D01*
X132811Y15879D02*
X130187D01*
X128875Y16535D02*
X127564D01*
X128219D01*
Y20471D01*
X128875Y19815D01*
X173622Y355512D02*
Y359448D01*
X171654D01*
X170998Y358792D01*
Y357480D01*
X171654Y356824D01*
X173622D01*
X172310D02*
X170998Y355512D01*
X167718D02*
Y359448D01*
X169686Y357480D01*
X167062D01*
X165751Y354856D02*
X163127D01*
X161815Y355512D02*
X160503D01*
X161159D01*
Y359448D01*
X161815Y358792D01*
X155911Y359448D02*
X157223Y358792D01*
X158535Y357480D01*
Y356168D01*
X157879Y355512D01*
X156567D01*
X155911Y356168D01*
Y356824D01*
X156567Y357480D01*
X158535D01*
X173622Y333858D02*
Y337794D01*
X171654D01*
X170998Y337138D01*
Y335826D01*
X171654Y335170D01*
X173622D01*
X172310D02*
X170998Y333858D01*
X167718D02*
Y337794D01*
X169686Y335826D01*
X167062D01*
X165751Y333202D02*
X163127D01*
X161815Y333858D02*
X160503D01*
X161159D01*
Y337794D01*
X161815Y337138D01*
X155911Y337794D02*
X158535D01*
Y335826D01*
X157223Y336482D01*
X156567D01*
X155911Y335826D01*
Y334514D01*
X156567Y333858D01*
X157879D01*
X158535Y334514D01*
X173622Y312205D02*
Y316141D01*
X171654D01*
X170998Y315484D01*
Y314173D01*
X171654Y313517D01*
X173622D01*
X172310D02*
X170998Y312205D01*
X167718D02*
Y316141D01*
X169686Y314173D01*
X167062D01*
X165751Y311549D02*
X163127D01*
X161815Y312205D02*
X160503D01*
X161159D01*
Y316141D01*
X161815Y315484D01*
X156567Y312205D02*
Y316141D01*
X158535Y314173D01*
X155911D01*
X173622Y290551D02*
Y294487D01*
X171654D01*
X170998Y293831D01*
Y292519D01*
X171654Y291863D01*
X173622D01*
X172310D02*
X170998Y290551D01*
X167718D02*
Y294487D01*
X169686Y292519D01*
X167062D01*
X165751Y289895D02*
X163127D01*
X161815Y290551D02*
X160503D01*
X161159D01*
Y294487D01*
X161815Y293831D01*
X158535D02*
X157879Y294487D01*
X156567D01*
X155911Y293831D01*
Y293175D01*
X156567Y292519D01*
X157223D01*
X156567D01*
X155911Y291863D01*
Y291207D01*
X156567Y290551D01*
X157879D01*
X158535Y291207D01*
X173622Y268898D02*
Y272833D01*
X171654D01*
X170998Y272177D01*
Y270866D01*
X171654Y270210D01*
X173622D01*
X172310D02*
X170998Y268898D01*
X167718D02*
Y272833D01*
X169686Y270866D01*
X167062D01*
X165751Y268242D02*
X163127D01*
X161815Y268898D02*
X160503D01*
X161159D01*
Y272833D01*
X161815Y272177D01*
X155911Y268898D02*
X158535D01*
X155911Y271521D01*
Y272177D01*
X156567Y272833D01*
X157879D01*
X158535Y272177D01*
X173622Y247244D02*
Y251180D01*
X171654D01*
X170998Y250524D01*
Y249212D01*
X171654Y248556D01*
X173622D01*
X172310D02*
X170998Y247244D01*
X167718D02*
Y251180D01*
X169686Y249212D01*
X167062D01*
X165751Y246588D02*
X163127D01*
X161815Y247244D02*
X160503D01*
X161159D01*
Y251180D01*
X161815Y250524D01*
X158535Y247244D02*
X157223D01*
X157879D01*
Y251180D01*
X158535Y250524D01*
X173622Y225590D02*
Y229526D01*
X171654D01*
X170998Y228870D01*
Y227558D01*
X171654Y226903D01*
X173622D01*
X172310D02*
X170998Y225590D01*
X167718D02*
Y229526D01*
X169686Y227558D01*
X167062D01*
X165751Y224935D02*
X163127D01*
X161815Y225590D02*
X160503D01*
X161159D01*
Y229526D01*
X161815Y228870D01*
X158535D02*
X157879Y229526D01*
X156567D01*
X155911Y228870D01*
Y226247D01*
X156567Y225590D01*
X157879D01*
X158535Y226247D01*
Y228870D01*
X173622Y203937D02*
Y207873D01*
X171654D01*
X170998Y207217D01*
Y205905D01*
X171654Y205249D01*
X173622D01*
X172310D02*
X170998Y203937D01*
X167718D02*
Y207873D01*
X169686Y205905D01*
X167062D01*
X165751Y203281D02*
X163127D01*
X161815Y204593D02*
X161159Y203937D01*
X159847D01*
X159191Y204593D01*
Y207217D01*
X159847Y207873D01*
X161159D01*
X161815Y207217D01*
Y206561D01*
X161159Y205905D01*
X159191D01*
X173622Y182283D02*
Y186219D01*
X171654D01*
X170998Y185563D01*
Y184251D01*
X171654Y183595D01*
X173622D01*
X172310D02*
X170998Y182283D01*
X167718D02*
Y186219D01*
X169686Y184251D01*
X167062D01*
X165751Y181628D02*
X163127D01*
X161815Y185563D02*
X161159Y186219D01*
X159847D01*
X159191Y185563D01*
Y184907D01*
X159847Y184251D01*
X159191Y183595D01*
Y182939D01*
X159847Y182283D01*
X161159D01*
X161815Y182939D01*
Y183595D01*
X161159Y184251D01*
X161815Y184907D01*
Y185563D01*
X161159Y184251D02*
X159847D01*
X173622Y161024D02*
Y164959D01*
X171654D01*
X170998Y164303D01*
Y162991D01*
X171654Y162336D01*
X173622D01*
X172310D02*
X170998Y161024D01*
X167718D02*
Y164959D01*
X169686Y162991D01*
X167062D01*
X165751Y160368D02*
X163127D01*
X161815Y164959D02*
X159191D01*
Y164303D01*
X161815Y161680D01*
Y161024D01*
X173622Y139370D02*
Y143306D01*
X171654D01*
X170998Y142650D01*
Y141338D01*
X171654Y140682D01*
X173622D01*
X172310D02*
X170998Y139370D01*
X167718D02*
Y143306D01*
X169686Y141338D01*
X167062D01*
X165751Y138714D02*
X163127D01*
X159191Y143306D02*
X160503Y142650D01*
X161815Y141338D01*
Y140026D01*
X161159Y139370D01*
X159847D01*
X159191Y140026D01*
Y140682D01*
X159847Y141338D01*
X161815D01*
X173622Y117785D02*
Y121721D01*
X171654D01*
X170998Y121065D01*
Y119753D01*
X171654Y119097D01*
X173622D01*
X172310D02*
X170998Y117785D01*
X167718D02*
Y121721D01*
X169686Y119753D01*
X167062D01*
X165751Y117130D02*
X163127D01*
X159191Y121721D02*
X161815D01*
Y119753D01*
X160503Y120409D01*
X159847D01*
X159191Y119753D01*
Y118441D01*
X159847Y117785D01*
X161159D01*
X161815Y118441D01*
X173622Y96063D02*
Y99999D01*
X171654D01*
X170998Y99343D01*
Y98031D01*
X171654Y97375D01*
X173622D01*
X172310D02*
X170998Y96063D01*
X167718D02*
Y99999D01*
X169686Y98031D01*
X167062D01*
X165751Y95407D02*
X163127D01*
X159847Y96063D02*
Y99999D01*
X161815Y98031D01*
X159191D01*
X173622Y74410D02*
Y78345D01*
X171654D01*
X170998Y77689D01*
Y76377D01*
X171654Y75721D01*
X173622D01*
X172310D02*
X170998Y74410D01*
X167718D02*
Y78345D01*
X169686Y76377D01*
X167062D01*
X165751Y73753D02*
X163127D01*
X161815Y77689D02*
X161159Y78345D01*
X159847D01*
X159191Y77689D01*
Y77033D01*
X159847Y76377D01*
X160503D01*
X159847D01*
X159191Y75721D01*
Y75065D01*
X159847Y74410D01*
X161159D01*
X161815Y75065D01*
X173622Y52756D02*
Y56692D01*
X171654D01*
X170998Y56036D01*
Y54724D01*
X171654Y54068D01*
X173622D01*
X172310D02*
X170998Y52756D01*
X167718D02*
Y56692D01*
X169686Y54724D01*
X167062D01*
X165751Y52100D02*
X163127D01*
X159191Y52756D02*
X161815D01*
X159191Y55380D01*
Y56036D01*
X159847Y56692D01*
X161159D01*
X161815Y56036D01*
X173622Y31102D02*
Y35038D01*
X171654D01*
X170998Y34382D01*
Y33070D01*
X171654Y32414D01*
X173622D01*
X172310D02*
X170998Y31102D01*
X167718D02*
Y35038D01*
X169686Y33070D01*
X167062D01*
X165751Y30446D02*
X163127D01*
X161815Y31102D02*
X160503D01*
X161159D01*
Y35038D01*
X161815Y34382D01*
X173622Y347638D02*
Y351573D01*
X171654D01*
X170998Y350918D01*
Y349606D01*
X171654Y348950D01*
X173622D01*
X172310D02*
X170998Y347638D01*
X169686D02*
X168374D01*
X169030D01*
Y351573D01*
X169686Y350918D01*
X166407Y346982D02*
X163783D01*
X162471Y347638D02*
X161159D01*
X161815D01*
Y351573D01*
X162471Y350918D01*
X156567Y351573D02*
X157879Y350918D01*
X159191Y349606D01*
Y348294D01*
X158535Y347638D01*
X157223D01*
X156567Y348294D01*
Y348950D01*
X157223Y349606D01*
X159191D01*
X173622Y325984D02*
Y329920D01*
X171654D01*
X170998Y329264D01*
Y327952D01*
X171654Y327296D01*
X173622D01*
X172310D02*
X170998Y325984D01*
X169686D02*
X168374D01*
X169030D01*
Y329920D01*
X169686Y329264D01*
X166407Y325328D02*
X163783D01*
X162471Y325984D02*
X161159D01*
X161815D01*
Y329920D01*
X162471Y329264D01*
X156567Y329920D02*
X159191D01*
Y327952D01*
X157879Y328608D01*
X157223D01*
X156567Y327952D01*
Y326640D01*
X157223Y325984D01*
X158535D01*
X159191Y326640D01*
X173622Y304331D02*
Y308266D01*
X171654D01*
X170998Y307611D01*
Y306299D01*
X171654Y305643D01*
X173622D01*
X172310D02*
X170998Y304331D01*
X169686D02*
X168374D01*
X169030D01*
Y308266D01*
X169686Y307611D01*
X166407Y303675D02*
X163783D01*
X162471Y304331D02*
X161159D01*
X161815D01*
Y308266D01*
X162471Y307611D01*
X157223Y304331D02*
Y308266D01*
X159191Y306299D01*
X156567D01*
X173622Y282677D02*
Y286613D01*
X171654D01*
X170998Y285957D01*
Y284645D01*
X171654Y283989D01*
X173622D01*
X172310D02*
X170998Y282677D01*
X169686D02*
X168374D01*
X169030D01*
Y286613D01*
X169686Y285957D01*
X166407Y282021D02*
X163783D01*
X162471Y282677D02*
X161159D01*
X161815D01*
Y286613D01*
X162471Y285957D01*
X159191D02*
X158535Y286613D01*
X157223D01*
X156567Y285957D01*
Y285301D01*
X157223Y284645D01*
X157879D01*
X157223D01*
X156567Y283989D01*
Y283333D01*
X157223Y282677D01*
X158535D01*
X159191Y283333D01*
X173622Y261024D02*
Y264959D01*
X171654D01*
X170998Y264303D01*
Y262991D01*
X171654Y262336D01*
X173622D01*
X172310D02*
X170998Y261024D01*
X169686D02*
X168374D01*
X169030D01*
Y264959D01*
X169686Y264303D01*
X166407Y260368D02*
X163783D01*
X162471Y261024D02*
X161159D01*
X161815D01*
Y264959D01*
X162471Y264303D01*
X156567Y261024D02*
X159191D01*
X156567Y263648D01*
Y264303D01*
X157223Y264959D01*
X158535D01*
X159191Y264303D01*
X173622Y239370D02*
Y243306D01*
X171654D01*
X170998Y242650D01*
Y241338D01*
X171654Y240682D01*
X173622D01*
X172310D02*
X170998Y239370D01*
X169686D02*
X168374D01*
X169030D01*
Y243306D01*
X169686Y242650D01*
X166407Y238714D02*
X163783D01*
X162471Y239370D02*
X161159D01*
X161815D01*
Y243306D01*
X162471Y242650D01*
X159191Y239370D02*
X157879D01*
X158535D01*
Y243306D01*
X159191Y242650D01*
X173622Y217717D02*
Y221652D01*
X171654D01*
X170998Y220996D01*
Y219684D01*
X171654Y219028D01*
X173622D01*
X172310D02*
X170998Y217717D01*
X169686D02*
X168374D01*
X169030D01*
Y221652D01*
X169686Y220996D01*
X166407Y217061D02*
X163783D01*
X162471Y217717D02*
X161159D01*
X161815D01*
Y221652D01*
X162471Y220996D01*
X159191D02*
X158535Y221652D01*
X157223D01*
X156567Y220996D01*
Y218373D01*
X157223Y217717D01*
X158535D01*
X159191Y218373D01*
Y220996D01*
X173622Y196063D02*
Y199999D01*
X171654D01*
X170998Y199343D01*
Y198031D01*
X171654Y197375D01*
X173622D01*
X172310D02*
X170998Y196063D01*
X169686D02*
X168374D01*
X169030D01*
Y199999D01*
X169686Y199343D01*
X166407Y195407D02*
X163783D01*
X162471Y196719D02*
X161815Y196063D01*
X160503D01*
X159847Y196719D01*
Y199343D01*
X160503Y199999D01*
X161815D01*
X162471Y199343D01*
Y198687D01*
X161815Y198031D01*
X159847D01*
X173622Y174409D02*
Y178345D01*
X171654D01*
X170998Y177689D01*
Y176377D01*
X171654Y175721D01*
X173622D01*
X172310D02*
X170998Y174409D01*
X169686D02*
X168374D01*
X169030D01*
Y178345D01*
X169686Y177689D01*
X166407Y173753D02*
X163783D01*
X162471Y177689D02*
X161815Y178345D01*
X160503D01*
X159847Y177689D01*
Y177033D01*
X160503Y176377D01*
X159847Y175721D01*
Y175065D01*
X160503Y174409D01*
X161815D01*
X162471Y175065D01*
Y175721D01*
X161815Y176377D01*
X162471Y177033D01*
Y177689D01*
X161815Y176377D02*
X160503D01*
X173622Y152756D02*
Y156692D01*
X171654D01*
X170998Y156036D01*
Y154724D01*
X171654Y154068D01*
X173622D01*
X172310D02*
X170998Y152756D01*
X169686D02*
X168374D01*
X169030D01*
Y156692D01*
X169686Y156036D01*
X166407Y152100D02*
X163783D01*
X162471Y156692D02*
X159847D01*
Y156036D01*
X162471Y153412D01*
Y152756D01*
X173622Y131102D02*
Y135038D01*
X171654D01*
X170998Y134382D01*
Y133070D01*
X171654Y132414D01*
X173622D01*
X172310D02*
X170998Y131102D01*
X169686D02*
X168374D01*
X169030D01*
Y135038D01*
X169686Y134382D01*
X166407Y130446D02*
X163783D01*
X159847Y135038D02*
X161159Y134382D01*
X162471Y133070D01*
Y131758D01*
X161815Y131102D01*
X160503D01*
X159847Y131758D01*
Y132414D01*
X160503Y133070D01*
X162471D01*
X173622Y109449D02*
Y113385D01*
X171654D01*
X170998Y112729D01*
Y111417D01*
X171654Y110761D01*
X173622D01*
X172310D02*
X170998Y109449D01*
X169686D02*
X168374D01*
X169030D01*
Y113385D01*
X169686Y112729D01*
X166407Y108793D02*
X163783D01*
X159847Y113385D02*
X162471D01*
Y111417D01*
X161159Y112073D01*
X160503D01*
X159847Y111417D01*
Y110105D01*
X160503Y109449D01*
X161815D01*
X162471Y110105D01*
X173622Y87795D02*
Y91731D01*
X171654D01*
X170998Y91075D01*
Y89763D01*
X171654Y89107D01*
X173622D01*
X172310D02*
X170998Y87795D01*
X169686D02*
X168374D01*
X169030D01*
Y91731D01*
X169686Y91075D01*
X166407Y87139D02*
X163783D01*
X160503Y87795D02*
Y91731D01*
X162471Y89763D01*
X159847D01*
X173622Y66142D02*
Y70078D01*
X171654D01*
X170998Y69421D01*
Y68110D01*
X171654Y67454D01*
X173622D01*
X172310D02*
X170998Y66142D01*
X169686D02*
X168374D01*
X169030D01*
Y70078D01*
X169686Y69421D01*
X166407Y65486D02*
X163783D01*
X162471Y69421D02*
X161815Y70078D01*
X160503D01*
X159847Y69421D01*
Y68765D01*
X160503Y68110D01*
X161159D01*
X160503D01*
X159847Y67454D01*
Y66798D01*
X160503Y66142D01*
X161815D01*
X162471Y66798D01*
X173622Y44488D02*
Y48424D01*
X171654D01*
X170998Y47768D01*
Y46456D01*
X171654Y45800D01*
X173622D01*
X172310D02*
X170998Y44488D01*
X169686D02*
X168374D01*
X169030D01*
Y48424D01*
X169686Y47768D01*
X166407Y43832D02*
X163783D01*
X159847Y44488D02*
X162471D01*
X159847Y47112D01*
Y47768D01*
X160503Y48424D01*
X161815D01*
X162471Y47768D01*
X173622Y22835D02*
Y26770D01*
X171654D01*
X170998Y26114D01*
Y24803D01*
X171654Y24147D01*
X173622D01*
X172310D02*
X170998Y22835D01*
X169686D02*
X168374D01*
X169030D01*
Y26770D01*
X169686Y26114D01*
X166407Y22179D02*
X163783D01*
X162471Y22835D02*
X161159D01*
X161815D01*
Y26770D01*
X162471Y26114D01*
X105478Y348096D02*
X108101D01*
X108757Y347440D01*
Y346128D01*
X108101Y345472D01*
X105478D01*
X104822Y346128D01*
Y347440D01*
X106133Y346784D02*
X104822Y348096D01*
Y347440D02*
X105478Y348096D01*
X104822Y349408D02*
Y350720D01*
Y350064D01*
X108757D01*
X108101Y349408D01*
X104166Y352688D02*
Y355312D01*
X104822Y356624D02*
Y357936D01*
Y357280D01*
X108757D01*
X108101Y356624D01*
X108757Y362527D02*
X108101Y361215D01*
X106790Y359904D01*
X105478D01*
X104822Y360559D01*
Y361871D01*
X105478Y362527D01*
X106133D01*
X106790Y361871D01*
Y359904D01*
X105478Y326640D02*
X108101D01*
X108757Y325984D01*
Y324672D01*
X108101Y324016D01*
X105478D01*
X104822Y324672D01*
Y325984D01*
X106133Y325328D02*
X104822Y326640D01*
Y325984D02*
X105478Y326640D01*
X104822Y327952D02*
Y329263D01*
Y328607D01*
X108757D01*
X108101Y327952D01*
X104166Y331231D02*
Y333855D01*
X104822Y335167D02*
Y336479D01*
Y335823D01*
X108757D01*
X108101Y335167D01*
X108757Y341071D02*
Y338447D01*
X106790D01*
X107445Y339759D01*
Y340415D01*
X106790Y341071D01*
X105478D01*
X104822Y340415D01*
Y339103D01*
X105478Y338447D01*
X105478Y304789D02*
X108101D01*
X108757Y304133D01*
Y302821D01*
X108101Y302165D01*
X105478D01*
X104822Y302821D01*
Y304133D01*
X106133Y303477D02*
X104822Y304789D01*
Y304133D02*
X105478Y304789D01*
X104822Y306101D02*
Y307413D01*
Y306757D01*
X108757D01*
X108101Y306101D01*
X104166Y309381D02*
Y312005D01*
X104822Y313317D02*
Y314629D01*
Y313973D01*
X108757D01*
X108101Y313317D01*
X104822Y318564D02*
X108757D01*
X106790Y316596D01*
Y319220D01*
X105478Y283136D02*
X108101D01*
X108757Y282480D01*
Y281168D01*
X108101Y280512D01*
X105478D01*
X104822Y281168D01*
Y282480D01*
X106133Y281824D02*
X104822Y283136D01*
Y282480D02*
X105478Y283136D01*
X104822Y284448D02*
Y285759D01*
Y285104D01*
X108757D01*
X108101Y284448D01*
X104166Y287727D02*
Y290351D01*
X104822Y291663D02*
Y292975D01*
Y292319D01*
X108757D01*
X108101Y291663D01*
Y294943D02*
X108757Y295599D01*
Y296911D01*
X108101Y297567D01*
X107445D01*
X106790Y296911D01*
Y296255D01*
Y296911D01*
X106133Y297567D01*
X105478D01*
X104822Y296911D01*
Y295599D01*
X105478Y294943D01*
Y261482D02*
X108101D01*
X108757Y260826D01*
Y259514D01*
X108101Y258858D01*
X105478D01*
X104822Y259514D01*
Y260826D01*
X106133Y260170D02*
X104822Y261482D01*
Y260826D02*
X105478Y261482D01*
X104822Y262794D02*
Y264106D01*
Y263450D01*
X108757D01*
X108101Y262794D01*
X104166Y266074D02*
Y268698D01*
X104822Y270009D02*
Y271321D01*
Y270666D01*
X108757D01*
X108101Y270009D01*
X104822Y275913D02*
Y273289D01*
X107445Y275913D01*
X108101D01*
X108757Y275257D01*
Y273945D01*
X108101Y273289D01*
X105478Y239828D02*
X108101D01*
X108757Y239173D01*
Y237861D01*
X108101Y237205D01*
X105478D01*
X104822Y237861D01*
Y239173D01*
X106133Y238517D02*
X104822Y239828D01*
Y239173D02*
X105478Y239828D01*
X104822Y241141D02*
Y242452D01*
Y241796D01*
X108757D01*
X108101Y241141D01*
X104166Y244420D02*
Y247044D01*
X104822Y248356D02*
Y249668D01*
Y249012D01*
X108757D01*
X108101Y248356D01*
X104822Y251636D02*
Y252948D01*
Y252292D01*
X108757D01*
X108101Y251636D01*
X105478Y218175D02*
X108101D01*
X108757Y217519D01*
Y216207D01*
X108101Y215551D01*
X105478D01*
X104822Y216207D01*
Y217519D01*
X106133Y216863D02*
X104822Y218175D01*
Y217519D02*
X105478Y218175D01*
X104822Y219487D02*
Y220799D01*
Y220143D01*
X108757D01*
X108101Y219487D01*
X104166Y222767D02*
Y225391D01*
X104822Y226702D02*
Y228014D01*
Y227358D01*
X108757D01*
X108101Y226702D01*
Y229982D02*
X108757Y230638D01*
Y231950D01*
X108101Y232606D01*
X105478D01*
X104822Y231950D01*
Y230638D01*
X105478Y229982D01*
X108101D01*
X105478Y196915D02*
X108101D01*
X108757Y196259D01*
Y194947D01*
X108101Y194291D01*
X105478D01*
X104822Y194947D01*
Y196259D01*
X106133Y195603D02*
X104822Y196915D01*
Y196259D02*
X105478Y196915D01*
X104822Y198227D02*
Y199539D01*
Y198883D01*
X108757D01*
X108101Y198227D01*
X104166Y201507D02*
Y204131D01*
X105478Y205443D02*
X104822Y206099D01*
Y207411D01*
X105478Y208066D01*
X108101D01*
X108757Y207411D01*
Y206099D01*
X108101Y205443D01*
X107445D01*
X106790Y206099D01*
Y208066D01*
X105478Y174868D02*
X108101D01*
X108757Y174212D01*
Y172900D01*
X108101Y172244D01*
X105478D01*
X104822Y172900D01*
Y174212D01*
X106133Y173556D02*
X104822Y174868D01*
Y174212D02*
X105478Y174868D01*
X104822Y176180D02*
Y177492D01*
Y176836D01*
X108757D01*
X108101Y176180D01*
X104166Y179460D02*
Y182083D01*
X108101Y183395D02*
X108757Y184051D01*
Y185363D01*
X108101Y186019D01*
X107445D01*
X106790Y185363D01*
X106133Y186019D01*
X105478D01*
X104822Y185363D01*
Y184051D01*
X105478Y183395D01*
X106133D01*
X106790Y184051D01*
X107445Y183395D01*
X108101D01*
X106790Y184051D02*
Y185363D01*
X105478Y153608D02*
X108101D01*
X108757Y152952D01*
Y151640D01*
X108101Y150984D01*
X105478D01*
X104822Y151640D01*
Y152952D01*
X106133Y152296D02*
X104822Y153608D01*
Y152952D02*
X105478Y153608D01*
X104822Y154920D02*
Y156232D01*
Y155576D01*
X108757D01*
X108101Y154920D01*
X104166Y158200D02*
Y160824D01*
X108757Y162136D02*
Y164759D01*
X108101D01*
X105478Y162136D01*
X104822D01*
X105478Y131561D02*
X108101D01*
X108757Y130905D01*
Y129593D01*
X108101Y128937D01*
X105478D01*
X104822Y129593D01*
Y130905D01*
X106133Y130249D02*
X104822Y131561D01*
Y130905D02*
X105478Y131561D01*
X104822Y132873D02*
Y134185D01*
Y133529D01*
X108757D01*
X108101Y132873D01*
X104166Y136153D02*
Y138776D01*
X108757Y142712D02*
X108101Y141400D01*
X106790Y140088D01*
X105478D01*
X104822Y140744D01*
Y142056D01*
X105478Y142712D01*
X106133D01*
X106790Y142056D01*
Y140088D01*
X105478Y109907D02*
X108101D01*
X108757Y109251D01*
Y107939D01*
X108101Y107283D01*
X105478D01*
X104822Y107939D01*
Y109251D01*
X106133Y108595D02*
X104822Y109907D01*
Y109251D02*
X105478Y109907D01*
X104822Y111219D02*
Y112531D01*
Y111875D01*
X108757D01*
X108101Y111219D01*
X104166Y114499D02*
Y117123D01*
X108757Y121058D02*
Y118435D01*
X106790D01*
X107445Y119747D01*
Y120403D01*
X106790Y121058D01*
X105478D01*
X104822Y120403D01*
Y119091D01*
X105478Y118435D01*
Y88254D02*
X108101D01*
X108757Y87598D01*
Y86286D01*
X108101Y85630D01*
X105478D01*
X104822Y86286D01*
Y87598D01*
X106133Y86942D02*
X104822Y88254D01*
Y87598D02*
X105478Y88254D01*
X104822Y89566D02*
Y90878D01*
Y90222D01*
X108757D01*
X108101Y89566D01*
X104166Y92845D02*
Y95469D01*
X104822Y98749D02*
X108757D01*
X106790Y96781D01*
Y99405D01*
X105478Y66600D02*
X108101D01*
X108757Y65944D01*
Y64632D01*
X108101Y63976D01*
X105478D01*
X104822Y64632D01*
Y65944D01*
X106133Y65288D02*
X104822Y66600D01*
Y65944D02*
X105478Y66600D01*
X104822Y67912D02*
Y69224D01*
Y68568D01*
X108757D01*
X108101Y67912D01*
X104166Y71192D02*
Y73816D01*
X108101Y75128D02*
X108757Y75784D01*
Y77096D01*
X108101Y77751D01*
X107445D01*
X106790Y77096D01*
Y76439D01*
Y77096D01*
X106133Y77751D01*
X105478D01*
X104822Y77096D01*
Y75784D01*
X105478Y75128D01*
X105478Y44947D02*
X108101D01*
X108757Y44291D01*
Y42979D01*
X108101Y42323D01*
X105478D01*
X104822Y42979D01*
Y44291D01*
X106133Y43635D02*
X104822Y44947D01*
Y44291D02*
X105478Y44947D01*
X104822Y46259D02*
Y47570D01*
Y46914D01*
X108757D01*
X108101Y46259D01*
X104166Y49538D02*
Y52162D01*
X104822Y56098D02*
Y53474D01*
X107445Y56098D01*
X108101D01*
X108757Y55442D01*
Y54130D01*
X108101Y53474D01*
X105478Y23490D02*
X108101D01*
X108757Y22834D01*
Y21522D01*
X108101Y20866D01*
X105478D01*
X104822Y21522D01*
Y22834D01*
X106133Y22178D02*
X104822Y23490D01*
Y22834D02*
X105478Y23490D01*
X104822Y24802D02*
Y26114D01*
Y25458D01*
X108757D01*
X108101Y24802D01*
X104166Y28082D02*
Y30705D01*
X104822Y32017D02*
Y33329D01*
Y32673D01*
X108757D01*
X108101Y32017D01*
X212335Y237663D02*
X212991Y237007D01*
Y235695D01*
X212335Y235039D01*
X209711D01*
X209055Y235695D01*
Y237007D01*
X209711Y237663D01*
X209055Y240943D02*
X212991D01*
X211023Y238975D01*
Y241599D01*
X241471Y252492D02*
X242127Y253148D01*
X243439D01*
X244094Y252492D01*
Y249869D01*
X243439Y249213D01*
X242127D01*
X241471Y249869D01*
X237535Y253148D02*
X238847Y252492D01*
X240159Y251181D01*
Y249869D01*
X239503Y249213D01*
X238191D01*
X237535Y249869D01*
Y250524D01*
X238191Y251181D01*
X240159D01*
X237140Y281233D02*
X237796Y281889D01*
X239108D01*
X239764Y281233D01*
Y278609D01*
X239108Y277953D01*
X237796D01*
X237140Y278609D01*
X235828Y281889D02*
X233204D01*
Y281233D01*
X235828Y278609D01*
Y277953D01*
X275132Y199933D02*
X275788Y200589D01*
X277100D01*
X277756Y199933D01*
Y197310D01*
X277100Y196653D01*
X275788D01*
X275132Y197310D01*
X273820Y199933D02*
X273164Y200589D01*
X271852D01*
X271196Y199933D01*
Y199277D01*
X271852Y198621D01*
X271196Y197966D01*
Y197310D01*
X271852Y196653D01*
X273164D01*
X273820Y197310D01*
Y197966D01*
X273164Y198621D01*
X273820Y199277D01*
Y199933D01*
X273164Y198621D02*
X271852D01*
X268242Y169815D02*
X268898Y170471D01*
X270210D01*
X270866Y169815D01*
Y167191D01*
X270210Y166535D01*
X268898D01*
X268242Y167191D01*
X266930D02*
X266274Y166535D01*
X264963D01*
X264307Y167191D01*
Y169815D01*
X264963Y170471D01*
X266274D01*
X266930Y169815D01*
Y169159D01*
X266274Y168503D01*
X264307D01*
X271392Y161941D02*
X272048Y162597D01*
X273360D01*
X274016Y161941D01*
Y159317D01*
X273360Y158661D01*
X272048D01*
X271392Y159317D01*
X270080Y158661D02*
X268768D01*
X269424D01*
Y162597D01*
X270080Y161941D01*
X266800D02*
X266144Y162597D01*
X264832D01*
X264176Y161941D01*
Y159317D01*
X264832Y158661D01*
X266144D01*
X266800Y159317D01*
Y161941D01*
X382912Y218898D02*
Y222833D01*
X380944D01*
X380289Y222177D01*
Y220866D01*
X380944Y220210D01*
X382912D01*
X381600D02*
X380289Y218898D01*
X378977D02*
X377665D01*
X378321D01*
Y222833D01*
X378977Y222177D01*
X375697D02*
X375041Y222833D01*
X373729D01*
X373073Y222177D01*
Y219554D01*
X373729Y218898D01*
X375041D01*
X375697Y219554D01*
Y222177D01*
X271260Y150787D02*
Y154723D01*
X269292D01*
X268636Y154067D01*
Y152755D01*
X269292Y152099D01*
X271260D01*
X269948D02*
X268636Y150787D01*
X267324D02*
X266012D01*
X266668D01*
Y154723D01*
X267324Y154067D01*
X264044Y150787D02*
X262732D01*
X263388D01*
Y154723D01*
X264044Y154067D01*
X254724Y179921D02*
Y183857D01*
X252757D01*
X252101Y183201D01*
Y181889D01*
X252757Y181233D01*
X254724D01*
X253413D02*
X252101Y179921D01*
X248165D02*
X250789D01*
X248165Y182545D01*
Y183201D01*
X248821Y183857D01*
X250133D01*
X250789Y183201D01*
X246853D02*
X246197Y183857D01*
X244885D01*
X244229Y183201D01*
Y180577D01*
X244885Y179921D01*
X246197D01*
X246853Y180577D01*
Y183201D01*
X241339Y179921D02*
Y183857D01*
X239371D01*
X238715Y183201D01*
Y181889D01*
X239371Y181233D01*
X241339D01*
X240027D02*
X238715Y179921D01*
X234779D02*
X237403D01*
X234779Y182545D01*
Y183201D01*
X235435Y183857D01*
X236747D01*
X237403Y183201D01*
X233467Y179921D02*
X232155D01*
X232811D01*
Y183857D01*
X233467Y183201D01*
X337008Y322835D02*
Y326770D01*
X335040D01*
X334384Y326114D01*
Y324802D01*
X335040Y324147D01*
X337008D01*
X335696D02*
X334384Y322835D01*
X330448D02*
X333072D01*
X330448Y325458D01*
Y326114D01*
X331104Y326770D01*
X332416D01*
X333072Y326114D01*
X326513Y322835D02*
X329136D01*
X326513Y325458D01*
Y326114D01*
X327168Y326770D01*
X328480D01*
X329136Y326114D01*
X337008Y311024D02*
Y314959D01*
X335040D01*
X334384Y314303D01*
Y312991D01*
X335040Y312335D01*
X337008D01*
X335696D02*
X334384Y311024D01*
X330448D02*
X333072D01*
X330448Y313647D01*
Y314303D01*
X331104Y314959D01*
X332416D01*
X333072Y314303D01*
X329136D02*
X328480Y314959D01*
X327168D01*
X326513Y314303D01*
Y313647D01*
X327168Y312991D01*
X327824D01*
X327168D01*
X326513Y312335D01*
Y311680D01*
X327168Y311024D01*
X328480D01*
X329136Y311680D01*
X337041Y299016D02*
Y302952D01*
X335073D01*
X334417Y302295D01*
Y300984D01*
X335073Y300328D01*
X337041D01*
X335729D02*
X334417Y299016D01*
X330481D02*
X333105D01*
X330481Y301640D01*
Y302295D01*
X331137Y302952D01*
X332449D01*
X333105Y302295D01*
X327201Y299016D02*
Y302952D01*
X329169Y300984D01*
X326545D01*
X337008Y287402D02*
Y291337D01*
X335040D01*
X334384Y290681D01*
Y289369D01*
X335040Y288714D01*
X337008D01*
X335696D02*
X334384Y287402D01*
X330448D02*
X333072D01*
X330448Y290025D01*
Y290681D01*
X331104Y291337D01*
X332416D01*
X333072Y290681D01*
X326513Y291337D02*
X329136D01*
Y289369D01*
X327824Y290025D01*
X327168D01*
X326513Y289369D01*
Y288057D01*
X327168Y287402D01*
X328480D01*
X329136Y288057D01*
X337041Y275590D02*
Y279526D01*
X335073D01*
X334417Y278870D01*
Y277558D01*
X335073Y276902D01*
X337041D01*
X335729D02*
X334417Y275590D01*
X330481D02*
X333105D01*
X330481Y278214D01*
Y278870D01*
X331137Y279526D01*
X332449D01*
X333105Y278870D01*
X326545Y279526D02*
X327857Y278870D01*
X329169Y277558D01*
Y276247D01*
X328513Y275590D01*
X327201D01*
X326545Y276247D01*
Y276902D01*
X327201Y277558D01*
X329169D01*
X337008Y263386D02*
Y267322D01*
X335040D01*
X334384Y266666D01*
Y265354D01*
X335040Y264698D01*
X337008D01*
X335696D02*
X334384Y263386D01*
X330448D02*
X333072D01*
X330448Y266010D01*
Y266666D01*
X331104Y267322D01*
X332416D01*
X333072Y266666D01*
X329136Y267322D02*
X326513D01*
Y266666D01*
X329136Y264042D01*
Y263386D01*
X337008Y251969D02*
Y255904D01*
X335040D01*
X334384Y255248D01*
Y253936D01*
X335040Y253280D01*
X337008D01*
X335696D02*
X334384Y251969D01*
X330448D02*
X333072D01*
X330448Y254592D01*
Y255248D01*
X331104Y255904D01*
X332416D01*
X333072Y255248D01*
X329136D02*
X328480Y255904D01*
X327168D01*
X326513Y255248D01*
Y254592D01*
X327168Y253936D01*
X326513Y253280D01*
Y252624D01*
X327168Y251969D01*
X328480D01*
X329136Y252624D01*
Y253280D01*
X328480Y253936D01*
X329136Y254592D01*
Y255248D01*
X328480Y253936D02*
X327168D01*
X337008Y239764D02*
Y243700D01*
X335040D01*
X334384Y243044D01*
Y241732D01*
X335040Y241076D01*
X337008D01*
X335696D02*
X334384Y239764D01*
X330448D02*
X333072D01*
X330448Y242388D01*
Y243044D01*
X331104Y243700D01*
X332416D01*
X333072Y243044D01*
X329136Y240420D02*
X328480Y239764D01*
X327168D01*
X326513Y240420D01*
Y243044D01*
X327168Y243700D01*
X328480D01*
X329136Y243044D01*
Y242388D01*
X328480Y241732D01*
X326513D01*
X382912Y207874D02*
Y211810D01*
X380944D01*
X380289Y211154D01*
Y209842D01*
X380944Y209186D01*
X382912D01*
X381600D02*
X380289Y207874D01*
X378977Y211154D02*
X378321Y211810D01*
X377009D01*
X376353Y211154D01*
Y210498D01*
X377009Y209842D01*
X377665D01*
X377009D01*
X376353Y209186D01*
Y208530D01*
X377009Y207874D01*
X378321D01*
X378977Y208530D01*
X375041Y207874D02*
X373729D01*
X374385D01*
Y211810D01*
X375041Y211154D01*
X385827Y189370D02*
X389762D01*
Y191338D01*
X389107Y191994D01*
X387795D01*
X387139Y191338D01*
Y189370D01*
Y190682D02*
X385827Y191994D01*
X389107Y193306D02*
X389762Y193962D01*
Y195274D01*
X389107Y195930D01*
X388451D01*
X387795Y195274D01*
Y194618D01*
Y195274D01*
X387139Y195930D01*
X386483D01*
X385827Y195274D01*
Y193962D01*
X386483Y193306D01*
X385827Y199865D02*
Y197242D01*
X388451Y199865D01*
X389107D01*
X389762Y199209D01*
Y197898D01*
X389107Y197242D01*
X266142Y104331D02*
X270077D01*
Y106299D01*
X269422Y106955D01*
X268110D01*
X267454Y106299D01*
Y104331D01*
Y105643D02*
X266142Y106955D01*
X269422Y108266D02*
X270077Y108922D01*
Y110234D01*
X269422Y110890D01*
X268765D01*
X268110Y110234D01*
Y109578D01*
Y110234D01*
X267454Y110890D01*
X266798D01*
X266142Y110234D01*
Y108922D01*
X266798Y108266D01*
X269422Y112202D02*
X270077Y112858D01*
Y114170D01*
X269422Y114826D01*
X268765D01*
X268110Y114170D01*
Y113514D01*
Y114170D01*
X267454Y114826D01*
X266798D01*
X266142Y114170D01*
Y112858D01*
X266798Y112202D01*
X313779Y189370D02*
X317715D01*
Y191338D01*
X317059Y191994D01*
X315747D01*
X315091Y191338D01*
Y189370D01*
Y190682D02*
X313779Y191994D01*
X317059Y193306D02*
X317715Y193962D01*
Y195274D01*
X317059Y195930D01*
X316403D01*
X315747Y195274D01*
Y194618D01*
Y195274D01*
X315091Y195930D01*
X314436D01*
X313779Y195274D01*
Y193962D01*
X314436Y193306D01*
X313779Y199209D02*
X317715D01*
X315747Y197242D01*
Y199865D01*
X319291Y189370D02*
X323227D01*
Y191338D01*
X322571Y191994D01*
X321259D01*
X320603Y191338D01*
Y189370D01*
Y190682D02*
X319291Y191994D01*
X322571Y193306D02*
X323227Y193962D01*
Y195274D01*
X322571Y195930D01*
X321915D01*
X321259Y195274D01*
Y194618D01*
Y195274D01*
X320603Y195930D01*
X319947D01*
X319291Y195274D01*
Y193962D01*
X319947Y193306D01*
X323227Y199865D02*
Y197242D01*
X321259D01*
X321915Y198554D01*
Y199209D01*
X321259Y199865D01*
X319947D01*
X319291Y199209D01*
Y197898D01*
X319947Y197242D01*
X365748Y184251D02*
Y180971D01*
X365092Y180315D01*
X363780D01*
X363124Y180971D01*
Y184251D01*
X359189Y180315D02*
X361812D01*
X359189Y182939D01*
Y183595D01*
X359844Y184251D01*
X361156D01*
X361812Y183595D01*
D14*
X393701Y72047D02*
Y176772D01*
X293307Y72047D02*
X393701D01*
X293307D02*
Y144882D01*
X346063D01*
X369291Y168110D01*
Y176772D01*
X393701D01*
X342126Y323622D02*
X362992D01*
Y231496D02*
Y323622D01*
X342126Y231496D02*
X362992D01*
X342126D02*
Y323622D01*
X351969Y231496D02*
Y323622D01*
X335827Y68990D02*
Y62992D01*
Y65991D01*
X331828D01*
Y68990D01*
Y62992D01*
X329829Y68990D02*
Y64991D01*
X327829Y62992D01*
X325830Y64991D01*
Y68990D01*
X310174Y81376D02*
X311174Y82376D01*
X313174D01*
X314173Y81376D01*
Y77378D01*
X313174Y76378D01*
X311174D01*
X310174Y77378D01*
Y79377D01*
X312174D01*
X308175Y82376D02*
Y76378D01*
X304176D01*
X302177Y82376D02*
Y78377D01*
X300178Y76378D01*
X298178Y78377D01*
Y82376D01*
D15*
X350873Y167463D02*
X352729Y169318D01*
X354120Y167927D01*
X352729Y167463D01*
X352265Y166999D01*
Y166072D01*
X353193Y165144D01*
X354120D01*
X355048Y166072D01*
Y166999D01*
X349946Y166535D02*
X351801Y164680D01*
Y162825D01*
X349946D01*
X348091Y164680D01*
X348554Y162361D02*
X346699Y160506D01*
X344380Y160969D02*
X347163Y158186D01*
X345771Y159578D01*
X343916Y157723D01*
X342525Y159114D01*
X345307Y156331D01*
X341597Y158186D02*
X343452Y156331D01*
Y154476D01*
X341597D01*
X339742Y156331D01*
X371740Y167463D02*
X373595Y169318D01*
X374987Y167927D01*
X373595Y167463D01*
X373131Y166999D01*
Y166072D01*
X374059Y165144D01*
X374987D01*
X375914Y166072D01*
Y166999D01*
X370812Y166535D02*
X372667Y164680D01*
Y162825D01*
X370812D01*
X368957Y164680D01*
X369421Y162361D02*
X367565Y160506D01*
X365246Y160969D02*
X368029Y158186D01*
X366174Y156331D01*
X362463Y158186D02*
X364318Y156331D01*
Y154476D01*
X362463D01*
X360608Y156331D01*
X289370Y133070D02*
Y129790D01*
X288714Y129134D01*
X287402D01*
X286746Y129790D01*
Y133070D01*
X283467Y129134D02*
Y133070D01*
X285434Y131102D01*
X282810D01*
M02*
