G04*
G04 #@! TF.GenerationSoftware,Altium Limited,Altium Designer,18.1.11 (251)*
G04*
G04 Layer_Color=65535*
%FSLAX25Y25*%
%MOIN*%
G70*
G01*
G75*
%ADD10C,0.00984*%
%ADD11C,0.00394*%
%ADD12C,0.02362*%
%ADD13C,0.01000*%
%ADD14C,0.00787*%
%ADD15C,0.00600*%
%ADD16C,0.00591*%
G36*
X311810Y206363D02*
X311963D01*
X312138Y206341D01*
X312357Y206319D01*
X312575Y206275D01*
X313100Y206210D01*
X313669Y206078D01*
X314281Y205925D01*
X314894Y205707D01*
X314740Y205269D01*
X314719D01*
X314675Y205291D01*
X314587Y205335D01*
X314456Y205357D01*
X314325Y205422D01*
X314150Y205466D01*
X313953Y205532D01*
X313734Y205575D01*
X313253Y205707D01*
X312685Y205816D01*
X312094Y205882D01*
X311482Y205925D01*
X310870D01*
X310673Y205903D01*
X310454Y205882D01*
X309973Y205838D01*
X309426Y205772D01*
X308857Y205663D01*
X308267Y205510D01*
X308245D01*
X308201Y205488D01*
X308114Y205466D01*
X308004Y205422D01*
X307873Y205379D01*
X307698Y205313D01*
X307327Y205160D01*
X306867Y204963D01*
X306386Y204722D01*
X305883Y204438D01*
X305358Y204110D01*
X305336D01*
X305293Y204066D01*
X305227Y204023D01*
X305118Y203935D01*
X305008Y203848D01*
X304877Y203738D01*
X304549Y203454D01*
X304177Y203126D01*
X303784Y202710D01*
X303390Y202251D01*
X302996Y201748D01*
Y201726D01*
X302953Y201682D01*
X302909Y201617D01*
X302843Y201507D01*
X302756Y201376D01*
X302668Y201223D01*
X302559Y201048D01*
X302449Y200851D01*
X302209Y200414D01*
X301968Y199911D01*
X301728Y199364D01*
X301531Y198774D01*
Y198752D01*
X301509Y198708D01*
X301487Y198621D01*
X301465Y198489D01*
X301422Y198358D01*
X301378Y198183D01*
X301356Y197986D01*
X301312Y197768D01*
X301225Y197287D01*
X301159Y196740D01*
X301115Y196171D01*
Y195559D01*
Y195537D01*
Y195493D01*
Y195406D01*
X301137Y195296D01*
X301159Y195143D01*
Y194968D01*
X301181Y194772D01*
X301225Y194575D01*
X301290Y194094D01*
X301422Y193547D01*
X301553Y192978D01*
X301750Y192388D01*
Y192366D01*
X301771Y192322D01*
X301815Y192235D01*
X301859Y192125D01*
X301925Y191994D01*
X301990Y191819D01*
X302187Y191447D01*
X302406Y191010D01*
X302690Y190529D01*
X303040Y190026D01*
X303412Y189523D01*
X303040Y189195D01*
X303018Y189217D01*
X302996Y189260D01*
X302931Y189326D01*
X302865Y189435D01*
X302756Y189567D01*
X302646Y189720D01*
X302537Y189895D01*
X302406Y190091D01*
X302121Y190551D01*
X301837Y191076D01*
X301553Y191644D01*
X301312Y192235D01*
Y192256D01*
X301290Y192300D01*
X301247Y192388D01*
X301225Y192519D01*
X301159Y192650D01*
X301115Y192825D01*
X301050Y193022D01*
X301006Y193241D01*
X300875Y193744D01*
X300765Y194312D01*
X300678Y194903D01*
X300634Y195537D01*
Y195559D01*
Y195624D01*
Y195712D01*
Y195843D01*
Y195996D01*
X300656Y196171D01*
Y196390D01*
X300678Y196609D01*
X300722Y197134D01*
X300809Y197702D01*
X300940Y198314D01*
X301094Y198927D01*
Y198949D01*
X301115Y198993D01*
X301137Y199080D01*
X301181Y199211D01*
X301247Y199342D01*
X301290Y199517D01*
X301378Y199714D01*
X301465Y199933D01*
X301684Y200414D01*
X301925Y200939D01*
X302253Y201486D01*
X302603Y202032D01*
X302625Y202054D01*
X302646Y202098D01*
X302712Y202164D01*
X302799Y202273D01*
X302887Y202404D01*
X303018Y202535D01*
X303324Y202885D01*
X303674Y203279D01*
X304090Y203695D01*
X304571Y204110D01*
X305074Y204504D01*
X305096Y204526D01*
X305139Y204548D01*
X305227Y204591D01*
X305314Y204657D01*
X305446Y204744D01*
X305621Y204832D01*
X305796Y204941D01*
X305992Y205050D01*
X306452Y205291D01*
X306955Y205532D01*
X307523Y205772D01*
X308114Y205969D01*
X308136D01*
X308179Y205991D01*
X308267Y206013D01*
X308398Y206035D01*
X308551Y206078D01*
X308726Y206122D01*
X308923Y206166D01*
X309164Y206210D01*
X309667Y206275D01*
X310235Y206341D01*
X310848Y206384D01*
X311679D01*
X311810Y206363D01*
D02*
G37*
G36*
X359946Y194290D02*
X358962D01*
Y196565D01*
X356315D01*
Y194290D01*
X355309D01*
Y199627D01*
X356315D01*
Y197418D01*
X358962D01*
Y199627D01*
X359946D01*
Y194290D01*
D02*
G37*
G36*
X353319Y199605D02*
X353494Y199583D01*
X353691Y199539D01*
X353888Y199452D01*
X354085Y199364D01*
X354259Y199233D01*
X354281Y199211D01*
X354325Y199167D01*
X354391Y199080D01*
X354478Y198949D01*
X354544Y198796D01*
X354609Y198599D01*
X354653Y198380D01*
X354675Y198118D01*
Y198074D01*
Y197986D01*
X354653Y197833D01*
X354609Y197658D01*
X354544Y197440D01*
X354434Y197221D01*
X354303Y197002D01*
X354106Y196806D01*
X354085Y196784D01*
X353997Y196718D01*
X353866Y196631D01*
X353691Y196543D01*
X353450Y196412D01*
X353144Y196302D01*
X352794Y196215D01*
X352401Y196127D01*
X352269Y197024D01*
X352291D01*
X352379Y197046D01*
X352510Y197068D01*
X352641Y197112D01*
X352991Y197221D01*
X353144Y197309D01*
X353275Y197396D01*
X353297Y197418D01*
X353341Y197440D01*
X353385Y197505D01*
X353450Y197593D01*
X353582Y197811D01*
X353603Y197943D01*
X353625Y198096D01*
Y198118D01*
Y198140D01*
X353603Y198271D01*
X353560Y198446D01*
X353450Y198577D01*
X353429Y198599D01*
X353319Y198664D01*
X353166Y198730D01*
X352969Y198752D01*
X351613D01*
Y194290D01*
X350629D01*
Y199627D01*
X353166D01*
X353319Y199605D01*
D02*
G37*
G36*
X371712Y194290D02*
X370706D01*
X367884Y198249D01*
Y194290D01*
X366922D01*
Y199627D01*
X367906D01*
X370749Y195734D01*
Y199627D01*
X371712D01*
Y194290D01*
D02*
G37*
G36*
X388595D02*
X387699D01*
Y197986D01*
X386212Y194290D01*
X385381D01*
X383893Y197986D01*
Y194290D01*
X382997D01*
Y199627D01*
X384003D01*
X385840Y195581D01*
X387611Y199627D01*
X388595D01*
Y194290D01*
D02*
G37*
G36*
X347808D02*
X346889D01*
Y197986D01*
X345446Y194290D01*
X344593D01*
X343106Y197986D01*
Y194290D01*
X342187D01*
Y199627D01*
X343237D01*
X345030Y195581D01*
X346824Y199627D01*
X347808D01*
Y194290D01*
D02*
G37*
G36*
X376326Y198774D02*
X374796D01*
Y194290D01*
X373811D01*
Y198774D01*
X372258D01*
Y199627D01*
X376326D01*
Y198774D01*
D02*
G37*
G36*
X366266Y194290D02*
X365216D01*
X364582Y195734D01*
X362811D01*
X363161Y196587D01*
X364232D01*
X363379Y198621D01*
X361608Y194290D01*
X360602D01*
X362876Y199627D01*
X363948D01*
X366266Y194290D01*
D02*
G37*
G36*
X341553D02*
X340460D01*
X339869Y195734D01*
X338076D01*
X338404Y196587D01*
X339497D01*
X338666Y198621D01*
X336873Y194290D01*
X335867D01*
X338141Y199627D01*
X339213D01*
X341553Y194290D01*
D02*
G37*
G36*
X335364Y198774D02*
X332696D01*
Y197418D01*
X335255D01*
Y196543D01*
X332652D01*
Y195143D01*
X335408D01*
Y194290D01*
X331690D01*
Y199627D01*
X335364D01*
Y198774D01*
D02*
G37*
G36*
X331143D02*
X329590D01*
Y194290D01*
X328606D01*
Y198774D01*
X327053D01*
Y199627D01*
X331143D01*
Y198774D01*
D02*
G37*
G36*
X379847Y199627D02*
X380132Y199583D01*
X380460Y199495D01*
X380788Y199386D01*
X381116Y199211D01*
X381378Y198971D01*
X381400Y198949D01*
X381488Y198839D01*
X381597Y198686D01*
X381728Y198468D01*
X381838Y198183D01*
X381947Y197833D01*
X382034Y197418D01*
X382056Y196937D01*
Y196915D01*
Y196871D01*
Y196806D01*
Y196718D01*
X382013Y196477D01*
X381969Y196193D01*
X381881Y195865D01*
X381772Y195515D01*
X381597Y195187D01*
X381378Y194903D01*
X381357Y194881D01*
X381247Y194793D01*
X381094Y194684D01*
X380875Y194575D01*
X380613Y194444D01*
X380263Y194334D01*
X379847Y194247D01*
X379388Y194225D01*
X379257D01*
X379170Y194247D01*
X378951Y194269D01*
X378666Y194312D01*
X378338Y194400D01*
X378010Y194509D01*
X377704Y194684D01*
X377420Y194903D01*
X377398Y194947D01*
X377310Y195034D01*
X377201Y195187D01*
X377092Y195428D01*
X376961Y195712D01*
X376829Y196062D01*
X376742Y196477D01*
X376698Y196937D01*
Y196959D01*
Y197002D01*
Y197068D01*
X376720Y197155D01*
X376742Y197396D01*
X376786Y197702D01*
X376873Y198030D01*
X376982Y198358D01*
X377157Y198686D01*
X377376Y198971D01*
X377398Y198993D01*
X377507Y199080D01*
X377660Y199189D01*
X377879Y199320D01*
X378163Y199452D01*
X378513Y199561D01*
X378929Y199649D01*
X379388Y199670D01*
X379607D01*
X379847Y199627D01*
D02*
G37*
G36*
X389755Y191535D02*
X325850D01*
Y191994D01*
X389755D01*
Y191535D01*
D02*
G37*
G36*
X360624Y189851D02*
X360799Y189807D01*
X360821D01*
X360842Y189785D01*
X360952Y189763D01*
X361083Y189698D01*
X361236Y189588D01*
X360996Y189195D01*
X360974Y189217D01*
X360886Y189260D01*
X360755Y189326D01*
X360624Y189370D01*
X360602Y189392D01*
X360514Y189413D01*
X360383Y189435D01*
X360252Y189457D01*
X360186D01*
X360033Y189413D01*
X360011D01*
X359990Y189392D01*
X359880Y189348D01*
X359836Y189304D01*
X359815Y189260D01*
X359771Y189195D01*
Y189173D01*
Y189151D01*
X359749Y189020D01*
Y188976D01*
X359771Y188889D01*
X359793Y188867D01*
X359836Y188757D01*
X359858Y188735D01*
X359946Y188670D01*
X359968D01*
X360011Y188648D01*
X360077D01*
X360164Y188626D01*
X360186D01*
X360208Y188604D01*
X360296Y188582D01*
X360536D01*
X360624Y188560D01*
X360733Y188539D01*
X360864Y188473D01*
X360886Y188451D01*
X360974Y188429D01*
X361039Y188364D01*
X361127Y188276D01*
X361149Y188254D01*
X361192Y188189D01*
X361236Y188101D01*
X361280Y187992D01*
Y187970D01*
X361302Y187904D01*
X361323Y187817D01*
Y187707D01*
Y187686D01*
Y187642D01*
X361302Y187555D01*
Y187467D01*
X361214Y187248D01*
X361149Y187139D01*
X361061Y187051D01*
X361039D01*
X361017Y187008D01*
X360952Y186986D01*
X360864Y186942D01*
X360755Y186898D01*
X360624Y186876D01*
X360449Y186833D01*
X360143D01*
X360055Y186855D01*
X359858Y186876D01*
X359640Y186920D01*
X359618D01*
X359596Y186942D01*
X359465Y187008D01*
X359290Y187095D01*
X359115Y187248D01*
X359421Y187598D01*
X359443Y187576D01*
X359530Y187511D01*
X359661Y187423D01*
X359793Y187358D01*
X359836D01*
X359946Y187336D01*
X360099Y187314D01*
X360274Y187292D01*
X360317D01*
X360449Y187314D01*
X360580Y187336D01*
X360711Y187380D01*
X360733Y187401D01*
X360799Y187467D01*
X360842Y187555D01*
X360864Y187707D01*
Y187729D01*
Y187795D01*
X360821Y187882D01*
X360777Y187970D01*
X360755Y187992D01*
X360711Y188036D01*
X360602Y188079D01*
X360471Y188123D01*
X360252D01*
X360208Y188145D01*
X360077Y188167D01*
X360055D01*
X359968Y188189D01*
X359836Y188211D01*
X359727Y188254D01*
X359705Y188276D01*
X359640Y188320D01*
X359552Y188385D01*
X359487Y188473D01*
X359465Y188495D01*
X359421Y188539D01*
X359377Y188626D01*
X359333Y188714D01*
Y188735D01*
X359312Y188801D01*
X359290Y188910D01*
Y189020D01*
Y189064D01*
Y189151D01*
X359312Y189260D01*
X359333Y189392D01*
X359355Y189413D01*
X359377Y189479D01*
X359443Y189567D01*
X359530Y189676D01*
X359552Y189698D01*
X359618Y189742D01*
X359727Y189785D01*
X359836Y189829D01*
X359858Y189851D01*
X359968Y189873D01*
X360099Y189895D01*
X360449D01*
X360624Y189851D01*
D02*
G37*
G36*
X330203D02*
X330399Y189807D01*
X330421D01*
X330443Y189785D01*
X330552Y189763D01*
X330684Y189698D01*
X330837Y189588D01*
X330596Y189195D01*
X330574Y189217D01*
X330487Y189260D01*
X330356Y189326D01*
X330224Y189370D01*
X330181Y189392D01*
X330093Y189413D01*
X329984Y189435D01*
X329831Y189457D01*
X329765D01*
X329634Y189413D01*
X329612D01*
X329590Y189392D01*
X329481Y189348D01*
X329437Y189304D01*
X329415Y189260D01*
X329372Y189195D01*
Y189173D01*
X329350Y189151D01*
X329328Y189020D01*
Y188976D01*
X329350Y188889D01*
X329372Y188867D01*
X329437Y188757D01*
X329459Y188735D01*
X329546Y188670D01*
X329568D01*
X329612Y188648D01*
X329678D01*
X329765Y188626D01*
X329787D01*
X329809Y188604D01*
X329896Y188582D01*
X330137D01*
X330224Y188560D01*
X330334Y188539D01*
X330465Y188473D01*
X330487Y188451D01*
X330574Y188429D01*
X330640Y188364D01*
X330727Y188276D01*
X330749Y188254D01*
X330793Y188189D01*
X330837Y188101D01*
X330880Y187992D01*
Y187970D01*
X330902Y187904D01*
X330924Y187817D01*
Y187707D01*
Y187686D01*
Y187642D01*
X330902Y187555D01*
X330880Y187467D01*
X330793Y187248D01*
X330727Y187139D01*
X330640Y187051D01*
X330618D01*
X330596Y187008D01*
X330531Y186986D01*
X330443Y186942D01*
X330334Y186898D01*
X330203Y186876D01*
X330049Y186833D01*
X329743D01*
X329656Y186855D01*
X329459Y186876D01*
X329240Y186920D01*
X329218D01*
X329197Y186942D01*
X329065Y187008D01*
X328890Y187095D01*
X328694Y187248D01*
X329022Y187598D01*
X329043Y187576D01*
X329131Y187511D01*
X329240Y187423D01*
X329393Y187358D01*
X329437D01*
X329546Y187336D01*
X329699Y187314D01*
X329874Y187292D01*
X329918D01*
X330049Y187314D01*
X330181Y187336D01*
X330312Y187380D01*
X330334Y187401D01*
X330399Y187467D01*
X330443Y187555D01*
X330465Y187707D01*
Y187729D01*
X330443Y187795D01*
X330421Y187882D01*
X330356Y187970D01*
X330334Y187992D01*
X330290Y188036D01*
X330203Y188079D01*
X330071Y188123D01*
X329853D01*
X329809Y188145D01*
X329743D01*
X329656Y188167D01*
X329634D01*
X329546Y188189D01*
X329437Y188211D01*
X329328Y188254D01*
X329306Y188276D01*
X329240Y188320D01*
X329153Y188385D01*
X329065Y188473D01*
X329043Y188495D01*
X329022Y188539D01*
X328956Y188626D01*
X328912Y188714D01*
Y188735D01*
X328890Y188801D01*
X328869Y188910D01*
X328847Y189020D01*
Y189064D01*
Y189151D01*
X328869Y189260D01*
X328912Y189392D01*
X328934Y189413D01*
X328978Y189479D01*
X329043Y189567D01*
X329131Y189676D01*
X329153Y189698D01*
X329218Y189742D01*
X329306Y189785D01*
X329415Y189829D01*
X329459Y189851D01*
X329546Y189873D01*
X329678Y189895D01*
X330028D01*
X330203Y189851D01*
D02*
G37*
G36*
X386715Y189873D02*
X386846Y189829D01*
X386868D01*
X386955Y189785D01*
X387065Y189742D01*
X387174Y189654D01*
X387196Y189632D01*
X387261Y189567D01*
X387327Y189479D01*
X387393Y189348D01*
X387414Y189326D01*
X387436Y189238D01*
X387502Y189129D01*
X387546Y188998D01*
X387021D01*
Y189020D01*
X386999Y189064D01*
X386955Y189173D01*
Y189195D01*
X386933Y189217D01*
X386846Y189326D01*
X386824Y189348D01*
X386780Y189370D01*
X386649Y189413D01*
X386627D01*
X386583Y189435D01*
X386452Y189457D01*
X386408Y189435D01*
X386321Y189413D01*
X386277D01*
X386168Y189392D01*
X386146Y189370D01*
X386080Y189304D01*
X386058Y189282D01*
X385993Y189238D01*
X385971Y189195D01*
X385905Y189107D01*
Y189064D01*
X385884Y188976D01*
Y188954D01*
X385862Y188932D01*
Y188845D01*
X385840Y188735D01*
Y188714D01*
Y188626D01*
Y188517D01*
Y188385D01*
Y188342D01*
Y188254D01*
Y188123D01*
Y187992D01*
Y187970D01*
X385862Y187904D01*
Y187817D01*
X385884Y187751D01*
Y187707D01*
X385905Y187620D01*
X385927Y187576D01*
X385993Y187489D01*
X386015Y187467D01*
X386080Y187401D01*
X386102Y187380D01*
X386168Y187358D01*
X386190D01*
X386212Y187336D01*
X386321Y187292D01*
X386496D01*
X386561Y187314D01*
X386671Y187336D01*
X386780Y187380D01*
X386802Y187401D01*
X386868Y187467D01*
X386955Y187555D01*
X387021Y187707D01*
X387546D01*
X387524Y187664D01*
X387502Y187576D01*
X387436Y187445D01*
X387371Y187314D01*
X387349Y187292D01*
X387305Y187226D01*
X387240Y187139D01*
X387152Y187030D01*
X387130Y187008D01*
X387065Y186986D01*
X386955Y186920D01*
X386824Y186876D01*
X386802D01*
X386715Y186855D01*
X386583Y186833D01*
X386365D01*
X386255Y186855D01*
X386146Y186876D01*
X386124D01*
X386058Y186898D01*
X385971Y186942D01*
X385862Y186986D01*
X385840Y187008D01*
X385796Y187051D01*
X385643Y187161D01*
Y187183D01*
X385599Y187226D01*
X385512Y187358D01*
X385490Y187380D01*
X385468Y187423D01*
Y187445D01*
Y187489D01*
X385446Y187511D01*
X385424Y187555D01*
Y187576D01*
Y187598D01*
Y187664D01*
Y187686D01*
X385402Y187729D01*
X385381Y187817D01*
X385359Y187926D01*
Y187948D01*
Y188057D01*
Y188189D01*
Y188385D01*
Y188407D01*
Y188429D01*
Y188539D01*
Y188670D01*
Y188801D01*
Y188823D01*
X385381Y188910D01*
X385402Y188976D01*
X385424Y189064D01*
Y189085D01*
Y189107D01*
X385446Y189217D01*
Y189238D01*
X385468Y189260D01*
X385512Y189370D01*
X385534Y189392D01*
X385556Y189435D01*
X385643Y189567D01*
X385665Y189588D01*
X385709Y189632D01*
X385774Y189698D01*
X385862Y189742D01*
X385884Y189763D01*
X385949Y189785D01*
X386037Y189829D01*
X386146Y189851D01*
X386168D01*
X386233Y189873D01*
X386343Y189895D01*
X386583D01*
X386715Y189873D01*
D02*
G37*
G36*
X377660D02*
X377792Y189829D01*
X377835D01*
X377901Y189785D01*
X378010Y189742D01*
X378120Y189654D01*
X378142Y189632D01*
X378207Y189567D01*
X378273Y189479D01*
X378338Y189348D01*
X378360Y189326D01*
X378382Y189238D01*
X378426Y189129D01*
X378470Y188998D01*
X377989D01*
Y189020D01*
X377967Y189064D01*
X377901Y189173D01*
Y189195D01*
X377879Y189217D01*
X377770Y189326D01*
Y189348D01*
X377726Y189370D01*
X377617Y189413D01*
X377595D01*
X377551Y189435D01*
X377420Y189457D01*
X377398D01*
X377354Y189435D01*
X377245Y189413D01*
X377201D01*
X377136Y189392D01*
X377092Y189370D01*
X377026Y189304D01*
X377004Y189282D01*
X376917Y189238D01*
X376895Y189195D01*
X376851Y189107D01*
X376829Y189064D01*
X376807Y188976D01*
Y188954D01*
Y188932D01*
X376786Y188845D01*
Y188735D01*
Y188714D01*
Y188626D01*
Y188517D01*
Y188385D01*
Y188342D01*
Y188254D01*
Y188123D01*
Y187992D01*
Y187970D01*
Y187904D01*
Y187817D01*
X376807Y187751D01*
X376829Y187707D01*
X376851Y187620D01*
X376873Y187576D01*
X376917Y187489D01*
X376939D01*
X376961Y187467D01*
X377026Y187401D01*
X377048Y187380D01*
X377136Y187358D01*
X377157Y187336D01*
X377245Y187292D01*
X377442D01*
X377529Y187314D01*
X377639Y187336D01*
X377748Y187380D01*
X377770Y187401D01*
X377835Y187467D01*
X377923Y187555D01*
X377989Y187707D01*
X378470D01*
Y187664D01*
X378448Y187576D01*
X378404Y187445D01*
X378338Y187314D01*
X378316Y187292D01*
X378273Y187226D01*
X378185Y187139D01*
X378076Y187030D01*
X378054Y187008D01*
X377989Y186986D01*
X377901Y186920D01*
X377770Y186876D01*
X377748D01*
X377660Y186855D01*
X377551Y186833D01*
X377310D01*
X377179Y186855D01*
X377070Y186876D01*
X377048D01*
X376982Y186898D01*
X376807Y186986D01*
X376786Y187008D01*
X376742Y187051D01*
X376589Y187161D01*
X376567Y187183D01*
X376545Y187226D01*
X376436Y187358D01*
Y187380D01*
X376414Y187423D01*
Y187445D01*
X376392Y187489D01*
X376370Y187511D01*
X376348Y187555D01*
Y187576D01*
Y187598D01*
Y187664D01*
Y187686D01*
Y187729D01*
X376326Y187817D01*
Y187926D01*
Y187948D01*
Y188057D01*
Y188189D01*
Y188385D01*
Y188407D01*
Y188429D01*
Y188539D01*
Y188670D01*
Y188801D01*
Y188823D01*
Y188910D01*
Y188976D01*
X376348Y189064D01*
Y189085D01*
X376370Y189107D01*
X376392Y189217D01*
Y189238D01*
X376414Y189260D01*
X376436Y189370D01*
X376458Y189392D01*
X376479Y189435D01*
X376589Y189567D01*
X376611Y189588D01*
X376654Y189632D01*
X376807Y189742D01*
X376829Y189763D01*
X376873Y189785D01*
X376961Y189829D01*
X377070Y189851D01*
X377092D01*
X377179Y189873D01*
X377289Y189895D01*
X377551D01*
X377660Y189873D01*
D02*
G37*
G36*
X348989Y186855D02*
X348530D01*
Y188735D01*
X348508D01*
X347895Y187292D01*
X347502D01*
X346867Y188735D01*
X346846D01*
Y186855D01*
X346386D01*
Y189873D01*
X346824D01*
X347698Y187904D01*
X348552Y189873D01*
X348989D01*
Y186855D01*
D02*
G37*
G36*
X351941Y187861D02*
Y187817D01*
Y187729D01*
X351898Y187598D01*
X351854Y187445D01*
X351832Y187423D01*
X351810Y187336D01*
X351723Y187226D01*
X351613Y187117D01*
X351591Y187095D01*
X351526Y187030D01*
X351416Y186964D01*
X351285Y186898D01*
X351241D01*
X351154Y186876D01*
X351023Y186855D01*
X350870Y186833D01*
X350717D01*
X350585Y186855D01*
X350432Y186898D01*
X350410Y186920D01*
X350323Y186942D01*
X350214Y187030D01*
X350104Y187117D01*
X350082Y187139D01*
X350017Y187226D01*
X349929Y187314D01*
X349842Y187445D01*
Y187489D01*
X349820Y187576D01*
X349798Y187707D01*
X349776Y187861D01*
Y189873D01*
X350235D01*
Y187926D01*
Y187904D01*
Y187839D01*
X350279Y187664D01*
Y187642D01*
X350323Y187598D01*
X350367Y187533D01*
X350432Y187445D01*
X350454Y187423D01*
X350498Y187401D01*
X350607Y187314D01*
X350673D01*
X350760Y187292D01*
X350957D01*
X351110Y187314D01*
X351132D01*
X351176Y187358D01*
X351307Y187445D01*
X351329Y187467D01*
X351351Y187511D01*
X351438Y187664D01*
Y187686D01*
X351460Y187729D01*
X351482Y187817D01*
Y187926D01*
Y189873D01*
X351941D01*
Y187861D01*
D02*
G37*
G36*
X336239D02*
Y187817D01*
Y187729D01*
X336195Y187598D01*
X336151Y187445D01*
X336129Y187423D01*
X336107Y187336D01*
X336020Y187226D01*
X335911Y187117D01*
X335889Y187095D01*
X335823Y187030D01*
X335714Y186964D01*
X335582Y186898D01*
X335539D01*
X335451Y186876D01*
X335320Y186855D01*
X335145Y186833D01*
X335014D01*
X334883Y186855D01*
X334730Y186898D01*
X334708Y186920D01*
X334620Y186942D01*
X334511Y187030D01*
X334402Y187117D01*
X334380Y187139D01*
X334314Y187226D01*
X334227Y187314D01*
X334139Y187445D01*
Y187489D01*
X334117Y187576D01*
X334095Y187707D01*
X334073Y187861D01*
Y189873D01*
X334533D01*
Y187926D01*
Y187904D01*
Y187839D01*
X334577Y187664D01*
Y187642D01*
X334620Y187598D01*
X334708Y187445D01*
X334730Y187423D01*
X334773Y187401D01*
X334905Y187314D01*
X334970D01*
X335058Y187292D01*
X335320D01*
X335386Y187314D01*
X335408D01*
X335451Y187358D01*
X335582Y187445D01*
X335604Y187467D01*
X335648Y187511D01*
X335692Y187576D01*
X335736Y187664D01*
Y187686D01*
X335757Y187729D01*
X335779Y187817D01*
Y187926D01*
Y189873D01*
X336239D01*
Y187861D01*
D02*
G37*
G36*
X384637Y186855D02*
X384178D01*
Y189873D01*
X384637D01*
Y186855D01*
D02*
G37*
G36*
X382778Y189851D02*
X382887Y189829D01*
X382909D01*
X382975Y189807D01*
X383150Y189698D01*
X383172Y189676D01*
X383237Y189610D01*
X383303Y189523D01*
X383368Y189413D01*
X383390Y189392D01*
X383412Y189304D01*
X383434Y189195D01*
X383456Y189042D01*
Y189020D01*
Y188998D01*
X383434Y188845D01*
X383390Y188670D01*
X383303Y188495D01*
X383281Y188473D01*
X383193Y188385D01*
X383062Y188276D01*
X382887Y188189D01*
X383565Y186855D01*
X383040D01*
X382384Y188145D01*
X381816D01*
Y186855D01*
X381357D01*
Y189873D01*
X382647D01*
X382778Y189851D01*
D02*
G37*
G36*
X380832Y189479D02*
X380000D01*
Y186855D01*
X379541D01*
Y189479D01*
X378710D01*
Y189873D01*
X380832D01*
Y189479D01*
D02*
G37*
G36*
X375780Y189457D02*
X374292D01*
Y188582D01*
X375561D01*
Y188167D01*
X374292D01*
Y187292D01*
X375780D01*
Y186855D01*
X373833D01*
Y189873D01*
X375780D01*
Y189457D01*
D02*
G37*
G36*
X371712Y187292D02*
X373199D01*
Y186855D01*
X371252D01*
Y189873D01*
X371712D01*
Y187292D01*
D02*
G37*
G36*
X370596Y189457D02*
X369131D01*
Y188582D01*
X370400D01*
Y188167D01*
X369131D01*
Y187292D01*
X370596D01*
Y186855D01*
X368672D01*
Y189873D01*
X370596D01*
Y189457D01*
D02*
G37*
G36*
X366769D02*
X365304D01*
Y188582D01*
X366572D01*
Y188167D01*
X365304D01*
Y187292D01*
X366769D01*
Y186855D01*
X364845D01*
Y189873D01*
X366769D01*
Y189457D01*
D02*
G37*
G36*
X364320Y186855D02*
X363817D01*
X363598Y187511D01*
X362439D01*
X362220Y186855D01*
X361717D01*
X362833Y189873D01*
X363204D01*
X364320Y186855D01*
D02*
G37*
G36*
X357606D02*
X357103D01*
X356884Y187511D01*
X355725D01*
X355506Y186855D01*
X355003D01*
X356118Y189873D01*
X356490D01*
X357606Y186855D01*
D02*
G37*
G36*
X353188Y187292D02*
X354697D01*
Y186855D01*
X352750D01*
Y189873D01*
X353188D01*
Y187292D01*
D02*
G37*
G36*
X344987Y189851D02*
X345096Y189829D01*
X345118D01*
X345183Y189807D01*
X345293Y189763D01*
X345402Y189698D01*
X345424Y189676D01*
X345468Y189610D01*
X345533Y189523D01*
X345599Y189413D01*
X345621Y189392D01*
X345643Y189304D01*
X345665Y189195D01*
X345687Y189042D01*
Y189020D01*
Y188998D01*
X345665Y188845D01*
X345621Y188670D01*
X345533Y188495D01*
X345512Y188473D01*
X345424Y188385D01*
X345293Y188276D01*
X345096Y188189D01*
X345818Y186855D01*
X345249D01*
X344637Y188145D01*
X344024D01*
Y186855D01*
X343565D01*
Y189873D01*
X344877D01*
X344987Y189851D01*
D02*
G37*
G36*
X340197Y189457D02*
X338732D01*
Y188560D01*
X340000D01*
Y188145D01*
X338732D01*
Y186855D01*
X338273D01*
Y189873D01*
X340197D01*
Y189457D01*
D02*
G37*
G36*
X333571D02*
X332083D01*
Y188560D01*
X333352D01*
Y188145D01*
X332083D01*
Y186855D01*
X331624D01*
Y189873D01*
X333571D01*
Y189457D01*
D02*
G37*
G36*
X341969Y189873D02*
X342078Y189851D01*
X342100D01*
X342165Y189829D01*
X342253Y189807D01*
X342340Y189742D01*
X342362Y189720D01*
X342428Y189698D01*
X342559Y189567D01*
X342581Y189545D01*
X342603Y189501D01*
X342690Y189370D01*
X342712Y189326D01*
X342756Y189217D01*
X342778Y189173D01*
X342822Y189064D01*
Y189042D01*
Y188998D01*
Y188910D01*
Y188801D01*
Y188779D01*
X342843Y188692D01*
Y188560D01*
Y188385D01*
Y188364D01*
Y188342D01*
Y188232D01*
Y188079D01*
X342822Y187926D01*
Y187904D01*
Y187839D01*
Y187751D01*
Y187664D01*
Y187642D01*
X342800Y187620D01*
X342756Y187489D01*
X342734Y187445D01*
X342690Y187358D01*
Y187336D01*
X342668Y187292D01*
X342559Y187161D01*
X342537Y187139D01*
X342494Y187117D01*
X342428Y187051D01*
X342340Y186986D01*
X342319D01*
X342275Y186942D01*
X342187Y186920D01*
X342078Y186876D01*
X342056D01*
X341990Y186855D01*
X341881Y186833D01*
X341640D01*
X341531Y186855D01*
X341422Y186876D01*
X341400D01*
X341334Y186898D01*
X341159Y186986D01*
X341138Y187008D01*
X341094Y187051D01*
X340941Y187161D01*
X340919Y187183D01*
X340897Y187226D01*
X340809Y187358D01*
X340788Y187380D01*
X340766Y187423D01*
Y187445D01*
X340744Y187489D01*
Y187511D01*
X340722Y187555D01*
Y187576D01*
Y187598D01*
X340700Y187664D01*
Y187686D01*
Y187729D01*
Y187817D01*
X340678Y187926D01*
Y187948D01*
Y188057D01*
X340656Y188189D01*
Y188385D01*
Y188407D01*
Y188429D01*
Y188539D01*
Y188670D01*
X340678Y188801D01*
Y188823D01*
X340700Y188910D01*
Y188976D01*
Y189064D01*
Y189085D01*
X340722Y189107D01*
X340744Y189217D01*
Y189238D01*
X340766Y189260D01*
X340809Y189370D01*
Y189392D01*
X340853Y189435D01*
X340941Y189567D01*
X340963Y189588D01*
X341006Y189632D01*
X341072Y189698D01*
X341159Y189742D01*
X341181Y189763D01*
X341225Y189785D01*
X341313Y189829D01*
X341422Y189851D01*
X341444D01*
X341531Y189873D01*
X341619Y189895D01*
X341859D01*
X341969Y189873D01*
D02*
G37*
G36*
X319027Y202820D02*
X319049Y202776D01*
X319114Y202710D01*
X319202Y202601D01*
X319289Y202492D01*
X319399Y202339D01*
X319530Y202164D01*
X319661Y201989D01*
X319967Y201551D01*
X320252Y201048D01*
X320558Y200480D01*
X320820Y199889D01*
Y199867D01*
X320842Y199823D01*
X320886Y199736D01*
X320930Y199605D01*
X320973Y199452D01*
X321039Y199277D01*
X321105Y199080D01*
X321170Y198839D01*
X321301Y198336D01*
X321433Y197768D01*
X321520Y197134D01*
X321586Y196477D01*
Y196456D01*
Y196390D01*
Y196302D01*
Y196171D01*
Y196018D01*
Y195821D01*
Y195603D01*
X321564Y195362D01*
X321520Y194837D01*
X321455Y194247D01*
X321323Y193612D01*
X321170Y192956D01*
Y192935D01*
X321148Y192891D01*
X321127Y192781D01*
X321083Y192672D01*
X321017Y192519D01*
X320952Y192344D01*
X320886Y192125D01*
X320798Y191907D01*
X320580Y191426D01*
X320317Y190901D01*
X320011Y190332D01*
X319639Y189785D01*
X319618Y189763D01*
X319596Y189720D01*
X319530Y189654D01*
X319443Y189545D01*
X319355Y189413D01*
X319224Y189260D01*
X318939Y188932D01*
X318568Y188539D01*
X318130Y188123D01*
X317649Y187686D01*
X317102Y187292D01*
X317080D01*
X317037Y187248D01*
X316949Y187205D01*
X316840Y187139D01*
X316709Y187051D01*
X316556Y186942D01*
X316359Y186833D01*
X316162Y186723D01*
X315681Y186483D01*
X315134Y186242D01*
X314544Y186002D01*
X313909Y185805D01*
X313888D01*
X313800Y185783D01*
X313647Y185739D01*
X313472Y185696D01*
X313253Y185652D01*
X313035Y185608D01*
X312510Y185521D01*
X312488D01*
X312400Y185499D01*
X312247D01*
X312072Y185477D01*
X311876Y185455D01*
X311635D01*
X311110Y185433D01*
X310935D01*
X310738Y185455D01*
X310476D01*
X310148Y185477D01*
X309820Y185521D01*
X309448Y185564D01*
X309054Y185630D01*
X309011D01*
X308879Y185674D01*
X308682Y185717D01*
X308420Y185783D01*
X308114Y185871D01*
X307786Y185980D01*
X307064Y186242D01*
X307239Y186702D01*
X307261D01*
X307305Y186680D01*
X307392Y186636D01*
X307523Y186592D01*
X307676Y186527D01*
X307851Y186483D01*
X308048Y186417D01*
X308267Y186352D01*
X308770Y186198D01*
X309338Y186067D01*
X309929Y185980D01*
X310563Y185914D01*
X311613D01*
X312094Y185958D01*
X312663Y186024D01*
X313253Y186111D01*
X313844Y186264D01*
X313866D01*
X313909Y186286D01*
X313997Y186308D01*
X314106Y186352D01*
X314259Y186395D01*
X314412Y186461D01*
X314806Y186614D01*
X315265Y186811D01*
X315768Y187051D01*
X316293Y187358D01*
X316818Y187686D01*
X316840Y187707D01*
X316884Y187729D01*
X316949Y187773D01*
X317059Y187861D01*
X317168Y187948D01*
X317321Y188057D01*
X317649Y188342D01*
X318021Y188692D01*
X318437Y189085D01*
X318852Y189545D01*
X319246Y190069D01*
X319268Y190091D01*
X319289Y190135D01*
X319355Y190223D01*
X319421Y190310D01*
X319508Y190441D01*
X319596Y190616D01*
X319705Y190791D01*
X319814Y190988D01*
X320055Y191447D01*
X320317Y191972D01*
X320536Y192519D01*
X320733Y193131D01*
Y193153D01*
X320755Y193197D01*
X320777Y193284D01*
X320798Y193416D01*
X320842Y193569D01*
X320886Y193744D01*
X320930Y193940D01*
X320973Y194159D01*
X321039Y194640D01*
X321105Y195209D01*
X321127Y195778D01*
Y196390D01*
Y196412D01*
Y196456D01*
Y196543D01*
X321105Y196674D01*
X321083Y196827D01*
Y197002D01*
X321039Y197199D01*
X321017Y197418D01*
X320930Y197899D01*
X320798Y198446D01*
X320645Y199036D01*
X320427Y199627D01*
Y199649D01*
X320405Y199692D01*
X320361Y199780D01*
X320317Y199889D01*
X320252Y200042D01*
X320164Y200195D01*
X319967Y200589D01*
X319727Y201026D01*
X319421Y201507D01*
X319049Y202010D01*
X318633Y202514D01*
X319005Y202842D01*
X319027Y202820D01*
D02*
G37*
G36*
X320820Y207544D02*
X320842Y207478D01*
X320864Y207456D01*
X320886Y207434D01*
X320864Y207412D01*
X320842Y207390D01*
X320777Y207325D01*
X320711Y207238D01*
X320492Y206997D01*
X320208Y206691D01*
X319880Y206319D01*
X319530Y205903D01*
X319136Y205466D01*
X318721Y205007D01*
X318699Y204985D01*
X318677Y204963D01*
X318611Y204897D01*
X318546Y204810D01*
X318327Y204569D01*
X318043Y204263D01*
X317737Y203891D01*
X317365Y203476D01*
X316971Y203038D01*
X316578Y202579D01*
X316556Y202557D01*
X316534Y202535D01*
X316468Y202470D01*
X316403Y202382D01*
X316184Y202142D01*
X315899Y201836D01*
X315571Y201464D01*
X315200Y201048D01*
X314806Y200611D01*
X314390Y200152D01*
X314369Y200130D01*
X314347Y200108D01*
X314281Y200042D01*
X314216Y199955D01*
X313997Y199714D01*
X313713Y199408D01*
X313385Y199036D01*
X313013Y198621D01*
X312619Y198183D01*
X312204Y197724D01*
X312225D01*
X312269Y197702D01*
X312335Y197680D01*
X312422Y197658D01*
X312532Y197636D01*
X312685Y197593D01*
X313013Y197505D01*
X313406Y197396D01*
X313822Y197287D01*
X314281Y197155D01*
X314762Y197024D01*
X314784D01*
X314828Y197002D01*
X314894D01*
X314981Y196959D01*
X315090Y196937D01*
X315243Y196893D01*
X315571Y196827D01*
X315943Y196718D01*
X316381Y196609D01*
X316862Y196477D01*
X317343Y196346D01*
X317321Y196324D01*
X317234Y196259D01*
X317124Y196193D01*
X317015Y196106D01*
X316993Y196084D01*
X316927Y196040D01*
X316840Y195952D01*
X316731Y195865D01*
X316709Y195843D01*
X316643Y195800D01*
X316534Y195712D01*
X316403Y195624D01*
X316228Y195493D01*
X316009Y195340D01*
X315768Y195165D01*
X315506Y194968D01*
X315222Y194750D01*
X314915Y194531D01*
X314259Y194028D01*
X313560Y193503D01*
X312838Y192956D01*
X312816Y192935D01*
X312750Y192891D01*
X312641Y192803D01*
X312510Y192716D01*
X312335Y192585D01*
X312138Y192431D01*
X311897Y192256D01*
X311635Y192060D01*
X311372Y191841D01*
X311066Y191622D01*
X310410Y191119D01*
X309710Y190594D01*
X308989Y190048D01*
X308967Y190026D01*
X308901Y189982D01*
X308792Y189916D01*
X308661Y189807D01*
X308486Y189676D01*
X308289Y189523D01*
X308048Y189348D01*
X307786Y189151D01*
X307502Y188932D01*
X307195Y188714D01*
X306561Y188232D01*
X305861Y187707D01*
X305139Y187161D01*
X305118Y187139D01*
X305052Y187095D01*
X304943Y187008D01*
X304812Y186920D01*
X304637Y186789D01*
X304418Y186614D01*
X304199Y186439D01*
X303937Y186242D01*
X303652Y186045D01*
X303346Y185805D01*
X302690Y185324D01*
X301990Y184799D01*
X301269Y184274D01*
X301247Y184252D01*
X301203Y184208D01*
X301115Y184121D01*
X301006Y184033D01*
X300984Y184011D01*
X300919Y183990D01*
X300853Y183968D01*
X300831Y183990D01*
X300809Y184011D01*
Y184033D01*
X300787Y184099D01*
X300809Y184165D01*
X300897Y184252D01*
X300919Y184274D01*
X301006Y184318D01*
X301072Y184383D01*
X301159Y184449D01*
Y184471D01*
X301203Y184493D01*
X301312Y184602D01*
X301487Y184799D01*
X301706Y185039D01*
X301968Y185324D01*
X302274Y185652D01*
X302603Y186002D01*
X302931Y186352D01*
Y186373D01*
X302974Y186395D01*
X303084Y186505D01*
X303259Y186702D01*
X303477Y186942D01*
X303740Y187226D01*
X304046Y187533D01*
X304352Y187882D01*
X304680Y188232D01*
Y188254D01*
X304724Y188276D01*
X304833Y188385D01*
X305008Y188582D01*
X305227Y188823D01*
X305489Y189107D01*
X305796Y189435D01*
X306124Y189785D01*
X306452Y190135D01*
Y190157D01*
X306495Y190179D01*
X306605Y190288D01*
X306780Y190485D01*
X306998Y190726D01*
X307261Y191010D01*
X307567Y191316D01*
X307895Y191666D01*
X308223Y192016D01*
X308245Y192038D01*
X308289Y192081D01*
X308354Y192147D01*
X308442Y192256D01*
X308639Y192475D01*
X308901Y192738D01*
X308923Y192760D01*
X308967Y192803D01*
X309032Y192869D01*
X309120Y192978D01*
X309338Y193241D01*
X309579Y193547D01*
X309557D01*
X309535Y193569D01*
X309404Y193612D01*
X309186Y193678D01*
X308923Y193765D01*
X308595Y193875D01*
X308245Y194006D01*
X307873Y194115D01*
X307480Y194247D01*
X307458D01*
X307436Y194269D01*
X307305Y194312D01*
X307108Y194378D01*
X306823Y194465D01*
X306517Y194575D01*
X306167Y194706D01*
X305774Y194837D01*
X305380Y194968D01*
X305402Y194990D01*
X305468Y195034D01*
X305577Y195122D01*
X305708Y195253D01*
X305883Y195384D01*
X306102Y195559D01*
X306342Y195756D01*
X306605Y195974D01*
X306889Y196193D01*
X307195Y196456D01*
X307851Y196980D01*
X308551Y197549D01*
X309273Y198140D01*
X309295Y198161D01*
X309360Y198205D01*
X309470Y198293D01*
X309601Y198402D01*
X309776Y198555D01*
X309995Y198708D01*
X310235Y198905D01*
X310498Y199124D01*
X310760Y199342D01*
X311066Y199583D01*
X311722Y200108D01*
X312422Y200676D01*
X313144Y201267D01*
X313166Y201289D01*
X313231Y201333D01*
X313341Y201420D01*
X313472Y201551D01*
X313647Y201682D01*
X313844Y201857D01*
X314084Y202054D01*
X314347Y202273D01*
X314631Y202492D01*
X314915Y202754D01*
X315571Y203279D01*
X316271Y203848D01*
X316971Y204438D01*
X316993Y204460D01*
X317059Y204504D01*
X317168Y204591D01*
X317299Y204700D01*
X317474Y204854D01*
X317693Y205007D01*
X317912Y205204D01*
X318174Y205422D01*
X318458Y205641D01*
X318764Y205882D01*
X319399Y206406D01*
X320099Y206975D01*
X320820Y207565D01*
Y207544D01*
D02*
G37*
G36*
X245386Y9395D02*
X245531Y9386D01*
X245659Y9368D01*
X245759Y9350D01*
X245832Y9331D01*
X245878Y9322D01*
X245896Y9313D01*
X246032Y9277D01*
X246151Y9231D01*
X246269Y9177D01*
X246360Y9131D01*
X246433Y9085D01*
X246497Y9049D01*
X246533Y9022D01*
X246543Y9013D01*
X246624Y8921D01*
X246697Y8821D01*
X246752Y8721D01*
X246789Y8630D01*
X246816Y8539D01*
X246843Y8466D01*
X246852Y8420D01*
Y8411D01*
Y8402D01*
X246870Y8247D01*
Y8083D01*
X246861Y7928D01*
X246843Y7773D01*
X246816Y7637D01*
X246798Y7537D01*
X246789Y7491D01*
Y7464D01*
X246779Y7446D01*
Y7436D01*
X245741Y3310D01*
X245668Y3109D01*
X245577Y2927D01*
X245467Y2763D01*
X245349Y2626D01*
X245240Y2517D01*
X245149Y2435D01*
X245112Y2408D01*
X245094Y2389D01*
X245076Y2380D01*
X245067Y2371D01*
X244866Y2244D01*
X244666Y2153D01*
X244465Y2089D01*
X244292Y2043D01*
X244138Y2016D01*
X244074Y2007D01*
X244019D01*
X243973Y1998D01*
X242716D01*
X243910Y6762D01*
X243946Y6917D01*
X243955Y7045D01*
Y7154D01*
X243946Y7245D01*
X243928Y7309D01*
X243910Y7364D01*
X243901Y7391D01*
X243892Y7400D01*
X243837Y7473D01*
X243755Y7519D01*
X243673Y7555D01*
X243582Y7582D01*
X243500Y7600D01*
X243436Y7610D01*
X243372D01*
X243227Y7600D01*
X243099Y7573D01*
X242981Y7546D01*
X242889Y7509D01*
X242807Y7464D01*
X242753Y7436D01*
X242716Y7409D01*
X242707Y7400D01*
X242616Y7309D01*
X242543Y7209D01*
X242479Y7108D01*
X242434Y6999D01*
X242388Y6908D01*
X242361Y6835D01*
X242352Y6780D01*
X242343Y6771D01*
Y6762D01*
X241149Y1998D01*
X238462D01*
X239646Y6753D01*
X239683Y6908D01*
X239701Y7036D01*
Y7154D01*
X239692Y7245D01*
X239674Y7309D01*
X239655Y7364D01*
X239646Y7391D01*
X239637Y7400D01*
X239573Y7473D01*
X239500Y7519D01*
X239409Y7555D01*
X239318Y7582D01*
X239236Y7600D01*
X239173Y7610D01*
X239109D01*
X238972Y7600D01*
X238845Y7573D01*
X238735Y7546D01*
X238644Y7509D01*
X238571Y7464D01*
X238517Y7436D01*
X238480Y7409D01*
X238471Y7400D01*
X238380Y7309D01*
X238307Y7209D01*
X238243Y7108D01*
X238198Y6999D01*
X238161Y6908D01*
X238134Y6835D01*
X238125Y6780D01*
X238116Y6771D01*
Y6762D01*
X236913Y1998D01*
X234226D01*
X236030Y9213D01*
X238744D01*
X238535Y8338D01*
X238562D01*
X238726Y8530D01*
X238890Y8694D01*
X239063Y8830D01*
X239218Y8940D01*
X239355Y9031D01*
X239409Y9067D01*
X239455Y9094D01*
X239500Y9113D01*
X239528Y9131D01*
X239546Y9140D01*
X239555D01*
X239774Y9231D01*
X240002Y9295D01*
X240220Y9350D01*
X240430Y9377D01*
X240521Y9395D01*
X240603D01*
X240676Y9404D01*
X240739Y9413D01*
X241022D01*
X241168Y9404D01*
X241295Y9395D01*
X241405Y9377D01*
X241496Y9368D01*
X241559Y9350D01*
X241596Y9341D01*
X241614D01*
X241732Y9313D01*
X241833Y9286D01*
X241924Y9249D01*
X242006Y9213D01*
X242070Y9186D01*
X242115Y9158D01*
X242142Y9149D01*
X242151Y9140D01*
X242224Y9085D01*
X242288Y9022D01*
X242352Y8967D01*
X242397Y8912D01*
X242434Y8858D01*
X242461Y8821D01*
X242470Y8794D01*
X242479Y8785D01*
X242561Y8621D01*
X242598Y8539D01*
X242625Y8457D01*
X242643Y8393D01*
X242662Y8338D01*
X242671Y8302D01*
Y8293D01*
X242762Y8402D01*
X242853Y8502D01*
X242935Y8593D01*
X243017Y8675D01*
X243090Y8739D01*
X243144Y8785D01*
X243181Y8812D01*
X243190Y8821D01*
X243299Y8903D01*
X243409Y8967D01*
X243509Y9022D01*
X243600Y9076D01*
X243682Y9113D01*
X243746Y9140D01*
X243782Y9149D01*
X243800Y9158D01*
X244028Y9240D01*
X244128Y9277D01*
X244229Y9304D01*
X244302Y9322D01*
X244365Y9341D01*
X244411Y9350D01*
X244420D01*
X244648Y9386D01*
X244757Y9395D01*
X244857Y9404D01*
X244939Y9413D01*
X245231D01*
X245386Y9395D01*
D02*
G37*
G36*
X232896Y1989D02*
X230217D01*
X230427Y2854D01*
X230391D01*
X230226Y2672D01*
X230063Y2517D01*
X229899Y2380D01*
X229744Y2271D01*
X229607Y2189D01*
X229552Y2153D01*
X229507Y2125D01*
X229461Y2107D01*
X229434Y2089D01*
X229416Y2080D01*
X229407D01*
X229188Y1989D01*
X228969Y1925D01*
X228751Y1879D01*
X228550Y1852D01*
X228459Y1834D01*
X228377D01*
X228295Y1825D01*
X228240Y1816D01*
X227940D01*
X227785Y1825D01*
X227639Y1843D01*
X227521Y1861D01*
X227421Y1879D01*
X227348Y1888D01*
X227302Y1907D01*
X227284D01*
X227156Y1952D01*
X227038Y1998D01*
X226938Y2052D01*
X226847Y2107D01*
X226783Y2153D01*
X226728Y2189D01*
X226692Y2216D01*
X226683Y2226D01*
X226592Y2307D01*
X226510Y2399D01*
X226455Y2490D01*
X226409Y2581D01*
X226373Y2672D01*
X226355Y2736D01*
X226337Y2781D01*
Y2799D01*
X226318Y2954D01*
Y3109D01*
X226327Y3264D01*
X226346Y3419D01*
X226373Y3546D01*
X226391Y3656D01*
X226400Y3692D01*
Y3720D01*
X226409Y3738D01*
Y3747D01*
X227776Y9213D01*
X230463D01*
X229270Y4439D01*
X229243Y4284D01*
X229224Y4157D01*
Y4047D01*
X229243Y3957D01*
X229252Y3884D01*
X229270Y3838D01*
X229279Y3802D01*
X229288Y3793D01*
X229352Y3720D01*
X229425Y3665D01*
X229507Y3629D01*
X229598Y3601D01*
X229671Y3583D01*
X229735Y3574D01*
X229798D01*
X229944Y3583D01*
X230072Y3610D01*
X230181Y3647D01*
X230272Y3683D01*
X230345Y3720D01*
X230400Y3756D01*
X230436Y3783D01*
X230445Y3793D01*
X230536Y3884D01*
X230609Y3984D01*
X230673Y4093D01*
X230728Y4202D01*
X230764Y4293D01*
X230791Y4366D01*
X230800Y4421D01*
X230809Y4430D01*
Y4439D01*
X232012Y9213D01*
X234700D01*
X232896Y1989D01*
D02*
G37*
G36*
X224742D02*
X222055D01*
X223859Y9213D01*
X226555D01*
X224742Y1989D01*
D02*
G37*
G36*
X215960D02*
X213264D01*
X215660Y11518D01*
X218347D01*
X215960Y1989D01*
D02*
G37*
G36*
X212699D02*
X209592D01*
X209683Y3647D01*
X207369D01*
X206641Y1998D01*
X203543Y1989D01*
X207634Y9623D01*
X207725Y9778D01*
X207825Y9914D01*
X207925Y10051D01*
X208007Y10160D01*
X208089Y10251D01*
X208144Y10324D01*
X208180Y10361D01*
X208198Y10379D01*
X208326Y10507D01*
X208454Y10616D01*
X208572Y10716D01*
X208681Y10807D01*
X208782Y10871D01*
X208854Y10926D01*
X208900Y10962D01*
X208918Y10971D01*
X209073Y11062D01*
X209219Y11135D01*
X209365Y11208D01*
X209501Y11263D01*
X209611Y11308D01*
X209702Y11336D01*
X209729Y11345D01*
X209756Y11354D01*
X209765Y11363D01*
X209774D01*
X209948Y11408D01*
X210121Y11445D01*
X210285Y11472D01*
X210431Y11490D01*
X210558Y11509D01*
X210658D01*
X210695Y11518D01*
X212344D01*
X212699Y1989D01*
D02*
G37*
G36*
X221736Y9213D02*
X222866D01*
X222465Y7591D01*
X221335D01*
X220479Y4157D01*
X220461Y4057D01*
Y3966D01*
Y3893D01*
X220479Y3829D01*
X220497Y3783D01*
X220515Y3747D01*
X220524Y3729D01*
X220533Y3720D01*
X220597Y3674D01*
X220661Y3638D01*
X220743Y3619D01*
X220825Y3601D01*
X220898Y3592D01*
X221463D01*
X221062Y1989D01*
X220907Y1980D01*
X220761Y1970D01*
X220634Y1961D01*
X220515Y1952D01*
X220415D01*
X220333Y1943D01*
X220269D01*
X220133Y1934D01*
X219868D01*
X219759Y1925D01*
X219313D01*
X219112Y1934D01*
X218939Y1943D01*
X218784Y1961D01*
X218666Y1970D01*
X218575Y1989D01*
X218520Y1998D01*
X218502D01*
X218356Y2034D01*
X218229Y2071D01*
X218119Y2116D01*
X218028Y2153D01*
X217955Y2189D01*
X217910Y2216D01*
X217873Y2235D01*
X217864Y2244D01*
X217782Y2317D01*
X217719Y2399D01*
X217664Y2490D01*
X217627Y2572D01*
X217600Y2654D01*
X217582Y2717D01*
X217573Y2763D01*
Y2781D01*
X217564Y2927D01*
X217573Y3091D01*
X217591Y3246D01*
X217618Y3401D01*
X217636Y3537D01*
X217664Y3638D01*
X217673Y3683D01*
Y3711D01*
X217682Y3729D01*
Y3738D01*
X219622Y11417D01*
X222319D01*
X221736Y9213D01*
D02*
G37*
%LPC*%
G36*
X379388Y198796D02*
X379257D01*
X379104Y198774D01*
X378929Y198730D01*
X378710Y198686D01*
X378513Y198599D01*
X378316Y198489D01*
X378142Y198336D01*
X378120Y198314D01*
X378076Y198249D01*
X378010Y198140D01*
X377945Y197986D01*
X377857Y197790D01*
X377792Y197571D01*
X377748Y197287D01*
X377726Y196959D01*
Y196915D01*
Y196806D01*
X377748Y196652D01*
X377770Y196434D01*
X377835Y196215D01*
X377901Y195974D01*
X378010Y195756D01*
X378142Y195559D01*
X378163Y195537D01*
X378229Y195493D01*
X378316Y195406D01*
X378448Y195318D01*
X378623Y195231D01*
X378841Y195143D01*
X379104Y195100D01*
X379388Y195078D01*
X379519D01*
X379673Y195100D01*
X379847Y195143D01*
X380044Y195187D01*
X380241Y195275D01*
X380438Y195406D01*
X380591Y195559D01*
X380613Y195581D01*
X380657Y195646D01*
X380722Y195756D01*
X380810Y195909D01*
X380875Y196106D01*
X380941Y196346D01*
X380985Y196631D01*
X381007Y196959D01*
Y197002D01*
Y197112D01*
X380985Y197265D01*
X380963Y197483D01*
X380897Y197702D01*
X380832Y197921D01*
X380722Y198140D01*
X380591Y198336D01*
X380569Y198358D01*
X380525Y198402D01*
X380416Y198489D01*
X380285Y198577D01*
X380132Y198643D01*
X379913Y198730D01*
X379673Y198774D01*
X379388Y198796D01*
D02*
G37*
G36*
X382669Y189479D02*
X381816D01*
Y188560D01*
X382603D01*
X382734Y188582D01*
X382756D01*
X382800Y188604D01*
X382909Y188692D01*
X382931Y188714D01*
X382953Y188735D01*
X382997Y188845D01*
Y188867D01*
X383019Y188910D01*
Y189042D01*
Y189064D01*
Y189107D01*
X382975Y189238D01*
Y189260D01*
X382953Y189282D01*
X382887Y189392D01*
X382866D01*
X382844Y189413D01*
X382712Y189457D01*
X382691D01*
X382669Y189479D01*
D02*
G37*
G36*
X363007Y189260D02*
X362570Y187926D01*
X363445D01*
X363007Y189260D01*
D02*
G37*
G36*
X356315D02*
X355856Y187926D01*
X356753D01*
X356315Y189260D01*
D02*
G37*
G36*
X344899Y189479D02*
X344024D01*
Y188560D01*
X344812D01*
X344965Y188582D01*
X344987D01*
X345030Y188604D01*
X345074Y188648D01*
X345118Y188692D01*
X345140Y188714D01*
X345162Y188735D01*
X345205Y188845D01*
Y188867D01*
X345227Y188910D01*
X345249Y189042D01*
Y189064D01*
Y189107D01*
X345205Y189238D01*
Y189260D01*
X345183Y189282D01*
X345162Y189348D01*
X345096Y189392D01*
X345052Y189413D01*
X345008Y189435D01*
X344943Y189457D01*
X344921D01*
X344899Y189479D01*
D02*
G37*
G36*
X341750Y189457D02*
X341706Y189435D01*
X341597Y189413D01*
X341553D01*
X341466Y189392D01*
X341422Y189370D01*
X341356Y189304D01*
X341334Y189282D01*
X341291Y189238D01*
X341269Y189195D01*
X341203Y189107D01*
X341181Y189064D01*
X341159Y188976D01*
Y188954D01*
Y188932D01*
Y188845D01*
X341138Y188735D01*
Y188714D01*
Y188626D01*
Y188517D01*
Y188385D01*
Y188342D01*
Y188254D01*
Y188123D01*
Y187992D01*
Y187970D01*
X341159Y187904D01*
Y187817D01*
Y187751D01*
X341181Y187707D01*
X341203Y187620D01*
X341225Y187576D01*
X341291Y187489D01*
X341313Y187467D01*
X341356Y187401D01*
X341378Y187380D01*
X341466Y187358D01*
X341509Y187336D01*
X341597Y187292D01*
X341925D01*
X341947Y187314D01*
X342034Y187358D01*
X342056D01*
X342078Y187380D01*
X342144Y187401D01*
X342165Y187423D01*
X342209Y187489D01*
Y187511D01*
X342231Y187533D01*
X342275Y187620D01*
Y187642D01*
X342297Y187664D01*
X342340Y187751D01*
Y187773D01*
Y187817D01*
Y187882D01*
Y187992D01*
Y188014D01*
X342362Y188101D01*
Y188232D01*
Y188385D01*
Y188429D01*
Y188495D01*
Y188626D01*
X342340Y188735D01*
Y188757D01*
Y188823D01*
Y188910D01*
Y188976D01*
Y188998D01*
X342319Y189020D01*
X342275Y189107D01*
Y189129D01*
X342253Y189151D01*
X342209Y189238D01*
X342187Y189260D01*
X342144Y189304D01*
X342122Y189326D01*
X342034Y189392D01*
X342012Y189413D01*
X341903D01*
X341859Y189435D01*
X341750Y189457D01*
D02*
G37*
G36*
X210011Y9441D02*
X208171Y5469D01*
X209784D01*
X210011Y9441D01*
D02*
G37*
%LPD*%
D10*
X215689Y348622D02*
G03*
X215689Y348622I-492J0D01*
G01*
X201575Y204921D02*
G03*
X201575Y204921I-492J0D01*
G01*
D11*
X273031Y154724D02*
G03*
X273031Y154724I-197J0D01*
G01*
X284908D02*
G03*
X284908Y154724I-197J0D01*
G01*
X296785D02*
G03*
X296785Y154724I-197J0D01*
G01*
X308661D02*
G03*
X308661Y154724I-197J0D01*
G01*
X313386Y235039D02*
G03*
X313386Y235039I-197J0D01*
G01*
X301509D02*
G03*
X301509Y235039I-197J0D01*
G01*
X289633D02*
G03*
X289633Y235039I-197J0D01*
G01*
X277756D02*
G03*
X277756Y235039I-197J0D01*
G01*
X38386Y54724D02*
G03*
X38386Y54724I-197J0D01*
G01*
X21850Y50394D02*
G03*
X21850Y50394I-197J0D01*
G01*
X50788Y342716D02*
G03*
X50788Y342716I-197J0D01*
G01*
X34252Y362008D02*
G03*
X34252Y362008I-197J0D01*
G01*
X289862Y99508D02*
G03*
X289862Y99508I-197J0D01*
G01*
X290158Y126673D02*
G03*
X290158Y126673I-197J0D01*
G01*
X313484Y99508D02*
G03*
X313484Y99508I-197J0D01*
G01*
X313779Y126673D02*
G03*
X313779Y126673I-197J0D01*
G01*
X297342Y295079D02*
G03*
X297342Y295079I-197J0D01*
G01*
X296988Y266929D02*
G03*
X296988Y266929I-197J0D01*
G01*
X273721Y295079D02*
G03*
X273721Y295079I-197J0D01*
G01*
X273484Y266929D02*
G03*
X273484Y266929I-197J0D01*
G01*
X180118Y36417D02*
G03*
X180118Y36417I-197J0D01*
G01*
Y58071D02*
G03*
X180118Y58071I-197J0D01*
G01*
Y79724D02*
G03*
X180118Y79724I-197J0D01*
G01*
Y101378D02*
G03*
X180118Y101378I-197J0D01*
G01*
Y123031D02*
G03*
X180118Y123031I-197J0D01*
G01*
Y144685D02*
G03*
X180118Y144685I-197J0D01*
G01*
Y166339D02*
G03*
X180118Y166339I-197J0D01*
G01*
Y187992D02*
G03*
X180118Y187992I-197J0D01*
G01*
Y209646D02*
G03*
X180118Y209646I-197J0D01*
G01*
X180118Y231299D02*
G03*
X180118Y231299I-197J0D01*
G01*
Y252953D02*
G03*
X180118Y252953I-197J0D01*
G01*
Y274606D02*
G03*
X180118Y274606I-197J0D01*
G01*
X180118Y296260D02*
G03*
X180118Y296260I-197J0D01*
G01*
Y317913D02*
G03*
X180118Y317913I-197J0D01*
G01*
X180118Y339567D02*
G03*
X180118Y339567I-197J0D01*
G01*
X180118Y361221D02*
G03*
X180118Y361221I-197J0D01*
G01*
D12*
X210630Y201575D02*
G03*
X210630Y201575I-1181J0D01*
G01*
D13*
X396638Y393504D02*
X398638D01*
X396638Y-197D02*
X398638D01*
X397638Y393504D02*
X399638Y387504D01*
X395638D02*
X397638Y393504D01*
Y-197D02*
X399638Y5803D01*
X395638D02*
X397638Y-197D01*
Y219247D02*
Y393504D01*
Y-197D02*
Y174060D01*
X393701Y396638D02*
Y398638D01*
X0Y396638D02*
Y398638D01*
X387701Y395638D02*
X393701Y397638D01*
X387701Y399638D02*
X393701Y397638D01*
X0D02*
X6000Y395638D01*
X0Y397638D02*
X6000Y399638D01*
X219444Y397638D02*
X393701D01*
X0D02*
X174257D01*
X339272Y336910D02*
Y342908D01*
X342271D01*
X343270Y341908D01*
Y339909D01*
X342271Y338909D01*
X339272D01*
X341271D02*
X343270Y336910D01*
X349268Y342908D02*
X345270D01*
Y336910D01*
X349268D01*
X345270Y339909D02*
X347269D01*
X351268Y342908D02*
Y338909D01*
X353267Y336910D01*
X355266Y338909D01*
Y342908D01*
X367263Y336910D02*
X363264D01*
X367263Y340908D01*
Y341908D01*
X366263Y342908D01*
X364264D01*
X363264Y341908D01*
X339173Y350880D02*
Y344882D01*
X342172D01*
X343172Y345882D01*
Y346881D01*
X342172Y347881D01*
X339173D01*
X342172D01*
X343172Y348881D01*
Y349880D01*
X342172Y350880D01*
X339173D01*
X345171Y344882D02*
Y350880D01*
X347171Y348881D01*
X349170Y350880D01*
Y344882D01*
X355168Y349880D02*
X354168Y350880D01*
X352169D01*
X351169Y349880D01*
Y348881D01*
X352169Y347881D01*
X354168D01*
X355168Y346881D01*
Y345882D01*
X354168Y344882D01*
X352169D01*
X351169Y345882D01*
X363165Y344882D02*
Y348881D01*
X365165Y350880D01*
X367164Y348881D01*
Y344882D01*
Y347881D01*
X363165D01*
X373162Y350880D02*
X369163D01*
Y347881D01*
X371163D01*
X369163D01*
Y344882D01*
X379160Y350880D02*
X375162D01*
Y344882D01*
X379160D01*
X375162Y347881D02*
X377161D01*
D14*
X238292Y67913D02*
Y68307D01*
X235733Y67913D02*
Y68307D01*
X244094Y319783D02*
X244488D01*
X244094Y317224D02*
X244488D01*
X296850Y326673D02*
Y329035D01*
X303150Y326673D02*
Y329035D01*
X283858Y326673D02*
Y329035D01*
X290158Y326673D02*
Y329035D01*
X271654Y326673D02*
Y329035D01*
X277953Y326673D02*
Y329035D01*
X308661Y326772D02*
Y329134D01*
X314961Y326772D02*
Y329134D01*
X271949Y138878D02*
Y142421D01*
X278051Y138878D02*
Y142421D01*
X283825Y138878D02*
Y142421D01*
X289928Y138878D02*
Y142421D01*
X307579Y138878D02*
Y142421D01*
X313681Y138878D02*
Y142421D01*
X314075Y249508D02*
Y253051D01*
X307972Y249508D02*
Y253051D01*
X302001Y249508D02*
Y253051D01*
X295899Y249508D02*
Y253051D01*
X290453Y249409D02*
Y252953D01*
X284350Y249409D02*
Y252953D01*
X278248Y249459D02*
Y253002D01*
X272146Y249459D02*
Y253002D01*
X215158Y356299D02*
Y359842D01*
Y356299D02*
X241535D01*
Y359842D01*
X114173Y354626D02*
X114567D01*
X114173Y352067D02*
X114567D01*
X114173Y332776D02*
X114567D01*
X114173Y330217D02*
X114567D01*
X114173Y311221D02*
X114567D01*
X114173Y308661D02*
X114567D01*
X114173Y289567D02*
X114567D01*
X114173Y287008D02*
X114567D01*
X114173Y268012D02*
X114567D01*
X114173Y265453D02*
X114567D01*
X114173Y246358D02*
X114567D01*
X114173Y243799D02*
X114567D01*
X114173Y224705D02*
X114567D01*
X114173Y222146D02*
X114567D01*
X114173Y203051D02*
X114567D01*
X114173Y200492D02*
X114567D01*
X114370Y181398D02*
X114764D01*
X114370Y178839D02*
X114764D01*
X114173Y159646D02*
X114567D01*
X114173Y157087D02*
X114567D01*
X114173Y138091D02*
X114567D01*
X114173Y135531D02*
X114567D01*
X114173Y116437D02*
X114567D01*
X114173Y113878D02*
X114567D01*
X114075Y94784D02*
X114469D01*
X114075Y92224D02*
X114469D01*
X114272Y73130D02*
X114665D01*
X114272Y70571D02*
X114665D01*
X114272Y51476D02*
X114665D01*
X114272Y48917D02*
X114665D01*
X114173Y28839D02*
X114567D01*
X114173Y26280D02*
X114567D01*
X272441Y157087D02*
X273130D01*
X272441Y164173D02*
X273130D01*
X277264Y157087D02*
X277953D01*
X277264Y164173D02*
X277953D01*
X272441Y157087D02*
Y164173D01*
X277953Y157087D02*
Y164173D01*
X289829Y157087D02*
Y164173D01*
X284318Y157087D02*
Y164173D01*
X289140D02*
X289829D01*
X289140Y157087D02*
X289829D01*
X284318Y164173D02*
X285007D01*
X284318Y157087D02*
X285007D01*
X296194D02*
X296883D01*
X296194Y164173D02*
X296883D01*
X301017Y157087D02*
X301706D01*
X301017Y164173D02*
X301706D01*
X296194Y157087D02*
Y164173D01*
X301706Y157087D02*
Y164173D01*
X313583Y157087D02*
Y164173D01*
X308071Y157087D02*
Y164173D01*
X312894D02*
X313583D01*
X312894Y157087D02*
X313583D01*
X308071Y164173D02*
X308760D01*
X308071Y157087D02*
X308760D01*
X312894Y232677D02*
X313583D01*
X312894Y225590D02*
X313583D01*
X308071Y232677D02*
X308760D01*
X308071Y225590D02*
X308760D01*
X313583D02*
Y232677D01*
X308071Y225590D02*
Y232677D01*
X296194Y225590D02*
Y232677D01*
X301706Y225590D02*
Y232677D01*
X296194Y225590D02*
X296883D01*
X296194Y232677D02*
X296883D01*
X301017Y225590D02*
X301706D01*
X301017Y232677D02*
X301706D01*
X289140D02*
X289829D01*
X289140Y225590D02*
X289829D01*
X284318Y232677D02*
X285007D01*
X284318Y225590D02*
X285007D01*
X289829D02*
Y232677D01*
X284318Y225590D02*
Y232677D01*
X272441Y225590D02*
Y232677D01*
X277953Y225590D02*
Y232677D01*
X272441Y225590D02*
X273130D01*
X272441Y232677D02*
X273130D01*
X277264Y225590D02*
X277953D01*
X277264Y232677D02*
X277953D01*
X24213Y60827D02*
X35630D01*
X24213Y54134D02*
X35630D01*
X24213Y60039D02*
Y60827D01*
X35630Y60039D02*
Y60827D01*
X24213Y54134D02*
Y54921D01*
X35630Y54134D02*
Y54921D01*
X24213Y50197D02*
Y50984D01*
X35630Y50197D02*
Y50984D01*
X24213Y44291D02*
Y45079D01*
X35630Y44291D02*
Y45079D01*
X24213Y50984D02*
X35630D01*
X24213Y44291D02*
X35630D01*
X36614Y348819D02*
X48032D01*
X36614Y342126D02*
X48032D01*
X36614Y348031D02*
Y348819D01*
X48032Y348031D02*
Y348819D01*
X36614Y342126D02*
Y342913D01*
X48032Y342126D02*
Y342913D01*
X36614Y361811D02*
Y362598D01*
X48031Y361811D02*
Y362598D01*
X36614Y355906D02*
Y356693D01*
X48031Y355906D02*
Y356693D01*
X36614Y362598D02*
X48031D01*
X36614Y355906D02*
X48031D01*
X255118Y347244D02*
Y349606D01*
X248819Y347244D02*
Y349606D01*
X278248Y64961D02*
Y67323D01*
X271949Y64961D02*
Y67323D01*
X290223Y64961D02*
Y67323D01*
X283924Y64961D02*
Y67323D01*
X26378Y335630D02*
X30709D01*
X26378Y325787D02*
X30709D01*
X205512Y161417D02*
Y205512D01*
X249606Y161417D02*
Y205512D01*
X205512D02*
X249606D01*
X205512Y161417D02*
X249606D01*
X274606Y105807D02*
Y126673D01*
X288386Y105807D02*
Y126673D01*
X298228Y105807D02*
Y126673D01*
X312008Y105807D02*
Y126673D01*
X298366Y266929D02*
Y287795D01*
X312146Y266929D02*
Y287795D01*
X274862Y266929D02*
Y287795D01*
X288642Y266929D02*
Y287795D01*
X295702Y138878D02*
Y142421D01*
X301804Y138878D02*
Y142421D01*
X314173Y64961D02*
Y67323D01*
X307874Y64961D02*
Y67323D01*
X179724Y34252D02*
X180512D01*
X179724Y22835D02*
X180512D01*
X173819Y34252D02*
X174606D01*
X173819Y22835D02*
X174606D01*
X180512D02*
Y34252D01*
X173819Y22835D02*
Y34252D01*
Y44488D02*
Y55905D01*
X180512Y44488D02*
Y55905D01*
X173819Y44488D02*
X174606D01*
X173819Y55905D02*
X174606D01*
X179724Y44488D02*
X180512D01*
X179724Y55905D02*
X180512D01*
X179724Y77559D02*
X180512D01*
X179724Y66142D02*
X180512D01*
X173819Y77559D02*
X174606D01*
X173819Y66142D02*
X174606D01*
X180512D02*
Y77559D01*
X173819Y66142D02*
Y77559D01*
Y87795D02*
Y99213D01*
X180512Y87795D02*
Y99213D01*
X173819Y87795D02*
X174606D01*
X173819Y99213D02*
X174606D01*
X179724Y87795D02*
X180512D01*
X179724Y99213D02*
X180512D01*
X179724Y120866D02*
X180512D01*
X179724Y109449D02*
X180512D01*
X173819Y120866D02*
X174606D01*
X173819Y109449D02*
X174606D01*
X180512D02*
Y120866D01*
X173819Y109449D02*
Y120866D01*
Y131102D02*
Y142520D01*
X180512Y131102D02*
Y142520D01*
X173819Y131102D02*
X174606D01*
X173819Y142520D02*
X174606D01*
X179724Y131102D02*
X180512D01*
X179724Y142520D02*
X180512D01*
X179724Y164173D02*
X180512D01*
X179724Y152756D02*
X180512D01*
X173819Y164173D02*
X174606D01*
X173819Y152756D02*
X174606D01*
X180512D02*
Y164173D01*
X173819Y152756D02*
Y164173D01*
Y174409D02*
Y185827D01*
X180512Y174409D02*
Y185827D01*
X173819Y174409D02*
X174606D01*
X173819Y185827D02*
X174606D01*
X179724Y174409D02*
X180512D01*
X179724Y185827D02*
X180512D01*
X179724Y207480D02*
X180512D01*
X179724Y196063D02*
X180512D01*
X173819Y207480D02*
X174606D01*
X173819Y196063D02*
X174606D01*
X180512D02*
Y207480D01*
X173819Y196063D02*
Y207480D01*
X173819Y217717D02*
Y229134D01*
X180512Y217717D02*
Y229134D01*
X173819Y217717D02*
X174607D01*
X173819Y229134D02*
X174607D01*
X179725Y217717D02*
X180512D01*
X179725Y229134D02*
X180512D01*
X179725Y250787D02*
X180512D01*
X179725Y239370D02*
X180512D01*
X173819Y250787D02*
X174607D01*
X173819Y239370D02*
X174607D01*
X180512D02*
Y250787D01*
X173819Y239370D02*
Y250787D01*
Y261024D02*
Y272441D01*
X180512Y261024D02*
Y272441D01*
X173819Y261024D02*
X174607D01*
X173819Y272441D02*
X174607D01*
X179725Y261024D02*
X180512D01*
X179725Y272441D02*
X180512D01*
X179724Y294094D02*
X180512D01*
X179724Y282677D02*
X180512D01*
X173819Y294094D02*
X174606D01*
X173819Y282677D02*
X174606D01*
X180512D02*
Y294094D01*
X173819Y282677D02*
Y294094D01*
Y304331D02*
Y315748D01*
X180512Y304331D02*
Y315748D01*
X173819Y304331D02*
X174606D01*
X173819Y315748D02*
X174606D01*
X179724Y304331D02*
X180512D01*
X179724Y315748D02*
X180512D01*
X179724Y337402D02*
X180512D01*
X179724Y325984D02*
X180512D01*
X173819Y337402D02*
X174606D01*
X173819Y325984D02*
X174606D01*
X180512D02*
Y337402D01*
X173819Y325984D02*
Y337402D01*
X173819Y347638D02*
Y359055D01*
X180512Y347638D02*
Y359055D01*
X173819Y347638D02*
X174606D01*
X173819Y359055D02*
X174606D01*
X179724Y347638D02*
X180512D01*
X179724Y359055D02*
X180512D01*
X77166Y22441D02*
X92520D01*
X77166Y34646D02*
X92520D01*
X77166Y44094D02*
X92520D01*
X77166Y56299D02*
X92520D01*
X77166Y65748D02*
X92520D01*
X77166Y77953D02*
X92520D01*
X77166Y87401D02*
X92520D01*
X77166Y99606D02*
X92520D01*
X77166Y109055D02*
X92520D01*
X77166Y121260D02*
X92520D01*
X77166Y130709D02*
X92520D01*
X77166Y142913D02*
X92520D01*
X77166Y152362D02*
X92520D01*
X77166Y164567D02*
X92520D01*
X77166Y174016D02*
X92520D01*
X77166Y186220D02*
X92520D01*
X77166Y195669D02*
X92520D01*
X77166Y207874D02*
X92520D01*
X77166Y217323D02*
X92520D01*
X77166Y229527D02*
X92520D01*
X77166Y238976D02*
X92520D01*
X77166Y251181D02*
X92520D01*
X77166Y260630D02*
X92520D01*
X77166Y272835D02*
X92520D01*
X77166Y282283D02*
X92520D01*
X77166Y294488D02*
X92520D01*
X77166Y303937D02*
X92520D01*
X77166Y316142D02*
X92520D01*
X77166Y325590D02*
X92520D01*
X77166Y337795D02*
X92520D01*
X77166Y347244D02*
X92520D01*
X77166Y359449D02*
X92520D01*
X45177Y323031D02*
Y326575D01*
X51279Y323031D02*
Y326575D01*
X92716Y374803D02*
X108071D01*
X92716Y387008D02*
X108071D01*
X141929Y374803D02*
X157283D01*
X141929Y387008D02*
X157283D01*
X302198Y64961D02*
Y67323D01*
X295899Y64961D02*
Y67323D01*
X250886Y67913D02*
Y68307D01*
X248327Y67913D02*
Y68307D01*
X244589Y67913D02*
Y68307D01*
X242030Y67913D02*
Y68307D01*
X37663Y390975D02*
X36351D01*
X37007D01*
Y387696D01*
X36351Y387039D01*
X35695D01*
X35039Y387696D01*
X39631Y389663D02*
X40943D01*
X41599Y389007D01*
Y387039D01*
X39631D01*
X38975Y387696D01*
X39631Y388351D01*
X41599D01*
X42911Y389663D02*
Y387039D01*
Y388351D01*
X43567Y389007D01*
X44223Y389663D01*
X44879D01*
X47503Y387039D02*
X48814D01*
X49470Y387696D01*
Y389007D01*
X48814Y389663D01*
X47503D01*
X46847Y389007D01*
Y387696D01*
X47503Y387039D01*
X53406Y390975D02*
Y387039D01*
X51438D01*
X50782Y387696D01*
Y389007D01*
X51438Y389663D01*
X53406D01*
X58654Y390975D02*
Y387039D01*
Y388351D01*
X61278Y390975D01*
X59310Y389007D01*
X61278Y387039D01*
X62590Y389663D02*
Y387039D01*
Y388351D01*
X63245Y389007D01*
X63902Y389663D01*
X64557D01*
X67181D02*
X68493D01*
X69149Y389007D01*
Y387039D01*
X67181D01*
X66525Y387696D01*
X67181Y388351D01*
X69149D01*
X70461Y387039D02*
Y389663D01*
X72429D01*
X73085Y389007D01*
Y387039D01*
X76365D02*
X75053D01*
X74397Y387696D01*
Y389007D01*
X75053Y389663D01*
X76365D01*
X77021Y389007D01*
Y388351D01*
X74397D01*
X382939Y70471D02*
X381627D01*
X382283D01*
Y67191D01*
X381627Y66535D01*
X380971D01*
X380315Y67191D01*
X384251Y66535D02*
X385563D01*
X384907D01*
Y70471D01*
X384251Y69815D01*
X323490Y8660D02*
X322178D01*
X322834D01*
Y5380D01*
X322178Y4724D01*
X321522D01*
X320866Y5380D01*
X327426Y8660D02*
X324802D01*
Y6692D01*
X326114Y7348D01*
X326770D01*
X327426Y6692D01*
Y5380D01*
X326770Y4724D01*
X325458D01*
X324802Y5380D01*
X323096Y389369D02*
X321784D01*
X322440D01*
Y386089D01*
X321784Y385433D01*
X321128D01*
X320472Y386089D01*
X324408Y388713D02*
X325064Y389369D01*
X326376D01*
X327032Y388713D01*
Y388057D01*
X326376Y387401D01*
X325720D01*
X326376D01*
X327032Y386745D01*
Y386089D01*
X326376Y385433D01*
X325064D01*
X324408Y386089D01*
X318374Y64041D02*
X317718Y63385D01*
Y62073D01*
X318374Y61417D01*
X320998D01*
X321654Y62073D01*
Y63385D01*
X320998Y64041D01*
X321654Y65353D02*
Y66665D01*
Y66009D01*
X317718D01*
X318374Y65353D01*
X320998Y68633D02*
X321654Y69289D01*
Y70601D01*
X320998Y71257D01*
X318374D01*
X317718Y70601D01*
Y69289D01*
X318374Y68633D01*
X319030D01*
X319686Y69289D01*
Y71257D01*
X166535Y384252D02*
Y388188D01*
X168503D01*
X169159Y387532D01*
Y386220D01*
X168503Y385564D01*
X166535D01*
X167847D02*
X169159Y384252D01*
X170471Y387532D02*
X171127Y388188D01*
X172439D01*
X173095Y387532D01*
Y386876D01*
X172439Y386220D01*
X173095Y385564D01*
Y384908D01*
X172439Y384252D01*
X171127D01*
X170471Y384908D01*
Y385564D01*
X171127Y386220D01*
X170471Y386876D01*
Y387532D01*
X171127Y386220D02*
X172439D01*
X117224Y384146D02*
Y388081D01*
X119192D01*
X119848Y387425D01*
Y386114D01*
X119192Y385458D01*
X117224D01*
X118536D02*
X119848Y384146D01*
X121160Y388081D02*
X123784D01*
Y387425D01*
X121160Y384802D01*
Y384146D01*
X56693Y322047D02*
X52757D01*
Y324015D01*
X53413Y324671D01*
X54725D01*
X55381Y324015D01*
Y322047D01*
Y323359D02*
X56693Y324671D01*
X52757Y328607D02*
X53413Y327295D01*
X54725Y325983D01*
X56037D01*
X56693Y326639D01*
Y327951D01*
X56037Y328607D01*
X55381D01*
X54725Y327951D01*
Y325983D01*
X70866Y361417D02*
Y365353D01*
X72834D01*
X73490Y364697D01*
Y363385D01*
X72834Y362729D01*
X70866D01*
X72178D02*
X73490Y361417D01*
X74802Y364697D02*
X75458Y365353D01*
X76770D01*
X77426Y364697D01*
Y364041D01*
X76770Y363385D01*
X76114D01*
X76770D01*
X77426Y362729D01*
Y362073D01*
X76770Y361417D01*
X75458D01*
X74802Y362073D01*
X78738Y360761D02*
X81362D01*
X82674Y361417D02*
X83986D01*
X83330D01*
Y365353D01*
X82674Y364697D01*
X88577Y365353D02*
X87265Y364697D01*
X85953Y363385D01*
Y362073D01*
X86609Y361417D01*
X87921D01*
X88577Y362073D01*
Y362729D01*
X87921Y363385D01*
X85953D01*
X70866Y339764D02*
Y343700D01*
X72834D01*
X73490Y343043D01*
Y341732D01*
X72834Y341076D01*
X70866D01*
X72178D02*
X73490Y339764D01*
X74802Y343043D02*
X75458Y343700D01*
X76770D01*
X77426Y343043D01*
Y342388D01*
X76770Y341732D01*
X76114D01*
X76770D01*
X77426Y341076D01*
Y340420D01*
X76770Y339764D01*
X75458D01*
X74802Y340420D01*
X78738Y339108D02*
X81362D01*
X82674Y339764D02*
X83986D01*
X83330D01*
Y343700D01*
X82674Y343043D01*
X88577Y343700D02*
X85953D01*
Y341732D01*
X87265Y342388D01*
X87921D01*
X88577Y341732D01*
Y340420D01*
X87921Y339764D01*
X86609D01*
X85953Y340420D01*
X70866Y318110D02*
Y322046D01*
X72834D01*
X73490Y321390D01*
Y320078D01*
X72834Y319422D01*
X70866D01*
X72178D02*
X73490Y318110D01*
X74802Y321390D02*
X75458Y322046D01*
X76770D01*
X77426Y321390D01*
Y320734D01*
X76770Y320078D01*
X76114D01*
X76770D01*
X77426Y319422D01*
Y318766D01*
X76770Y318110D01*
X75458D01*
X74802Y318766D01*
X78738Y317454D02*
X81362D01*
X82674Y318110D02*
X83986D01*
X83330D01*
Y322046D01*
X82674Y321390D01*
X87921Y318110D02*
Y322046D01*
X85953Y320078D01*
X88577D01*
X70866Y296457D02*
Y300392D01*
X72834D01*
X73490Y299736D01*
Y298425D01*
X72834Y297769D01*
X70866D01*
X72178D02*
X73490Y296457D01*
X74802Y299736D02*
X75458Y300392D01*
X76770D01*
X77426Y299736D01*
Y299080D01*
X76770Y298425D01*
X76114D01*
X76770D01*
X77426Y297769D01*
Y297113D01*
X76770Y296457D01*
X75458D01*
X74802Y297113D01*
X78738Y295801D02*
X81362D01*
X82674Y296457D02*
X83986D01*
X83330D01*
Y300392D01*
X82674Y299736D01*
X85953D02*
X86609Y300392D01*
X87921D01*
X88577Y299736D01*
Y299080D01*
X87921Y298425D01*
X87265D01*
X87921D01*
X88577Y297769D01*
Y297113D01*
X87921Y296457D01*
X86609D01*
X85953Y297113D01*
X70866Y274803D02*
Y278739D01*
X72834D01*
X73490Y278083D01*
Y276771D01*
X72834Y276115D01*
X70866D01*
X72178D02*
X73490Y274803D01*
X74802Y278083D02*
X75458Y278739D01*
X76770D01*
X77426Y278083D01*
Y277427D01*
X76770Y276771D01*
X76114D01*
X76770D01*
X77426Y276115D01*
Y275459D01*
X76770Y274803D01*
X75458D01*
X74802Y275459D01*
X78738Y274147D02*
X81361D01*
X82673Y274803D02*
X83985D01*
X83329D01*
Y278739D01*
X82673Y278083D01*
X88577Y274803D02*
X85953D01*
X88577Y277427D01*
Y278083D01*
X87921Y278739D01*
X86609D01*
X85953Y278083D01*
X70866Y253150D02*
Y257085D01*
X72834D01*
X73490Y256429D01*
Y255117D01*
X72834Y254462D01*
X70866D01*
X72178D02*
X73490Y253150D01*
X74802Y256429D02*
X75458Y257085D01*
X76770D01*
X77426Y256429D01*
Y255773D01*
X76770Y255117D01*
X76114D01*
X76770D01*
X77426Y254462D01*
Y253805D01*
X76770Y253150D01*
X75458D01*
X74802Y253805D01*
X78738Y252494D02*
X81361D01*
X82673Y253150D02*
X83985D01*
X83329D01*
Y257085D01*
X82673Y256429D01*
X85953Y253150D02*
X87265D01*
X86609D01*
Y257085D01*
X85953Y256429D01*
X70866Y231496D02*
Y235432D01*
X72834D01*
X73490Y234776D01*
Y233464D01*
X72834Y232808D01*
X70866D01*
X72178D02*
X73490Y231496D01*
X74802Y234776D02*
X75458Y235432D01*
X76770D01*
X77426Y234776D01*
Y234120D01*
X76770Y233464D01*
X76114D01*
X76770D01*
X77426Y232808D01*
Y232152D01*
X76770Y231496D01*
X75458D01*
X74802Y232152D01*
X78738Y230840D02*
X81361D01*
X82673Y231496D02*
X83985D01*
X83329D01*
Y235432D01*
X82673Y234776D01*
X85953D02*
X86609Y235432D01*
X87921D01*
X88577Y234776D01*
Y232152D01*
X87921Y231496D01*
X86609D01*
X85953Y232152D01*
Y234776D01*
X70866Y209842D02*
Y213778D01*
X72834D01*
X73490Y213122D01*
Y211810D01*
X72834Y211154D01*
X70866D01*
X72178D02*
X73490Y209842D01*
X74802Y213122D02*
X75458Y213778D01*
X76770D01*
X77426Y213122D01*
Y212466D01*
X76770Y211810D01*
X76114D01*
X76770D01*
X77426Y211154D01*
Y210498D01*
X76770Y209842D01*
X75458D01*
X74802Y210498D01*
X78738Y209187D02*
X81362D01*
X82674Y210498D02*
X83330Y209842D01*
X84641D01*
X85298Y210498D01*
Y213122D01*
X84641Y213778D01*
X83330D01*
X82674Y213122D01*
Y212466D01*
X83330Y211810D01*
X85298D01*
X70866Y188189D02*
Y192125D01*
X72834D01*
X73490Y191469D01*
Y190157D01*
X72834Y189501D01*
X70866D01*
X72178D02*
X73490Y188189D01*
X74802Y191469D02*
X75458Y192125D01*
X76770D01*
X77426Y191469D01*
Y190813D01*
X76770Y190157D01*
X76114D01*
X76770D01*
X77426Y189501D01*
Y188845D01*
X76770Y188189D01*
X75458D01*
X74802Y188845D01*
X78738Y187533D02*
X81362D01*
X82674Y191469D02*
X83330Y192125D01*
X84641D01*
X85298Y191469D01*
Y190813D01*
X84641Y190157D01*
X85298Y189501D01*
Y188845D01*
X84641Y188189D01*
X83330D01*
X82674Y188845D01*
Y189501D01*
X83330Y190157D01*
X82674Y190813D01*
Y191469D01*
X83330Y190157D02*
X84641D01*
X70866Y166535D02*
Y170471D01*
X72834D01*
X73490Y169815D01*
Y168503D01*
X72834Y167847D01*
X70866D01*
X72178D02*
X73490Y166535D01*
X74802Y169815D02*
X75458Y170471D01*
X76770D01*
X77426Y169815D01*
Y169159D01*
X76770Y168503D01*
X76114D01*
X76770D01*
X77426Y167847D01*
Y167191D01*
X76770Y166535D01*
X75458D01*
X74802Y167191D01*
X78738Y165879D02*
X81362D01*
X82674Y170471D02*
X85298D01*
Y169815D01*
X82674Y167191D01*
Y166535D01*
X70866Y144882D02*
Y148818D01*
X72834D01*
X73490Y148162D01*
Y146850D01*
X72834Y146194D01*
X70866D01*
X72178D02*
X73490Y144882D01*
X74802Y148162D02*
X75458Y148818D01*
X76770D01*
X77426Y148162D01*
Y147506D01*
X76770Y146850D01*
X76114D01*
X76770D01*
X77426Y146194D01*
Y145538D01*
X76770Y144882D01*
X75458D01*
X74802Y145538D01*
X78738Y144226D02*
X81362D01*
X85298Y148818D02*
X83986Y148162D01*
X82674Y146850D01*
Y145538D01*
X83330Y144882D01*
X84641D01*
X85298Y145538D01*
Y146194D01*
X84641Y146850D01*
X82674D01*
X70866Y122835D02*
Y126770D01*
X72834D01*
X73490Y126114D01*
Y124802D01*
X72834Y124146D01*
X70866D01*
X72178D02*
X73490Y122835D01*
X74802Y126114D02*
X75458Y126770D01*
X76770D01*
X77426Y126114D01*
Y125458D01*
X76770Y124802D01*
X76114D01*
X76770D01*
X77426Y124146D01*
Y123491D01*
X76770Y122835D01*
X75458D01*
X74802Y123491D01*
X78738Y122179D02*
X81362D01*
X85298Y126770D02*
X82674D01*
Y124802D01*
X83986Y125458D01*
X84641D01*
X85298Y124802D01*
Y123491D01*
X84641Y122835D01*
X83330D01*
X82674Y123491D01*
X70866Y101575D02*
Y105510D01*
X72834D01*
X73490Y104855D01*
Y103543D01*
X72834Y102887D01*
X70866D01*
X72178D02*
X73490Y101575D01*
X74802Y104855D02*
X75458Y105510D01*
X76770D01*
X77426Y104855D01*
Y104199D01*
X76770Y103543D01*
X76114D01*
X76770D01*
X77426Y102887D01*
Y102231D01*
X76770Y101575D01*
X75458D01*
X74802Y102231D01*
X78738Y100919D02*
X81362D01*
X84641Y101575D02*
Y105510D01*
X82674Y103543D01*
X85298D01*
X70866Y79527D02*
Y83463D01*
X72834D01*
X73490Y82807D01*
Y81495D01*
X72834Y80840D01*
X70866D01*
X72178D02*
X73490Y79527D01*
X74802Y82807D02*
X75458Y83463D01*
X76770D01*
X77426Y82807D01*
Y82151D01*
X76770Y81495D01*
X76114D01*
X76770D01*
X77426Y80840D01*
Y80184D01*
X76770Y79527D01*
X75458D01*
X74802Y80184D01*
X78738Y78872D02*
X81362D01*
X82674Y82807D02*
X83330Y83463D01*
X84641D01*
X85298Y82807D01*
Y82151D01*
X84641Y81495D01*
X83986D01*
X84641D01*
X85298Y80840D01*
Y80184D01*
X84641Y79527D01*
X83330D01*
X82674Y80184D01*
X70866Y58268D02*
Y62203D01*
X72834D01*
X73490Y61547D01*
Y60236D01*
X72834Y59580D01*
X70866D01*
X72178D02*
X73490Y58268D01*
X74802Y61547D02*
X75458Y62203D01*
X76770D01*
X77426Y61547D01*
Y60891D01*
X76770Y60236D01*
X76114D01*
X76770D01*
X77426Y59580D01*
Y58924D01*
X76770Y58268D01*
X75458D01*
X74802Y58924D01*
X78738Y57612D02*
X81362D01*
X85298Y58268D02*
X82674D01*
X85298Y60891D01*
Y61547D01*
X84641Y62203D01*
X83330D01*
X82674Y61547D01*
X70866Y36614D02*
Y40550D01*
X72834D01*
X73490Y39894D01*
Y38582D01*
X72834Y37926D01*
X70866D01*
X72178D02*
X73490Y36614D01*
X74802Y39894D02*
X75458Y40550D01*
X76770D01*
X77426Y39894D01*
Y39238D01*
X76770Y38582D01*
X76114D01*
X76770D01*
X77426Y37926D01*
Y37270D01*
X76770Y36614D01*
X75458D01*
X74802Y37270D01*
X78738Y35958D02*
X81362D01*
X82674Y36614D02*
X83986D01*
X83330D01*
Y40550D01*
X82674Y39894D01*
X125197Y346063D02*
Y349999D01*
X127165D01*
X127821Y349343D01*
Y348031D01*
X127165Y347375D01*
X125197D01*
X126509D02*
X127821Y346063D01*
X131756D02*
X129133D01*
X131756Y348687D01*
Y349343D01*
X131100Y349999D01*
X129789D01*
X129133Y349343D01*
X133068Y345407D02*
X135692D01*
X137004Y346063D02*
X138316D01*
X137660D01*
Y349999D01*
X137004Y349343D01*
X142908Y349999D02*
X141596Y349343D01*
X140284Y348031D01*
Y346719D01*
X140940Y346063D01*
X142252D01*
X142908Y346719D01*
Y347375D01*
X142252Y348031D01*
X140284D01*
X125197Y324410D02*
Y328345D01*
X127165D01*
X127821Y327689D01*
Y326377D01*
X127165Y325721D01*
X125197D01*
X126509D02*
X127821Y324410D01*
X131756D02*
X129133D01*
X131756Y327033D01*
Y327689D01*
X131100Y328345D01*
X129789D01*
X129133Y327689D01*
X133068Y323753D02*
X135692D01*
X137004Y324410D02*
X138316D01*
X137660D01*
Y328345D01*
X137004Y327689D01*
X142908Y328345D02*
X140284D01*
Y326377D01*
X141596Y327033D01*
X142252D01*
X142908Y326377D01*
Y325065D01*
X142252Y324410D01*
X140940D01*
X140284Y325065D01*
X125197Y302756D02*
Y306692D01*
X127165D01*
X127821Y306036D01*
Y304724D01*
X127165Y304068D01*
X125197D01*
X126509D02*
X127821Y302756D01*
X131756D02*
X129133D01*
X131756Y305380D01*
Y306036D01*
X131100Y306692D01*
X129789D01*
X129133Y306036D01*
X133068Y302100D02*
X135692D01*
X137004Y302756D02*
X138316D01*
X137660D01*
Y306692D01*
X137004Y306036D01*
X142252Y302756D02*
Y306692D01*
X140284Y304724D01*
X142908D01*
X125197Y281102D02*
Y285038D01*
X127165D01*
X127821Y284382D01*
Y283070D01*
X127165Y282414D01*
X125197D01*
X126509D02*
X127821Y281102D01*
X131756D02*
X129133D01*
X131756Y283726D01*
Y284382D01*
X131100Y285038D01*
X129789D01*
X129133Y284382D01*
X133068Y280446D02*
X135692D01*
X137004Y281102D02*
X138316D01*
X137660D01*
Y285038D01*
X137004Y284382D01*
X140284D02*
X140940Y285038D01*
X142252D01*
X142908Y284382D01*
Y283726D01*
X142252Y283070D01*
X141596D01*
X142252D01*
X142908Y282414D01*
Y281758D01*
X142252Y281102D01*
X140940D01*
X140284Y281758D01*
X125197Y259449D02*
Y263385D01*
X127165D01*
X127821Y262729D01*
Y261417D01*
X127165Y260761D01*
X125197D01*
X126509D02*
X127821Y259449D01*
X131756D02*
X129133D01*
X131756Y262073D01*
Y262729D01*
X131100Y263385D01*
X129789D01*
X129133Y262729D01*
X133068Y258793D02*
X135692D01*
X137004Y259449D02*
X138316D01*
X137660D01*
Y263385D01*
X137004Y262729D01*
X142908Y259449D02*
X140284D01*
X142908Y262073D01*
Y262729D01*
X142252Y263385D01*
X140940D01*
X140284Y262729D01*
X125197Y237795D02*
Y241731D01*
X127165D01*
X127821Y241075D01*
Y239763D01*
X127165Y239107D01*
X125197D01*
X126509D02*
X127821Y237795D01*
X131756D02*
X129133D01*
X131756Y240419D01*
Y241075D01*
X131100Y241731D01*
X129789D01*
X129133Y241075D01*
X133068Y237139D02*
X135692D01*
X137004Y237795D02*
X138316D01*
X137660D01*
Y241731D01*
X137004Y241075D01*
X140284Y237795D02*
X141596D01*
X140940D01*
Y241731D01*
X140284Y241075D01*
X125197Y216142D02*
Y220077D01*
X127165D01*
X127821Y219422D01*
Y218110D01*
X127165Y217454D01*
X125197D01*
X126509D02*
X127821Y216142D01*
X131756D02*
X129133D01*
X131756Y218765D01*
Y219422D01*
X131100Y220077D01*
X129789D01*
X129133Y219422D01*
X133068Y215486D02*
X135692D01*
X137004Y216142D02*
X138316D01*
X137660D01*
Y220077D01*
X137004Y219422D01*
X140284D02*
X140940Y220077D01*
X142252D01*
X142908Y219422D01*
Y216798D01*
X142252Y216142D01*
X140940D01*
X140284Y216798D01*
Y219422D01*
X125197Y194488D02*
Y198424D01*
X127165D01*
X127821Y197768D01*
Y196456D01*
X127165Y195800D01*
X125197D01*
X126509D02*
X127821Y194488D01*
X131756D02*
X129133D01*
X131756Y197112D01*
Y197768D01*
X131100Y198424D01*
X129789D01*
X129133Y197768D01*
X133068Y193832D02*
X135692D01*
X137004Y195144D02*
X137660Y194488D01*
X138972D01*
X139628Y195144D01*
Y197768D01*
X138972Y198424D01*
X137660D01*
X137004Y197768D01*
Y197112D01*
X137660Y196456D01*
X139628D01*
X125197Y172835D02*
Y176770D01*
X127165D01*
X127821Y176114D01*
Y174802D01*
X127165Y174147D01*
X125197D01*
X126509D02*
X127821Y172835D01*
X131756D02*
X129133D01*
X131756Y175459D01*
Y176114D01*
X131100Y176770D01*
X129789D01*
X129133Y176114D01*
X133068Y172179D02*
X135692D01*
X137004Y176114D02*
X137660Y176770D01*
X138972D01*
X139628Y176114D01*
Y175459D01*
X138972Y174802D01*
X139628Y174147D01*
Y173491D01*
X138972Y172835D01*
X137660D01*
X137004Y173491D01*
Y174147D01*
X137660Y174802D01*
X137004Y175459D01*
Y176114D01*
X137660Y174802D02*
X138972D01*
X125197Y151181D02*
Y155117D01*
X127165D01*
X127821Y154461D01*
Y153149D01*
X127165Y152493D01*
X125197D01*
X126509D02*
X127821Y151181D01*
X131756D02*
X129133D01*
X131756Y153805D01*
Y154461D01*
X131100Y155117D01*
X129789D01*
X129133Y154461D01*
X133068Y150525D02*
X135692D01*
X137004Y155117D02*
X139628D01*
Y154461D01*
X137004Y151837D01*
Y151181D01*
X125197Y129528D02*
Y133463D01*
X127165D01*
X127821Y132807D01*
Y131495D01*
X127165Y130840D01*
X125197D01*
X126509D02*
X127821Y129528D01*
X131756D02*
X129133D01*
X131756Y132151D01*
Y132807D01*
X131100Y133463D01*
X129789D01*
X129133Y132807D01*
X133068Y128872D02*
X135692D01*
X139628Y133463D02*
X138316Y132807D01*
X137004Y131495D01*
Y130183D01*
X137660Y129528D01*
X138972D01*
X139628Y130183D01*
Y130840D01*
X138972Y131495D01*
X137004D01*
X125197Y107874D02*
Y111810D01*
X127165D01*
X127821Y111154D01*
Y109842D01*
X127165Y109186D01*
X125197D01*
X126509D02*
X127821Y107874D01*
X131756D02*
X129133D01*
X131756Y110498D01*
Y111154D01*
X131100Y111810D01*
X129789D01*
X129133Y111154D01*
X133068Y107218D02*
X135692D01*
X139628Y111810D02*
X137004D01*
Y109842D01*
X138316Y110498D01*
X138972D01*
X139628Y109842D01*
Y108530D01*
X138972Y107874D01*
X137660D01*
X137004Y108530D01*
X125197Y86221D02*
Y90156D01*
X127165D01*
X127821Y89500D01*
Y88188D01*
X127165Y87532D01*
X125197D01*
X126509D02*
X127821Y86221D01*
X131756D02*
X129133D01*
X131756Y88844D01*
Y89500D01*
X131100Y90156D01*
X129789D01*
X129133Y89500D01*
X133068Y85565D02*
X135692D01*
X138972Y86221D02*
Y90156D01*
X137004Y88188D01*
X139628D01*
X125197Y64567D02*
Y68503D01*
X127165D01*
X127821Y67847D01*
Y66535D01*
X127165Y65879D01*
X125197D01*
X126509D02*
X127821Y64567D01*
X131756D02*
X129133D01*
X131756Y67191D01*
Y67847D01*
X131100Y68503D01*
X129789D01*
X129133Y67847D01*
X133068Y63911D02*
X135692D01*
X137004Y67847D02*
X137660Y68503D01*
X138972D01*
X139628Y67847D01*
Y67191D01*
X138972Y66535D01*
X138316D01*
X138972D01*
X139628Y65879D01*
Y65223D01*
X138972Y64567D01*
X137660D01*
X137004Y65223D01*
X125197Y42913D02*
Y46849D01*
X127165D01*
X127821Y46193D01*
Y44881D01*
X127165Y44225D01*
X125197D01*
X126509D02*
X127821Y42913D01*
X131756D02*
X129133D01*
X131756Y45537D01*
Y46193D01*
X131100Y46849D01*
X129789D01*
X129133Y46193D01*
X133068Y42257D02*
X135692D01*
X139628Y42913D02*
X137004D01*
X139628Y45537D01*
Y46193D01*
X138972Y46849D01*
X137660D01*
X137004Y46193D01*
X125197Y21260D02*
Y25196D01*
X127165D01*
X127821Y24540D01*
Y23228D01*
X127165Y22572D01*
X125197D01*
X126509D02*
X127821Y21260D01*
X131756D02*
X129133D01*
X131756Y23884D01*
Y24540D01*
X131100Y25196D01*
X129789D01*
X129133Y24540D01*
X133068Y20604D02*
X135692D01*
X137004Y21260D02*
X138316D01*
X137660D01*
Y25196D01*
X137004Y24540D01*
X183072Y344488D02*
X187008D01*
Y346456D01*
X186352Y347112D01*
X183728D01*
X183072Y346456D01*
Y344488D01*
X187008Y348424D02*
Y349736D01*
Y349080D01*
X183072D01*
X183728Y348424D01*
X187664Y351704D02*
Y354328D01*
X187008Y355639D02*
Y356951D01*
Y356295D01*
X183072D01*
X183728Y355639D01*
X183072Y361543D02*
X183728Y360231D01*
X185040Y358919D01*
X186352D01*
X187008Y359575D01*
Y360887D01*
X186352Y361543D01*
X185696D01*
X185040Y360887D01*
Y358919D01*
X183072Y322835D02*
X187008D01*
Y324802D01*
X186352Y325459D01*
X183728D01*
X183072Y324802D01*
Y322835D01*
X187008Y326770D02*
Y328082D01*
Y327426D01*
X183072D01*
X183728Y326770D01*
X187664Y330050D02*
Y332674D01*
X187008Y333986D02*
Y335298D01*
Y334642D01*
X183072D01*
X183728Y333986D01*
X183072Y339890D02*
Y337266D01*
X185040D01*
X184384Y338578D01*
Y339234D01*
X185040Y339890D01*
X186352D01*
X187008Y339234D01*
Y337922D01*
X186352Y337266D01*
X183072Y301181D02*
X187008D01*
Y303149D01*
X186352Y303805D01*
X183728D01*
X183072Y303149D01*
Y301181D01*
X187008Y305117D02*
Y306429D01*
Y305773D01*
X183072D01*
X183728Y305117D01*
X187664Y308397D02*
Y311020D01*
X187008Y312332D02*
Y313644D01*
Y312988D01*
X183072D01*
X183728Y312332D01*
X187008Y317580D02*
X183072D01*
X185040Y315612D01*
Y318236D01*
X183072Y279528D02*
X187008D01*
Y281495D01*
X186352Y282151D01*
X183728D01*
X183072Y281495D01*
Y279528D01*
X187008Y283463D02*
Y284775D01*
Y284119D01*
X183072D01*
X183728Y283463D01*
X187664Y286743D02*
Y289367D01*
X187008Y290679D02*
Y291991D01*
Y291335D01*
X183072D01*
X183728Y290679D01*
Y293959D02*
X183072Y294615D01*
Y295926D01*
X183728Y296582D01*
X184384D01*
X185040Y295926D01*
Y295270D01*
Y295926D01*
X185696Y296582D01*
X186352D01*
X187008Y295926D01*
Y294615D01*
X186352Y293959D01*
X183072Y257874D02*
X187008D01*
Y259842D01*
X186352Y260498D01*
X183728D01*
X183072Y259842D01*
Y257874D01*
X187008Y261810D02*
Y263122D01*
Y262466D01*
X183072D01*
X183728Y261810D01*
X187664Y265090D02*
Y267713D01*
X187008Y269025D02*
Y270337D01*
Y269681D01*
X183072D01*
X183728Y269025D01*
X187008Y274929D02*
Y272305D01*
X184384Y274929D01*
X183728D01*
X183072Y274273D01*
Y272961D01*
X183728Y272305D01*
X183072Y236221D02*
X187008D01*
Y238188D01*
X186352Y238844D01*
X183728D01*
X183072Y238188D01*
Y236221D01*
X187008Y240156D02*
Y241468D01*
Y240812D01*
X183072D01*
X183728Y240156D01*
X187664Y243436D02*
Y246060D01*
X187008Y247372D02*
Y248684D01*
Y248028D01*
X183072D01*
X183728Y247372D01*
X187008Y250652D02*
Y251963D01*
Y251308D01*
X183072D01*
X183728Y250652D01*
X183072Y214567D02*
X187008D01*
Y216535D01*
X186352Y217191D01*
X183728D01*
X183072Y216535D01*
Y214567D01*
X187008Y218503D02*
Y219815D01*
Y219159D01*
X183072D01*
X183728Y218503D01*
X187664Y221782D02*
Y224406D01*
X187008Y225718D02*
Y227030D01*
Y226374D01*
X183072D01*
X183728Y225718D01*
Y228998D02*
X183072Y229654D01*
Y230966D01*
X183728Y231622D01*
X186352D01*
X187008Y230966D01*
Y229654D01*
X186352Y228998D01*
X183728D01*
X183072Y192913D02*
X187008D01*
Y194881D01*
X186352Y195537D01*
X183728D01*
X183072Y194881D01*
Y192913D01*
X187008Y196849D02*
Y198161D01*
Y197505D01*
X183072D01*
X183728Y196849D01*
X187664Y200129D02*
Y202753D01*
X186352Y204065D02*
X187008Y204721D01*
Y206032D01*
X186352Y206688D01*
X183728D01*
X183072Y206032D01*
Y204721D01*
X183728Y204065D01*
X184384D01*
X185040Y204721D01*
Y206688D01*
X182678Y173228D02*
X186614D01*
Y175196D01*
X185958Y175852D01*
X183334D01*
X182678Y175196D01*
Y173228D01*
X186614Y177164D02*
Y178476D01*
Y177820D01*
X182678D01*
X183334Y177164D01*
X187270Y180444D02*
Y183068D01*
X183334Y184380D02*
X182678Y185036D01*
Y186347D01*
X183334Y187003D01*
X183990D01*
X184646Y186347D01*
X185302Y187003D01*
X185958D01*
X186614Y186347D01*
Y185036D01*
X185958Y184380D01*
X185302D01*
X184646Y185036D01*
X183990Y184380D01*
X183334D01*
X184646Y185036D02*
Y186347D01*
X183072Y149606D02*
X187008D01*
Y151574D01*
X186352Y152230D01*
X183728D01*
X183072Y151574D01*
Y149606D01*
X187008Y153542D02*
Y154854D01*
Y154198D01*
X183072D01*
X183728Y153542D01*
X187664Y156822D02*
Y159446D01*
X183072Y160758D02*
Y163381D01*
X183728D01*
X186352Y160758D01*
X187008D01*
X183072Y127953D02*
X187008D01*
Y129921D01*
X186352Y130577D01*
X183728D01*
X183072Y129921D01*
Y127953D01*
X187008Y131888D02*
Y133200D01*
Y132545D01*
X183072D01*
X183728Y131888D01*
X187664Y135168D02*
Y137792D01*
X183072Y141728D02*
X183728Y140416D01*
X185040Y139104D01*
X186352D01*
X187008Y139760D01*
Y141072D01*
X186352Y141728D01*
X185696D01*
X185040Y141072D01*
Y139104D01*
X183072Y106299D02*
X187008D01*
Y108267D01*
X186352Y108923D01*
X183728D01*
X183072Y108267D01*
Y106299D01*
X187008Y110235D02*
Y111547D01*
Y110891D01*
X183072D01*
X183728Y110235D01*
X187664Y113515D02*
Y116139D01*
X183072Y120074D02*
Y117450D01*
X185040D01*
X184384Y118762D01*
Y119418D01*
X185040Y120074D01*
X186352D01*
X187008Y119418D01*
Y118106D01*
X186352Y117450D01*
X183072Y84646D02*
X187008D01*
Y86614D01*
X186352Y87270D01*
X183728D01*
X183072Y86614D01*
Y84646D01*
X187008Y88581D02*
Y89893D01*
Y89237D01*
X183072D01*
X183728Y88581D01*
X187664Y91861D02*
Y94485D01*
X187008Y97765D02*
X183072D01*
X185040Y95797D01*
Y98421D01*
X183072Y63976D02*
X187008D01*
Y65944D01*
X186352Y66600D01*
X183728D01*
X183072Y65944D01*
Y63976D01*
X187008Y67912D02*
Y69224D01*
Y68568D01*
X183072D01*
X183728Y67912D01*
X187664Y71192D02*
Y73816D01*
X183728Y75128D02*
X183072Y75784D01*
Y77096D01*
X183728Y77751D01*
X184384D01*
X185040Y77096D01*
Y76439D01*
Y77096D01*
X185696Y77751D01*
X186352D01*
X187008Y77096D01*
Y75784D01*
X186352Y75128D01*
X183072Y42323D02*
X187008D01*
Y44291D01*
X186352Y44947D01*
X183728D01*
X183072Y44291D01*
Y42323D01*
X187008Y46259D02*
Y47570D01*
Y46914D01*
X183072D01*
X183728Y46259D01*
X187664Y49538D02*
Y52162D01*
X187008Y56098D02*
Y53474D01*
X184384Y56098D01*
X183728D01*
X183072Y55442D01*
Y54130D01*
X183728Y53474D01*
X183072Y19685D02*
X187008D01*
Y21653D01*
X186352Y22309D01*
X183728D01*
X183072Y21653D01*
Y19685D01*
X187008Y23621D02*
Y24933D01*
Y24277D01*
X183072D01*
X183728Y23621D01*
X187664Y26901D02*
Y29524D01*
X187008Y30836D02*
Y32148D01*
Y31492D01*
X183072D01*
X183728Y30836D01*
X159710Y363516D02*
X159055Y364172D01*
X157743D01*
X157087Y363516D01*
Y360892D01*
X157743Y360236D01*
X159055D01*
X159710Y360892D01*
X161022Y360236D02*
X162334D01*
X161678D01*
Y364172D01*
X161022Y363516D01*
X164302Y359580D02*
X166926D01*
X168238Y360236D02*
X169550D01*
X168894D01*
Y364172D01*
X168238Y363516D01*
X174142Y364172D02*
X172830Y363516D01*
X171518Y362204D01*
Y360892D01*
X172174Y360236D01*
X173486D01*
X174142Y360892D01*
Y361548D01*
X173486Y362204D01*
X171518D01*
X159710Y341863D02*
X159055Y342518D01*
X157743D01*
X157087Y341863D01*
Y339239D01*
X157743Y338583D01*
X159055D01*
X159710Y339239D01*
X161022Y338583D02*
X162334D01*
X161678D01*
Y342518D01*
X161022Y341863D01*
X164302Y337927D02*
X166926D01*
X168238Y338583D02*
X169550D01*
X168894D01*
Y342518D01*
X168238Y341863D01*
X174142Y342518D02*
X171518D01*
Y340551D01*
X172830Y341207D01*
X173486D01*
X174142Y340551D01*
Y339239D01*
X173486Y338583D01*
X172174D01*
X171518Y339239D01*
X159710Y320209D02*
X159055Y320865D01*
X157743D01*
X157087Y320209D01*
Y317585D01*
X157743Y316929D01*
X159055D01*
X159710Y317585D01*
X161022Y316929D02*
X162334D01*
X161678D01*
Y320865D01*
X161022Y320209D01*
X164302Y316273D02*
X166926D01*
X168238Y316929D02*
X169550D01*
X168894D01*
Y320865D01*
X168238Y320209D01*
X173486Y316929D02*
Y320865D01*
X171518Y318897D01*
X174142D01*
X159710Y298555D02*
X159055Y299211D01*
X157743D01*
X157087Y298555D01*
Y295932D01*
X157743Y295276D01*
X159055D01*
X159710Y295932D01*
X161022Y295276D02*
X162334D01*
X161678D01*
Y299211D01*
X161022Y298555D01*
X164302Y294620D02*
X166926D01*
X168238Y295276D02*
X169550D01*
X168894D01*
Y299211D01*
X168238Y298555D01*
X171518D02*
X172174Y299211D01*
X173486D01*
X174142Y298555D01*
Y297899D01*
X173486Y297243D01*
X172830D01*
X173486D01*
X174142Y296587D01*
Y295932D01*
X173486Y295276D01*
X172174D01*
X171518Y295932D01*
X159710Y276902D02*
X159054Y277558D01*
X157742D01*
X157086Y276902D01*
Y274278D01*
X157742Y273622D01*
X159054D01*
X159710Y274278D01*
X161022Y273622D02*
X162334D01*
X161678D01*
Y277558D01*
X161022Y276902D01*
X164302Y272966D02*
X166926D01*
X168238Y273622D02*
X169550D01*
X168894D01*
Y277558D01*
X168238Y276902D01*
X174141Y273622D02*
X171517D01*
X174141Y276246D01*
Y276902D01*
X173485Y277558D01*
X172173D01*
X171517Y276902D01*
X159710Y255248D02*
X159054Y255904D01*
X157742D01*
X157086Y255248D01*
Y252625D01*
X157742Y251969D01*
X159054D01*
X159710Y252625D01*
X161022Y251969D02*
X162334D01*
X161678D01*
Y255904D01*
X161022Y255248D01*
X164302Y251312D02*
X166926D01*
X168238Y251969D02*
X169550D01*
X168894D01*
Y255904D01*
X168238Y255248D01*
X171517Y251969D02*
X172829D01*
X172173D01*
Y255904D01*
X171517Y255248D01*
X159710Y233595D02*
X159054Y234251D01*
X157742D01*
X157086Y233595D01*
Y230971D01*
X157742Y230315D01*
X159054D01*
X159710Y230971D01*
X161022Y230315D02*
X162334D01*
X161678D01*
Y234251D01*
X161022Y233595D01*
X164302Y229659D02*
X166926D01*
X168238Y230315D02*
X169550D01*
X168894D01*
Y234251D01*
X168238Y233595D01*
X171517D02*
X172173Y234251D01*
X173485D01*
X174141Y233595D01*
Y230971D01*
X173485Y230315D01*
X172173D01*
X171517Y230971D01*
Y233595D01*
X159710Y211941D02*
X159055Y212597D01*
X157743D01*
X157087Y211941D01*
Y209317D01*
X157743Y208661D01*
X159055D01*
X159710Y209317D01*
X161022Y208661D02*
X162334D01*
X161678D01*
Y212597D01*
X161022Y211941D01*
X164302Y208005D02*
X166926D01*
X168238Y209317D02*
X168894Y208661D01*
X170206D01*
X170862Y209317D01*
Y211941D01*
X170206Y212597D01*
X168894D01*
X168238Y211941D01*
Y211285D01*
X168894Y210629D01*
X170862D01*
X159710Y190288D02*
X159055Y190944D01*
X157743D01*
X157087Y190288D01*
Y187664D01*
X157743Y187008D01*
X159055D01*
X159710Y187664D01*
X161022Y187008D02*
X162334D01*
X161678D01*
Y190944D01*
X161022Y190288D01*
X164302Y186352D02*
X166926D01*
X168238Y190288D02*
X168894Y190944D01*
X170206D01*
X170862Y190288D01*
Y189632D01*
X170206Y188976D01*
X170862Y188320D01*
Y187664D01*
X170206Y187008D01*
X168894D01*
X168238Y187664D01*
Y188320D01*
X168894Y188976D01*
X168238Y189632D01*
Y190288D01*
X168894Y188976D02*
X170206D01*
X159710Y168634D02*
X159055Y169290D01*
X157743D01*
X157087Y168634D01*
Y166010D01*
X157743Y165354D01*
X159055D01*
X159710Y166010D01*
X161022Y165354D02*
X162334D01*
X161678D01*
Y169290D01*
X161022Y168634D01*
X164302Y164698D02*
X166926D01*
X168238Y169290D02*
X170862D01*
Y168634D01*
X168238Y166010D01*
Y165354D01*
X159710Y146981D02*
X159055Y147636D01*
X157743D01*
X157087Y146981D01*
Y144357D01*
X157743Y143701D01*
X159055D01*
X159710Y144357D01*
X161022Y143701D02*
X162334D01*
X161678D01*
Y147636D01*
X161022Y146981D01*
X164302Y143045D02*
X166926D01*
X170862Y147636D02*
X169550Y146981D01*
X168238Y145669D01*
Y144357D01*
X168894Y143701D01*
X170206D01*
X170862Y144357D01*
Y145013D01*
X170206Y145669D01*
X168238D01*
X159710Y125327D02*
X159055Y125983D01*
X157743D01*
X157087Y125327D01*
Y122703D01*
X157743Y122047D01*
X159055D01*
X159710Y122703D01*
X161022Y122047D02*
X162334D01*
X161678D01*
Y125983D01*
X161022Y125327D01*
X164302Y121391D02*
X166926D01*
X170862Y125983D02*
X168238D01*
Y124015D01*
X169550Y124671D01*
X170206D01*
X170862Y124015D01*
Y122703D01*
X170206Y122047D01*
X168894D01*
X168238Y122703D01*
X159710Y103674D02*
X159055Y104329D01*
X157743D01*
X157087Y103674D01*
Y101050D01*
X157743Y100394D01*
X159055D01*
X159710Y101050D01*
X161022Y100394D02*
X162334D01*
X161678D01*
Y104329D01*
X161022Y103674D01*
X164302Y99738D02*
X166926D01*
X170206Y100394D02*
Y104329D01*
X168238Y102362D01*
X170862D01*
X159710Y82020D02*
X159055Y82676D01*
X157743D01*
X157087Y82020D01*
Y79396D01*
X157743Y78740D01*
X159055D01*
X159710Y79396D01*
X161022Y78740D02*
X162334D01*
X161678D01*
Y82676D01*
X161022Y82020D01*
X164302Y78084D02*
X166926D01*
X168238Y82020D02*
X168894Y82676D01*
X170206D01*
X170862Y82020D01*
Y81364D01*
X170206Y80708D01*
X169550D01*
X170206D01*
X170862Y80052D01*
Y79396D01*
X170206Y78740D01*
X168894D01*
X168238Y79396D01*
X159710Y60366D02*
X159055Y61022D01*
X157743D01*
X157087Y60366D01*
Y57743D01*
X157743Y57087D01*
X159055D01*
X159710Y57743D01*
X161022Y57087D02*
X162334D01*
X161678D01*
Y61022D01*
X161022Y60366D01*
X164302Y56431D02*
X166926D01*
X170862Y57087D02*
X168238D01*
X170862Y59710D01*
Y60366D01*
X170206Y61022D01*
X168894D01*
X168238Y60366D01*
X159710Y38713D02*
X159055Y39369D01*
X157743D01*
X157087Y38713D01*
Y36089D01*
X157743Y35433D01*
X159055D01*
X159710Y36089D01*
X161022Y35433D02*
X162334D01*
X161678D01*
Y39369D01*
X161022Y38713D01*
X164302Y34777D02*
X166926D01*
X168238Y35433D02*
X169550D01*
X168894D01*
Y39369D01*
X168238Y38713D01*
X324279Y63647D02*
X323623Y62991D01*
Y61680D01*
X324279Y61024D01*
X326903D01*
X327559Y61680D01*
Y62991D01*
X326903Y63647D01*
X327559Y64959D02*
Y66271D01*
Y65615D01*
X323623D01*
X324279Y64959D01*
Y68239D02*
X323623Y68895D01*
Y70207D01*
X324279Y70863D01*
X324935D01*
X325591Y70207D01*
X326247Y70863D01*
X326903D01*
X327559Y70207D01*
Y68895D01*
X326903Y68239D01*
X326247D01*
X325591Y68895D01*
X324935Y68239D01*
X324279D01*
X325591Y68895D02*
Y70207D01*
X320472Y132480D02*
X316537D01*
Y134448D01*
X317193Y135104D01*
X318505D01*
X319161Y134448D01*
Y132480D01*
Y133792D02*
X320472Y135104D01*
Y136416D02*
Y137728D01*
Y137072D01*
X316537D01*
X317193Y136416D01*
X316537Y139696D02*
Y142320D01*
X317193D01*
X319816Y139696D01*
X320472D01*
X290808Y267520D02*
Y270144D01*
Y268832D01*
X294744D01*
Y271455D02*
Y272767D01*
Y272111D01*
X290808D01*
X291464Y271455D01*
X290848Y295669D02*
Y298293D01*
Y296981D01*
X294783D01*
Y302229D02*
Y299605D01*
X292160Y302229D01*
X291504D01*
X290848Y301573D01*
Y300261D01*
X291504Y299605D01*
X314312Y267520D02*
Y270144D01*
Y268832D01*
X318248D01*
X314968Y271455D02*
X314312Y272111D01*
Y273423D01*
X314968Y274079D01*
X315624D01*
X316280Y273423D01*
Y272767D01*
Y273423D01*
X316936Y274079D01*
X317592D01*
X318248Y273423D01*
Y272111D01*
X317592Y271455D01*
X314470Y295669D02*
Y298293D01*
Y296981D01*
X318406D01*
Y301573D02*
X314470D01*
X316438Y299605D01*
Y302229D01*
X314175Y106791D02*
Y109415D01*
Y108103D01*
X318110D01*
X314175Y113351D02*
Y110727D01*
X316142D01*
X315486Y112039D01*
Y112695D01*
X316142Y113351D01*
X317454D01*
X318110Y112695D01*
Y111383D01*
X317454Y110727D01*
X313781Y81595D02*
Y84218D01*
Y82906D01*
X317717D01*
X313781Y88154D02*
X314437Y86842D01*
X315749Y85530D01*
X317061D01*
X317717Y86186D01*
Y87498D01*
X317061Y88154D01*
X316405D01*
X315749Y87498D01*
Y85530D01*
X290552Y106791D02*
Y109415D01*
Y108103D01*
X294488D01*
X290552Y110727D02*
Y113351D01*
X291208D01*
X293832Y110727D01*
X294488D01*
X290159Y81595D02*
Y84218D01*
Y82906D01*
X294094D01*
X290815Y85530D02*
X290159Y86186D01*
Y87498D01*
X290815Y88154D01*
X291471D01*
X292127Y87498D01*
X292783Y88154D01*
X293439D01*
X294094Y87498D01*
Y86186D01*
X293439Y85530D01*
X292783D01*
X292127Y86186D01*
X291471Y85530D01*
X290815D01*
X292127Y86186D02*
Y87498D01*
X253937Y211022D02*
Y207743D01*
X254593Y207087D01*
X255905D01*
X256561Y207743D01*
Y211022D01*
X257873Y207087D02*
X259185D01*
X258529D01*
Y211022D01*
X257873Y210366D01*
X31758Y321390D02*
X31102Y322046D01*
X29790D01*
X29134Y321390D01*
Y318766D01*
X29790Y318110D01*
X31102D01*
X31758Y318766D01*
X35693Y318110D02*
X33070D01*
X35693Y320734D01*
Y321390D01*
X35037Y322046D01*
X33726D01*
X33070Y321390D01*
X43962Y67059D02*
X43306Y67715D01*
X41995D01*
X41339Y67059D01*
Y64435D01*
X41995Y63779D01*
X43306D01*
X43962Y64435D01*
X45274Y67059D02*
X45930Y67715D01*
X47242D01*
X47898Y67059D01*
Y66403D01*
X47242Y65747D01*
X46586D01*
X47242D01*
X47898Y65091D01*
Y64435D01*
X47242Y63779D01*
X45930D01*
X45274Y64435D01*
X234907Y137926D02*
X234251Y138581D01*
X232939D01*
X232283Y137926D01*
Y135302D01*
X232939Y134646D01*
X234251D01*
X234907Y135302D01*
X236219Y134646D02*
X237531D01*
X236875D01*
Y138581D01*
X236219Y137926D01*
X239499Y134646D02*
X240811D01*
X240155D01*
Y138581D01*
X239499Y137926D01*
X199870Y113254D02*
X199214Y112598D01*
Y111286D01*
X199870Y110630D01*
X202494D01*
X203150Y111286D01*
Y112598D01*
X202494Y113254D01*
X203150Y114566D02*
Y115878D01*
Y115222D01*
X199214D01*
X199870Y114566D01*
X203150Y120469D02*
Y117845D01*
X200526Y120469D01*
X199870D01*
X199214Y119813D01*
Y118501D01*
X199870Y117845D01*
X205382Y113254D02*
X204726Y112598D01*
Y111286D01*
X205382Y110630D01*
X208005D01*
X208661Y111286D01*
Y112598D01*
X208005Y113254D01*
X208661Y114566D02*
Y115878D01*
Y115222D01*
X204726D01*
X205382Y114566D01*
Y117845D02*
X204726Y118501D01*
Y119813D01*
X205382Y120469D01*
X206038D01*
X206694Y119813D01*
Y119157D01*
Y119813D01*
X207349Y120469D01*
X208005D01*
X208661Y119813D01*
Y118501D01*
X208005Y117845D01*
X265224Y64041D02*
X264568Y63385D01*
Y62073D01*
X265224Y61417D01*
X267848D01*
X268504Y62073D01*
Y63385D01*
X267848Y64041D01*
X268504Y67977D02*
Y65353D01*
X265880Y67977D01*
X265224D01*
X264568Y67321D01*
Y66009D01*
X265224Y65353D01*
Y69289D02*
X264568Y69945D01*
Y71257D01*
X265224Y71913D01*
X267848D01*
X268504Y71257D01*
Y69945D01*
X267848Y69289D01*
X265224D01*
X259319Y64041D02*
X258663Y63385D01*
Y62073D01*
X259319Y61417D01*
X261943D01*
X262598Y62073D01*
Y63385D01*
X261943Y64041D01*
X262598Y67977D02*
Y65353D01*
X259975Y67977D01*
X259319D01*
X258663Y67321D01*
Y66009D01*
X259319Y65353D01*
X262598Y69289D02*
Y70601D01*
Y69945D01*
X258663D01*
X259319Y69289D01*
X257744Y346325D02*
X257088Y345669D01*
Y344357D01*
X257744Y343701D01*
X260368D01*
X261024Y344357D01*
Y345669D01*
X260368Y346325D01*
X261024Y350260D02*
Y347637D01*
X258400Y350260D01*
X257744D01*
X257088Y349604D01*
Y348292D01*
X257744Y347637D01*
Y351572D02*
X257088Y352228D01*
Y353540D01*
X257744Y354196D01*
X258400D01*
X259056Y353540D01*
Y352884D01*
Y353540D01*
X259712Y354196D01*
X260368D01*
X261024Y353540D01*
Y352228D01*
X260368Y351572D01*
X244752Y113254D02*
X244096Y112598D01*
Y111286D01*
X244752Y110630D01*
X247375D01*
X248031Y111286D01*
Y112598D01*
X247375Y113254D01*
X248031Y117190D02*
Y114566D01*
X245408Y117190D01*
X244752D01*
X244096Y116534D01*
Y115222D01*
X244752Y114566D01*
X248031Y120469D02*
X244096D01*
X246064Y118501D01*
Y121125D01*
X250264Y113254D02*
X249608Y112598D01*
Y111286D01*
X250264Y110630D01*
X252887D01*
X253543Y111286D01*
Y112598D01*
X252887Y113254D01*
X253543Y117190D02*
Y114566D01*
X250920Y117190D01*
X250264D01*
X249608Y116534D01*
Y115222D01*
X250264Y114566D01*
X249608Y121125D02*
Y118501D01*
X251575D01*
X250920Y119813D01*
Y120469D01*
X251575Y121125D01*
X252887D01*
X253543Y120469D01*
Y119157D01*
X252887Y118501D01*
X39764Y368109D02*
Y364173D01*
X41732D01*
X42388Y364829D01*
Y367453D01*
X41732Y368109D01*
X39764D01*
X46323Y364173D02*
X43699D01*
X46323Y366797D01*
Y367453D01*
X45667Y368109D01*
X44355D01*
X43699Y367453D01*
X39370Y354329D02*
Y350394D01*
X41338D01*
X41994Y351050D01*
Y353674D01*
X41338Y354329D01*
X39370D01*
X43306Y353674D02*
X43962Y354329D01*
X45274D01*
X45930Y353674D01*
Y353017D01*
X45274Y352362D01*
X44618D01*
X45274D01*
X45930Y351706D01*
Y351050D01*
X45274Y350394D01*
X43962D01*
X43306Y351050D01*
X10236Y48818D02*
Y44882D01*
X12204D01*
X12860Y45538D01*
Y48162D01*
X12204Y48818D01*
X10236D01*
X16140Y44882D02*
Y48818D01*
X14172Y46850D01*
X16796D01*
X9843Y59841D02*
Y55905D01*
X11810D01*
X12466Y56561D01*
Y59185D01*
X11810Y59841D01*
X9843D01*
X16402D02*
X13778D01*
Y57873D01*
X15090Y58529D01*
X15746D01*
X16402Y57873D01*
Y56561D01*
X15746Y55905D01*
X14434D01*
X13778Y56561D01*
X267324Y212598D02*
X271260D01*
Y214566D01*
X270604Y215222D01*
X267980D01*
X267324Y214566D01*
Y212598D01*
Y219158D02*
X267980Y217846D01*
X269292Y216534D01*
X270604D01*
X271260Y217190D01*
Y218502D01*
X270604Y219158D01*
X269948D01*
X269292Y218502D01*
Y216534D01*
X279529Y212598D02*
X283465D01*
Y214566D01*
X282809Y215222D01*
X280185D01*
X279529Y214566D01*
Y212598D01*
Y216534D02*
Y219158D01*
X280185D01*
X282809Y216534D01*
X283465D01*
X291340Y212598D02*
X295276D01*
Y214566D01*
X294620Y215222D01*
X291996D01*
X291340Y214566D01*
Y212598D01*
X291996Y216534D02*
X291340Y217190D01*
Y218502D01*
X291996Y219158D01*
X292652D01*
X293308Y218502D01*
X293964Y219158D01*
X294620D01*
X295276Y218502D01*
Y217190D01*
X294620Y216534D01*
X293964D01*
X293308Y217190D01*
X292652Y216534D01*
X291996D01*
X293308Y217190D02*
Y218502D01*
X303151Y212992D02*
X307087D01*
Y214960D01*
X306431Y215616D01*
X303807D01*
X303151Y214960D01*
Y212992D01*
X306431Y216928D02*
X307087Y217584D01*
Y218896D01*
X306431Y219552D01*
X303807D01*
X303151Y218896D01*
Y217584D01*
X303807Y216928D01*
X304463D01*
X305119Y217584D01*
Y219552D01*
X302757Y170079D02*
X306693D01*
Y172047D01*
X306037Y172703D01*
X303413D01*
X302757Y172047D01*
Y170079D01*
X306693Y174014D02*
Y175326D01*
Y174670D01*
X302757D01*
X303413Y174014D01*
Y177294D02*
X302757Y177950D01*
Y179262D01*
X303413Y179918D01*
X306037D01*
X306693Y179262D01*
Y177950D01*
X306037Y177294D01*
X303413D01*
X291340Y170079D02*
X295276D01*
Y172047D01*
X294620Y172703D01*
X291996D01*
X291340Y172047D01*
Y170079D01*
X295276Y174014D02*
Y175326D01*
Y174670D01*
X291340D01*
X291996Y174014D01*
X295276Y177294D02*
Y178606D01*
Y177950D01*
X291340D01*
X291996Y177294D01*
X279135Y170079D02*
X283071D01*
Y172047D01*
X282415Y172703D01*
X279791D01*
X279135Y172047D01*
Y170079D01*
X283071Y174014D02*
Y175326D01*
Y174670D01*
X279135D01*
X279791Y174014D01*
X283071Y179918D02*
Y177294D01*
X280447Y179918D01*
X279791D01*
X279135Y179262D01*
Y177950D01*
X279791Y177294D01*
X267324Y170079D02*
X271260D01*
Y172047D01*
X270604Y172703D01*
X267980D01*
X267324Y172047D01*
Y170079D01*
X271260Y174014D02*
Y175326D01*
Y174670D01*
X267324D01*
X267980Y174014D01*
Y177294D02*
X267324Y177950D01*
Y179262D01*
X267980Y179918D01*
X268636D01*
X269292Y179262D01*
Y178606D01*
Y179262D01*
X269948Y179918D01*
X270604D01*
X271260Y179262D01*
Y177950D01*
X270604Y177294D01*
X109775Y37811D02*
Y33875D01*
X112399D01*
X116334Y37811D02*
X113710D01*
Y33875D01*
X116334D01*
X113710Y35843D02*
X115023D01*
X117646Y37811D02*
Y33875D01*
X119614D01*
X120270Y34531D01*
Y37155D01*
X119614Y37811D01*
X117646D01*
X121582Y33875D02*
X122894D01*
X122238D01*
Y37811D01*
X121582Y37155D01*
X124862Y33219D02*
X127486D01*
X128797Y33875D02*
X130109D01*
X129454D01*
Y37811D01*
X128797Y37155D01*
X109875Y60410D02*
Y56475D01*
X112499D01*
X116434Y60410D02*
X113811D01*
Y56475D01*
X116434D01*
X113811Y58443D02*
X115122D01*
X117746Y60410D02*
Y56475D01*
X119714D01*
X120370Y57131D01*
Y59755D01*
X119714Y60410D01*
X117746D01*
X121682Y56475D02*
X122994D01*
X122338D01*
Y60410D01*
X121682Y59755D01*
X124962Y55819D02*
X127586D01*
X131521Y56475D02*
X128898D01*
X131521Y59099D01*
Y59755D01*
X130865Y60410D01*
X129553D01*
X128898Y59755D01*
X109875Y82111D02*
Y78175D01*
X112499D01*
X116434Y82111D02*
X113811D01*
Y78175D01*
X116434D01*
X113811Y80143D02*
X115122D01*
X117746Y82111D02*
Y78175D01*
X119714D01*
X120370Y78831D01*
Y81455D01*
X119714Y82111D01*
X117746D01*
X121682Y78175D02*
X122994D01*
X122338D01*
Y82111D01*
X121682Y81455D01*
X124962Y77519D02*
X127586D01*
X128898Y81455D02*
X129553Y82111D01*
X130865D01*
X131521Y81455D01*
Y80799D01*
X130865Y80143D01*
X130209D01*
X130865D01*
X131521Y79487D01*
Y78831D01*
X130865Y78175D01*
X129553D01*
X128898Y78831D01*
X109675Y103710D02*
Y99775D01*
X112299D01*
X116234Y103710D02*
X113610D01*
Y99775D01*
X116234D01*
X113610Y101743D02*
X114922D01*
X117546Y103710D02*
Y99775D01*
X119514D01*
X120170Y100431D01*
Y103055D01*
X119514Y103710D01*
X117546D01*
X121482Y99775D02*
X122794D01*
X122138D01*
Y103710D01*
X121482Y103055D01*
X124762Y99119D02*
X127386D01*
X130665Y99775D02*
Y103710D01*
X128698Y101743D01*
X131321D01*
X109775Y125410D02*
Y121475D01*
X112399D01*
X116334Y125410D02*
X113710D01*
Y121475D01*
X116334D01*
X113710Y123443D02*
X115023D01*
X117646Y125410D02*
Y121475D01*
X119614D01*
X120270Y122131D01*
Y124755D01*
X119614Y125410D01*
X117646D01*
X121582Y121475D02*
X122894D01*
X122238D01*
Y125410D01*
X121582Y124755D01*
X124862Y120819D02*
X127486D01*
X131421Y125410D02*
X128797D01*
Y123443D01*
X130109Y124099D01*
X130765D01*
X131421Y123443D01*
Y122131D01*
X130765Y121475D01*
X129454D01*
X128797Y122131D01*
X109775Y147011D02*
Y143075D01*
X112399D01*
X116334Y147011D02*
X113710D01*
Y143075D01*
X116334D01*
X113710Y145043D02*
X115023D01*
X117646Y147011D02*
Y143075D01*
X119614D01*
X120270Y143731D01*
Y146355D01*
X119614Y147011D01*
X117646D01*
X121582Y143075D02*
X122894D01*
X122238D01*
Y147011D01*
X121582Y146355D01*
X124862Y142419D02*
X127486D01*
X131421Y147011D02*
X130109Y146355D01*
X128797Y145043D01*
Y143731D01*
X129454Y143075D01*
X130765D01*
X131421Y143731D01*
Y144387D01*
X130765Y145043D01*
X128797D01*
X109775Y168611D02*
Y164675D01*
X112399D01*
X116334Y168611D02*
X113710D01*
Y164675D01*
X116334D01*
X113710Y166643D02*
X115023D01*
X117646Y168611D02*
Y164675D01*
X119614D01*
X120270Y165331D01*
Y167955D01*
X119614Y168611D01*
X117646D01*
X121582Y164675D02*
X122894D01*
X122238D01*
Y168611D01*
X121582Y167955D01*
X124862Y164019D02*
X127486D01*
X128797Y168611D02*
X131421D01*
Y167955D01*
X128797Y165331D01*
Y164675D01*
X109975Y190311D02*
Y186375D01*
X112599D01*
X116534Y190311D02*
X113910D01*
Y186375D01*
X116534D01*
X113910Y188343D02*
X115223D01*
X117846Y190311D02*
Y186375D01*
X119814D01*
X120470Y187031D01*
Y189655D01*
X119814Y190311D01*
X117846D01*
X121782Y186375D02*
X123094D01*
X122438D01*
Y190311D01*
X121782Y189655D01*
X125062Y185719D02*
X127686D01*
X128998Y189655D02*
X129654Y190311D01*
X130965D01*
X131621Y189655D01*
Y188999D01*
X130965Y188343D01*
X131621Y187687D01*
Y187031D01*
X130965Y186375D01*
X129654D01*
X128998Y187031D01*
Y187687D01*
X129654Y188343D01*
X128998Y188999D01*
Y189655D01*
X129654Y188343D02*
X130965D01*
X109775Y212011D02*
Y208075D01*
X112399D01*
X116334Y212011D02*
X113710D01*
Y208075D01*
X116334D01*
X113710Y210043D02*
X115023D01*
X117646Y212011D02*
Y208075D01*
X119614D01*
X120270Y208731D01*
Y211355D01*
X119614Y212011D01*
X117646D01*
X121582Y208075D02*
X122894D01*
X122238D01*
Y212011D01*
X121582Y211355D01*
X124862Y207419D02*
X127486D01*
X128797Y208731D02*
X129454Y208075D01*
X130765D01*
X131421Y208731D01*
Y211355D01*
X130765Y212011D01*
X129454D01*
X128797Y211355D01*
Y210699D01*
X129454Y210043D01*
X131421D01*
X109775Y233611D02*
Y229675D01*
X112399D01*
X116334Y233611D02*
X113710D01*
Y229675D01*
X116334D01*
X113710Y231643D02*
X115023D01*
X117646Y233611D02*
Y229675D01*
X119614D01*
X120270Y230331D01*
Y232955D01*
X119614Y233611D01*
X117646D01*
X121582Y229675D02*
X122894D01*
X122238D01*
Y233611D01*
X121582Y232955D01*
X124862Y229019D02*
X127486D01*
X128797Y229675D02*
X130109D01*
X129454D01*
Y233611D01*
X128797Y232955D01*
X132077D02*
X132733Y233611D01*
X134045D01*
X134701Y232955D01*
Y230331D01*
X134045Y229675D01*
X132733D01*
X132077Y230331D01*
Y232955D01*
X109775Y255311D02*
Y251375D01*
X112399D01*
X116334Y255311D02*
X113710D01*
Y251375D01*
X116334D01*
X113710Y253343D02*
X115023D01*
X117646Y255311D02*
Y251375D01*
X119614D01*
X120270Y252031D01*
Y254655D01*
X119614Y255311D01*
X117646D01*
X121582Y251375D02*
X122894D01*
X122238D01*
Y255311D01*
X121582Y254655D01*
X124862Y250719D02*
X127486D01*
X128797Y251375D02*
X130109D01*
X129454D01*
Y255311D01*
X128797Y254655D01*
X132077Y251375D02*
X133389D01*
X132733D01*
Y255311D01*
X132077Y254655D01*
X109775Y277010D02*
Y273075D01*
X112399D01*
X116334Y277010D02*
X113710D01*
Y273075D01*
X116334D01*
X113710Y275043D02*
X115023D01*
X117646Y277010D02*
Y273075D01*
X119614D01*
X120270Y273731D01*
Y276355D01*
X119614Y277010D01*
X117646D01*
X121582Y273075D02*
X122894D01*
X122238D01*
Y277010D01*
X121582Y276355D01*
X124862Y272419D02*
X127486D01*
X128797Y273075D02*
X130109D01*
X129454D01*
Y277010D01*
X128797Y276355D01*
X134701Y273075D02*
X132077D01*
X134701Y275699D01*
Y276355D01*
X134045Y277010D01*
X132733D01*
X132077Y276355D01*
X109775Y298511D02*
Y294575D01*
X112399D01*
X116334Y298511D02*
X113710D01*
Y294575D01*
X116334D01*
X113710Y296543D02*
X115023D01*
X117646Y298511D02*
Y294575D01*
X119614D01*
X120270Y295231D01*
Y297855D01*
X119614Y298511D01*
X117646D01*
X121582Y294575D02*
X122894D01*
X122238D01*
Y298511D01*
X121582Y297855D01*
X124862Y293919D02*
X127486D01*
X128797Y294575D02*
X130109D01*
X129454D01*
Y298511D01*
X128797Y297855D01*
X132077D02*
X132733Y298511D01*
X134045D01*
X134701Y297855D01*
Y297199D01*
X134045Y296543D01*
X133389D01*
X134045D01*
X134701Y295887D01*
Y295231D01*
X134045Y294575D01*
X132733D01*
X132077Y295231D01*
X109775Y320211D02*
Y316275D01*
X112399D01*
X116334Y320211D02*
X113710D01*
Y316275D01*
X116334D01*
X113710Y318243D02*
X115023D01*
X117646Y320211D02*
Y316275D01*
X119614D01*
X120270Y316931D01*
Y319555D01*
X119614Y320211D01*
X117646D01*
X121582Y316275D02*
X122894D01*
X122238D01*
Y320211D01*
X121582Y319555D01*
X124862Y315619D02*
X127486D01*
X128797Y316275D02*
X130109D01*
X129454D01*
Y320211D01*
X128797Y319555D01*
X134045Y316275D02*
Y320211D01*
X132077Y318243D01*
X134701D01*
X100000Y341206D02*
Y337270D01*
X102624D01*
X106560Y341206D02*
X103936D01*
Y337270D01*
X106560D01*
X103936Y339238D02*
X105248D01*
X107871Y341206D02*
Y337270D01*
X109839D01*
X110495Y337926D01*
Y340550D01*
X109839Y341206D01*
X107871D01*
X111807Y337270D02*
X113119D01*
X112463D01*
Y341206D01*
X111807Y340550D01*
X115087Y336614D02*
X117711D01*
X119023Y337270D02*
X120335D01*
X119679D01*
Y341206D01*
X119023Y340550D01*
X124926Y341206D02*
X122302D01*
Y339238D01*
X123614Y339894D01*
X124270D01*
X124926Y339238D01*
Y337926D01*
X124270Y337270D01*
X122959D01*
X122302Y337926D01*
X100000Y362991D02*
Y359055D01*
X102624D01*
X106560Y362991D02*
X103936D01*
Y359055D01*
X106560D01*
X103936Y361023D02*
X105248D01*
X107871Y362991D02*
Y359055D01*
X109839D01*
X110495Y359711D01*
Y362335D01*
X109839Y362991D01*
X107871D01*
X111807Y359055D02*
X113119D01*
X112463D01*
Y362991D01*
X111807Y362335D01*
X115087Y358399D02*
X117711D01*
X119023Y359055D02*
X120335D01*
X119679D01*
Y362991D01*
X119023Y362335D01*
X124926Y362991D02*
X123614Y362335D01*
X122302Y361023D01*
Y359711D01*
X122959Y359055D01*
X124270D01*
X124926Y359711D01*
Y360367D01*
X124270Y361023D01*
X122302D01*
X249474Y381758D02*
Y384382D01*
X248818Y385038D01*
X247506D01*
X246850Y384382D01*
Y381758D01*
X247506Y381102D01*
X248818D01*
X248162Y382414D02*
X249474Y381102D01*
X248818D02*
X249474Y381758D01*
X253410Y381102D02*
X250786D01*
X253410Y383726D01*
Y384382D01*
X252754Y385038D01*
X251442D01*
X250786Y384382D01*
X33268Y73819D02*
X29332D01*
Y75787D01*
X29988Y76443D01*
X31300D01*
X31956Y75787D01*
Y73819D01*
Y75131D02*
X33268Y76443D01*
X32612Y77755D02*
X33268Y78411D01*
Y79722D01*
X32612Y80378D01*
X29988D01*
X29332Y79722D01*
Y78411D01*
X29988Y77755D01*
X30644D01*
X31300Y78411D01*
Y80378D01*
X263681Y246408D02*
X259745D01*
Y248375D01*
X260401Y249031D01*
X261713D01*
X262369Y248375D01*
Y246408D01*
Y247719D02*
X263681Y249031D01*
Y250343D02*
Y251655D01*
Y250999D01*
X259745D01*
X260401Y250343D01*
X263681Y256247D02*
Y253623D01*
X261057Y256247D01*
X260401D01*
X259745Y255591D01*
Y254279D01*
X260401Y253623D01*
X269816Y246358D02*
X265880D01*
Y248326D01*
X266536Y248982D01*
X267848D01*
X268504Y248326D01*
Y246358D01*
Y247670D02*
X269816Y248982D01*
Y250294D02*
Y251606D01*
Y250950D01*
X265880D01*
X266536Y250294D01*
Y253574D02*
X265880Y254230D01*
Y255542D01*
X266536Y256198D01*
X267192D01*
X267848Y255542D01*
Y254886D01*
Y255542D01*
X268504Y256198D01*
X269160D01*
X269816Y255542D01*
Y254230D01*
X269160Y253574D01*
X320669Y246949D02*
X316734D01*
Y248917D01*
X317389Y249573D01*
X318701D01*
X319357Y248917D01*
Y246949D01*
Y248261D02*
X320669Y249573D01*
Y250885D02*
Y252197D01*
Y251540D01*
X316734D01*
X317389Y250885D01*
X320669Y256132D02*
X316734D01*
X318701Y254164D01*
Y256788D01*
X329724Y246949D02*
X325789D01*
Y248917D01*
X326445Y249573D01*
X327757D01*
X328413Y248917D01*
Y246949D01*
Y248261D02*
X329724Y249573D01*
Y250885D02*
Y252197D01*
Y251540D01*
X325789D01*
X326445Y250885D01*
X325789Y256788D02*
Y254164D01*
X327757D01*
X327101Y255476D01*
Y256132D01*
X327757Y256788D01*
X329068D01*
X329724Y256132D01*
Y254820D01*
X329068Y254164D01*
X325984Y132579D02*
X322048D01*
Y134547D01*
X322705Y135203D01*
X324016D01*
X324672Y134547D01*
Y132579D01*
Y133891D02*
X325984Y135203D01*
Y136514D02*
Y137826D01*
Y137170D01*
X322048D01*
X322705Y136514D01*
X322048Y142418D02*
X322705Y141106D01*
X324016Y139794D01*
X325328D01*
X325984Y140450D01*
Y141762D01*
X325328Y142418D01*
X324672D01*
X324016Y141762D01*
Y139794D01*
X268996Y132579D02*
X265060D01*
Y134547D01*
X265716Y135203D01*
X267028D01*
X267684Y134547D01*
Y132579D01*
Y133891D02*
X268996Y135203D01*
Y136514D02*
Y137826D01*
Y137170D01*
X265060D01*
X265716Y136514D01*
Y139794D02*
X265060Y140450D01*
Y141762D01*
X265716Y142418D01*
X266372D01*
X267028Y141762D01*
X267684Y142418D01*
X268340D01*
X268996Y141762D01*
Y140450D01*
X268340Y139794D01*
X267684D01*
X267028Y140450D01*
X266372Y139794D01*
X265716D01*
X267028Y140450D02*
Y141762D01*
X262992Y132480D02*
X259056D01*
Y134448D01*
X259712Y135104D01*
X261024D01*
X261680Y134448D01*
Y132480D01*
Y133792D02*
X262992Y135104D01*
Y136416D02*
Y137728D01*
Y137072D01*
X259056D01*
X259712Y136416D01*
X262336Y139696D02*
X262992Y140352D01*
Y141664D01*
X262336Y142320D01*
X259712D01*
X259056Y141664D01*
Y140352D01*
X259712Y139696D01*
X260368D01*
X261024Y140352D01*
Y142320D01*
X384514Y224802D02*
X383202D01*
X383858D01*
Y221522D01*
X383202Y220866D01*
X382546D01*
X381890Y221522D01*
X388449Y220866D02*
X385825D01*
X388449Y223490D01*
Y224146D01*
X387793Y224802D01*
X386481D01*
X385825Y224146D01*
X324279Y326640D02*
X323623Y325984D01*
Y324672D01*
X324279Y324016D01*
X326903D01*
X327559Y324672D01*
Y325984D01*
X326903Y326640D01*
X327559Y327952D02*
Y329263D01*
Y328608D01*
X323623D01*
X324279Y327952D01*
X323623Y331231D02*
Y333855D01*
X324279D01*
X326903Y331231D01*
X327559D01*
X260106Y325754D02*
X259450Y325098D01*
Y323786D01*
X260106Y323130D01*
X262730D01*
X263386Y323786D01*
Y325098D01*
X262730Y325754D01*
X263386Y327066D02*
Y328378D01*
Y327722D01*
X259450D01*
X260106Y327066D01*
X263386Y332313D02*
X259450D01*
X261418Y330345D01*
Y332969D01*
X265880Y325754D02*
X265224Y325098D01*
Y323786D01*
X265880Y323130D01*
X268504D01*
X269160Y323786D01*
Y325098D01*
X268504Y325754D01*
X269160Y327066D02*
Y328378D01*
Y327722D01*
X265224D01*
X265880Y327066D01*
X265224Y332969D02*
Y330345D01*
X267192D01*
X266536Y331657D01*
Y332313D01*
X267192Y332969D01*
X268504D01*
X269160Y332313D01*
Y331001D01*
X268504Y330345D01*
X318603Y326640D02*
X317948Y325984D01*
Y324672D01*
X318603Y324016D01*
X321227D01*
X321883Y324672D01*
Y325984D01*
X321227Y326640D01*
X321883Y327952D02*
Y329263D01*
Y328608D01*
X317948D01*
X318603Y327952D01*
X317948Y333855D02*
X318603Y332543D01*
X319915Y331231D01*
X321227D01*
X321883Y331887D01*
Y333199D01*
X321227Y333855D01*
X320571D01*
X319915Y333199D01*
Y331231D01*
X193571Y372309D02*
X192915Y371653D01*
Y370341D01*
X193571Y369685D01*
X196194D01*
X196850Y370341D01*
Y371653D01*
X196194Y372309D01*
X196850Y376245D02*
Y373621D01*
X194227Y376245D01*
X193571D01*
X192915Y375589D01*
Y374277D01*
X193571Y373621D01*
X196850Y380180D02*
Y377556D01*
X194227Y380180D01*
X193571D01*
X192915Y379524D01*
Y378212D01*
X193571Y377556D01*
X6561Y307873D02*
X5249D01*
X5905D01*
Y304593D01*
X5249Y303937D01*
X4593D01*
X3937Y304593D01*
X9841Y303937D02*
Y307873D01*
X7873Y305905D01*
X10497D01*
X235041Y45340D02*
Y42717D01*
X237009D01*
Y44028D01*
Y42717D01*
X238976D01*
Y46652D02*
X236353D01*
X235041Y47964D01*
X236353Y49276D01*
X238976D01*
X237009D01*
Y46652D01*
X235041Y50588D02*
X238320D01*
X238976Y51244D01*
Y52556D01*
X238320Y53212D01*
X235041D01*
Y54524D02*
X238976D01*
Y57148D01*
X235041Y58460D02*
Y61083D01*
Y59771D01*
X238976D01*
X239370Y310630D02*
Y314566D01*
X241338D01*
X241994Y313910D01*
Y312598D01*
X241338Y311942D01*
X239370D01*
X243306Y314566D02*
Y310630D01*
X244618Y311942D01*
X245930Y310630D01*
Y314566D01*
X247242Y310630D02*
Y314566D01*
X249209D01*
X249865Y313910D01*
Y312598D01*
X249209Y311942D01*
X247242D01*
X248553D02*
X249865Y310630D01*
X238976Y85039D02*
X235041D01*
Y87007D01*
X235697Y87663D01*
X237009D01*
X237665Y87007D01*
Y85039D01*
Y86351D02*
X238976Y87663D01*
X235697Y88975D02*
X235041Y89631D01*
Y90943D01*
X235697Y91599D01*
X236353D01*
X237009Y90943D01*
Y90287D01*
Y90943D01*
X237665Y91599D01*
X238320D01*
X238976Y90943D01*
Y89631D01*
X238320Y88975D01*
X235041Y95535D02*
X235697Y94223D01*
X237009Y92911D01*
X238320D01*
X238976Y93567D01*
Y94879D01*
X238320Y95535D01*
X237665D01*
X237009Y94879D01*
Y92911D01*
X239764Y327559D02*
Y331495D01*
X241732D01*
X242388Y330839D01*
Y329527D01*
X241732Y328871D01*
X239764D01*
X241076D02*
X242388Y327559D01*
X243700Y330839D02*
X244356Y331495D01*
X245667D01*
X246323Y330839D01*
Y330183D01*
X245667Y329527D01*
X245011D01*
X245667D01*
X246323Y328871D01*
Y328215D01*
X245667Y327559D01*
X244356D01*
X243700Y328215D01*
X247635Y331495D02*
X250259D01*
Y330839D01*
X247635Y328215D01*
Y327559D01*
X246852Y35827D02*
X250787D01*
Y37795D01*
X250131Y38451D01*
X249476D01*
X248819Y37795D01*
Y35827D01*
Y37795D01*
X248164Y38451D01*
X247508D01*
X246852Y37795D01*
Y35827D01*
X248164Y40418D02*
Y41730D01*
X248819Y42386D01*
X250787D01*
Y40418D01*
X250131Y39762D01*
X249476Y40418D01*
Y42386D01*
X250787Y43698D02*
Y45010D01*
Y44354D01*
X246852D01*
Y43698D01*
X248164Y47634D02*
Y48946D01*
X248819Y49602D01*
X250787D01*
Y47634D01*
X250131Y46978D01*
X249476Y47634D01*
Y49602D01*
X250787Y50914D02*
X248164D01*
Y52882D01*
X248819Y53538D01*
X250787D01*
X248164Y57473D02*
Y55506D01*
X248819Y54849D01*
X250131D01*
X250787Y55506D01*
Y57473D01*
Y60753D02*
Y59441D01*
X250131Y58785D01*
X248819D01*
X248164Y59441D01*
Y60753D01*
X248819Y61409D01*
X249476D01*
Y58785D01*
X241340Y46850D02*
X245276D01*
Y49474D01*
X241340Y53410D02*
Y50786D01*
X245276D01*
Y53410D01*
X243308Y50786D02*
Y52098D01*
X241340Y54722D02*
X245276D01*
Y56690D01*
X244620Y57346D01*
X241996D01*
X241340Y56690D01*
Y54722D01*
Y61281D02*
Y58658D01*
X243308D01*
X242652Y59970D01*
Y60625D01*
X243308Y61281D01*
X244620D01*
X245276Y60625D01*
Y59314D01*
X244620Y58658D01*
X251575Y85039D02*
X247639D01*
Y87007D01*
X248295Y87663D01*
X249607D01*
X250263Y87007D01*
Y85039D01*
Y86351D02*
X251575Y87663D01*
X248295Y88975D02*
X247639Y89631D01*
Y90943D01*
X248295Y91599D01*
X248951D01*
X249607Y90943D01*
Y90287D01*
Y90943D01*
X250263Y91599D01*
X250919D01*
X251575Y90943D01*
Y89631D01*
X250919Y88975D01*
X248295Y92911D02*
X247639Y93567D01*
Y94879D01*
X248295Y95535D01*
X248951D01*
X249607Y94879D01*
X250263Y95535D01*
X250919D01*
X251575Y94879D01*
Y93567D01*
X250919Y92911D01*
X250263D01*
X249607Y93567D01*
X248951Y92911D01*
X248295D01*
X249607Y93567D02*
Y94879D01*
X245276Y85039D02*
X241340D01*
Y87007D01*
X241996Y87663D01*
X243308D01*
X243964Y87007D01*
Y85039D01*
Y86351D02*
X245276Y87663D01*
X241996Y88975D02*
X241340Y89631D01*
Y90943D01*
X241996Y91599D01*
X242652D01*
X243308Y90943D01*
Y90287D01*
Y90943D01*
X243964Y91599D01*
X244620D01*
X245276Y90943D01*
Y89631D01*
X244620Y88975D01*
Y92911D02*
X245276Y93567D01*
Y94879D01*
X244620Y95535D01*
X241996D01*
X241340Y94879D01*
Y93567D01*
X241996Y92911D01*
X242652D01*
X243308Y93567D01*
Y95535D01*
D15*
X401237Y175060D02*
Y177060D01*
Y176060D01*
X395239D01*
X396238Y175060D01*
Y180059D02*
X395239Y181058D01*
Y183058D01*
X396238Y184057D01*
X400237D01*
X401237Y183058D01*
Y181058D01*
X400237Y180059D01*
X396238D01*
Y186057D02*
X395239Y187057D01*
Y189056D01*
X396238Y190056D01*
X400237D01*
X401237Y189056D01*
Y187057D01*
X400237Y186057D01*
X396238D01*
X401237Y200052D02*
X399237Y198053D01*
X397238D01*
X395239Y200052D01*
X401237Y203051D02*
X397238D01*
Y204051D01*
X398238Y205051D01*
X401237D01*
X398238D01*
X397238Y206050D01*
X398238Y207050D01*
X401237D01*
Y209049D02*
X397238D01*
Y210049D01*
X398238Y211049D01*
X401237D01*
X398238D01*
X397238Y212048D01*
X398238Y213048D01*
X401237D01*
Y215047D02*
X399237Y217047D01*
X397238D01*
X395239Y215047D01*
X175257Y394039D02*
X177257D01*
X176257D01*
Y400037D01*
X175257Y399037D01*
X180256D02*
X181255Y400037D01*
X183255D01*
X184254Y399037D01*
Y395039D01*
X183255Y394039D01*
X181255D01*
X180256Y395039D01*
Y399037D01*
X186254D02*
X187253Y400037D01*
X189253D01*
X190252Y399037D01*
Y395039D01*
X189253Y394039D01*
X187253D01*
X186254Y395039D01*
Y399037D01*
X200249Y394039D02*
X198250Y396038D01*
Y398038D01*
X200249Y400037D01*
X203248Y394039D02*
Y398038D01*
X204248D01*
X205247Y397038D01*
Y394039D01*
Y397038D01*
X206247Y398038D01*
X207247Y397038D01*
Y394039D01*
X209246D02*
Y398038D01*
X210246D01*
X211245Y397038D01*
Y394039D01*
Y397038D01*
X212245Y398038D01*
X213245Y397038D01*
Y394039D01*
X215244D02*
X217244Y396038D01*
Y398038D01*
X215244Y400037D01*
D16*
X336221Y175589D02*
Y172310D01*
X336876Y171653D01*
X338188D01*
X338844Y172310D01*
Y175589D01*
X340156Y174933D02*
X340812Y175589D01*
X342124D01*
X342780Y174933D01*
Y174277D01*
X342124Y173621D01*
X341468D01*
X342124D01*
X342780Y172966D01*
Y172310D01*
X342124Y171653D01*
X340812D01*
X340156Y172310D01*
X56692Y287597D02*
X54724D01*
Y286122D01*
X55708D01*
X54724D01*
Y284646D01*
X57676D02*
X58660D01*
X58168D01*
Y287597D01*
X57676Y287105D01*
X60136Y284154D02*
X62104D01*
X63088Y284646D02*
X64072D01*
X63580D01*
Y287597D01*
X63088Y287105D01*
X67516Y287597D02*
X66532Y287105D01*
X65548Y286122D01*
Y285138D01*
X66040Y284646D01*
X67024D01*
X67516Y285138D01*
Y285630D01*
X67024Y286122D01*
X65548D01*
X56692Y277755D02*
X54724D01*
Y276279D01*
X55708D01*
X54724D01*
Y274803D01*
X57676D02*
X58660D01*
X58168D01*
Y277755D01*
X57676Y277263D01*
X60136Y274311D02*
X62104D01*
X63088Y274803D02*
X64072D01*
X63580D01*
Y277755D01*
X63088Y277263D01*
X67516Y277755D02*
X65548D01*
Y276279D01*
X66532Y276771D01*
X67024D01*
X67516Y276279D01*
Y275295D01*
X67024Y274803D01*
X66040D01*
X65548Y275295D01*
X56692Y267519D02*
X54724D01*
Y266043D01*
X55708D01*
X54724D01*
Y264567D01*
X57676D02*
X58660D01*
X58168D01*
Y267519D01*
X57676Y267027D01*
X60136Y264075D02*
X62104D01*
X63088Y264567D02*
X64072D01*
X63580D01*
Y267519D01*
X63088Y267027D01*
X67024Y264567D02*
Y267519D01*
X65548Y266043D01*
X67516D01*
X56692Y257282D02*
X54724D01*
Y255807D01*
X55708D01*
X54724D01*
Y254331D01*
X57676D02*
X58660D01*
X58168D01*
Y257282D01*
X57676Y256790D01*
X60136Y253839D02*
X62104D01*
X63088Y254331D02*
X64072D01*
X63580D01*
Y257282D01*
X63088Y256790D01*
X65548D02*
X66040Y257282D01*
X67024D01*
X67516Y256790D01*
Y256299D01*
X67024Y255807D01*
X66532D01*
X67024D01*
X67516Y255315D01*
Y254823D01*
X67024Y254331D01*
X66040D01*
X65548Y254823D01*
X56692Y247440D02*
X54724D01*
Y245964D01*
X55708D01*
X54724D01*
Y244488D01*
X57676D02*
X58660D01*
X58168D01*
Y247440D01*
X57676Y246948D01*
X60136Y243996D02*
X62104D01*
X63088Y244488D02*
X64072D01*
X63580D01*
Y247440D01*
X63088Y246948D01*
X67516Y244488D02*
X65548D01*
X67516Y246456D01*
Y246948D01*
X67024Y247440D01*
X66040D01*
X65548Y246948D01*
X56692Y237204D02*
X54724D01*
Y235728D01*
X55708D01*
X54724D01*
Y234252D01*
X57676D02*
X58660D01*
X58168D01*
Y237204D01*
X57676Y236712D01*
X60136Y233760D02*
X62104D01*
X63088Y234252D02*
X64072D01*
X63580D01*
Y237204D01*
X63088Y236712D01*
X65548Y234252D02*
X66532D01*
X66040D01*
Y237204D01*
X65548Y236712D01*
X56692Y227361D02*
X54724D01*
Y225885D01*
X55708D01*
X54724D01*
Y224410D01*
X57676D02*
X58660D01*
X58168D01*
Y227361D01*
X57676Y226869D01*
X60136Y223918D02*
X62104D01*
X63088Y224410D02*
X64072D01*
X63580D01*
Y227361D01*
X63088Y226869D01*
X65548D02*
X66040Y227361D01*
X67024D01*
X67516Y226869D01*
Y224901D01*
X67024Y224410D01*
X66040D01*
X65548Y224901D01*
Y226869D01*
X56692Y217519D02*
X54724D01*
Y216043D01*
X55708D01*
X54724D01*
Y214567D01*
X57676D02*
X58660D01*
X58168D01*
Y217519D01*
X57676Y217027D01*
X60136Y214075D02*
X62104D01*
X63088Y215059D02*
X63580Y214567D01*
X64564D01*
X65056Y215059D01*
Y217027D01*
X64564Y217519D01*
X63580D01*
X63088Y217027D01*
Y216535D01*
X63580Y216043D01*
X65056D01*
X56692Y207676D02*
X54724D01*
Y206200D01*
X55708D01*
X54724D01*
Y204724D01*
X57676D02*
X58660D01*
X58168D01*
Y207676D01*
X57676Y207184D01*
X60136Y204232D02*
X62104D01*
X63088Y207184D02*
X63580Y207676D01*
X64564D01*
X65056Y207184D01*
Y206692D01*
X64564Y206200D01*
X65056Y205708D01*
Y205216D01*
X64564Y204724D01*
X63580D01*
X63088Y205216D01*
Y205708D01*
X63580Y206200D01*
X63088Y206692D01*
Y207184D01*
X63580Y206200D02*
X64564D01*
X56692Y197440D02*
X54724D01*
Y195964D01*
X55708D01*
X54724D01*
Y194488D01*
X57676D02*
X58660D01*
X58168D01*
Y197440D01*
X57676Y196948D01*
X60136Y193996D02*
X62104D01*
X63088Y197440D02*
X65056D01*
Y196948D01*
X63088Y194980D01*
Y194488D01*
X56692Y187598D02*
X54724D01*
Y186122D01*
X55708D01*
X54724D01*
Y184646D01*
X57676D02*
X58660D01*
X58168D01*
Y187598D01*
X57676Y187106D01*
X60136Y184154D02*
X62104D01*
X65056Y187598D02*
X64072Y187106D01*
X63088Y186122D01*
Y185138D01*
X63580Y184646D01*
X64564D01*
X65056Y185138D01*
Y185630D01*
X64564Y186122D01*
X63088D01*
X56692Y177755D02*
X54724D01*
Y176279D01*
X55708D01*
X54724D01*
Y174803D01*
X57676D02*
X58660D01*
X58168D01*
Y177755D01*
X57676Y177263D01*
X60136Y174311D02*
X62104D01*
X65056Y177755D02*
X63088D01*
Y176279D01*
X64072Y176771D01*
X64564D01*
X65056Y176279D01*
Y175295D01*
X64564Y174803D01*
X63580D01*
X63088Y175295D01*
X56692Y167519D02*
X54724D01*
Y166043D01*
X55708D01*
X54724D01*
Y164567D01*
X57676D02*
X58660D01*
X58168D01*
Y167519D01*
X57676Y167027D01*
X60136Y164075D02*
X62104D01*
X64564Y164567D02*
Y167519D01*
X63088Y166043D01*
X65056D01*
X56692Y157676D02*
X54724D01*
Y156200D01*
X55708D01*
X54724D01*
Y154724D01*
X57676D02*
X58660D01*
X58168D01*
Y157676D01*
X57676Y157184D01*
X60136Y154232D02*
X62104D01*
X63088Y157184D02*
X63580Y157676D01*
X64564D01*
X65056Y157184D01*
Y156692D01*
X64564Y156200D01*
X64072D01*
X64564D01*
X65056Y155708D01*
Y155216D01*
X64564Y154724D01*
X63580D01*
X63088Y155216D01*
X52560Y40157D02*
Y38189D01*
X54036D01*
Y39173D01*
Y38189D01*
X55512D01*
Y41141D02*
Y42125D01*
Y41633D01*
X52560D01*
X53052Y41141D01*
X56004Y43601D02*
Y45568D01*
X55512Y48520D02*
Y46552D01*
X53544Y48520D01*
X53052D01*
X52560Y48028D01*
Y47044D01*
X53052Y46552D01*
X47836Y40157D02*
Y38189D01*
X49312D01*
Y39173D01*
Y38189D01*
X50787D01*
Y41141D02*
Y42125D01*
Y41633D01*
X47836D01*
X48328Y41141D01*
X51279Y43601D02*
Y45568D01*
X50787Y46552D02*
Y47536D01*
Y47044D01*
X47836D01*
X48328Y46552D01*
M02*
