G04*
G04 #@! TF.GenerationSoftware,Altium Limited,Altium Designer,18.1.11 (251)*
G04*
G04 Layer_Color=8388736*
%FSLAX25Y25*%
%MOIN*%
G70*
G01*
G75*
%ADD38R,0.03359X0.04147*%
%ADD39R,0.04147X0.03359*%
%ADD40R,0.04540X0.03950*%
%ADD41R,0.03950X0.04540*%
%ADD42R,0.06509X0.05721*%
%ADD43R,0.07887X0.06115*%
%ADD44R,0.07690X0.05328*%
%ADD45R,0.04737X0.12611*%
%ADD46R,0.22650X0.25997*%
%ADD47R,0.02572X0.04147*%
%ADD48R,0.03950X0.03556*%
%ADD49R,0.04737X0.04737*%
%ADD50R,0.04737X0.04737*%
%ADD51R,0.05328X0.11430*%
%ADD52O,0.06509X0.01981*%
%ADD53O,0.01981X0.06509*%
%ADD54R,0.03950X0.04147*%
%ADD55R,0.03556X0.08477*%
%ADD56R,0.05721X0.06509*%
%ADD57R,0.03556X0.03950*%
%ADD58R,0.05524X0.13792*%
%ADD59C,0.04737*%
%ADD60C,0.15367*%
%ADD61C,0.06706*%
%ADD62C,0.24422*%
%ADD63C,0.13792*%
%ADD64C,0.03162*%
%ADD65C,0.02769*%
%ADD66C,0.04343*%
%ADD67C,0.03950*%
D38*
X123819Y28543D02*
D03*
X117913D02*
D03*
X123819Y50210D02*
D03*
X117913D02*
D03*
X123819Y71877D02*
D03*
X117913D02*
D03*
X123819Y93543D02*
D03*
X117913D02*
D03*
X123819Y115210D02*
D03*
X117913D02*
D03*
X123819Y136877D02*
D03*
X117913D02*
D03*
X123819Y158543D02*
D03*
X117913D02*
D03*
X123819Y180210D02*
D03*
X117913D02*
D03*
X123819Y201877D02*
D03*
X117913D02*
D03*
X123819Y223543D02*
D03*
X117913D02*
D03*
X123819Y245210D02*
D03*
X117913D02*
D03*
X123819Y266877D02*
D03*
X117913D02*
D03*
X123819Y288543D02*
D03*
X117913D02*
D03*
X123819Y310210D02*
D03*
X117913D02*
D03*
X241339Y318504D02*
D03*
X247244D02*
D03*
X117913Y353543D02*
D03*
X123819D02*
D03*
X117913Y331876D02*
D03*
X123819D02*
D03*
D39*
X237012Y71063D02*
D03*
Y65158D02*
D03*
X249606Y71063D02*
D03*
Y65158D02*
D03*
X243309Y71063D02*
D03*
Y65158D02*
D03*
D40*
X237008Y76181D02*
D03*
Y81299D02*
D03*
X37008Y79331D02*
D03*
Y74213D02*
D03*
X243307Y81299D02*
D03*
Y76181D02*
D03*
X249606Y81299D02*
D03*
Y76181D02*
D03*
D41*
X246457Y323622D02*
D03*
X241339D02*
D03*
X133268Y28543D02*
D03*
X138386D02*
D03*
X133268Y50210D02*
D03*
X138386D02*
D03*
X133268Y71877D02*
D03*
X138386D02*
D03*
X133268Y93543D02*
D03*
X138386D02*
D03*
X133268Y115210D02*
D03*
X138386D02*
D03*
X133268Y136877D02*
D03*
X138386D02*
D03*
X133268Y158543D02*
D03*
X138386D02*
D03*
X133268Y180210D02*
D03*
X138386D02*
D03*
X133268Y201877D02*
D03*
X138386D02*
D03*
X133268Y223543D02*
D03*
X138386D02*
D03*
X133268Y245210D02*
D03*
X138386D02*
D03*
X133268Y266877D02*
D03*
X138386D02*
D03*
X133268Y288543D02*
D03*
X138386D02*
D03*
X133268Y310210D02*
D03*
X138386D02*
D03*
X133268Y331876D02*
D03*
X138386D02*
D03*
X133268Y353543D02*
D03*
X138386D02*
D03*
D42*
X201772Y369291D02*
D03*
Y375984D02*
D03*
X231299Y121457D02*
D03*
Y114764D02*
D03*
X221457Y115748D02*
D03*
Y122441D02*
D03*
D43*
X300000Y322441D02*
D03*
Y333268D02*
D03*
X287008Y322441D02*
D03*
Y333268D02*
D03*
X274803Y322441D02*
D03*
Y333268D02*
D03*
X311811Y322539D02*
D03*
Y333366D02*
D03*
X251969Y353839D02*
D03*
Y343012D02*
D03*
X275098Y71555D02*
D03*
Y60728D02*
D03*
X287073Y71555D02*
D03*
Y60728D02*
D03*
X311024Y71555D02*
D03*
Y60728D02*
D03*
X299048Y71555D02*
D03*
Y60728D02*
D03*
D44*
X275000Y135039D02*
D03*
Y146260D02*
D03*
X286877Y135039D02*
D03*
Y146260D02*
D03*
X310630Y135039D02*
D03*
Y146260D02*
D03*
X311024Y256890D02*
D03*
Y245669D02*
D03*
X298950Y256890D02*
D03*
Y245669D02*
D03*
X287402Y256791D02*
D03*
Y245571D02*
D03*
X275197Y256840D02*
D03*
Y245620D02*
D03*
X298753Y135039D02*
D03*
Y146260D02*
D03*
X48228Y319193D02*
D03*
Y330413D02*
D03*
D45*
X219331Y348622D02*
D03*
X237362D02*
D03*
D46*
X228346Y374016D02*
D03*
D47*
X275197Y155413D02*
D03*
Y165847D02*
D03*
X287073D02*
D03*
Y155413D02*
D03*
X298950D02*
D03*
Y165847D02*
D03*
X310827D02*
D03*
Y155413D02*
D03*
Y234350D02*
D03*
Y223917D02*
D03*
X298950D02*
D03*
Y234350D02*
D03*
X287073D02*
D03*
Y223917D02*
D03*
X275197D02*
D03*
Y234350D02*
D03*
D48*
X23031Y57480D02*
D03*
X36811D02*
D03*
X23031Y47638D02*
D03*
X36811D02*
D03*
X35433Y345472D02*
D03*
X49213D02*
D03*
X35433Y359252D02*
D03*
X49213D02*
D03*
D49*
X240158Y114764D02*
D03*
Y119488D02*
D03*
X213583Y120472D02*
D03*
Y115748D02*
D03*
D50*
X233858Y130905D02*
D03*
X238583D02*
D03*
X32480Y65354D02*
D03*
X37205D02*
D03*
D51*
X22539Y330709D02*
D03*
X34547D02*
D03*
D52*
X201083Y202165D02*
D03*
Y200197D02*
D03*
Y198228D02*
D03*
Y196260D02*
D03*
Y194291D02*
D03*
Y192323D02*
D03*
Y190354D02*
D03*
Y188386D02*
D03*
Y186417D02*
D03*
Y184449D02*
D03*
Y182480D02*
D03*
Y180512D02*
D03*
Y178543D02*
D03*
Y176575D02*
D03*
Y174606D02*
D03*
Y172638D02*
D03*
Y170669D02*
D03*
Y168701D02*
D03*
Y166732D02*
D03*
Y164764D02*
D03*
X254035D02*
D03*
Y166732D02*
D03*
Y168701D02*
D03*
Y170669D02*
D03*
Y172638D02*
D03*
Y174606D02*
D03*
Y176575D02*
D03*
Y178543D02*
D03*
Y180512D02*
D03*
Y182480D02*
D03*
Y184449D02*
D03*
Y186417D02*
D03*
Y188386D02*
D03*
Y190354D02*
D03*
Y192323D02*
D03*
Y194291D02*
D03*
Y196260D02*
D03*
Y198228D02*
D03*
Y200197D02*
D03*
Y202165D02*
D03*
D53*
X208858Y156988D02*
D03*
X210827D02*
D03*
X212795D02*
D03*
X214764D02*
D03*
X216732D02*
D03*
X218701D02*
D03*
X220669D02*
D03*
X222638D02*
D03*
X224606D02*
D03*
X226575D02*
D03*
X228543D02*
D03*
X230512D02*
D03*
X232480D02*
D03*
X234449D02*
D03*
X236417D02*
D03*
X238386D02*
D03*
X240354D02*
D03*
X242323D02*
D03*
X244291D02*
D03*
X246260D02*
D03*
Y209941D02*
D03*
X244291D02*
D03*
X242323D02*
D03*
X240354D02*
D03*
X238386D02*
D03*
X236417D02*
D03*
X234449D02*
D03*
X232480D02*
D03*
X230512D02*
D03*
X228543D02*
D03*
X226575D02*
D03*
X224606D02*
D03*
X222638D02*
D03*
X220669D02*
D03*
X218701D02*
D03*
X216732D02*
D03*
X214764D02*
D03*
X212795D02*
D03*
X210827D02*
D03*
X208858D02*
D03*
D54*
X276476Y99311D02*
D03*
X286319D02*
D03*
X276476Y81201D02*
D03*
X286319D02*
D03*
X300098Y99311D02*
D03*
X309941D02*
D03*
X300098Y81201D02*
D03*
X309941D02*
D03*
X310335Y295276D02*
D03*
X300492D02*
D03*
X310335Y313386D02*
D03*
X300492D02*
D03*
X286713Y295276D02*
D03*
X276870D02*
D03*
X286713Y313386D02*
D03*
X276870D02*
D03*
D55*
X283996Y108957D02*
D03*
X278996D02*
D03*
X283996Y123524D02*
D03*
X278996D02*
D03*
X307618Y108957D02*
D03*
X302618D02*
D03*
X307618Y123524D02*
D03*
X302618D02*
D03*
X307756Y270079D02*
D03*
X302756D02*
D03*
X307756Y284646D02*
D03*
X302756D02*
D03*
X284252Y270079D02*
D03*
X279252D02*
D03*
X284252Y284646D02*
D03*
X279252D02*
D03*
D56*
X158563Y28543D02*
D03*
X165256D02*
D03*
X158563Y50197D02*
D03*
X165256D02*
D03*
X158563Y71850D02*
D03*
X165256D02*
D03*
X158563Y93504D02*
D03*
X165256D02*
D03*
X158563Y115157D02*
D03*
X165256D02*
D03*
X158563Y136811D02*
D03*
X165256D02*
D03*
X158563Y158465D02*
D03*
X165256D02*
D03*
X158563Y180118D02*
D03*
X165256D02*
D03*
X158563Y201772D02*
D03*
X165256D02*
D03*
X158563Y223425D02*
D03*
X165256D02*
D03*
X158563Y245079D02*
D03*
X165256D02*
D03*
X158563Y266732D02*
D03*
X165256D02*
D03*
X158563Y288386D02*
D03*
X165256D02*
D03*
X158563Y310039D02*
D03*
X165256D02*
D03*
X158563Y331693D02*
D03*
X165256D02*
D03*
X158563Y353346D02*
D03*
X165256D02*
D03*
D57*
X177165Y35433D02*
D03*
Y21654D02*
D03*
Y43307D02*
D03*
Y57087D02*
D03*
Y78740D02*
D03*
Y64961D02*
D03*
Y86614D02*
D03*
Y100394D02*
D03*
Y122047D02*
D03*
Y108268D02*
D03*
Y129921D02*
D03*
Y143701D02*
D03*
Y165354D02*
D03*
Y151575D02*
D03*
Y173228D02*
D03*
Y187008D02*
D03*
Y208661D02*
D03*
Y194882D02*
D03*
X177166Y216535D02*
D03*
Y230315D02*
D03*
Y251969D02*
D03*
Y238189D02*
D03*
Y259842D02*
D03*
Y273622D02*
D03*
X177165Y295276D02*
D03*
Y281496D02*
D03*
Y303150D02*
D03*
Y316929D02*
D03*
X177165Y338583D02*
D03*
Y324803D02*
D03*
X177165Y346457D02*
D03*
Y360236D02*
D03*
D58*
X104331Y28740D02*
D03*
X81102D02*
D03*
X104331Y50394D02*
D03*
X81102D02*
D03*
X104331Y72047D02*
D03*
X81102D02*
D03*
X104331Y93701D02*
D03*
X81102D02*
D03*
X104331Y115354D02*
D03*
X81102D02*
D03*
X104331Y137008D02*
D03*
X81102D02*
D03*
X104331Y158661D02*
D03*
X81102D02*
D03*
X104331Y180315D02*
D03*
X81102D02*
D03*
X104331Y201969D02*
D03*
X81102D02*
D03*
X104331Y223622D02*
D03*
X81102D02*
D03*
X104331Y245276D02*
D03*
X81102D02*
D03*
X104331Y266929D02*
D03*
X81102D02*
D03*
X104331Y288583D02*
D03*
X81102D02*
D03*
X104331Y310236D02*
D03*
X81102D02*
D03*
X104331Y331890D02*
D03*
X81102D02*
D03*
X104331Y353543D02*
D03*
X81102D02*
D03*
X112008Y380906D02*
D03*
X88779D02*
D03*
X161221D02*
D03*
X137992D02*
D03*
D59*
X353622Y172441D02*
D03*
X363622D02*
D03*
X373622D02*
D03*
X383622D02*
D03*
D60*
X377165Y143701D02*
D03*
X377265Y81501D02*
D03*
D61*
X343365Y137601D02*
D03*
Y127601D02*
D03*
Y117501D02*
D03*
Y107601D02*
D03*
Y97501D02*
D03*
X343265Y87601D02*
D03*
X49606Y101339D02*
D03*
Y111339D02*
D03*
Y121339D02*
D03*
Y131339D02*
D03*
Y141339D02*
D03*
Y151339D02*
D03*
Y161339D02*
D03*
Y171339D02*
D03*
Y181339D02*
D03*
Y191339D02*
D03*
Y201339D02*
D03*
Y211339D02*
D03*
Y221339D02*
D03*
Y231339D02*
D03*
Y241339D02*
D03*
Y251339D02*
D03*
Y261339D02*
D03*
Y271339D02*
D03*
Y281339D02*
D03*
Y291339D02*
D03*
X346457Y236221D02*
D03*
Y248031D02*
D03*
Y259842D02*
D03*
Y271654D02*
D03*
Y283465D02*
D03*
Y295276D02*
D03*
Y307087D02*
D03*
Y318898D02*
D03*
X358268D02*
D03*
Y307087D02*
D03*
Y295276D02*
D03*
Y283465D02*
D03*
Y271654D02*
D03*
Y259842D02*
D03*
Y248031D02*
D03*
Y236221D02*
D03*
X308268Y342913D02*
D03*
X298031D02*
D03*
X288189D02*
D03*
X277953D02*
D03*
Y50394D02*
D03*
X288189D02*
D03*
X298031D02*
D03*
X308268D02*
D03*
X59055Y281496D02*
D03*
Y271339D02*
D03*
Y261339D02*
D03*
Y251339D02*
D03*
Y241339D02*
D03*
Y231339D02*
D03*
Y221260D02*
D03*
Y211417D02*
D03*
Y201339D02*
D03*
Y191339D02*
D03*
Y181496D02*
D03*
Y171339D02*
D03*
Y161339D02*
D03*
Y151339D02*
D03*
X54527Y72835D02*
D03*
X46850D02*
D03*
X62205D02*
D03*
X23720Y319193D02*
D03*
X11811Y330709D02*
D03*
X23622Y346063D02*
D03*
D62*
X15748Y377953D02*
D03*
Y15748D02*
D03*
X377953D02*
D03*
Y377953D02*
D03*
D63*
X375276Y310827D02*
D03*
Y244291D02*
D03*
D64*
X132283Y19488D02*
D03*
X138386D02*
D03*
Y41142D02*
D03*
Y62795D02*
D03*
Y84449D02*
D03*
Y106102D02*
D03*
Y127756D02*
D03*
Y149409D02*
D03*
Y171063D02*
D03*
Y192421D02*
D03*
X138173Y214158D02*
D03*
X138386Y236024D02*
D03*
Y257677D02*
D03*
Y279331D02*
D03*
Y300984D02*
D03*
Y322638D02*
D03*
Y344291D02*
D03*
X132283D02*
D03*
X349909Y192913D02*
D03*
X333858Y149219D02*
D03*
X234449Y169140D02*
D03*
X108268Y28740D02*
D03*
X323228Y318898D02*
D03*
Y236221D02*
D03*
Y295276D02*
D03*
X108268Y137008D02*
D03*
Y158661D02*
D03*
Y180315D02*
D03*
Y201969D02*
D03*
Y223622D02*
D03*
Y245276D02*
D03*
Y266929D02*
D03*
Y288583D02*
D03*
Y310236D02*
D03*
Y331890D02*
D03*
Y353543D02*
D03*
Y115354D02*
D03*
Y93701D02*
D03*
Y72047D02*
D03*
Y50394D02*
D03*
X132283Y322638D02*
D03*
Y300984D02*
D03*
Y279331D02*
D03*
Y257677D02*
D03*
Y236024D02*
D03*
Y214370D02*
D03*
Y41142D02*
D03*
Y62795D02*
D03*
Y84449D02*
D03*
Y106102D02*
D03*
Y127756D02*
D03*
Y149409D02*
D03*
Y171063D02*
D03*
Y192717D02*
D03*
X323228Y307087D02*
D03*
Y248031D02*
D03*
Y259842D02*
D03*
Y271654D02*
D03*
Y283465D02*
D03*
X153543Y24606D02*
D03*
Y46260D02*
D03*
Y67913D02*
D03*
Y89567D02*
D03*
Y111221D02*
D03*
Y132874D02*
D03*
Y197835D02*
D03*
Y176181D02*
D03*
Y154527D02*
D03*
Y219488D02*
D03*
Y241142D02*
D03*
Y262795D02*
D03*
Y284449D02*
D03*
Y306102D02*
D03*
Y327756D02*
D03*
Y349409D02*
D03*
X289484Y182169D02*
D03*
X301181Y182283D02*
D03*
D65*
X249610Y125546D02*
D03*
X244882Y164764D02*
D03*
X259449Y152342D02*
D03*
X259462Y127165D02*
D03*
X327953Y117785D02*
D03*
X259449Y147638D02*
D03*
X322835Y112785D02*
D03*
X310827Y213386D02*
D03*
X275197Y212598D02*
D03*
X188976Y197245D02*
D03*
X187008Y170866D02*
D03*
X224410Y133858D02*
D03*
X153543Y362205D02*
D03*
X214961Y224213D02*
D03*
X298950Y212598D02*
D03*
X287073Y212598D02*
D03*
X310827Y175197D02*
D03*
X298950D02*
D03*
X287073D02*
D03*
X275197D02*
D03*
X153543Y59055D02*
D03*
Y80709D02*
D03*
Y102362D02*
D03*
Y124016D02*
D03*
Y145669D02*
D03*
Y167323D02*
D03*
Y188976D02*
D03*
Y210630D02*
D03*
Y232283D02*
D03*
Y253937D02*
D03*
Y275590D02*
D03*
Y297244D02*
D03*
Y318898D02*
D03*
Y340551D02*
D03*
X242126Y147638D02*
D03*
X218209Y224311D02*
D03*
X207874D02*
D03*
X202756Y224410D02*
D03*
X234252D02*
D03*
X238189D02*
D03*
X261811D02*
D03*
X250000D02*
D03*
X246063D02*
D03*
X257874D02*
D03*
X253937D02*
D03*
X242126D02*
D03*
X246063Y147638D02*
D03*
X263779Y206693D02*
D03*
Y202756D02*
D03*
Y198819D02*
D03*
X230433Y224291D02*
D03*
X226772Y224410D02*
D03*
X221654Y224213D02*
D03*
X197244Y209842D02*
D03*
X192126D02*
D03*
X187008Y190945D02*
D03*
X187008Y183465D02*
D03*
Y178347D02*
D03*
Y162205D02*
D03*
X187008Y154331D02*
D03*
X187008Y146457D02*
D03*
X210630Y143701D02*
D03*
X205118D02*
D03*
X216142D02*
D03*
X221654D02*
D03*
X238189Y147638D02*
D03*
X153543Y37402D02*
D03*
X263779Y175197D02*
D03*
Y179134D02*
D03*
D66*
X220579Y108268D02*
D03*
X226378D02*
D03*
X232283D02*
D03*
X238189D02*
D03*
X214567D02*
D03*
X17323Y52362D02*
D03*
X17717Y64567D02*
D03*
X24409D02*
D03*
X318504Y224410D02*
D03*
X327953Y214961D02*
D03*
D67*
X251969Y368504D02*
D03*
X190945Y366535D02*
D03*
M02*
