G04 Layer_Color=8421504*
%FSLAX25Y25*%
%MOIN*%
G70*
G01*
G75*
%ADD10R,0.03347X0.02559*%
%ADD11R,0.03740X0.03150*%
%ADD12R,0.07087X0.05315*%
%ADD13R,0.04724X0.12992*%
%ADD14R,0.06890X0.04528*%
%ADD15R,0.03150X0.03740*%
%ADD16R,0.02756X0.03150*%
%ADD17R,0.04921X0.05709*%
%ADD18R,0.02756X0.07677*%
%ADD19R,0.03150X0.03347*%
%ADD20O,0.01181X0.05709*%
%ADD21O,0.05709X0.01181*%
%ADD22R,0.04528X0.10630*%
%ADD23R,0.03937X0.03937*%
%ADD24R,0.03937X0.03937*%
%ADD25R,0.05709X0.04921*%
%ADD26R,0.03150X0.02756*%
%ADD27R,0.01772X0.03347*%
%ADD28R,0.02559X0.03347*%
%ADD29R,0.21850X0.25197*%
%ADD30R,0.03937X0.11811*%
%ADD31R,0.02362X0.02165*%
%ADD32R,0.02165X0.02362*%
D10*
X243307Y68898D02*
D03*
Y74803D02*
D03*
X249606Y68898D02*
D03*
Y74803D02*
D03*
D11*
Y83071D02*
D03*
Y88189D02*
D03*
X243307Y83071D02*
D03*
Y88189D02*
D03*
X37008Y74213D02*
D03*
Y79331D02*
D03*
X249213Y134843D02*
D03*
Y139961D02*
D03*
D12*
X299048Y60728D02*
D03*
Y71555D02*
D03*
X311024Y60728D02*
D03*
Y71555D02*
D03*
X287073Y60728D02*
D03*
Y71555D02*
D03*
X275098Y60728D02*
D03*
Y71555D02*
D03*
X251969Y343012D02*
D03*
Y353839D02*
D03*
X311811Y333366D02*
D03*
Y322539D02*
D03*
X274803Y333268D02*
D03*
Y322441D02*
D03*
X287008Y333268D02*
D03*
Y322441D02*
D03*
X300000Y333268D02*
D03*
Y322441D02*
D03*
D13*
X137992Y380906D02*
D03*
X161221D02*
D03*
X88779D02*
D03*
X112008D02*
D03*
X73229Y353346D02*
D03*
X96457D02*
D03*
X73229Y331693D02*
D03*
X96457D02*
D03*
X73229Y310039D02*
D03*
X96457D02*
D03*
X73229Y288386D02*
D03*
X96457D02*
D03*
X73229Y266732D02*
D03*
X96457D02*
D03*
X73229Y245079D02*
D03*
X96457D02*
D03*
X73229Y223425D02*
D03*
X96457D02*
D03*
X73229Y201772D02*
D03*
X96457D02*
D03*
X73229Y180118D02*
D03*
X96457D02*
D03*
X73229Y158465D02*
D03*
X96457D02*
D03*
X73229Y136811D02*
D03*
X96457D02*
D03*
X73229Y115157D02*
D03*
X96457D02*
D03*
X73229Y93504D02*
D03*
X96457D02*
D03*
X73229Y71850D02*
D03*
X96457D02*
D03*
X73229Y50197D02*
D03*
X96457D02*
D03*
X73229Y28543D02*
D03*
X96457D02*
D03*
D14*
X48228Y330413D02*
D03*
Y319193D02*
D03*
X298753Y146260D02*
D03*
Y135039D02*
D03*
X275197Y245620D02*
D03*
Y256840D02*
D03*
X287402Y245571D02*
D03*
Y256791D02*
D03*
X298950Y245669D02*
D03*
Y256890D02*
D03*
X311024Y245669D02*
D03*
Y256890D02*
D03*
X310630Y146260D02*
D03*
Y135039D02*
D03*
X286877Y146260D02*
D03*
Y135039D02*
D03*
X275000Y146260D02*
D03*
Y135039D02*
D03*
D15*
X131890Y353346D02*
D03*
X126772D02*
D03*
X131890Y331693D02*
D03*
X126772D02*
D03*
X131890Y310039D02*
D03*
X126772D02*
D03*
X131890Y288386D02*
D03*
X126772D02*
D03*
X131890Y266732D02*
D03*
X126772D02*
D03*
X131890Y245079D02*
D03*
X126772D02*
D03*
X131890Y223425D02*
D03*
X126772D02*
D03*
X131890Y201772D02*
D03*
X126772D02*
D03*
X131890Y180118D02*
D03*
X126772D02*
D03*
X131890Y158465D02*
D03*
X126772D02*
D03*
X131890Y136811D02*
D03*
X126772D02*
D03*
X131890Y115157D02*
D03*
X126772D02*
D03*
X131890Y93504D02*
D03*
X126772D02*
D03*
X131890Y71850D02*
D03*
X126772D02*
D03*
X131890Y50197D02*
D03*
X126772D02*
D03*
X131890Y28543D02*
D03*
X126772D02*
D03*
X241339Y323622D02*
D03*
X246457D02*
D03*
X349213Y59842D02*
D03*
X354331D02*
D03*
D16*
X177165Y360236D02*
D03*
Y346457D02*
D03*
X177165Y324803D02*
D03*
Y338583D02*
D03*
X177165Y316929D02*
D03*
Y303150D02*
D03*
Y281496D02*
D03*
Y295276D02*
D03*
X177166Y273622D02*
D03*
Y259842D02*
D03*
Y238189D02*
D03*
Y251969D02*
D03*
Y230315D02*
D03*
Y216535D02*
D03*
X177165Y194882D02*
D03*
Y208661D02*
D03*
Y187008D02*
D03*
Y173228D02*
D03*
Y151575D02*
D03*
Y165354D02*
D03*
Y143701D02*
D03*
Y129921D02*
D03*
Y108268D02*
D03*
Y122047D02*
D03*
Y100394D02*
D03*
Y86614D02*
D03*
Y64961D02*
D03*
Y78740D02*
D03*
Y57087D02*
D03*
Y43307D02*
D03*
Y21654D02*
D03*
Y35433D02*
D03*
D17*
X165256Y353346D02*
D03*
X158563D02*
D03*
X165256Y331693D02*
D03*
X158563D02*
D03*
X165256Y310039D02*
D03*
X158563D02*
D03*
X165256Y288386D02*
D03*
X158563D02*
D03*
X165256Y266732D02*
D03*
X158563D02*
D03*
X165256Y245079D02*
D03*
X158563D02*
D03*
X165256Y223425D02*
D03*
X158563D02*
D03*
X165256Y201772D02*
D03*
X158563D02*
D03*
X165256Y180118D02*
D03*
X158563D02*
D03*
X165256Y158465D02*
D03*
X158563D02*
D03*
X165256Y136811D02*
D03*
X158563D02*
D03*
X165256Y115157D02*
D03*
X158563D02*
D03*
X165256Y93504D02*
D03*
X158563D02*
D03*
X165256Y71850D02*
D03*
X158563D02*
D03*
X165256Y50197D02*
D03*
X158563D02*
D03*
X165256Y28543D02*
D03*
X158563D02*
D03*
D18*
X279252Y284646D02*
D03*
X284252D02*
D03*
X279252Y270079D02*
D03*
X284252D02*
D03*
X302756Y284646D02*
D03*
X307756D02*
D03*
X302756Y270079D02*
D03*
X307756D02*
D03*
X302618Y123524D02*
D03*
X307618D02*
D03*
X302618Y108957D02*
D03*
X307618D02*
D03*
X278996Y123524D02*
D03*
X283996D02*
D03*
X278996Y108957D02*
D03*
X283996D02*
D03*
D19*
X276870Y313386D02*
D03*
X286713D02*
D03*
X276870Y295276D02*
D03*
X286713D02*
D03*
X300492Y313386D02*
D03*
X310335D02*
D03*
X300492Y295276D02*
D03*
X310335D02*
D03*
X309941Y81201D02*
D03*
X300098D02*
D03*
X309941Y99311D02*
D03*
X300098D02*
D03*
X286319Y81201D02*
D03*
X276476D02*
D03*
X286319Y99311D02*
D03*
X276476D02*
D03*
D20*
X208858Y209941D02*
D03*
X210827D02*
D03*
X212795D02*
D03*
X214764D02*
D03*
X216732D02*
D03*
X218701D02*
D03*
X220669D02*
D03*
X222638D02*
D03*
X224606D02*
D03*
X226575D02*
D03*
X228543D02*
D03*
X230512D02*
D03*
X232480D02*
D03*
X234449D02*
D03*
X236417D02*
D03*
X238386D02*
D03*
X240354D02*
D03*
X242323D02*
D03*
X244291D02*
D03*
X246260D02*
D03*
Y156988D02*
D03*
X244291D02*
D03*
X242323D02*
D03*
X240354D02*
D03*
X238386D02*
D03*
X236417D02*
D03*
X234449D02*
D03*
X232480D02*
D03*
X230512D02*
D03*
X228543D02*
D03*
X226575D02*
D03*
X224606D02*
D03*
X222638D02*
D03*
X220669D02*
D03*
X218701D02*
D03*
X216732D02*
D03*
X214764D02*
D03*
X212795D02*
D03*
X210827D02*
D03*
X208858D02*
D03*
D21*
X254035Y202165D02*
D03*
Y200197D02*
D03*
Y198228D02*
D03*
Y196260D02*
D03*
Y194291D02*
D03*
Y192323D02*
D03*
Y190354D02*
D03*
Y188386D02*
D03*
Y186417D02*
D03*
Y184449D02*
D03*
Y182480D02*
D03*
Y180512D02*
D03*
Y178543D02*
D03*
Y176575D02*
D03*
Y174606D02*
D03*
Y172638D02*
D03*
Y170669D02*
D03*
Y168701D02*
D03*
Y166732D02*
D03*
Y164764D02*
D03*
X201083D02*
D03*
Y166732D02*
D03*
Y168701D02*
D03*
Y170669D02*
D03*
Y172638D02*
D03*
Y174606D02*
D03*
Y176575D02*
D03*
Y178543D02*
D03*
Y180512D02*
D03*
Y182480D02*
D03*
Y184449D02*
D03*
Y186417D02*
D03*
Y188386D02*
D03*
Y190354D02*
D03*
Y192323D02*
D03*
Y194291D02*
D03*
Y196260D02*
D03*
Y198228D02*
D03*
Y200197D02*
D03*
Y202165D02*
D03*
D22*
X34547Y330709D02*
D03*
X22539D02*
D03*
D23*
X37205Y65354D02*
D03*
X32480D02*
D03*
X238583Y130905D02*
D03*
X233858D02*
D03*
D24*
X213583Y115748D02*
D03*
Y120472D02*
D03*
X240158Y119488D02*
D03*
Y114764D02*
D03*
D25*
X221457Y122441D02*
D03*
Y115748D02*
D03*
X231299Y114764D02*
D03*
Y121457D02*
D03*
X201772Y375984D02*
D03*
Y369291D02*
D03*
D26*
X49213Y359252D02*
D03*
X35433D02*
D03*
X49213Y345472D02*
D03*
X35433D02*
D03*
X36811Y47638D02*
D03*
X23031D02*
D03*
X36811Y57480D02*
D03*
X23031D02*
D03*
D27*
X275197Y234350D02*
D03*
Y223917D02*
D03*
X287073D02*
D03*
Y234350D02*
D03*
X298950D02*
D03*
Y223917D02*
D03*
X310827D02*
D03*
Y234350D02*
D03*
Y155413D02*
D03*
Y165847D02*
D03*
X298950D02*
D03*
Y155413D02*
D03*
X287073D02*
D03*
Y165847D02*
D03*
X275197D02*
D03*
Y155413D02*
D03*
D28*
X117323Y27559D02*
D03*
X111417D02*
D03*
X117421Y50197D02*
D03*
X111516D02*
D03*
X117421Y71850D02*
D03*
X111516D02*
D03*
X117224Y93504D02*
D03*
X111319D02*
D03*
X117323Y115157D02*
D03*
X111417D02*
D03*
X117323Y136811D02*
D03*
X111417D02*
D03*
X117323Y158366D02*
D03*
X111417D02*
D03*
X117520Y180118D02*
D03*
X111614D02*
D03*
X117323Y201772D02*
D03*
X111417D02*
D03*
X117323Y223425D02*
D03*
X111417D02*
D03*
X117323Y245079D02*
D03*
X111417D02*
D03*
X117323Y266732D02*
D03*
X111417D02*
D03*
X117323Y288287D02*
D03*
X111417D02*
D03*
X117323Y309941D02*
D03*
X111417D02*
D03*
X117323Y331496D02*
D03*
X111417D02*
D03*
X117323Y353346D02*
D03*
X111417D02*
D03*
X247244Y318504D02*
D03*
X241339D02*
D03*
X349213Y53937D02*
D03*
X355118D02*
D03*
D29*
X228346Y374016D02*
D03*
D30*
X237362Y348622D02*
D03*
X219331D02*
D03*
D31*
X59547Y271339D02*
D03*
X56201D02*
D03*
X59547Y261339D02*
D03*
X56201D02*
D03*
X59547Y251339D02*
D03*
X56201D02*
D03*
X59547Y241339D02*
D03*
X56201D02*
D03*
X59547Y231339D02*
D03*
X56201D02*
D03*
X59547Y221339D02*
D03*
X56201D02*
D03*
X59547Y211339D02*
D03*
X56201D02*
D03*
X59547Y201339D02*
D03*
X56201D02*
D03*
X59547Y191339D02*
D03*
X56201D02*
D03*
X59547Y181339D02*
D03*
X56201D02*
D03*
X59547Y171339D02*
D03*
X56201D02*
D03*
X59547Y161339D02*
D03*
X56201D02*
D03*
X59547Y151339D02*
D03*
X56201D02*
D03*
X59547Y281339D02*
D03*
X56201D02*
D03*
D32*
X53937Y51083D02*
D03*
Y54429D02*
D03*
X49606Y50984D02*
D03*
Y54331D02*
D03*
M02*
