G04*
G04 #@! TF.GenerationSoftware,Altium Limited,Altium Designer,18.1.11 (251)*
G04*
G04 Layer_Color=16711935*
%FSLAX25Y25*%
%MOIN*%
G70*
G01*
G75*
%ADD43R,0.04540X0.03950*%
%ADD45R,0.03950X0.04540*%
%ADD46R,0.06509X0.05721*%
%ADD54R,0.04737X0.04737*%
%ADD55R,0.05328X0.11430*%
%ADD60R,0.05721X0.06509*%
%ADD63C,0.04737*%
%ADD64C,0.15367*%
%ADD65C,0.06706*%
%ADD66C,0.24422*%
%ADD67C,0.13792*%
%ADD68C,0.03162*%
%ADD69C,0.02769*%
%ADD70C,0.04343*%
%ADD71C,0.03950*%
%ADD89R,0.04737X0.03162*%
%ADD90O,0.06509X0.02572*%
%ADD91R,0.05328X0.07690*%
D43*
X261519Y106496D02*
D03*
Y111614D02*
D03*
X380315Y196622D02*
D03*
Y191504D02*
D03*
X301575Y191535D02*
D03*
Y196653D02*
D03*
X309728Y191520D02*
D03*
Y196638D02*
D03*
X127953Y26575D02*
D03*
Y31693D02*
D03*
Y48228D02*
D03*
Y53347D02*
D03*
Y91535D02*
D03*
Y96653D02*
D03*
Y113189D02*
D03*
Y118307D02*
D03*
Y134843D02*
D03*
Y139961D02*
D03*
Y156496D02*
D03*
Y161614D02*
D03*
Y178150D02*
D03*
Y183268D02*
D03*
Y199803D02*
D03*
Y204921D02*
D03*
X127953Y221457D02*
D03*
Y226575D02*
D03*
Y243110D02*
D03*
Y248228D02*
D03*
Y264764D02*
D03*
Y269882D02*
D03*
X127953Y286417D02*
D03*
Y291535D02*
D03*
Y308071D02*
D03*
Y313189D02*
D03*
Y351378D02*
D03*
Y356496D02*
D03*
X127953Y330709D02*
D03*
Y335827D02*
D03*
X127953Y69882D02*
D03*
Y75000D02*
D03*
X240945Y152559D02*
D03*
Y157677D02*
D03*
D45*
X247047Y175330D02*
D03*
X252165D02*
D03*
X329298Y236221D02*
D03*
X334416D02*
D03*
X329298Y248031D02*
D03*
X334416D02*
D03*
X329298Y259842D02*
D03*
X334416D02*
D03*
X329331Y271654D02*
D03*
X334449D02*
D03*
X329298Y283465D02*
D03*
X334416D02*
D03*
X329331Y295276D02*
D03*
X334449D02*
D03*
X329298Y307087D02*
D03*
X334416D02*
D03*
X329298Y318898D02*
D03*
X334416D02*
D03*
X239317Y175197D02*
D03*
X234199D02*
D03*
X246877Y152756D02*
D03*
X251995D02*
D03*
X144291Y24606D02*
D03*
X139173D02*
D03*
X144291Y46260D02*
D03*
X139173D02*
D03*
X144291Y67913D02*
D03*
X139173D02*
D03*
X144291Y89567D02*
D03*
X139173D02*
D03*
X144291Y111221D02*
D03*
X139173D02*
D03*
X144291Y132874D02*
D03*
X139173D02*
D03*
X144291Y154528D02*
D03*
X139173D02*
D03*
X144291Y176181D02*
D03*
X139173D02*
D03*
X144291Y197835D02*
D03*
X139173D02*
D03*
X144291Y219488D02*
D03*
X139173D02*
D03*
X144291Y241142D02*
D03*
X139173D02*
D03*
X144291Y262795D02*
D03*
X139173D02*
D03*
X144291Y284449D02*
D03*
X139173D02*
D03*
X144291Y306102D02*
D03*
X139173D02*
D03*
X144291Y327756D02*
D03*
X139173D02*
D03*
X144291Y349409D02*
D03*
X139173D02*
D03*
X144291Y32480D02*
D03*
X139173D02*
D03*
X144291Y54134D02*
D03*
X139173D02*
D03*
X144291Y75787D02*
D03*
X139173D02*
D03*
X144291Y97441D02*
D03*
X139173D02*
D03*
X144291Y119095D02*
D03*
X139173D02*
D03*
X144291Y140748D02*
D03*
X139173D02*
D03*
X144291Y162402D02*
D03*
X139173D02*
D03*
X144291Y184055D02*
D03*
X139173D02*
D03*
X144291Y205709D02*
D03*
X139173D02*
D03*
X144291Y227362D02*
D03*
X139173D02*
D03*
X144291Y249016D02*
D03*
X139173D02*
D03*
X144291Y270669D02*
D03*
X139173D02*
D03*
X144291Y292323D02*
D03*
X139173D02*
D03*
X144291Y313976D02*
D03*
X139173D02*
D03*
X144291Y335630D02*
D03*
X139173D02*
D03*
X144291Y357283D02*
D03*
X139173D02*
D03*
D46*
X218504Y241929D02*
D03*
Y235236D02*
D03*
D54*
X256693Y168701D02*
D03*
X251969D02*
D03*
X234842Y272638D02*
D03*
X239567D02*
D03*
D55*
X235138Y260827D02*
D03*
X247146D02*
D03*
D60*
X252559Y160711D02*
D03*
X259252D02*
D03*
X277756Y191339D02*
D03*
X271063D02*
D03*
D63*
X353622Y172441D02*
D03*
X363622D02*
D03*
X373622D02*
D03*
X383622D02*
D03*
D64*
X377165Y143701D02*
D03*
X377265Y81501D02*
D03*
D65*
X343365Y137601D02*
D03*
Y127601D02*
D03*
Y117501D02*
D03*
Y107601D02*
D03*
Y97501D02*
D03*
X343265Y87601D02*
D03*
X49606Y101339D02*
D03*
Y111339D02*
D03*
Y121339D02*
D03*
Y131339D02*
D03*
Y141339D02*
D03*
Y151339D02*
D03*
Y161339D02*
D03*
Y171339D02*
D03*
Y181339D02*
D03*
Y191339D02*
D03*
Y201339D02*
D03*
Y211339D02*
D03*
Y221339D02*
D03*
Y231339D02*
D03*
Y241339D02*
D03*
Y251339D02*
D03*
Y261339D02*
D03*
Y271339D02*
D03*
Y281339D02*
D03*
Y291339D02*
D03*
X346457Y236221D02*
D03*
Y248031D02*
D03*
Y259842D02*
D03*
Y271654D02*
D03*
Y283465D02*
D03*
Y295276D02*
D03*
Y307087D02*
D03*
Y318898D02*
D03*
X358268D02*
D03*
Y307087D02*
D03*
Y295276D02*
D03*
Y283465D02*
D03*
Y271654D02*
D03*
Y259842D02*
D03*
Y248031D02*
D03*
Y236221D02*
D03*
X308268Y342913D02*
D03*
X298031D02*
D03*
X288189D02*
D03*
X277953D02*
D03*
Y50394D02*
D03*
X288189D02*
D03*
X298031D02*
D03*
X308268D02*
D03*
X23720Y319193D02*
D03*
X11811Y330709D02*
D03*
X23622Y346063D02*
D03*
D66*
X15748Y377953D02*
D03*
Y15748D02*
D03*
X377953D02*
D03*
Y377953D02*
D03*
D67*
X375276Y310827D02*
D03*
Y244291D02*
D03*
D68*
X349909Y192913D02*
D03*
X333858Y149219D02*
D03*
X234449Y169140D02*
D03*
X117717Y18898D02*
D03*
X102362Y27559D02*
D03*
X323228Y318898D02*
D03*
Y236221D02*
D03*
Y295276D02*
D03*
X102362Y136811D02*
D03*
Y158465D02*
D03*
Y180118D02*
D03*
Y201772D02*
D03*
Y223425D02*
D03*
Y245079D02*
D03*
Y266732D02*
D03*
Y288386D02*
D03*
Y310039D02*
D03*
Y331496D02*
D03*
Y353346D02*
D03*
Y115157D02*
D03*
Y93504D02*
D03*
Y71850D02*
D03*
Y50197D02*
D03*
X133858Y347441D02*
D03*
X127953Y343307D02*
D03*
X133858Y325787D02*
D03*
X127953Y320866D02*
D03*
X133858Y304134D02*
D03*
X127953Y299213D02*
D03*
X133858Y282480D02*
D03*
X127953Y277559D02*
D03*
X133859Y260827D02*
D03*
X127953Y255906D02*
D03*
X133859Y239173D02*
D03*
X127953Y234252D02*
D03*
X133859Y217520D02*
D03*
X127953Y212598D02*
D03*
X133858Y195866D02*
D03*
X127953Y39370D02*
D03*
X133858Y22638D02*
D03*
X127953Y61024D02*
D03*
X133858Y44291D02*
D03*
X127953Y82677D02*
D03*
X133858Y65945D02*
D03*
X127953Y104331D02*
D03*
X133858Y87598D02*
D03*
X127953Y125984D02*
D03*
X133858Y109252D02*
D03*
X127953Y147638D02*
D03*
X133858Y130905D02*
D03*
X127953Y169291D02*
D03*
X133858Y152559D02*
D03*
X127953Y190945D02*
D03*
X133858Y174213D02*
D03*
X323228Y307087D02*
D03*
Y248031D02*
D03*
Y259842D02*
D03*
Y271654D02*
D03*
Y283465D02*
D03*
X149606Y24606D02*
D03*
Y46260D02*
D03*
Y67913D02*
D03*
Y89567D02*
D03*
Y111221D02*
D03*
Y132874D02*
D03*
Y197835D02*
D03*
Y176181D02*
D03*
Y154527D02*
D03*
X149607Y219488D02*
D03*
Y241142D02*
D03*
Y262795D02*
D03*
X149606Y284449D02*
D03*
Y306102D02*
D03*
X149606Y327756D02*
D03*
X149606Y349409D02*
D03*
X45276Y73228D02*
D03*
X53937D02*
D03*
X49606D02*
D03*
X289484Y182169D02*
D03*
X301181Y182283D02*
D03*
D69*
X249610Y125546D02*
D03*
X244882Y164764D02*
D03*
X259449Y152342D02*
D03*
X259462Y127165D02*
D03*
X327953Y117785D02*
D03*
X259449Y147638D02*
D03*
X322835Y112785D02*
D03*
X310827Y213386D02*
D03*
X275197Y212598D02*
D03*
X188976Y197245D02*
D03*
X187008Y170866D02*
D03*
X224410Y133858D02*
D03*
X153543Y362205D02*
D03*
X214961Y224213D02*
D03*
X298950Y212598D02*
D03*
X287073Y212598D02*
D03*
X310827Y175197D02*
D03*
X298950D02*
D03*
X287073D02*
D03*
X275197D02*
D03*
X153543Y59055D02*
D03*
Y80709D02*
D03*
Y102362D02*
D03*
Y124016D02*
D03*
Y145669D02*
D03*
Y167323D02*
D03*
Y188976D02*
D03*
Y210630D02*
D03*
Y232283D02*
D03*
Y253937D02*
D03*
Y275590D02*
D03*
Y297244D02*
D03*
Y318898D02*
D03*
Y340551D02*
D03*
X242126Y147638D02*
D03*
X218209Y224311D02*
D03*
X207874D02*
D03*
X202756Y224410D02*
D03*
X234252D02*
D03*
X238189D02*
D03*
X261811D02*
D03*
X250000D02*
D03*
X246063D02*
D03*
X257874D02*
D03*
X253937D02*
D03*
X242126D02*
D03*
X246063Y147638D02*
D03*
X263779Y206693D02*
D03*
Y202756D02*
D03*
Y198819D02*
D03*
X230433Y224291D02*
D03*
X226772Y224410D02*
D03*
X221654Y224213D02*
D03*
X197244Y209842D02*
D03*
X192126D02*
D03*
X187008Y190945D02*
D03*
X187008Y183465D02*
D03*
Y178347D02*
D03*
Y162205D02*
D03*
X187008Y154331D02*
D03*
X187008Y146457D02*
D03*
X210630Y143701D02*
D03*
X205118D02*
D03*
X216142D02*
D03*
X221654D02*
D03*
X238189Y147638D02*
D03*
X153543Y37402D02*
D03*
X263779Y175197D02*
D03*
Y179134D02*
D03*
D70*
X220579Y108268D02*
D03*
X226378D02*
D03*
X232283D02*
D03*
X238189D02*
D03*
X214567D02*
D03*
X17323Y52362D02*
D03*
X17717Y64567D02*
D03*
X24409D02*
D03*
X318504Y224410D02*
D03*
X327953Y214961D02*
D03*
D71*
X251969Y368504D02*
D03*
X190945Y366535D02*
D03*
D89*
X357677Y189173D02*
D03*
Y192913D02*
D03*
Y196653D02*
D03*
X368307D02*
D03*
Y189173D02*
D03*
X108268Y27559D02*
D03*
X117717Y23819D02*
D03*
Y31299D02*
D03*
X108268Y50197D02*
D03*
X117717Y46457D02*
D03*
Y53937D02*
D03*
X108268Y71850D02*
D03*
X117717Y68110D02*
D03*
Y75590D02*
D03*
X108268Y93504D02*
D03*
X117717Y89764D02*
D03*
Y97244D02*
D03*
X108268Y115157D02*
D03*
X117717Y111417D02*
D03*
Y118898D02*
D03*
X108268Y136811D02*
D03*
X117717Y133071D02*
D03*
Y140551D02*
D03*
X108268Y158465D02*
D03*
X117717Y154724D02*
D03*
Y162205D02*
D03*
X108268Y180118D02*
D03*
X117717Y176378D02*
D03*
Y183858D02*
D03*
X108268Y201772D02*
D03*
X117717Y198031D02*
D03*
Y205512D02*
D03*
X108268Y223425D02*
D03*
X117717Y219685D02*
D03*
Y227165D02*
D03*
X108268Y245079D02*
D03*
X117717Y241339D02*
D03*
Y248819D02*
D03*
X108268Y266732D02*
D03*
X117717Y262992D02*
D03*
Y270473D02*
D03*
X108268Y288386D02*
D03*
X117717Y284646D02*
D03*
Y292126D02*
D03*
X108268Y310039D02*
D03*
X117717Y306299D02*
D03*
Y313779D02*
D03*
X108268Y331496D02*
D03*
X117717Y327756D02*
D03*
Y335236D02*
D03*
X108268Y353346D02*
D03*
X117717Y349606D02*
D03*
Y357087D02*
D03*
D90*
X282562Y107785D02*
D03*
Y110285D02*
D03*
Y112785D02*
D03*
Y115285D02*
D03*
Y117785D02*
D03*
Y120285D02*
D03*
Y122785D02*
D03*
Y125285D02*
D03*
X304018Y107785D02*
D03*
Y110285D02*
D03*
Y112785D02*
D03*
Y115285D02*
D03*
Y117785D02*
D03*
Y120285D02*
D03*
Y122785D02*
D03*
Y125285D02*
D03*
D91*
X356988Y209842D02*
D03*
X368209D02*
D03*
X368209Y220866D02*
D03*
X356988D02*
D03*
M02*
