G04 Layer_Color=32896*
%FSLAX25Y25*%
%MOIN*%
G70*
G01*
G75*
%ADD30C,0.01000*%
%ADD47C,0.00984*%
%ADD48C,0.00787*%
D30*
X337008Y239764D02*
Y243700D01*
X335040D01*
X334384Y243044D01*
Y241732D01*
X335040Y241076D01*
X337008D01*
X335696D02*
X334384Y239764D01*
X330448D02*
X333072D01*
X330448Y242388D01*
Y243044D01*
X331104Y243700D01*
X332416D01*
X333072Y243044D01*
X329136Y240420D02*
X328480Y239764D01*
X327168D01*
X326513Y240420D01*
Y243044D01*
X327168Y243700D01*
X328480D01*
X329136Y243044D01*
Y242388D01*
X328480Y241732D01*
X326513D01*
X337008Y251575D02*
Y255510D01*
X335040D01*
X334384Y254855D01*
Y253543D01*
X335040Y252887D01*
X337008D01*
X335696D02*
X334384Y251575D01*
X330448D02*
X333072D01*
X330448Y254199D01*
Y254855D01*
X331104Y255510D01*
X332416D01*
X333072Y254855D01*
X329136D02*
X328480Y255510D01*
X327168D01*
X326513Y254855D01*
Y254199D01*
X327168Y253543D01*
X326513Y252887D01*
Y252231D01*
X327168Y251575D01*
X328480D01*
X329136Y252231D01*
Y252887D01*
X328480Y253543D01*
X329136Y254199D01*
Y254855D01*
X328480Y253543D02*
X327168D01*
X337008Y262992D02*
Y266928D01*
X335040D01*
X334384Y266272D01*
Y264960D01*
X335040Y264304D01*
X337008D01*
X335696D02*
X334384Y262992D01*
X330448D02*
X333072D01*
X330448Y265616D01*
Y266272D01*
X331104Y266928D01*
X332416D01*
X333072Y266272D01*
X329136Y266928D02*
X326513D01*
Y266272D01*
X329136Y263648D01*
Y262992D01*
X337041Y274803D02*
Y278739D01*
X335073D01*
X334417Y278083D01*
Y276771D01*
X335073Y276115D01*
X337041D01*
X335729D02*
X334417Y274803D01*
X330481D02*
X333105D01*
X330481Y277427D01*
Y278083D01*
X331137Y278739D01*
X332449D01*
X333105Y278083D01*
X326545Y278739D02*
X327857Y278083D01*
X329169Y276771D01*
Y275459D01*
X328513Y274803D01*
X327201D01*
X326545Y275459D01*
Y276115D01*
X327201Y276771D01*
X329169D01*
X337008Y287402D02*
Y291337D01*
X335040D01*
X334384Y290681D01*
Y289369D01*
X335040Y288714D01*
X337008D01*
X335696D02*
X334384Y287402D01*
X330448D02*
X333072D01*
X330448Y290025D01*
Y290681D01*
X331104Y291337D01*
X332416D01*
X333072Y290681D01*
X326513Y291337D02*
X329136D01*
Y289369D01*
X327824Y290025D01*
X327168D01*
X326513Y289369D01*
Y288057D01*
X327168Y287402D01*
X328480D01*
X329136Y288057D01*
X337041Y299016D02*
Y302952D01*
X335073D01*
X334417Y302295D01*
Y300984D01*
X335073Y300328D01*
X337041D01*
X335729D02*
X334417Y299016D01*
X330481D02*
X333105D01*
X330481Y301640D01*
Y302295D01*
X331137Y302952D01*
X332449D01*
X333105Y302295D01*
X327201Y299016D02*
Y302952D01*
X329169Y300984D01*
X326545D01*
X337008Y310630D02*
Y314566D01*
X335040D01*
X334384Y313910D01*
Y312598D01*
X335040Y311942D01*
X337008D01*
X335696D02*
X334384Y310630D01*
X330448D02*
X333072D01*
X330448Y313254D01*
Y313910D01*
X331104Y314566D01*
X332416D01*
X333072Y313910D01*
X329136D02*
X328480Y314566D01*
X327168D01*
X326513Y313910D01*
Y313254D01*
X327168Y312598D01*
X327824D01*
X327168D01*
X326513Y311942D01*
Y311286D01*
X327168Y310630D01*
X328480D01*
X329136Y311286D01*
X337008Y322835D02*
Y326770D01*
X335040D01*
X334384Y326114D01*
Y324802D01*
X335040Y324147D01*
X337008D01*
X335696D02*
X334384Y322835D01*
X330448D02*
X333072D01*
X330448Y325459D01*
Y326114D01*
X331104Y326770D01*
X332416D01*
X333072Y326114D01*
X326513Y322835D02*
X329136D01*
X326513Y325459D01*
Y326114D01*
X327168Y326770D01*
X328480D01*
X329136Y326114D01*
X257087Y118898D02*
Y122833D01*
X255119D01*
X254463Y122177D01*
Y120865D01*
X255119Y120210D01*
X257087D01*
X255775D02*
X254463Y118898D01*
X250527D02*
X253151D01*
X250527Y121521D01*
Y122177D01*
X251183Y122833D01*
X252495D01*
X253151Y122177D01*
X249215Y118898D02*
X247903D01*
X248559D01*
Y122833D01*
X249215Y122177D01*
X379921Y155512D02*
Y159448D01*
X377953D01*
X377297Y158792D01*
Y157480D01*
X377953Y156824D01*
X379921D01*
X378609D02*
X377297Y155512D01*
X375986D02*
X374674D01*
X375330D01*
Y159448D01*
X375986Y158792D01*
X372706Y155512D02*
X371394D01*
X372050D01*
Y159448D01*
X372706Y158792D01*
X347350Y151173D02*
X351286D01*
Y153141D01*
X350630Y153797D01*
X349318D01*
X348662Y153141D01*
Y151173D01*
Y152485D02*
X347350Y153797D01*
Y155109D02*
Y156421D01*
Y155765D01*
X351286D01*
X350630Y155109D01*
Y158389D02*
X351286Y159045D01*
Y160357D01*
X350630Y161013D01*
X348006D01*
X347350Y160357D01*
Y159045D01*
X348006Y158389D01*
X350630D01*
X262731Y147768D02*
X263387Y148424D01*
X264698D01*
X265354Y147768D01*
Y145144D01*
X264698Y144488D01*
X263387D01*
X262731Y145144D01*
X261419Y144488D02*
X260107D01*
X260763D01*
Y148424D01*
X261419Y147768D01*
X258139D02*
X257483Y148424D01*
X256171D01*
X255515Y147768D01*
Y145144D01*
X256171Y144488D01*
X257483D01*
X258139Y145144D01*
Y147768D01*
X258793Y170209D02*
X259449Y170865D01*
X260761D01*
X261417Y170209D01*
Y167585D01*
X260761Y166929D01*
X259449D01*
X258793Y167585D01*
X257482D02*
X256826Y166929D01*
X255514D01*
X254858Y167585D01*
Y170209D01*
X255514Y170865D01*
X256826D01*
X257482Y170209D01*
Y169553D01*
X256826Y168897D01*
X254858D01*
X281235Y204461D02*
X281890Y205117D01*
X283202D01*
X283858Y204461D01*
Y201837D01*
X283202Y201181D01*
X281890D01*
X281235Y201837D01*
X279923Y204461D02*
X279267Y205117D01*
X277955D01*
X277299Y204461D01*
Y203805D01*
X277955Y203149D01*
X277299Y202493D01*
Y201837D01*
X277955Y201181D01*
X279267D01*
X279923Y201837D01*
Y202493D01*
X279267Y203149D01*
X279923Y203805D01*
Y204461D01*
X279267Y203149D02*
X277955D01*
X237140Y281233D02*
X237796Y281889D01*
X239108D01*
X239764Y281233D01*
Y278609D01*
X239108Y277953D01*
X237796D01*
X237140Y278609D01*
X235828Y281889D02*
X233204D01*
Y281233D01*
X235828Y278609D01*
Y277953D01*
X241471Y252492D02*
X242127Y253148D01*
X243439D01*
X244094Y252492D01*
Y249869D01*
X243439Y249213D01*
X242127D01*
X241471Y249869D01*
X237535Y253148D02*
X238847Y252492D01*
X240159Y251181D01*
Y249869D01*
X239503Y249213D01*
X238191D01*
X237535Y249869D01*
Y250524D01*
X238191Y251181D01*
X240159D01*
X212335Y258136D02*
X212991Y257480D01*
Y256168D01*
X212335Y255512D01*
X209711D01*
X209055Y256168D01*
Y257480D01*
X209711Y258136D01*
X212991Y262071D02*
Y259448D01*
X211023D01*
X211679Y260759D01*
Y261415D01*
X211023Y262071D01*
X209711D01*
X209055Y261415D01*
Y260104D01*
X209711Y259448D01*
X212335Y237663D02*
X212991Y237007D01*
Y235695D01*
X212335Y235039D01*
X209711D01*
X209055Y235695D01*
Y237007D01*
X209711Y237663D01*
X209055Y240943D02*
X212991D01*
X211023Y238975D01*
Y241599D01*
X380315Y163386D02*
Y167322D01*
X378347D01*
X377691Y166666D01*
Y165354D01*
X378347Y164698D01*
X380315D01*
X379003D02*
X377691Y163386D01*
X376379Y166666D02*
X375723Y167322D01*
X374411D01*
X373755Y166666D01*
Y166010D01*
X374411Y165354D01*
X375067D01*
X374411D01*
X373755Y164698D01*
Y164042D01*
X374411Y163386D01*
X375723D01*
X376379Y164042D01*
X372444Y166666D02*
X371788Y167322D01*
X370476D01*
X369820Y166666D01*
Y164042D01*
X370476Y163386D01*
X371788D01*
X372444Y164042D01*
Y166666D01*
D47*
X118209Y360433D02*
G03*
X118209Y360433I-492J0D01*
G01*
Y338583D02*
G03*
X118209Y338583I-492J0D01*
G01*
Y317126D02*
G03*
X118209Y317126I-492J0D01*
G01*
Y295472D02*
G03*
X118209Y295472I-492J0D01*
G01*
Y273819D02*
G03*
X118209Y273819I-492J0D01*
G01*
Y252165D02*
G03*
X118209Y252165I-492J0D01*
G01*
Y230512D02*
G03*
X118209Y230512I-492J0D01*
G01*
Y208858D02*
G03*
X118209Y208858I-492J0D01*
G01*
Y187205D02*
G03*
X118209Y187205I-492J0D01*
G01*
Y165551D02*
G03*
X118209Y165551I-492J0D01*
G01*
Y143898D02*
G03*
X118209Y143898I-492J0D01*
G01*
Y122244D02*
G03*
X118209Y122244I-492J0D01*
G01*
Y100591D02*
G03*
X118209Y100591I-492J0D01*
G01*
Y78937D02*
G03*
X118209Y78937I-492J0D01*
G01*
Y57284D02*
G03*
X118209Y57284I-492J0D01*
G01*
X118209Y34646D02*
G03*
X118209Y34646I-492J0D01*
G01*
D48*
X110236Y359252D02*
X114173D01*
X110236Y356102D02*
Y359252D01*
Y347441D02*
X114173D01*
X110236D02*
Y350590D01*
Y337402D02*
X114173D01*
X110236Y334252D02*
Y337402D01*
Y325590D02*
X114173D01*
X110236D02*
Y328740D01*
Y315945D02*
X114173D01*
X110236Y312795D02*
Y315945D01*
Y304134D02*
X114173D01*
X110236D02*
Y307283D01*
Y294291D02*
X114173D01*
X110236Y291142D02*
Y294291D01*
Y282480D02*
X114173D01*
X110236D02*
Y285630D01*
Y272638D02*
X114173D01*
X110236Y269488D02*
Y272638D01*
Y260827D02*
X114173D01*
X110236D02*
Y263976D01*
Y250984D02*
X114173D01*
X110236Y247835D02*
Y250984D01*
Y239173D02*
X114173D01*
X110236D02*
Y242323D01*
Y229331D02*
X114173D01*
X110236Y226181D02*
Y229331D01*
Y217520D02*
X114173D01*
X110236D02*
Y220669D01*
Y207677D02*
X114173D01*
X110236Y204528D02*
Y207677D01*
Y195866D02*
X114173D01*
X110236D02*
Y199016D01*
Y186024D02*
X114173D01*
X110236Y182874D02*
Y186024D01*
Y174213D02*
X114173D01*
X110236D02*
Y177362D01*
Y164370D02*
X114173D01*
X110236Y161221D02*
Y164370D01*
Y152559D02*
X114173D01*
X110236D02*
Y155709D01*
Y142717D02*
X114173D01*
X110236Y139567D02*
Y142717D01*
Y130905D02*
X114173D01*
X110236D02*
Y134055D01*
Y121063D02*
X114173D01*
X110236Y117913D02*
Y121063D01*
Y109252D02*
X114173D01*
X110236D02*
Y112402D01*
Y99409D02*
X114173D01*
X110236Y96260D02*
Y99409D01*
Y87598D02*
X114173D01*
X110236D02*
Y90748D01*
Y77756D02*
X114173D01*
X110236Y74606D02*
Y77756D01*
Y65945D02*
X114173D01*
X110236D02*
Y69095D01*
Y56102D02*
X114173D01*
X110236Y52953D02*
Y56102D01*
Y44291D02*
X114173D01*
X110236D02*
Y47441D01*
X110236Y33465D02*
X114173D01*
X110236Y30315D02*
Y33465D01*
Y21654D02*
X114173D01*
X110236D02*
Y24803D01*
X238976Y265748D02*
X243307D01*
X238976Y255906D02*
X243307D01*
X99869Y22309D02*
X102492D01*
X103148Y21653D01*
Y20341D01*
X102492Y19685D01*
X99869D01*
X99213Y20341D01*
Y21653D01*
X100524Y20997D02*
X99213Y22309D01*
Y21653D02*
X99869Y22309D01*
X99213Y23621D02*
Y24933D01*
Y24277D01*
X103148D01*
X102492Y23621D01*
X98557Y26901D02*
Y29524D01*
X99213Y30836D02*
Y32148D01*
Y31492D01*
X103148D01*
X102492Y30836D01*
X99869Y44750D02*
X102492D01*
X103148Y44094D01*
Y42782D01*
X102492Y42126D01*
X99869D01*
X99213Y42782D01*
Y44094D01*
X100524Y43438D02*
X99213Y44750D01*
Y44094D02*
X99869Y44750D01*
X99213Y46062D02*
Y47374D01*
Y46718D01*
X103148D01*
X102492Y46062D01*
X98557Y49341D02*
Y51965D01*
X99213Y55901D02*
Y53277D01*
X101836Y55901D01*
X102492D01*
X103148Y55245D01*
Y53933D01*
X102492Y53277D01*
X99869Y66403D02*
X102492D01*
X103148Y65747D01*
Y64435D01*
X102492Y63779D01*
X99869D01*
X99213Y64435D01*
Y65747D01*
X100524Y65091D02*
X99213Y66403D01*
Y65747D02*
X99869Y66403D01*
X99213Y67715D02*
Y69027D01*
Y68371D01*
X103148D01*
X102492Y67715D01*
X98557Y70995D02*
Y73619D01*
X102492Y74931D02*
X103148Y75587D01*
Y76899D01*
X102492Y77555D01*
X101836D01*
X101181Y76899D01*
Y76243D01*
Y76899D01*
X100524Y77555D01*
X99869D01*
X99213Y76899D01*
Y75587D01*
X99869Y74931D01*
Y88057D02*
X102492D01*
X103148Y87401D01*
Y86089D01*
X102492Y85433D01*
X99869D01*
X99213Y86089D01*
Y87401D01*
X100524Y86745D02*
X99213Y88057D01*
Y87401D02*
X99869Y88057D01*
X99213Y89369D02*
Y90681D01*
Y90025D01*
X103148D01*
X102492Y89369D01*
X98557Y92649D02*
Y95272D01*
X99213Y98552D02*
X103148D01*
X101181Y96584D01*
Y99208D01*
X99869Y109710D02*
X102492D01*
X103148Y109055D01*
Y107743D01*
X102492Y107087D01*
X99869D01*
X99213Y107743D01*
Y109055D01*
X100524Y108398D02*
X99213Y109710D01*
Y109055D02*
X99869Y109710D01*
X99213Y111022D02*
Y112334D01*
Y111678D01*
X103148D01*
X102492Y111022D01*
X98557Y114302D02*
Y116926D01*
X103148Y120862D02*
Y118238D01*
X101181D01*
X101836Y119550D01*
Y120206D01*
X101181Y120862D01*
X99869D01*
X99213Y120206D01*
Y118894D01*
X99869Y118238D01*
X99869Y131364D02*
X102492D01*
X103148Y130708D01*
Y129396D01*
X102492Y128740D01*
X99869D01*
X99213Y129396D01*
Y130708D01*
X100524Y130052D02*
X99213Y131364D01*
Y130708D02*
X99869Y131364D01*
X99213Y132676D02*
Y133988D01*
Y133332D01*
X103148D01*
X102492Y132676D01*
X98557Y135956D02*
Y138579D01*
X103148Y142515D02*
X102492Y141203D01*
X101181Y139891D01*
X99869D01*
X99213Y140547D01*
Y141859D01*
X99869Y142515D01*
X100524D01*
X101181Y141859D01*
Y139891D01*
X99869Y153411D02*
X102492D01*
X103148Y152755D01*
Y151443D01*
X102492Y150787D01*
X99869D01*
X99213Y151443D01*
Y152755D01*
X100524Y152099D02*
X99213Y153411D01*
Y152755D02*
X99869Y153411D01*
X99213Y154723D02*
Y156035D01*
Y155379D01*
X103148D01*
X102492Y154723D01*
X98557Y158003D02*
Y160627D01*
X103148Y161939D02*
Y164562D01*
X102492D01*
X99869Y161939D01*
X99213D01*
X99869Y174671D02*
X102492D01*
X103148Y174015D01*
Y172703D01*
X102492Y172047D01*
X99869D01*
X99213Y172703D01*
Y174015D01*
X100524Y173359D02*
X99213Y174671D01*
Y174015D02*
X99869Y174671D01*
X99213Y175983D02*
Y177295D01*
Y176639D01*
X103148D01*
X102492Y175983D01*
X98557Y179263D02*
Y181887D01*
X102492Y183198D02*
X103148Y183854D01*
Y185166D01*
X102492Y185822D01*
X101836D01*
X101181Y185166D01*
X100524Y185822D01*
X99869D01*
X99213Y185166D01*
Y183854D01*
X99869Y183198D01*
X100524D01*
X101181Y183854D01*
X101836Y183198D01*
X102492D01*
X101181Y183854D02*
Y185166D01*
X99869Y196718D02*
X102492D01*
X103148Y196062D01*
Y194750D01*
X102492Y194095D01*
X99869D01*
X99213Y194750D01*
Y196062D01*
X100524Y195406D02*
X99213Y196718D01*
Y196062D02*
X99869Y196718D01*
X99213Y198030D02*
Y199342D01*
Y198686D01*
X103148D01*
X102492Y198030D01*
X98557Y201310D02*
Y203934D01*
X99869Y205246D02*
X99213Y205902D01*
Y207214D01*
X99869Y207870D01*
X102492D01*
X103148Y207214D01*
Y205902D01*
X102492Y205246D01*
X101836D01*
X101181Y205902D01*
Y207870D01*
X99869Y217978D02*
X102492D01*
X103148Y217322D01*
Y216010D01*
X102492Y215354D01*
X99869D01*
X99213Y216010D01*
Y217322D01*
X100524Y216666D02*
X99213Y217978D01*
Y217322D02*
X99869Y217978D01*
X99213Y219290D02*
Y220602D01*
Y219946D01*
X103148D01*
X102492Y219290D01*
X98557Y222570D02*
Y225194D01*
X99213Y226506D02*
Y227818D01*
Y227162D01*
X103148D01*
X102492Y226506D01*
Y229785D02*
X103148Y230441D01*
Y231753D01*
X102492Y232409D01*
X99869D01*
X99213Y231753D01*
Y230441D01*
X99869Y229785D01*
X102492D01*
X99869Y239632D02*
X102492D01*
X103148Y238976D01*
Y237664D01*
X102492Y237008D01*
X99869D01*
X99213Y237664D01*
Y238976D01*
X100524Y238320D02*
X99213Y239632D01*
Y238976D02*
X99869Y239632D01*
X99213Y240944D02*
Y242255D01*
Y241600D01*
X103148D01*
X102492Y240944D01*
X98557Y244223D02*
Y246847D01*
X99213Y248159D02*
Y249471D01*
Y248815D01*
X103148D01*
X102492Y248159D01*
X99213Y251439D02*
Y252751D01*
Y252095D01*
X103148D01*
X102492Y251439D01*
X99869Y261285D02*
X102492D01*
X103148Y260629D01*
Y259317D01*
X102492Y258661D01*
X99869D01*
X99213Y259317D01*
Y260629D01*
X100524Y259973D02*
X99213Y261285D01*
Y260629D02*
X99869Y261285D01*
X99213Y262597D02*
Y263909D01*
Y263253D01*
X103148D01*
X102492Y262597D01*
X98557Y265877D02*
Y268501D01*
X99213Y269813D02*
Y271125D01*
Y270469D01*
X103148D01*
X102492Y269813D01*
X99213Y275716D02*
Y273093D01*
X101836Y275716D01*
X102492D01*
X103148Y275060D01*
Y273748D01*
X102492Y273093D01*
X99869Y282939D02*
X102492D01*
X103148Y282283D01*
Y280971D01*
X102492Y280315D01*
X99869D01*
X99213Y280971D01*
Y282283D01*
X100524Y281627D02*
X99213Y282939D01*
Y282283D02*
X99869Y282939D01*
X99213Y284251D02*
Y285563D01*
Y284907D01*
X103148D01*
X102492Y284251D01*
X98557Y287530D02*
Y290154D01*
X99213Y291466D02*
Y292778D01*
Y292122D01*
X103148D01*
X102492Y291466D01*
Y294746D02*
X103148Y295402D01*
Y296714D01*
X102492Y297370D01*
X101836D01*
X101181Y296714D01*
Y296058D01*
Y296714D01*
X100524Y297370D01*
X99869D01*
X99213Y296714D01*
Y295402D01*
X99869Y294746D01*
Y304592D02*
X102492D01*
X103148Y303936D01*
Y302625D01*
X102492Y301969D01*
X99869D01*
X99213Y302625D01*
Y303936D01*
X100524Y303280D02*
X99213Y304592D01*
Y303936D02*
X99869Y304592D01*
X99213Y305904D02*
Y307216D01*
Y306560D01*
X103148D01*
X102492Y305904D01*
X98557Y309184D02*
Y311808D01*
X99213Y313120D02*
Y314432D01*
Y313776D01*
X103148D01*
X102492Y313120D01*
X99213Y318367D02*
X103148D01*
X101181Y316400D01*
Y319023D01*
X99869Y326246D02*
X102492D01*
X103148Y325590D01*
Y324278D01*
X102492Y323622D01*
X99869D01*
X99213Y324278D01*
Y325590D01*
X100524Y324934D02*
X99213Y326246D01*
Y325590D02*
X99869Y326246D01*
X99213Y327558D02*
Y328870D01*
Y328214D01*
X103148D01*
X102492Y327558D01*
X98557Y330838D02*
Y333461D01*
X99213Y334773D02*
Y336085D01*
Y335429D01*
X103148D01*
X102492Y334773D01*
X103148Y340677D02*
Y338053D01*
X101181D01*
X101836Y339365D01*
Y340021D01*
X101181Y340677D01*
X99869D01*
X99213Y340021D01*
Y338709D01*
X99869Y338053D01*
Y347899D02*
X102492D01*
X103148Y347243D01*
Y345932D01*
X102492Y345276D01*
X99869D01*
X99213Y345932D01*
Y347243D01*
X100524Y346587D02*
X99213Y347899D01*
Y347243D02*
X99869Y347899D01*
X99213Y349211D02*
Y350523D01*
Y349867D01*
X103148D01*
X102492Y349211D01*
X98557Y352491D02*
Y355115D01*
X99213Y356427D02*
Y357739D01*
Y357083D01*
X103148D01*
X102492Y356427D01*
X103148Y362331D02*
X102492Y361018D01*
X101181Y359707D01*
X99869D01*
X99213Y360363D01*
Y361674D01*
X99869Y362331D01*
X100524D01*
X101181Y361674D01*
Y359707D01*
X171195Y22047D02*
Y25983D01*
X169227D01*
X168571Y25327D01*
Y24015D01*
X169227Y23359D01*
X171195D01*
X169883D02*
X168571Y22047D01*
X167259D02*
X165947D01*
X166603D01*
Y25983D01*
X167259Y25327D01*
X163980Y21391D02*
X161356D01*
X160044Y22047D02*
X158732D01*
X159388D01*
Y25983D01*
X160044Y25327D01*
X171851Y43701D02*
Y47637D01*
X169883D01*
X169227Y46981D01*
Y45669D01*
X169883Y45013D01*
X171851D01*
X170539D02*
X169227Y43701D01*
X167915D02*
X166603D01*
X167259D01*
Y47637D01*
X167915Y46981D01*
X164636Y43045D02*
X162012D01*
X158076Y43701D02*
X160700D01*
X158076Y46325D01*
Y46981D01*
X158732Y47637D01*
X160044D01*
X160700Y46981D01*
X171851Y65354D02*
Y69290D01*
X169883D01*
X169227Y68634D01*
Y67322D01*
X169883Y66666D01*
X171851D01*
X170539D02*
X169227Y65354D01*
X167915D02*
X166603D01*
X167259D01*
Y69290D01*
X167915Y68634D01*
X164636Y64698D02*
X162012D01*
X160700Y68634D02*
X160044Y69290D01*
X158732D01*
X158076Y68634D01*
Y67978D01*
X158732Y67322D01*
X159388D01*
X158732D01*
X158076Y66666D01*
Y66010D01*
X158732Y65354D01*
X160044D01*
X160700Y66010D01*
X171851Y87402D02*
Y91337D01*
X169883D01*
X169227Y90681D01*
Y89369D01*
X169883Y88714D01*
X171851D01*
X170539D02*
X169227Y87402D01*
X167915D02*
X166603D01*
X167259D01*
Y91337D01*
X167915Y90681D01*
X164636Y86746D02*
X162012D01*
X158732Y87402D02*
Y91337D01*
X160700Y89369D01*
X158076D01*
X171851Y108661D02*
Y112597D01*
X169883D01*
X169227Y111941D01*
Y110629D01*
X169883Y109973D01*
X171851D01*
X170539D02*
X169227Y108661D01*
X167915D02*
X166603D01*
X167259D01*
Y112597D01*
X167915Y111941D01*
X164636Y108005D02*
X162012D01*
X158076Y112597D02*
X160700D01*
Y110629D01*
X159388Y111285D01*
X158732D01*
X158076Y110629D01*
Y109317D01*
X158732Y108661D01*
X160044D01*
X160700Y109317D01*
X171851Y130315D02*
Y134251D01*
X169883D01*
X169227Y133595D01*
Y132283D01*
X169883Y131627D01*
X171851D01*
X170539D02*
X169227Y130315D01*
X167915D02*
X166603D01*
X167259D01*
Y134251D01*
X167915Y133595D01*
X164636Y129659D02*
X162012D01*
X158076Y134251D02*
X159388Y133595D01*
X160700Y132283D01*
Y130971D01*
X160044Y130315D01*
X158732D01*
X158076Y130971D01*
Y131627D01*
X158732Y132283D01*
X160700D01*
X171851Y151969D02*
Y155904D01*
X169883D01*
X169227Y155248D01*
Y153936D01*
X169883Y153280D01*
X171851D01*
X170539D02*
X169227Y151969D01*
X167915D02*
X166603D01*
X167259D01*
Y155904D01*
X167915Y155248D01*
X164636Y151312D02*
X162012D01*
X160700Y155904D02*
X158076D01*
Y155248D01*
X160700Y152624D01*
Y151969D01*
X171851Y173622D02*
Y177558D01*
X169883D01*
X169227Y176902D01*
Y175590D01*
X169883Y174934D01*
X171851D01*
X170539D02*
X169227Y173622D01*
X167915D02*
X166603D01*
X167259D01*
Y177558D01*
X167915Y176902D01*
X164636Y172966D02*
X162012D01*
X160700Y176902D02*
X160044Y177558D01*
X158732D01*
X158076Y176902D01*
Y176246D01*
X158732Y175590D01*
X158076Y174934D01*
Y174278D01*
X158732Y173622D01*
X160044D01*
X160700Y174278D01*
Y174934D01*
X160044Y175590D01*
X160700Y176246D01*
Y176902D01*
X160044Y175590D02*
X158732D01*
X171851Y195276D02*
Y199211D01*
X169883D01*
X169227Y198555D01*
Y197243D01*
X169883Y196588D01*
X171851D01*
X170539D02*
X169227Y195276D01*
X167915D02*
X166603D01*
X167259D01*
Y199211D01*
X167915Y198555D01*
X164636Y194620D02*
X162012D01*
X160700Y195931D02*
X160044Y195276D01*
X158732D01*
X158076Y195931D01*
Y198555D01*
X158732Y199211D01*
X160044D01*
X160700Y198555D01*
Y197899D01*
X160044Y197243D01*
X158076D01*
X173491Y216929D02*
Y220865D01*
X171523D01*
X170867Y220209D01*
Y218897D01*
X171523Y218241D01*
X173491D01*
X172179D02*
X170867Y216929D01*
X169555D02*
X168243D01*
X168899D01*
Y220865D01*
X169555Y220209D01*
X166275Y216273D02*
X163652D01*
X162340Y216929D02*
X161028D01*
X161684D01*
Y220865D01*
X162340Y220209D01*
X159060D02*
X158404Y220865D01*
X157092D01*
X156436Y220209D01*
Y217585D01*
X157092Y216929D01*
X158404D01*
X159060Y217585D01*
Y220209D01*
X172835Y238583D02*
Y242518D01*
X170867D01*
X170211Y241863D01*
Y240551D01*
X170867Y239895D01*
X172835D01*
X171523D02*
X170211Y238583D01*
X168899D02*
X167587D01*
X168243D01*
Y242518D01*
X168899Y241863D01*
X165620Y237927D02*
X162996D01*
X161684Y238583D02*
X160372D01*
X161028D01*
Y242518D01*
X161684Y241863D01*
X158404Y238583D02*
X157092D01*
X157748D01*
Y242518D01*
X158404Y241863D01*
X173491Y260236D02*
Y264172D01*
X171523D01*
X170867Y263516D01*
Y262204D01*
X171523Y261548D01*
X173491D01*
X172179D02*
X170867Y260236D01*
X169555D02*
X168243D01*
X168899D01*
Y264172D01*
X169555Y263516D01*
X166275Y259580D02*
X163652D01*
X162340Y260236D02*
X161028D01*
X161684D01*
Y264172D01*
X162340Y263516D01*
X156436Y260236D02*
X159060D01*
X156436Y262860D01*
Y263516D01*
X157092Y264172D01*
X158404D01*
X159060Y263516D01*
X173491Y281890D02*
Y285825D01*
X171523D01*
X170867Y285170D01*
Y283858D01*
X171523Y283202D01*
X173491D01*
X172179D02*
X170867Y281890D01*
X169555D02*
X168243D01*
X168899D01*
Y285825D01*
X169555Y285170D01*
X166275Y281234D02*
X163652D01*
X162340Y281890D02*
X161028D01*
X161684D01*
Y285825D01*
X162340Y285170D01*
X159060D02*
X158404Y285825D01*
X157092D01*
X156436Y285170D01*
Y284514D01*
X157092Y283858D01*
X157748D01*
X157092D01*
X156436Y283202D01*
Y282546D01*
X157092Y281890D01*
X158404D01*
X159060Y282546D01*
X173491Y303543D02*
Y307479D01*
X171523D01*
X170867Y306823D01*
Y305511D01*
X171523Y304855D01*
X173491D01*
X172179D02*
X170867Y303543D01*
X169555D02*
X168243D01*
X168899D01*
Y307479D01*
X169555Y306823D01*
X166275Y302887D02*
X163652D01*
X162340Y303543D02*
X161028D01*
X161684D01*
Y307479D01*
X162340Y306823D01*
X157092Y303543D02*
Y307479D01*
X159060Y305511D01*
X156436D01*
X173491Y325197D02*
Y329133D01*
X171523D01*
X170867Y328477D01*
Y327165D01*
X171523Y326509D01*
X173491D01*
X172179D02*
X170867Y325197D01*
X169555D02*
X168243D01*
X168899D01*
Y329133D01*
X169555Y328477D01*
X166275Y324541D02*
X163652D01*
X162340Y325197D02*
X161028D01*
X161684D01*
Y329133D01*
X162340Y328477D01*
X156436Y329133D02*
X159060D01*
Y327165D01*
X157748Y327821D01*
X157092D01*
X156436Y327165D01*
Y325853D01*
X157092Y325197D01*
X158404D01*
X159060Y325853D01*
X173491Y346850D02*
Y350786D01*
X171523D01*
X170867Y350130D01*
Y348818D01*
X171523Y348162D01*
X173491D01*
X172179D02*
X170867Y346850D01*
X169555D02*
X168243D01*
X168899D01*
Y350786D01*
X169555Y350130D01*
X166275Y346194D02*
X163652D01*
X162340Y346850D02*
X161028D01*
X161684D01*
Y350786D01*
X162340Y350130D01*
X156436Y350786D02*
X157748Y350130D01*
X159060Y348818D01*
Y347506D01*
X158404Y346850D01*
X157092D01*
X156436Y347506D01*
Y348162D01*
X157092Y348818D01*
X159060D01*
X171523Y31102D02*
Y35038D01*
X169555D01*
X168899Y34382D01*
Y33070D01*
X169555Y32414D01*
X171523D01*
X170211D02*
X168899Y31102D01*
X165620D02*
Y35038D01*
X167587Y33070D01*
X164963D01*
X163652Y30446D02*
X161028D01*
X159716Y31102D02*
X158404D01*
X159060D01*
Y35038D01*
X159716Y34382D01*
X172179Y52756D02*
Y56692D01*
X170211D01*
X169555Y56036D01*
Y54724D01*
X170211Y54068D01*
X172179D01*
X170867D02*
X169555Y52756D01*
X166275D02*
Y56692D01*
X168243Y54724D01*
X165620D01*
X164307Y52100D02*
X161684D01*
X157748Y52756D02*
X160372D01*
X157748Y55380D01*
Y56036D01*
X158404Y56692D01*
X159716D01*
X160372Y56036D01*
X172179Y74410D02*
Y78345D01*
X170211D01*
X169555Y77689D01*
Y76377D01*
X170211Y75721D01*
X172179D01*
X170867D02*
X169555Y74410D01*
X166275D02*
Y78345D01*
X168243Y76377D01*
X165620D01*
X164307Y73753D02*
X161684D01*
X160372Y77689D02*
X159716Y78345D01*
X158404D01*
X157748Y77689D01*
Y77033D01*
X158404Y76377D01*
X159060D01*
X158404D01*
X157748Y75721D01*
Y75065D01*
X158404Y74410D01*
X159716D01*
X160372Y75065D01*
X172179Y96063D02*
Y99999D01*
X170211D01*
X169555Y99343D01*
Y98031D01*
X170211Y97375D01*
X172179D01*
X170867D02*
X169555Y96063D01*
X166275D02*
Y99999D01*
X168243Y98031D01*
X165620D01*
X164307Y95407D02*
X161684D01*
X158404Y96063D02*
Y99999D01*
X160372Y98031D01*
X157748D01*
X172179Y117717D02*
Y121652D01*
X170211D01*
X169555Y120996D01*
Y119684D01*
X170211Y119028D01*
X172179D01*
X170867D02*
X169555Y117717D01*
X166275D02*
Y121652D01*
X168243Y119684D01*
X165620D01*
X164307Y117061D02*
X161684D01*
X157748Y121652D02*
X160372D01*
Y119684D01*
X159060Y120340D01*
X158404D01*
X157748Y119684D01*
Y118372D01*
X158404Y117717D01*
X159716D01*
X160372Y118372D01*
X172179Y139370D02*
Y143306D01*
X170211D01*
X169555Y142650D01*
Y141338D01*
X170211Y140682D01*
X172179D01*
X170867D02*
X169555Y139370D01*
X166275D02*
Y143306D01*
X168243Y141338D01*
X165620D01*
X164307Y138714D02*
X161684D01*
X157748Y143306D02*
X159060Y142650D01*
X160372Y141338D01*
Y140026D01*
X159716Y139370D01*
X158404D01*
X157748Y140026D01*
Y140682D01*
X158404Y141338D01*
X160372D01*
X172179Y161024D02*
Y164959D01*
X170211D01*
X169555Y164303D01*
Y162991D01*
X170211Y162336D01*
X172179D01*
X170867D02*
X169555Y161024D01*
X166275D02*
Y164959D01*
X168243Y162991D01*
X165620D01*
X164307Y160368D02*
X161684D01*
X160372Y164959D02*
X157748D01*
Y164303D01*
X160372Y161680D01*
Y161024D01*
X172179Y182677D02*
Y186613D01*
X170211D01*
X169555Y185957D01*
Y184645D01*
X170211Y183989D01*
X172179D01*
X170867D02*
X169555Y182677D01*
X166275D02*
Y186613D01*
X168243Y184645D01*
X165620D01*
X164307Y182021D02*
X161684D01*
X160372Y185957D02*
X159716Y186613D01*
X158404D01*
X157748Y185957D01*
Y185301D01*
X158404Y184645D01*
X157748Y183989D01*
Y183333D01*
X158404Y182677D01*
X159716D01*
X160372Y183333D01*
Y183989D01*
X159716Y184645D01*
X160372Y185301D01*
Y185957D01*
X159716Y184645D02*
X158404D01*
X172179Y203937D02*
Y207873D01*
X170211D01*
X169555Y207217D01*
Y205905D01*
X170211Y205249D01*
X172179D01*
X170867D02*
X169555Y203937D01*
X166275D02*
Y207873D01*
X168243Y205905D01*
X165620D01*
X164307Y203281D02*
X161684D01*
X160372Y204593D02*
X159716Y203937D01*
X158404D01*
X157748Y204593D01*
Y207217D01*
X158404Y207873D01*
X159716D01*
X160372Y207217D01*
Y206561D01*
X159716Y205905D01*
X157748D01*
X173819Y225197D02*
Y229133D01*
X171851D01*
X171195Y228477D01*
Y227165D01*
X171851Y226509D01*
X173819D01*
X172507D02*
X171195Y225197D01*
X167915D02*
Y229133D01*
X169883Y227165D01*
X167259D01*
X165947Y224541D02*
X163324D01*
X162012Y225197D02*
X160700D01*
X161356D01*
Y229133D01*
X162012Y228477D01*
X158732D02*
X158076Y229133D01*
X156764D01*
X156108Y228477D01*
Y225853D01*
X156764Y225197D01*
X158076D01*
X158732Y225853D01*
Y228477D01*
X173163Y246850D02*
Y250786D01*
X171195D01*
X170539Y250130D01*
Y248818D01*
X171195Y248162D01*
X173163D01*
X171851D02*
X170539Y246850D01*
X167259D02*
Y250786D01*
X169227Y248818D01*
X166603D01*
X165292Y246194D02*
X162668D01*
X161356Y246850D02*
X160044D01*
X160700D01*
Y250786D01*
X161356Y250130D01*
X158076Y246850D02*
X156764D01*
X157420D01*
Y250786D01*
X158076Y250130D01*
X173819Y268504D02*
Y272440D01*
X171851D01*
X171195Y271784D01*
Y270472D01*
X171851Y269816D01*
X173819D01*
X172507D02*
X171195Y268504D01*
X167915D02*
Y272440D01*
X169883Y270472D01*
X167259D01*
X165947Y267848D02*
X163324D01*
X162012Y268504D02*
X160700D01*
X161356D01*
Y272440D01*
X162012Y271784D01*
X156108Y268504D02*
X158732D01*
X156108Y271128D01*
Y271784D01*
X156764Y272440D01*
X158076D01*
X158732Y271784D01*
X173819Y290158D02*
Y294093D01*
X171851D01*
X171195Y293437D01*
Y292125D01*
X171851Y291469D01*
X173819D01*
X172507D02*
X171195Y290158D01*
X167915D02*
Y294093D01*
X169883Y292125D01*
X167259D01*
X165947Y289502D02*
X163324D01*
X162012Y290158D02*
X160700D01*
X161356D01*
Y294093D01*
X162012Y293437D01*
X158732D02*
X158076Y294093D01*
X156764D01*
X156108Y293437D01*
Y292781D01*
X156764Y292125D01*
X157420D01*
X156764D01*
X156108Y291469D01*
Y290813D01*
X156764Y290158D01*
X158076D01*
X158732Y290813D01*
X173819Y311811D02*
Y315747D01*
X171851D01*
X171195Y315091D01*
Y313779D01*
X171851Y313123D01*
X173819D01*
X172507D02*
X171195Y311811D01*
X167915D02*
Y315747D01*
X169883Y313779D01*
X167259D01*
X165947Y311155D02*
X163324D01*
X162012Y311811D02*
X160700D01*
X161356D01*
Y315747D01*
X162012Y315091D01*
X156764Y311811D02*
Y315747D01*
X158732Y313779D01*
X156108D01*
X173819Y333465D02*
Y337400D01*
X171851D01*
X171195Y336744D01*
Y335432D01*
X171851Y334776D01*
X173819D01*
X172507D02*
X171195Y333465D01*
X167915D02*
Y337400D01*
X169883Y335432D01*
X167259D01*
X165947Y332809D02*
X163324D01*
X162012Y333465D02*
X160700D01*
X161356D01*
Y337400D01*
X162012Y336744D01*
X156108Y337400D02*
X158732D01*
Y335432D01*
X157420Y336088D01*
X156764D01*
X156108Y335432D01*
Y334120D01*
X156764Y333465D01*
X158076D01*
X158732Y334120D01*
X173819Y355118D02*
Y359054D01*
X171851D01*
X171195Y358398D01*
Y357086D01*
X171851Y356430D01*
X173819D01*
X172507D02*
X171195Y355118D01*
X167915D02*
Y359054D01*
X169883Y357086D01*
X167259D01*
X165947Y354462D02*
X163324D01*
X162012Y355118D02*
X160700D01*
X161356D01*
Y359054D01*
X162012Y358398D01*
X156108Y359054D02*
X157420Y358398D01*
X158732Y357086D01*
Y355774D01*
X158076Y355118D01*
X156764D01*
X156108Y355774D01*
Y356430D01*
X156764Y357086D01*
X158732D01*
X136352Y15748D02*
Y19684D01*
X134384D01*
X133728Y19028D01*
Y17716D01*
X134384Y17060D01*
X136352D01*
X135040D02*
X133728Y15748D01*
X129792Y19684D02*
X132416D01*
Y17716D01*
X131104Y18372D01*
X130448D01*
X129792Y17716D01*
Y16404D01*
X130448Y15748D01*
X131760D01*
X132416Y16404D01*
X128480Y15092D02*
X125857D01*
X124545Y15748D02*
X123233D01*
X123889D01*
Y19684D01*
X124545Y19028D01*
X137008Y37402D02*
Y41337D01*
X135040D01*
X134384Y40681D01*
Y39369D01*
X135040Y38713D01*
X137008D01*
X135696D02*
X134384Y37402D01*
X130448Y41337D02*
X133072D01*
Y39369D01*
X131760Y40025D01*
X131104D01*
X130448Y39369D01*
Y38058D01*
X131104Y37402D01*
X132416D01*
X133072Y38058D01*
X129136Y36746D02*
X126513D01*
X122577Y37402D02*
X125201D01*
X122577Y40025D01*
Y40681D01*
X123233Y41337D01*
X124545D01*
X125201Y40681D01*
X137008Y80709D02*
Y84644D01*
X135040D01*
X134384Y83988D01*
Y82677D01*
X135040Y82021D01*
X137008D01*
X135696D02*
X134384Y80709D01*
X130448Y84644D02*
X133072D01*
Y82677D01*
X131760Y83333D01*
X131104D01*
X130448Y82677D01*
Y81365D01*
X131104Y80709D01*
X132416D01*
X133072Y81365D01*
X129136Y80053D02*
X126513D01*
X123233Y80709D02*
Y84644D01*
X125201Y82677D01*
X122577D01*
X137008Y102756D02*
Y106692D01*
X135040D01*
X134384Y106036D01*
Y104724D01*
X135040Y104068D01*
X137008D01*
X135696D02*
X134384Y102756D01*
X130448Y106692D02*
X133072D01*
Y104724D01*
X131760Y105380D01*
X131104D01*
X130448Y104724D01*
Y103412D01*
X131104Y102756D01*
X132416D01*
X133072Y103412D01*
X129136Y102100D02*
X126513D01*
X122577Y106692D02*
X125201D01*
Y104724D01*
X123889Y105380D01*
X123233D01*
X122577Y104724D01*
Y103412D01*
X123233Y102756D01*
X124545D01*
X125201Y103412D01*
X137008Y124016D02*
Y127952D01*
X135040D01*
X134384Y127295D01*
Y125984D01*
X135040Y125328D01*
X137008D01*
X135696D02*
X134384Y124016D01*
X130448Y127952D02*
X133072D01*
Y125984D01*
X131760Y126640D01*
X131104D01*
X130448Y125984D01*
Y124672D01*
X131104Y124016D01*
X132416D01*
X133072Y124672D01*
X129136Y123360D02*
X126513D01*
X122577Y127952D02*
X123889Y127295D01*
X125201Y125984D01*
Y124672D01*
X124545Y124016D01*
X123233D01*
X122577Y124672D01*
Y125328D01*
X123233Y125984D01*
X125201D01*
X137008Y145669D02*
Y149605D01*
X135040D01*
X134384Y148949D01*
Y147637D01*
X135040Y146981D01*
X137008D01*
X135696D02*
X134384Y145669D01*
X130448Y149605D02*
X133072D01*
Y147637D01*
X131760Y148293D01*
X131104D01*
X130448Y147637D01*
Y146325D01*
X131104Y145669D01*
X132416D01*
X133072Y146325D01*
X129136Y145013D02*
X126513D01*
X125201Y149605D02*
X122577D01*
Y148949D01*
X125201Y146325D01*
Y145669D01*
X137008Y167323D02*
Y171259D01*
X135040D01*
X134384Y170603D01*
Y169291D01*
X135040Y168635D01*
X137008D01*
X135696D02*
X134384Y167323D01*
X130448Y171259D02*
X133072D01*
Y169291D01*
X131760Y169947D01*
X131104D01*
X130448Y169291D01*
Y167979D01*
X131104Y167323D01*
X132416D01*
X133072Y167979D01*
X129136Y166667D02*
X126513D01*
X125201Y170603D02*
X124545Y171259D01*
X123233D01*
X122577Y170603D01*
Y169947D01*
X123233Y169291D01*
X122577Y168635D01*
Y167979D01*
X123233Y167323D01*
X124545D01*
X125201Y167979D01*
Y168635D01*
X124545Y169291D01*
X125201Y169947D01*
Y170603D01*
X124545Y169291D02*
X123233D01*
X137008Y189370D02*
Y193306D01*
X135040D01*
X134384Y192650D01*
Y191338D01*
X135040Y190682D01*
X137008D01*
X135696D02*
X134384Y189370D01*
X130448Y193306D02*
X133072D01*
Y191338D01*
X131760Y191994D01*
X131104D01*
X130448Y191338D01*
Y190026D01*
X131104Y189370D01*
X132416D01*
X133072Y190026D01*
X129136Y188714D02*
X126513D01*
X125201Y190026D02*
X124545Y189370D01*
X123233D01*
X122577Y190026D01*
Y192650D01*
X123233Y193306D01*
X124545D01*
X125201Y192650D01*
Y191994D01*
X124545Y191338D01*
X122577D01*
X137402Y210630D02*
Y214566D01*
X135434D01*
X134778Y213910D01*
Y212598D01*
X135434Y211942D01*
X137402D01*
X136090D02*
X134778Y210630D01*
X130842Y214566D02*
X133466D01*
Y212598D01*
X132154Y213254D01*
X131498D01*
X130842Y212598D01*
Y211286D01*
X131498Y210630D01*
X132810D01*
X133466Y211286D01*
X129530Y209974D02*
X126906D01*
X125594Y210630D02*
X124282D01*
X124938D01*
Y214566D01*
X125594Y213910D01*
X122315D02*
X121659Y214566D01*
X120347D01*
X119691Y213910D01*
Y211286D01*
X120347Y210630D01*
X121659D01*
X122315Y211286D01*
Y213910D01*
X136746Y232283D02*
Y236219D01*
X134778D01*
X134122Y235563D01*
Y234251D01*
X134778Y233595D01*
X136746D01*
X135434D02*
X134122Y232283D01*
X130186Y236219D02*
X132810D01*
Y234251D01*
X131498Y234907D01*
X130842D01*
X130186Y234251D01*
Y232939D01*
X130842Y232283D01*
X132154D01*
X132810Y232939D01*
X128874Y231627D02*
X126250D01*
X124938Y232283D02*
X123626D01*
X124282D01*
Y236219D01*
X124938Y235563D01*
X121659Y232283D02*
X120347D01*
X121003D01*
Y236219D01*
X121659Y235563D01*
X137402Y253937D02*
Y257873D01*
X135434D01*
X134778Y257217D01*
Y255905D01*
X135434Y255249D01*
X137402D01*
X136090D02*
X134778Y253937D01*
X130842Y257873D02*
X133466D01*
Y255905D01*
X132154Y256561D01*
X131498D01*
X130842Y255905D01*
Y254593D01*
X131498Y253937D01*
X132810D01*
X133466Y254593D01*
X129530Y253281D02*
X126906D01*
X125594Y253937D02*
X124282D01*
X124938D01*
Y257873D01*
X125594Y257217D01*
X119691Y253937D02*
X122315D01*
X119691Y256561D01*
Y257217D01*
X120347Y257873D01*
X121659D01*
X122315Y257217D01*
X137402Y275197D02*
Y279133D01*
X135434D01*
X134778Y278477D01*
Y277165D01*
X135434Y276509D01*
X137402D01*
X136090D02*
X134778Y275197D01*
X130842Y279133D02*
X133466D01*
Y277165D01*
X132154Y277821D01*
X131498D01*
X130842Y277165D01*
Y275853D01*
X131498Y275197D01*
X132810D01*
X133466Y275853D01*
X129530Y274541D02*
X126906D01*
X125594Y275197D02*
X124282D01*
X124938D01*
Y279133D01*
X125594Y278477D01*
X122315D02*
X121659Y279133D01*
X120347D01*
X119691Y278477D01*
Y277821D01*
X120347Y277165D01*
X121003D01*
X120347D01*
X119691Y276509D01*
Y275853D01*
X120347Y275197D01*
X121659D01*
X122315Y275853D01*
X137402Y297244D02*
Y301180D01*
X135434D01*
X134778Y300524D01*
Y299212D01*
X135434Y298556D01*
X137402D01*
X136090D02*
X134778Y297244D01*
X130842Y301180D02*
X133466D01*
Y299212D01*
X132154Y299868D01*
X131498D01*
X130842Y299212D01*
Y297900D01*
X131498Y297244D01*
X132810D01*
X133466Y297900D01*
X129530Y296588D02*
X126906D01*
X125594Y297244D02*
X124282D01*
X124938D01*
Y301180D01*
X125594Y300524D01*
X120347Y297244D02*
Y301180D01*
X122315Y299212D01*
X119691D01*
X137402Y340551D02*
Y344487D01*
X135434D01*
X134778Y343831D01*
Y342519D01*
X135434Y341863D01*
X137402D01*
X136090D02*
X134778Y340551D01*
X130842Y344487D02*
X133466D01*
Y342519D01*
X132154Y343175D01*
X131498D01*
X130842Y342519D01*
Y341207D01*
X131498Y340551D01*
X132810D01*
X133466Y341207D01*
X129530Y339895D02*
X126906D01*
X125594Y340551D02*
X124282D01*
X124938D01*
Y344487D01*
X125594Y343831D01*
X119691Y344487D02*
X121003Y343831D01*
X122315Y342519D01*
Y341207D01*
X121659Y340551D01*
X120347D01*
X119691Y341207D01*
Y341863D01*
X120347Y342519D01*
X122315D01*
X137402Y318898D02*
Y322833D01*
X135434D01*
X134778Y322177D01*
Y320866D01*
X135434Y320210D01*
X137402D01*
X136090D02*
X134778Y318898D01*
X130842Y322833D02*
X133466D01*
Y320866D01*
X132154Y321521D01*
X131498D01*
X130842Y320866D01*
Y319554D01*
X131498Y318898D01*
X132810D01*
X133466Y319554D01*
X129530Y318242D02*
X126906D01*
X125594Y318898D02*
X124282D01*
X124938D01*
Y322833D01*
X125594Y322177D01*
X119691Y322833D02*
X122315D01*
Y320866D01*
X121003Y321521D01*
X120347D01*
X119691Y320866D01*
Y319554D01*
X120347Y318898D01*
X121659D01*
X122315Y319554D01*
X137008Y59449D02*
Y63385D01*
X135040D01*
X134384Y62729D01*
Y61417D01*
X135040Y60761D01*
X137008D01*
X135696D02*
X134384Y59449D01*
X130448Y63385D02*
X133072D01*
Y61417D01*
X131760Y62073D01*
X131104D01*
X130448Y61417D01*
Y60105D01*
X131104Y59449D01*
X132416D01*
X133072Y60105D01*
X129136Y58793D02*
X126513D01*
X125201Y62729D02*
X124545Y63385D01*
X123233D01*
X122577Y62729D01*
Y62073D01*
X123233Y61417D01*
X123889D01*
X123233D01*
X122577Y60761D01*
Y60105D01*
X123233Y59449D01*
X124545D01*
X125201Y60105D01*
M02*
