M48
;Layer_Color=9474304
;FILE_FORMAT=2:5
INCH,LZ
;TYPE=PLATED
T1F00S00C0.01575
T2F00S00C0.01968
T3F00S00C0.02362
T4F00S00C0.02402
T5F00S00C0.03150
T6F00S00C0.03937
T7F00S00C0.12205
T8F00S00C0.13780
T9F00S00C0.15748
;TYPE=NON_PLATED
T10F00S00C0.15748
%
T01
X0108268Y002874
Y0050394
X0132283Y0041142
X0138386Y0041142
X0153543Y0037402
X0153543Y004626
Y0024606
X0138386Y0019488
X0132283
X022441Y0133858
X0221654Y0143701
X0216142
X0238189Y0147638
X0242126
X0246063
X0259449
Y0152342
X0259462Y0127165
X024961Y0125546
X0244882Y0164764
X0234449Y016914
X0263779Y0175197
Y0179134
X0275197Y0175197
X0287073
X0289484Y0182169
X0301181Y0182283
X029895Y0175197
X0310827
Y0213386
X029895Y0212598
X0287073Y0212598
X0275197
X0263779Y0206693
Y0202756
Y0198819
X0349909Y0192913
X0333858Y0149219
X0327953Y0117785
X0322835Y0112785
X021063Y0143701
X0205118
X0187008Y0146457
X0187008Y0154331
X0187008Y0162205
Y0170866
Y0178347
Y0183465
X0187008Y0190945
X0188976Y0197245
X0192126Y0209842
X0197244
X0153543Y021063
X0153543Y0197835
X0153543Y0188976
X0153543Y0176181
X0153543Y0167323
X0153543Y0154527
X0153543Y0145669
X0153543Y0132874
X0153543Y0124016
X0153543Y0111221
X0153543Y0102362
X0153543Y0089567
X0153543Y0080709
X0153543Y0067913
X0153543Y0059055
X0138386Y0062795
X0132283Y0062795
Y0084449
X0138386Y0084449
Y0106102
X0132283Y0106102
Y0127756
X0138386Y0127756
Y0149409
X0132283Y0149409
Y0171063
X0138386Y0171063
Y0192421
X0132283Y0192717
X0108268Y0201969
Y0180315
Y0158661
Y0137008
Y0115354
Y0093701
Y0072047
Y0223622
Y0245276
Y0266929
Y0288583
Y0310236
Y033189
Y0353543
X0132283Y0344291
X0138386
X0153543Y0340551
X0153543Y0349409
Y0362205
Y0327756
X0153543Y0318898
X0153543Y0306102
X0153543Y0297244
X0153543Y0284449
X0153543Y027559
X0153543Y0262795
X0153543Y0253937
X0153543Y0241142
X0153543Y0232283
X0153543Y0219488
X0138173Y0214158
X0132283Y021437
Y0236024
X0138386Y0236024
Y0257677
X0132283
Y0279331
X0138386
Y0300984
X0132283
Y0322638
X0138386
X0202756Y022441
X0207874Y0224311
X0214961Y0224213
X0218209Y0224311
X0221654Y0224213
X0226772Y022441
X0230433Y0224291
X0234252Y022441
X0238189
X0242126
X0246063
X025
X0253937
X0257874
X0261811
T02
X0062205Y0072835
X0059055Y0151339
Y0161339
Y0171339
Y0181496
Y0191339
Y0201339
Y0211417
X0054527Y0072835
X004685
X0059055Y022126
Y0231339
Y0241339
Y0251339
Y0261339
Y0271339
Y0281496
X0323228Y0283465
Y0295276
Y0307087
Y0318898
Y0271654
Y0259842
Y0248031
Y0236221
T03
X0190945Y0366535
X0251969Y0368504
T04
X0373622Y0172441
X0383622
X0363622
X0353622
T05
X0017323Y0052362
X0214567Y0108268
X0220579
X0226378
X0232283
X0238189
X0024409Y0064567
X0017717
X0318504Y022441
X0327953Y0214961
T06
X0277953Y0050394
X0288189
X0298031
X0308268
X0343265Y0087601
X0343365Y0097501
Y0107601
Y0117501
Y0127601
Y0137601
X0049606Y0141339
Y0131339
Y0121339
Y0111339
Y0101339
Y0151339
Y0161339
Y0171339
Y0181339
Y0191339
Y0201339
Y0211339
Y0221339
Y0231339
Y0241339
Y0251339
Y0261339
Y0271339
Y0281339
Y0291339
X002372Y0319193
X0011811Y0330709
X0023622Y0346063
X0277953Y0342913
X0288189
X0298031
X0308268
X0346457Y0318898
Y0307087
Y0295276
X0358268
Y0307087
Y0318898
Y0283465
X0346457
Y0271654
X0358268
Y0259842
X0346457
Y0248031
Y0236221
X0358268
Y0248031
T07
X0375276Y0244291
Y0310827
T08
X0377265Y0081501
X0377165Y0143701
T09
X0015748Y0015748
X0377953
Y0377953
T10
X0015748Y0377953
M30
