G04 Layer_Physical_Order=1*
G04 Layer_Color=255*
%FSLAX25Y25*%
%MOIN*%
G70*
G01*
G75*
%ADD10R,0.07087X0.05315*%
%ADD11R,0.03937X0.03937*%
%ADD12R,0.04724X0.12992*%
%ADD13R,0.06890X0.04528*%
%ADD14R,0.03150X0.03740*%
%ADD15R,0.02756X0.03150*%
%ADD16R,0.02756X0.07677*%
%ADD17R,0.03150X0.03347*%
%ADD18O,0.01181X0.05709*%
%ADD19O,0.05709X0.01181*%
%ADD20R,0.03937X0.03937*%
%ADD21R,0.05709X0.04921*%
%ADD22R,0.03740X0.03150*%
%ADD23R,0.01772X0.03347*%
%ADD24R,0.21850X0.25197*%
%ADD25R,0.03937X0.11811*%
%ADD26R,0.04528X0.10630*%
%ADD27R,0.03150X0.02756*%
%ADD28R,0.04921X0.05709*%
%ADD29R,0.02559X0.03347*%
%ADD30C,0.01000*%
%ADD31C,0.03937*%
%ADD32C,0.07874*%
%ADD33C,0.01968*%
%ADD34C,0.02953*%
%ADD35C,0.05905*%
%ADD36C,0.23622*%
%ADD37C,0.13780*%
%ADD38C,0.02362*%
%ADD39C,0.03150*%
%ADD40C,0.03543*%
%ADD41C,0.01968*%
G36*
X243709Y105905D02*
X241347Y103543D01*
X211811D01*
X209457Y105512D01*
X209457Y115961D01*
X210432Y116936D01*
X210614Y116860D01*
Y116248D01*
X216551D01*
Y117323D01*
X217602D01*
Y116248D01*
X225311D01*
Y117323D01*
X227445D01*
Y115264D01*
X231299D01*
X235154D01*
Y117323D01*
X237189D01*
Y115264D01*
X240158D01*
X243126D01*
Y117323D01*
X243709D01*
X243709Y105905D01*
D02*
G37*
G36*
X326772Y322917D02*
X326772Y231184D01*
X319443Y231184D01*
X319443Y322917D01*
X326772Y322917D01*
D02*
G37*
G36*
X32677Y69685D02*
Y68323D01*
X29512D01*
Y65854D01*
X32480D01*
Y64854D01*
X29512D01*
Y62386D01*
X32677D01*
X32677Y44488D01*
X30315Y42126D01*
X16535Y42126D01*
X13386Y45276D01*
X13386Y67716D01*
X16929Y71260D01*
X31102D01*
X32677Y69685D01*
D02*
G37*
%LPC*%
G36*
X235013Y107768D02*
X232784D01*
Y105538D01*
X233007Y105567D01*
X233681Y105847D01*
X234260Y106291D01*
X234704Y106870D01*
X234984Y107544D01*
X235013Y107768D01*
D02*
G37*
G36*
X231784D02*
X229554D01*
X229583Y107544D01*
X229862Y106870D01*
X230307Y106291D01*
X230886Y105847D01*
X231560Y105567D01*
X231784Y105538D01*
Y107768D01*
D02*
G37*
G36*
X240919D02*
X238689D01*
Y105538D01*
X238913Y105567D01*
X239587Y105847D01*
X240166Y106291D01*
X240610Y106870D01*
X240889Y107544D01*
X240919Y107768D01*
D02*
G37*
G36*
X237689D02*
X235459D01*
X235489Y107544D01*
X235768Y106870D01*
X236212Y106291D01*
X236791Y105847D01*
X237465Y105567D01*
X237689Y105538D01*
Y107768D01*
D02*
G37*
G36*
X220079D02*
X217849D01*
X217878Y107544D01*
X218158Y106870D01*
X218602Y106291D01*
X219181Y105847D01*
X219855Y105567D01*
X220079Y105538D01*
Y107768D01*
D02*
G37*
G36*
X217297D02*
X215067D01*
Y105538D01*
X215290Y105567D01*
X215965Y105847D01*
X216544Y106291D01*
X216988Y106870D01*
X217267Y107544D01*
X217297Y107768D01*
D02*
G37*
G36*
X223308D02*
X221079D01*
Y105538D01*
X221302Y105567D01*
X221976Y105847D01*
X222555Y106291D01*
X223000Y106870D01*
X223279Y107544D01*
X223308Y107768D01*
D02*
G37*
G36*
X229108D02*
X226878D01*
Y105538D01*
X227101Y105567D01*
X227776Y105847D01*
X228355Y106291D01*
X228799Y106870D01*
X229078Y107544D01*
X229108Y107768D01*
D02*
G37*
G36*
X225878D02*
X223648D01*
X223678Y107544D01*
X223957Y106870D01*
X224401Y106291D01*
X224980Y105847D01*
X225654Y105567D01*
X225878Y105538D01*
Y107768D01*
D02*
G37*
G36*
X226878Y110997D02*
Y108768D01*
X229108D01*
X229078Y108991D01*
X228799Y109666D01*
X228355Y110245D01*
X227776Y110689D01*
X227101Y110968D01*
X226878Y110997D01*
D02*
G37*
G36*
X225878D02*
X225654Y110968D01*
X224980Y110689D01*
X224401Y110245D01*
X223957Y109666D01*
X223678Y108991D01*
X223648Y108768D01*
X225878D01*
Y110997D01*
D02*
G37*
G36*
X232784D02*
Y108768D01*
X235013D01*
X234984Y108991D01*
X234704Y109666D01*
X234260Y110245D01*
X233681Y110689D01*
X233007Y110968D01*
X232784Y110997D01*
D02*
G37*
G36*
X231784D02*
X231560Y110968D01*
X230886Y110689D01*
X230307Y110245D01*
X229862Y109666D01*
X229583Y108991D01*
X229554Y108768D01*
X231784D01*
Y110997D01*
D02*
G37*
G36*
X221079D02*
Y108768D01*
X223308D01*
X223279Y108991D01*
X223000Y109666D01*
X222555Y110245D01*
X221976Y110689D01*
X221302Y110968D01*
X221079Y110997D01*
D02*
G37*
G36*
X237689D02*
X237465Y110968D01*
X236791Y110689D01*
X236212Y110245D01*
X235768Y109666D01*
X235489Y108991D01*
X235459Y108768D01*
X237689D01*
Y110997D01*
D02*
G37*
G36*
X214067D02*
X213843Y110968D01*
X213169Y110689D01*
X212590Y110245D01*
X212146Y109666D01*
X211867Y108991D01*
X211837Y108768D01*
X214067D01*
Y110997D01*
D02*
G37*
G36*
X220079D02*
X219855Y110968D01*
X219181Y110689D01*
X218602Y110245D01*
X218158Y109666D01*
X217878Y108991D01*
X217849Y108768D01*
X220079D01*
Y110997D01*
D02*
G37*
G36*
X215067D02*
Y108768D01*
X217297D01*
X217267Y108991D01*
X216988Y109666D01*
X216544Y110245D01*
X215965Y110689D01*
X215290Y110968D01*
X215067Y110997D01*
D02*
G37*
G36*
X214067Y107768D02*
X211837D01*
X211867Y107544D01*
X212146Y106870D01*
X212590Y106291D01*
X213169Y105847D01*
X213843Y105567D01*
X214067Y105538D01*
Y107768D01*
D02*
G37*
G36*
X238689Y110997D02*
Y108768D01*
X240919D01*
X240889Y108991D01*
X240610Y109666D01*
X240166Y110245D01*
X239587Y110689D01*
X238913Y110968D01*
X238689Y110997D01*
D02*
G37*
G36*
X213083Y115248D02*
X210614D01*
Y112779D01*
X213083D01*
Y115248D01*
D02*
G37*
G36*
X225311Y115248D02*
X221957D01*
Y112287D01*
X225311D01*
Y115248D01*
D02*
G37*
G36*
X216551Y115248D02*
X214083D01*
Y112779D01*
X216551D01*
Y115248D01*
D02*
G37*
G36*
X235154Y114264D02*
X231799D01*
Y111303D01*
X235154D01*
Y114264D01*
D02*
G37*
G36*
X230799D02*
X227445D01*
Y111303D01*
X230799D01*
Y114264D01*
D02*
G37*
G36*
X239657D02*
X237189D01*
Y111795D01*
X239657D01*
Y114264D01*
D02*
G37*
G36*
X220957Y115248D02*
X217602D01*
Y112287D01*
X220957D01*
Y115248D01*
D02*
G37*
G36*
X243126Y114264D02*
X240657D01*
Y111795D01*
X243126D01*
Y114264D01*
D02*
G37*
G36*
X322728Y285589D02*
X322377Y285519D01*
X321656Y285037D01*
X321174Y284316D01*
X321104Y283965D01*
X322728D01*
Y285589D01*
D02*
G37*
G36*
X325353Y282965D02*
X323728D01*
Y281340D01*
X324079Y281410D01*
X324801Y281892D01*
X325283Y282613D01*
X325353Y282965D01*
D02*
G37*
G36*
X323728Y285589D02*
Y283965D01*
X325353D01*
X325283Y284316D01*
X324801Y285037D01*
X324079Y285519D01*
X323728Y285589D01*
D02*
G37*
G36*
X325353Y294776D02*
X323728D01*
Y293151D01*
X324079Y293221D01*
X324801Y293703D01*
X325283Y294425D01*
X325353Y294776D01*
D02*
G37*
G36*
X322728D02*
X321104D01*
X321174Y294425D01*
X321656Y293703D01*
X322377Y293221D01*
X322728Y293151D01*
Y294776D01*
D02*
G37*
G36*
X325353Y271153D02*
X323728D01*
Y269529D01*
X324079Y269599D01*
X324801Y270081D01*
X325283Y270802D01*
X325353Y271153D01*
D02*
G37*
G36*
X322728D02*
X321104D01*
X321174Y270802D01*
X321656Y270081D01*
X322377Y269599D01*
X322728Y269529D01*
Y271153D01*
D02*
G37*
G36*
Y273778D02*
X322377Y273708D01*
X321656Y273226D01*
X321174Y272505D01*
X321104Y272153D01*
X322728D01*
Y273778D01*
D02*
G37*
G36*
Y282965D02*
X321104D01*
X321174Y282613D01*
X321656Y281892D01*
X322377Y281410D01*
X322728Y281340D01*
Y282965D01*
D02*
G37*
G36*
X323728Y273778D02*
Y272153D01*
X325353D01*
X325283Y272505D01*
X324801Y273226D01*
X324079Y273708D01*
X323728Y273778D01*
D02*
G37*
G36*
X322728Y318398D02*
X321104D01*
X321174Y318047D01*
X321656Y317325D01*
X322377Y316843D01*
X322728Y316773D01*
Y318398D01*
D02*
G37*
G36*
X323728Y309211D02*
Y307587D01*
X325353D01*
X325283Y307938D01*
X324801Y308659D01*
X324079Y309141D01*
X323728Y309211D01*
D02*
G37*
G36*
X325353Y318398D02*
X323728D01*
Y316773D01*
X324079Y316843D01*
X324801Y317325D01*
X325283Y318047D01*
X325353Y318398D01*
D02*
G37*
G36*
X323728Y321022D02*
Y319398D01*
X325353D01*
X325283Y319749D01*
X324801Y320470D01*
X324079Y320952D01*
X323728Y321022D01*
D02*
G37*
G36*
X322728D02*
X322377Y320952D01*
X321656Y320470D01*
X321174Y319749D01*
X321104Y319398D01*
X322728D01*
Y321022D01*
D02*
G37*
G36*
X323728Y297400D02*
Y295776D01*
X325353D01*
X325283Y296127D01*
X324801Y296848D01*
X324079Y297330D01*
X323728Y297400D01*
D02*
G37*
G36*
X322728D02*
X322377Y297330D01*
X321656Y296848D01*
X321174Y296127D01*
X321104Y295776D01*
X322728D01*
Y297400D01*
D02*
G37*
G36*
Y306587D02*
X321104D01*
X321174Y306236D01*
X321656Y305514D01*
X322377Y305032D01*
X322728Y304962D01*
Y306587D01*
D02*
G37*
G36*
Y309211D02*
X322377Y309141D01*
X321656Y308659D01*
X321174Y307938D01*
X321104Y307587D01*
X322728D01*
Y309211D01*
D02*
G37*
G36*
X325353Y306587D02*
X323728D01*
Y304962D01*
X324079Y305032D01*
X324801Y305514D01*
X325283Y306236D01*
X325353Y306587D01*
D02*
G37*
G36*
Y235720D02*
X323728D01*
Y234096D01*
X324079Y234166D01*
X324801Y234648D01*
X325283Y235369D01*
X325353Y235720D01*
D02*
G37*
G36*
X322728D02*
X321104D01*
X321174Y235369D01*
X321656Y234648D01*
X322377Y234166D01*
X322728Y234096D01*
Y235720D01*
D02*
G37*
G36*
Y259343D02*
X321104D01*
X321174Y258992D01*
X321656Y258270D01*
X322377Y257788D01*
X322728Y257718D01*
Y259343D01*
D02*
G37*
G36*
X323728Y250156D02*
Y248532D01*
X325353D01*
X325283Y248883D01*
X324801Y249604D01*
X324079Y250086D01*
X323728Y250156D01*
D02*
G37*
G36*
X325353Y259343D02*
X323728D01*
Y257718D01*
X324079Y257788D01*
X324801Y258270D01*
X325283Y258992D01*
X325353Y259343D01*
D02*
G37*
G36*
X323728Y261967D02*
Y260343D01*
X325353D01*
X325283Y260694D01*
X324801Y261415D01*
X324079Y261897D01*
X323728Y261967D01*
D02*
G37*
G36*
X322728D02*
X322377Y261897D01*
X321656Y261415D01*
X321174Y260694D01*
X321104Y260343D01*
X322728D01*
Y261967D01*
D02*
G37*
G36*
X323728Y238345D02*
Y236720D01*
X325353D01*
X325283Y237071D01*
X324801Y237793D01*
X324079Y238275D01*
X323728Y238345D01*
D02*
G37*
G36*
X322728D02*
X322377Y238275D01*
X321656Y237793D01*
X321174Y237071D01*
X321104Y236720D01*
X322728D01*
Y238345D01*
D02*
G37*
G36*
Y247532D02*
X321104D01*
X321174Y247181D01*
X321656Y246459D01*
X322377Y245977D01*
X322728Y245907D01*
Y247532D01*
D02*
G37*
G36*
Y250156D02*
X322377Y250086D01*
X321656Y249604D01*
X321174Y248883D01*
X321104Y248532D01*
X322728D01*
Y250156D01*
D02*
G37*
G36*
X325353Y247532D02*
X323728D01*
Y245907D01*
X324079Y245977D01*
X324801Y246459D01*
X325283Y247181D01*
X325353Y247532D01*
D02*
G37*
G36*
X16823Y55092D02*
X16599Y55063D01*
X15925Y54783D01*
X15346Y54339D01*
X14902Y53760D01*
X14623Y53086D01*
X14593Y52862D01*
X16823D01*
Y55092D01*
D02*
G37*
G36*
X20053Y51862D02*
X17823D01*
Y49632D01*
X18046Y49662D01*
X18721Y49941D01*
X19300Y50385D01*
X19744Y50964D01*
X20023Y51639D01*
X20053Y51862D01*
D02*
G37*
G36*
X17823Y55092D02*
Y52862D01*
X20053D01*
X20023Y53086D01*
X19744Y53760D01*
X19300Y54339D01*
X18721Y54783D01*
X18046Y55063D01*
X17823Y55092D01*
D02*
G37*
G36*
X25606Y56980D02*
X23531D01*
Y55102D01*
X25606D01*
Y56980D01*
D02*
G37*
G36*
X22532D02*
X20457D01*
Y55102D01*
X22532D01*
Y56980D01*
D02*
G37*
G36*
X25606Y47138D02*
X23531D01*
Y45260D01*
X25606D01*
Y47138D01*
D02*
G37*
G36*
X22532D02*
X20457D01*
Y45260D01*
X22532D01*
Y47138D01*
D02*
G37*
G36*
Y50016D02*
X20457D01*
Y48138D01*
X22532D01*
Y50016D01*
D02*
G37*
G36*
X16823Y51862D02*
X14593D01*
X14623Y51639D01*
X14902Y50964D01*
X15346Y50385D01*
X15925Y49941D01*
X16599Y49662D01*
X16823Y49632D01*
Y51862D01*
D02*
G37*
G36*
X25606Y50016D02*
X23531D01*
Y48138D01*
X25606D01*
Y50016D01*
D02*
G37*
G36*
X17217Y67297D02*
X16993Y67267D01*
X16319Y66988D01*
X15740Y66544D01*
X15295Y65965D01*
X15016Y65290D01*
X14987Y65067D01*
X17217D01*
Y67297D01*
D02*
G37*
G36*
X27139Y64067D02*
X24909D01*
Y61837D01*
X25133Y61867D01*
X25807Y62146D01*
X26386Y62590D01*
X26831Y63169D01*
X27110Y63843D01*
X27139Y64067D01*
D02*
G37*
G36*
X18216Y67297D02*
Y65067D01*
X20446D01*
X20417Y65290D01*
X20138Y65965D01*
X19693Y66544D01*
X19114Y66988D01*
X18440Y67267D01*
X18216Y67297D01*
D02*
G37*
G36*
X24909D02*
Y65067D01*
X27139D01*
X27110Y65290D01*
X26831Y65965D01*
X26386Y66544D01*
X25807Y66988D01*
X25133Y67267D01*
X24909Y67297D01*
D02*
G37*
G36*
X23910D02*
X23686Y67267D01*
X23012Y66988D01*
X22433Y66544D01*
X21988Y65965D01*
X21709Y65290D01*
X21680Y65067D01*
X23910D01*
Y67297D01*
D02*
G37*
G36*
X25606Y59858D02*
X23531D01*
Y57980D01*
X25606D01*
Y59858D01*
D02*
G37*
G36*
X22532D02*
X20457D01*
Y57980D01*
X22532D01*
Y59858D01*
D02*
G37*
G36*
X17217Y64067D02*
X14987D01*
X15016Y63843D01*
X15295Y63169D01*
X15740Y62590D01*
X16319Y62146D01*
X16993Y61867D01*
X17217Y61837D01*
Y64067D01*
D02*
G37*
G36*
X23910D02*
X21680D01*
X21709Y63843D01*
X21988Y63169D01*
X22433Y62590D01*
X23012Y62146D01*
X23686Y61867D01*
X23910Y61837D01*
Y64067D01*
D02*
G37*
G36*
X20446D02*
X18216D01*
Y61837D01*
X18440Y61867D01*
X19114Y62146D01*
X19693Y62590D01*
X20138Y63169D01*
X20417Y63843D01*
X20446Y64067D01*
D02*
G37*
%LPD*%
D10*
X300000Y333268D02*
D03*
Y322441D02*
D03*
X287008Y333268D02*
D03*
Y322441D02*
D03*
X274803Y333268D02*
D03*
Y322441D02*
D03*
X311811Y333366D02*
D03*
Y322539D02*
D03*
X299048Y60728D02*
D03*
Y71555D02*
D03*
X311024Y60728D02*
D03*
Y71555D02*
D03*
X275098Y60728D02*
D03*
Y71555D02*
D03*
X287073Y60728D02*
D03*
Y71555D02*
D03*
X251969Y343012D02*
D03*
Y353839D02*
D03*
D11*
X238583Y130905D02*
D03*
X233858D02*
D03*
X37205Y65354D02*
D03*
X32480D02*
D03*
D12*
X137992Y380906D02*
D03*
X161221D02*
D03*
X88779D02*
D03*
X112008D02*
D03*
X73229Y353346D02*
D03*
X96457D02*
D03*
X73229Y331693D02*
D03*
X96457D02*
D03*
X73229Y310039D02*
D03*
X96457D02*
D03*
X73229Y288386D02*
D03*
X96457D02*
D03*
X73229Y266732D02*
D03*
X96457D02*
D03*
X73229Y245079D02*
D03*
X96457D02*
D03*
X73229Y223425D02*
D03*
X96457D02*
D03*
X73229Y201772D02*
D03*
X96457D02*
D03*
X73229Y180118D02*
D03*
X96457D02*
D03*
X73229Y158465D02*
D03*
X96457D02*
D03*
X73229Y136811D02*
D03*
X96457D02*
D03*
X73229Y115157D02*
D03*
X96457D02*
D03*
X73229Y93504D02*
D03*
X96457D02*
D03*
X73229Y71850D02*
D03*
X96457D02*
D03*
X73229Y50197D02*
D03*
X96457D02*
D03*
X73229Y28543D02*
D03*
X96457D02*
D03*
D13*
X48228Y330413D02*
D03*
Y319193D02*
D03*
X298753Y146260D02*
D03*
Y135039D02*
D03*
X275000Y146260D02*
D03*
Y135039D02*
D03*
X310630Y146260D02*
D03*
Y135039D02*
D03*
X286877Y146260D02*
D03*
Y135039D02*
D03*
X275197Y245620D02*
D03*
Y256840D02*
D03*
X287402Y245571D02*
D03*
Y256791D02*
D03*
X298950Y245669D02*
D03*
Y256890D02*
D03*
X311024Y245669D02*
D03*
Y256890D02*
D03*
D14*
X131890Y353346D02*
D03*
X126772D02*
D03*
X131890Y331693D02*
D03*
X126772D02*
D03*
X131890Y310039D02*
D03*
X126772D02*
D03*
X131890Y288386D02*
D03*
X126772D02*
D03*
X131890Y266732D02*
D03*
X126772D02*
D03*
X131890Y245079D02*
D03*
X126772D02*
D03*
X131890Y223425D02*
D03*
X126772D02*
D03*
X131890Y201772D02*
D03*
X126772D02*
D03*
X131890Y180118D02*
D03*
X126772D02*
D03*
X131890Y158465D02*
D03*
X126772D02*
D03*
X131890Y136811D02*
D03*
X126772D02*
D03*
X131890Y115157D02*
D03*
X126772D02*
D03*
X131890Y93504D02*
D03*
X126772D02*
D03*
X131890Y71850D02*
D03*
X126772D02*
D03*
X131890Y50197D02*
D03*
X126772D02*
D03*
X131890Y28543D02*
D03*
X126772D02*
D03*
D15*
X177165Y346457D02*
D03*
Y360236D02*
D03*
X177165Y324803D02*
D03*
Y338583D02*
D03*
X177165Y303150D02*
D03*
Y316929D02*
D03*
Y281496D02*
D03*
Y295276D02*
D03*
X177166Y259842D02*
D03*
Y273622D02*
D03*
Y238189D02*
D03*
Y251969D02*
D03*
Y216535D02*
D03*
Y230315D02*
D03*
X177165Y194882D02*
D03*
Y208661D02*
D03*
Y173228D02*
D03*
Y187008D02*
D03*
Y151575D02*
D03*
Y165354D02*
D03*
Y129921D02*
D03*
Y143701D02*
D03*
Y108268D02*
D03*
Y122047D02*
D03*
Y86614D02*
D03*
Y100394D02*
D03*
Y64961D02*
D03*
Y78740D02*
D03*
Y43307D02*
D03*
Y57087D02*
D03*
Y21654D02*
D03*
Y35433D02*
D03*
D16*
X279252Y284646D02*
D03*
X284252D02*
D03*
X279252Y270079D02*
D03*
X284252D02*
D03*
X302756Y284646D02*
D03*
X307756D02*
D03*
X302756Y270079D02*
D03*
X307756D02*
D03*
X302618Y123524D02*
D03*
X307618D02*
D03*
X302618Y108957D02*
D03*
X307618D02*
D03*
X278996Y123524D02*
D03*
X283996D02*
D03*
X278996Y108957D02*
D03*
X283996D02*
D03*
D17*
X276870Y313386D02*
D03*
X286713D02*
D03*
X276870Y295276D02*
D03*
X286713D02*
D03*
X300492Y313386D02*
D03*
X310335D02*
D03*
X300492Y295276D02*
D03*
X310335D02*
D03*
X309941Y81201D02*
D03*
X300098D02*
D03*
X309941Y99311D02*
D03*
X300098D02*
D03*
X286319Y81201D02*
D03*
X276476D02*
D03*
X286319Y99311D02*
D03*
X276476D02*
D03*
D18*
X208858Y209941D02*
D03*
X210827D02*
D03*
X212795D02*
D03*
X214764D02*
D03*
X216732D02*
D03*
X218701D02*
D03*
X220669D02*
D03*
X222638D02*
D03*
X224606D02*
D03*
X226575D02*
D03*
X228543D02*
D03*
X230512D02*
D03*
X232480D02*
D03*
X234449D02*
D03*
X236417D02*
D03*
X238386D02*
D03*
X240354D02*
D03*
X242323D02*
D03*
X244291D02*
D03*
X246260D02*
D03*
Y156988D02*
D03*
X244291D02*
D03*
X242323D02*
D03*
X240354D02*
D03*
X238386D02*
D03*
X236417D02*
D03*
X234449D02*
D03*
X232480D02*
D03*
X230512D02*
D03*
X228543D02*
D03*
X226575D02*
D03*
X224606D02*
D03*
X222638D02*
D03*
X220669D02*
D03*
X218701D02*
D03*
X216732D02*
D03*
X214764D02*
D03*
X212795D02*
D03*
X210827D02*
D03*
X208858D02*
D03*
D19*
X254035Y202165D02*
D03*
Y200197D02*
D03*
Y198228D02*
D03*
Y196260D02*
D03*
Y194291D02*
D03*
Y192323D02*
D03*
Y190354D02*
D03*
Y188386D02*
D03*
Y186417D02*
D03*
Y184449D02*
D03*
Y182480D02*
D03*
Y180512D02*
D03*
Y178543D02*
D03*
Y176575D02*
D03*
Y174606D02*
D03*
Y172638D02*
D03*
Y170669D02*
D03*
Y168701D02*
D03*
Y166732D02*
D03*
Y164764D02*
D03*
X201083D02*
D03*
Y166732D02*
D03*
Y168701D02*
D03*
Y170669D02*
D03*
Y172638D02*
D03*
Y174606D02*
D03*
Y176575D02*
D03*
Y178543D02*
D03*
Y180512D02*
D03*
Y182480D02*
D03*
Y184449D02*
D03*
Y186417D02*
D03*
Y188386D02*
D03*
Y190354D02*
D03*
Y192323D02*
D03*
Y194291D02*
D03*
Y196260D02*
D03*
Y198228D02*
D03*
Y200197D02*
D03*
Y202165D02*
D03*
D20*
X213583Y115748D02*
D03*
Y120472D02*
D03*
X240158Y119488D02*
D03*
Y114764D02*
D03*
D21*
X221457Y122441D02*
D03*
Y115748D02*
D03*
X231299Y114764D02*
D03*
Y121457D02*
D03*
X201772Y375984D02*
D03*
Y369291D02*
D03*
D22*
X263779Y139173D02*
D03*
Y144291D02*
D03*
X37008Y74213D02*
D03*
Y79331D02*
D03*
D23*
X275197Y165847D02*
D03*
Y155413D02*
D03*
X287073Y165847D02*
D03*
Y155413D02*
D03*
X298950Y165847D02*
D03*
Y155413D02*
D03*
X310827Y165847D02*
D03*
Y155413D02*
D03*
X275197Y223917D02*
D03*
Y234350D02*
D03*
X287073Y223917D02*
D03*
Y234350D02*
D03*
X298950Y223917D02*
D03*
Y234350D02*
D03*
X310827Y223917D02*
D03*
Y234350D02*
D03*
D24*
X228346Y374016D02*
D03*
D25*
X237362Y348622D02*
D03*
X219331D02*
D03*
D26*
X34547Y330709D02*
D03*
X22539D02*
D03*
D27*
X49213Y345472D02*
D03*
X35433D02*
D03*
X35433Y359252D02*
D03*
X49213D02*
D03*
X23031Y47638D02*
D03*
X36811D02*
D03*
X36811Y57480D02*
D03*
X23031D02*
D03*
D28*
X165256Y28543D02*
D03*
X158563D02*
D03*
X165256Y50197D02*
D03*
X158563D02*
D03*
X165256Y71850D02*
D03*
X158563D02*
D03*
X165256Y93504D02*
D03*
X158563D02*
D03*
X165256Y115157D02*
D03*
X158563D02*
D03*
X165256Y136811D02*
D03*
X158563D02*
D03*
X165256Y158465D02*
D03*
X158563D02*
D03*
X165256Y180118D02*
D03*
X158563D02*
D03*
X165256Y201772D02*
D03*
X158563D02*
D03*
X165256Y223425D02*
D03*
X158563D02*
D03*
X165256Y245079D02*
D03*
X158563D02*
D03*
X165256Y266732D02*
D03*
X158563D02*
D03*
X165256Y288386D02*
D03*
X158563D02*
D03*
X165256Y310039D02*
D03*
X158563D02*
D03*
X165256Y331693D02*
D03*
X158563D02*
D03*
X165256Y353346D02*
D03*
X158563D02*
D03*
D29*
X117323Y27559D02*
D03*
X111417D02*
D03*
X117421Y50197D02*
D03*
X111516D02*
D03*
X117421Y71850D02*
D03*
X111516D02*
D03*
X117224Y93504D02*
D03*
X111319D02*
D03*
X117323Y115157D02*
D03*
X111417D02*
D03*
X117323Y136811D02*
D03*
X111417D02*
D03*
X117323Y158366D02*
D03*
X111417D02*
D03*
X117520Y180118D02*
D03*
X111614D02*
D03*
X117323Y201772D02*
D03*
X111417D02*
D03*
X117323Y223425D02*
D03*
X111417D02*
D03*
X117323Y245079D02*
D03*
X111417D02*
D03*
X117323Y266732D02*
D03*
X111417D02*
D03*
X117323Y288287D02*
D03*
X111417D02*
D03*
X117323Y309941D02*
D03*
X111417D02*
D03*
X117323Y331496D02*
D03*
X111417D02*
D03*
X117323Y353346D02*
D03*
X111417D02*
D03*
D30*
X73228Y284646D02*
Y292520D01*
X156890Y353346D02*
Y358858D01*
Y288386D02*
Y293898D01*
Y266732D02*
Y272244D01*
X156791Y201772D02*
Y207382D01*
Y310039D02*
Y315650D01*
X21555Y330709D02*
Y333563D01*
X156791Y245079D02*
Y250689D01*
X156693Y223425D02*
Y229134D01*
X156791Y136811D02*
Y142421D01*
Y115157D02*
Y120768D01*
X156890Y71850D02*
Y77362D01*
X156791Y93504D02*
Y99114D01*
X156890Y28543D02*
Y34055D01*
Y50197D02*
Y55709D01*
X156791Y158465D02*
Y164075D01*
Y180118D02*
Y185728D01*
X73228Y349213D02*
Y357480D01*
X73228Y327559D02*
Y335433D01*
X73032Y158465D02*
X73228Y158661D01*
Y305906D02*
Y313779D01*
X73229Y262599D02*
Y266732D01*
X51968Y241339D02*
X73229Y262599D01*
X49606Y241339D02*
X51968D01*
X49606Y281339D02*
X55118Y286850D01*
X58661Y280394D02*
Y312992D01*
X49606Y271339D02*
X58661Y280394D01*
X49606Y261339D02*
X62598Y274331D01*
X66142Y277559D02*
X73228Y284646D01*
X66142Y267874D02*
Y277559D01*
X49606Y251339D02*
X66142Y267874D01*
X73229Y240945D02*
Y245079D01*
X63622Y231339D02*
X73229Y240945D01*
X49606Y231339D02*
X63622D01*
X57874Y91339D02*
Y143071D01*
X49606Y151339D02*
X57874Y143071D01*
X61417Y109055D02*
Y149528D01*
X49606Y161339D02*
X61417Y149528D01*
X64961Y127165D02*
Y155984D01*
X49606Y171339D02*
X64961Y155984D01*
X73228Y162205D02*
Y167717D01*
X68110Y145669D02*
Y162835D01*
X49606Y181339D02*
X68110Y162835D01*
X49606Y191339D02*
X73228Y167717D01*
X55748Y201339D02*
X73228Y183858D01*
X49606Y201339D02*
X55748D01*
X67402Y211339D02*
X73228Y205512D01*
X49606Y211339D02*
X67402D01*
X72362Y221339D02*
X73228Y220472D01*
X49606Y221339D02*
X72362D01*
X49606Y56299D02*
Y73228D01*
Y56299D02*
X73228Y32677D01*
X37008Y98740D02*
X49606Y111339D01*
X37008Y79331D02*
Y98740D01*
X45276Y39370D02*
Y73228D01*
X62598Y274331D02*
Y295276D01*
X287073Y234350D02*
X287270Y234547D01*
Y243307D01*
X310827Y144488D02*
X311024Y144291D01*
X298950Y144488D02*
X299147Y144291D01*
X287073Y144488D02*
X287270Y144291D01*
X275197Y144488D02*
X275394Y144291D01*
X37008Y37008D02*
Y68898D01*
X168898Y13386D02*
X177165Y21654D01*
X60630Y13386D02*
X168898D01*
X37008Y37008D02*
X60630Y13386D01*
X57874Y91339D02*
X73228Y75984D01*
X61417Y109055D02*
X73228Y97244D01*
X64961Y127165D02*
X73228Y118898D01*
X68110Y145669D02*
X73228Y140551D01*
X53937Y73228D02*
X62992Y64173D01*
X45276Y39370D02*
X65748Y18898D01*
X55118Y286850D02*
Y331102D01*
X238189Y147638D02*
X240354Y149803D01*
X236417Y149409D02*
X238189Y147638D01*
X234449Y145866D02*
X244882Y135433D01*
X234449Y145866D02*
Y156988D01*
X232480Y141747D02*
Y156988D01*
X230512Y143504D02*
Y156988D01*
X230474Y143466D02*
X230512Y143504D01*
X230474Y134880D02*
Y143466D01*
X228543Y127362D02*
Y156988D01*
X226575Y136024D02*
Y156988D01*
X224606Y139567D02*
Y156988D01*
X222638Y144685D02*
Y156988D01*
X221654Y143701D02*
X222638Y144685D01*
X220669Y146653D02*
Y156988D01*
X218898Y144882D02*
X220669Y146653D01*
X242323Y147835D02*
Y156988D01*
X244291Y149409D02*
X246063Y147638D01*
X244291Y149409D02*
Y156988D01*
X246260Y151378D02*
Y156988D01*
Y151378D02*
X250000Y147638D01*
X218898Y140157D02*
Y144882D01*
X216142Y143701D02*
Y145669D01*
X205118Y143701D02*
Y146063D01*
X210630Y143701D02*
Y146063D01*
X201083Y160531D02*
Y164764D01*
X187008Y146457D02*
X201083Y160531D01*
X184252Y147638D02*
X196850Y160236D01*
X184252Y129134D02*
Y147638D01*
X177165Y122047D02*
X184252Y129134D01*
X181890Y153150D02*
X193252Y164512D01*
X181890Y148425D02*
Y153150D01*
X187008Y154331D02*
X195051Y162374D01*
X177165Y143701D02*
X181890Y148425D01*
X187008Y178347D02*
X189399D01*
X187008Y183465D02*
X188583D01*
X187008Y190945D02*
X189567Y188386D01*
X192126Y200000D02*
Y209842D01*
X196929Y209528D02*
X197244Y209842D01*
X192126Y200000D02*
X195866Y196260D01*
X183858Y189764D02*
X187205Y186417D01*
X201083D01*
X183858Y189764D02*
Y223622D01*
X214961Y220363D02*
Y224213D01*
Y220363D02*
X220669Y214655D01*
Y209941D02*
Y214655D01*
X23031Y47638D02*
Y56496D01*
Y43701D02*
Y47638D01*
X219685Y231102D02*
X224410Y226378D01*
Y218548D02*
Y226378D01*
X226772Y219291D02*
Y224410D01*
Y232677D01*
X230433Y210020D02*
Y224291D01*
X232283Y120472D02*
X239764D01*
X231496Y121260D02*
X232283Y120472D01*
X203445Y368110D02*
X203543Y368209D01*
X117388Y331693D02*
X126772D01*
X117651Y245079D02*
X126772D01*
X117717Y223425D02*
X126772D01*
X149606Y325787D02*
Y327756D01*
X149606Y346457D02*
Y349409D01*
X177165Y338583D02*
Y346457D01*
Y338583D02*
X177165Y338583D01*
Y316929D02*
Y324803D01*
X177165Y316929D02*
X177165Y316929D01*
X177165Y295276D02*
Y303150D01*
X177165Y295276D02*
X177165Y295276D01*
Y273622D02*
Y281496D01*
Y273622D02*
X177166Y273622D01*
Y251969D02*
Y259842D01*
X177166Y251969D02*
X177166Y251969D01*
X177166Y238189D02*
X177166Y238189D01*
X177166Y230315D02*
Y238189D01*
X177166Y208662D02*
Y216535D01*
X177165Y208661D02*
X177166Y208662D01*
X177165Y187008D02*
Y194882D01*
Y165354D02*
Y173228D01*
Y143701D02*
Y151575D01*
Y122047D02*
Y129921D01*
X177165Y100394D02*
X177165Y100394D01*
Y78740D02*
Y86614D01*
X177165Y78740D02*
X177165Y78740D01*
Y57087D02*
Y64961D01*
Y35433D02*
Y43307D01*
X126772Y310039D02*
X126772Y310039D01*
X126772Y288386D02*
X126772Y288386D01*
X126772Y266732D02*
X126772Y266732D01*
X119882Y136811D02*
X119882Y136811D01*
X126772Y93504D02*
X126772Y93504D01*
X149606Y346457D02*
X151575Y344488D01*
X149606Y325787D02*
X152559Y322835D01*
X149606Y303150D02*
X151575Y301181D01*
X149606Y303150D02*
Y306102D01*
Y281496D02*
Y284449D01*
X149607Y259842D02*
X151575Y257874D01*
X149607Y259842D02*
Y262795D01*
Y238189D02*
X151575Y236221D01*
X149607Y238189D02*
Y241142D01*
Y216535D02*
X151575Y214567D01*
X149607Y216535D02*
Y219488D01*
X149606Y194882D02*
Y197835D01*
Y194882D02*
X149606D01*
X151575Y192913D01*
X149606Y173228D02*
X151575Y171260D01*
X149606Y173228D02*
Y176181D01*
Y151575D02*
Y154527D01*
Y151575D02*
X149606D01*
X151575Y149606D01*
X149606Y129921D02*
X151575Y127953D01*
X149606Y129921D02*
Y132874D01*
Y108268D02*
X151575Y106299D01*
X149606Y108268D02*
Y111221D01*
Y86614D02*
Y89567D01*
Y86614D02*
X151575Y84646D01*
X149606Y64961D02*
X151575Y62992D01*
X149606Y64961D02*
Y67913D01*
Y43307D02*
X151575Y41339D01*
X149606Y43307D02*
Y46260D01*
Y21654D02*
X151575Y19685D01*
X149606Y21654D02*
Y24606D01*
X44980Y330709D02*
X45276Y330413D01*
X169291Y368110D02*
X177165Y360236D01*
Y100394D02*
Y108268D01*
Y173228D02*
X177953Y172441D01*
X254035Y196260D02*
X265945D01*
X267291Y186417D02*
X267323Y186386D01*
X254035Y186417D02*
X267291D01*
X254035Y184449D02*
X275787D01*
X281496Y178740D01*
X254035Y194291D02*
X275787D01*
X267323Y186386D02*
X285268D01*
X254035Y192323D02*
X285236D01*
X254035Y190354D02*
X295079D01*
X254035Y188386D02*
X295079D01*
X305118Y178347D01*
X254035Y198228D02*
X263189D01*
X263779Y198819D01*
X254035Y200197D02*
X261221D01*
X263779Y202756D01*
X254035Y202165D02*
X259646D01*
X263779Y206299D01*
Y206693D01*
X254035Y180512D02*
X262402D01*
X263779Y179134D01*
X234370Y210020D02*
X234449Y209941D01*
X246260D02*
X250886D01*
X245749Y214961D02*
X252362D01*
X243780Y216929D02*
X250394D01*
X241812Y218898D02*
X248819D01*
X250000Y220079D01*
X240382Y220697D02*
X244319D01*
X246063Y222441D01*
Y224410D01*
X241550D02*
X242126D01*
X250000Y220079D02*
Y224410D01*
X253937Y220472D02*
Y224410D01*
X250394Y216929D02*
X253937Y220472D01*
X257874D02*
Y224410D01*
X252362Y214961D02*
X257874Y220472D01*
X261811Y220866D02*
Y224410D01*
X250886Y209941D02*
X261811Y220866D01*
X234252Y223017D02*
Y224410D01*
X232559Y221324D02*
X234252Y223017D01*
X232480Y209941D02*
X232559Y210020D01*
X214764Y209941D02*
Y215472D01*
X208858Y209941D02*
Y212795D01*
X202756Y218898D02*
X208858Y212795D01*
X202756Y218898D02*
Y224410D01*
X210827Y209941D02*
Y213371D01*
X212795Y209941D02*
Y213976D01*
X216732Y209941D02*
Y216047D01*
X222559Y210020D02*
X222638Y209941D01*
X254035Y178543D02*
X260433D01*
X263779Y175197D01*
X226772Y219291D02*
X228543Y217520D01*
X244291Y209941D02*
Y213503D01*
X245749Y214961D01*
X242323Y209941D02*
Y215472D01*
X243780Y216929D01*
X240354Y209941D02*
Y217440D01*
X241812Y218898D01*
X238386Y209941D02*
Y218701D01*
X240382Y220697D01*
X236417Y209941D02*
Y219277D01*
X241550Y224410D01*
X234370Y210020D02*
Y220590D01*
X238189Y224410D01*
X232559Y210020D02*
Y221324D01*
X228543Y209941D02*
Y217520D01*
X207874Y218898D02*
Y224311D01*
Y218898D02*
X212795Y213976D01*
X176378Y370866D02*
X212331Y334913D01*
Y220449D02*
X216732Y216047D01*
X212331Y220449D02*
Y334913D01*
X218209Y219660D02*
Y224311D01*
Y219660D02*
X222559Y215310D01*
Y210020D02*
Y215310D01*
X226575Y209941D02*
Y216383D01*
X221654Y218760D02*
Y224213D01*
Y218760D02*
X224528Y215885D01*
Y210020D02*
Y215885D01*
X242126Y147638D02*
X242323Y147835D01*
X240354Y149803D02*
Y156988D01*
X58071Y368110D02*
X169291D01*
X177165Y100394D02*
X183465Y106693D01*
X269685Y160925D02*
Y179527D01*
X281496Y160991D02*
Y178740D01*
X305118Y161122D02*
Y178347D01*
X255906Y130905D02*
X263779Y138779D01*
X47047Y370866D02*
X176378D01*
X177166Y273622D02*
X189071Y261717D01*
X201083Y202165D02*
Y211122D01*
X201004Y200276D02*
X201083Y200197D01*
X177165Y295276D02*
X194882Y277559D01*
Y200885D02*
Y277559D01*
X189071Y200511D02*
Y261717D01*
X196929Y201383D02*
Y209528D01*
X177165Y182283D02*
Y187008D01*
Y208661D02*
X181102Y204724D01*
X194882Y200885D02*
X197539Y198228D01*
X201083D01*
X196929Y201383D02*
X198036Y200276D01*
X201004D01*
X195866Y196260D02*
X201083D01*
X195290Y194291D02*
X201083D01*
X193898Y192323D02*
X201083D01*
X192323Y190354D02*
X201083D01*
X236417Y149409D02*
Y156988D01*
X237795Y132283D02*
Y136614D01*
X230474Y134880D02*
X233071Y132283D01*
X237704Y136523D02*
X237795Y136614D01*
X232480Y141747D02*
X237704Y136523D01*
X224410Y133858D02*
X226575Y136024D01*
X210748Y156909D02*
X210827Y156988D01*
X218701Y148228D02*
Y156988D01*
X216142Y145669D02*
X218701Y148228D01*
X213386Y145669D02*
X216732Y149016D01*
Y156988D01*
X214764Y150197D02*
Y156988D01*
X210630Y146063D02*
X214764Y150197D01*
X207874Y146063D02*
X212795Y150984D01*
Y156988D01*
X205118Y146063D02*
X210748Y151693D01*
Y156909D01*
X208858Y152559D02*
Y156988D01*
X202756Y146457D02*
X208858Y152559D01*
X248819Y130905D02*
X255906D01*
X244882Y135433D02*
X244882Y123622D01*
Y119685D02*
Y123622D01*
X177165Y182283D02*
X183858Y175591D01*
X181102Y183858D02*
Y204724D01*
X190989Y182480D02*
X201083D01*
X181102Y183858D02*
X183858Y181102D01*
Y175591D02*
X189188D01*
X183858Y181102D02*
X189611D01*
X187008Y170866D02*
X192717Y176575D01*
X201083D01*
X189611Y181102D02*
X190989Y182480D01*
X189567Y188386D02*
X201083D01*
X186221Y196457D02*
X192323Y190354D01*
X186221Y196457D02*
Y242914D01*
X177166Y251969D02*
X186221Y242914D01*
X189071Y200511D02*
X195290Y194291D01*
X188976Y197245D02*
X193898Y192323D01*
X177166Y230315D02*
X183858Y223622D01*
X177165Y338583D02*
X202756Y312992D01*
X205039Y219159D02*
X210827Y213371D01*
X202756Y229134D02*
Y312992D01*
Y229134D02*
X205039Y226850D01*
Y219159D02*
Y226850D01*
X207874Y227540D02*
X210157Y225257D01*
X207874Y227540D02*
Y329527D01*
X177165Y360236D02*
X207874Y329527D01*
X210157Y220078D02*
X214764Y215472D01*
X210157Y220078D02*
Y225257D01*
X224410Y218548D02*
X226575Y216383D01*
X254035Y164764D02*
X258071D01*
X263779Y170472D01*
X183465Y106693D02*
Y122047D01*
X202756Y141339D01*
Y146457D01*
X213386Y141732D02*
Y145669D01*
X207874Y140945D02*
Y146063D01*
X177165Y35433D02*
X194882Y53150D01*
Y116142D01*
X218898Y140157D01*
X177165Y57087D02*
X191732Y71653D01*
Y120079D01*
X213386Y141732D01*
X177165Y78740D02*
X187402Y88976D01*
Y120472D01*
X207874Y140945D01*
X177165Y21654D02*
X198425Y42913D01*
Y113386D01*
X224606Y139567D01*
X198425Y213779D02*
X201083Y211122D01*
X198425Y213779D02*
Y295669D01*
X177165Y316929D02*
X198425Y295669D01*
X219685Y231102D02*
Y344409D01*
X73228Y180118D02*
Y183858D01*
Y183858D01*
Y183858D02*
X80315Y190945D01*
X127953D01*
X131890Y176181D02*
X133858Y174213D01*
X131890Y176181D02*
Y180118D01*
X127953Y190945D02*
X131890Y187008D01*
Y180118D02*
Y187008D01*
X73228Y158465D02*
Y158661D01*
Y162205D01*
X80315Y169291D01*
X127953D01*
X131890Y154528D02*
Y158465D01*
Y154528D02*
X133858Y152559D01*
X131890Y158465D02*
Y165354D01*
X127953Y169291D02*
X131890Y165354D01*
X73228Y136811D02*
Y140551D01*
Y140945D01*
X79921Y147638D01*
X127953D01*
X131890Y132874D02*
X133858Y130905D01*
X131890Y132874D02*
Y136811D01*
X127953Y147638D02*
X131890Y143701D01*
Y136811D02*
Y143701D01*
X73228Y115157D02*
Y118898D01*
Y118898D01*
Y118898D02*
X80315Y125984D01*
X127953D01*
X131890Y111221D02*
X133858Y109252D01*
X131890Y111221D02*
Y115157D01*
X127953Y125984D02*
X131890Y122047D01*
Y115157D02*
Y122047D01*
X73228Y93504D02*
Y97244D01*
X80315Y104331D01*
X127953D01*
X131890Y89567D02*
X133858Y87598D01*
X131890Y89567D02*
Y93504D01*
X127953Y104331D02*
X131890Y100394D01*
Y93504D02*
Y100394D01*
X73228Y71850D02*
Y75590D01*
Y75984D01*
Y75590D02*
X80315Y82677D01*
X127953D01*
X131890Y67913D02*
X133858Y65945D01*
X131890Y67913D02*
Y71850D01*
X127953Y82677D02*
X131890Y78740D01*
Y71850D02*
Y78740D01*
X73228Y50197D02*
Y53937D01*
X61055Y66110D02*
X73228Y53937D01*
X80315Y61024D01*
X127953D01*
X131890Y46260D02*
X133858Y44291D01*
X131890Y46260D02*
Y50197D01*
X127953Y61024D02*
X131890Y57087D01*
Y50197D02*
Y57087D01*
X73228Y32283D02*
Y32677D01*
Y28543D02*
Y32283D01*
X80315Y39370D01*
X127953D01*
X131890Y24606D02*
Y28543D01*
Y24606D02*
X133858Y22638D01*
X131890Y28543D02*
Y35433D01*
X127953Y39370D02*
X131890Y35433D01*
X73228Y201772D02*
Y205512D01*
Y205512D01*
Y205512D02*
X80315Y212598D01*
X127953D01*
X131890Y197835D02*
X133858Y195866D01*
X131890Y197835D02*
Y201772D01*
X127953Y212598D02*
X131890Y208661D01*
Y201772D02*
Y208661D01*
X73228Y220472D02*
X73229Y220473D01*
Y227166D02*
X80315Y234252D01*
X127953D01*
X131890Y219488D02*
X133859Y217520D01*
X131890Y219488D02*
Y223425D01*
X127953Y234252D02*
X131890Y230315D01*
Y223425D02*
Y230315D01*
X73229Y245079D02*
Y249213D01*
X79921Y255906D01*
X127953D01*
X131890Y241142D02*
X133859Y239173D01*
X131890Y241142D02*
Y245079D01*
X127953Y255906D02*
X131890Y251968D01*
Y245079D02*
Y251968D01*
X73229Y270473D02*
X80315Y277559D01*
X127953D01*
X131890Y262795D02*
X133859Y260827D01*
X131890Y262795D02*
Y266732D01*
X127953Y277559D02*
X131890Y273622D01*
Y266732D02*
Y273622D01*
X73228Y292520D02*
X79921Y299213D01*
X127953D01*
X131890Y284449D02*
X133858Y282480D01*
X131890Y284449D02*
Y288386D01*
X127953Y299213D02*
X131890Y295276D01*
Y288386D02*
Y295276D01*
X62598Y295276D02*
X73228Y305906D01*
Y313779D02*
X80315Y320866D01*
X127953D01*
X131890Y306102D02*
X133858Y304134D01*
X131890Y306102D02*
Y310039D01*
X127953Y320866D02*
X131890Y316929D01*
Y310039D02*
Y316929D01*
X58661Y312992D02*
X73228Y327559D01*
Y335433D02*
X81102Y343307D01*
X127953D01*
X131890Y327756D02*
Y331693D01*
Y327756D02*
X133858Y325787D01*
X131890Y331693D02*
Y338583D01*
X127953Y342520D02*
Y343307D01*
Y342520D02*
X131890Y338583D01*
X55118Y331102D02*
X73228Y349213D01*
Y357480D02*
X78937Y363189D01*
X131890Y349409D02*
X133858Y347441D01*
X131890Y349409D02*
Y353346D01*
X78937Y363189D02*
X125984D01*
X131890Y353346D02*
Y357283D01*
X125984Y363189D02*
X131890Y357283D01*
X35433Y359252D02*
X47047Y370866D01*
X49213Y345472D02*
Y359252D01*
X58071Y368110D01*
X33563Y330709D02*
X34547D01*
X44980D01*
X119882Y71850D02*
X119882Y71850D01*
X275787Y194291D02*
X281496Y200000D01*
X265945Y196291D02*
X269685Y200031D01*
X295079Y190354D02*
X305118Y200394D01*
X275197Y212598D02*
Y223524D01*
X287073Y212598D02*
Y223917D01*
X298950Y212598D02*
Y223917D01*
X310827Y213386D02*
Y223917D01*
X285236Y192323D02*
X293701Y200787D01*
X281496Y227953D02*
X287073Y233530D01*
Y234350D01*
X305118Y200394D02*
Y227559D01*
X310827Y233268D01*
Y234350D01*
X293701Y200787D02*
Y227953D01*
X299016Y233268D01*
X269685Y200031D02*
Y227559D01*
X275197Y233071D01*
Y234350D01*
X259449Y148031D02*
X263202Y144278D01*
X255906Y148031D02*
X259449D01*
X266732Y182480D02*
X269685Y179527D01*
X254035Y182480D02*
X266732D01*
X310827Y165847D02*
Y175197D01*
X298950Y165847D02*
Y175197D01*
X287073Y165847D02*
Y175197D01*
X275197Y165847D02*
Y175197D01*
X269685Y160925D02*
X275197Y155413D01*
X281496Y160991D02*
X287073Y155413D01*
X305118Y161122D02*
X310827Y155413D01*
X96457Y28543D02*
X97835Y27165D01*
X96457Y50197D02*
X102362D01*
X96457Y71850D02*
X102362D01*
X96457Y310039D02*
X102362D01*
X96457Y245079D02*
X102362D01*
X73229Y220473D02*
Y223425D01*
Y227166D01*
Y266732D02*
Y270473D01*
X119882Y71850D02*
X126772D01*
X117913Y158465D02*
X126772D01*
X213779Y120079D02*
X214567Y120866D01*
X222047D01*
X228543Y127362D01*
X117585Y266732D02*
X126772D01*
X117848Y180118D02*
X126772D01*
X118110Y93504D02*
X126772D01*
X118307Y28543D02*
X126772D01*
X117782Y201772D02*
X126772D01*
X117520Y288386D02*
X126772D01*
X117454Y310039D02*
X126772D01*
X119882Y136811D02*
X126772D01*
X118242Y50197D02*
X126772D01*
X293701Y160663D02*
X298950Y155413D01*
X293701Y160663D02*
Y177953D01*
X285268Y186386D02*
X293701Y177953D01*
X281496Y200000D02*
Y227953D01*
X33563Y330709D02*
X35433Y332579D01*
Y359252D01*
X238976Y119685D02*
X244882D01*
X98228Y27559D02*
X102362D01*
X65748Y18898D02*
X117717D01*
X196850Y160236D02*
Y165748D01*
X197835Y166732D01*
X201083D01*
X195051Y162374D02*
Y167492D01*
X193252Y164512D02*
Y168237D01*
X194291Y174606D02*
X201083D01*
X177165Y165354D02*
X185039D01*
X194291Y174606D01*
X187008Y162205D02*
Y164538D01*
X195108Y172638D01*
X201083D01*
X193252Y168237D02*
X195684Y170669D01*
X201083D01*
X195051Y167492D02*
X196260Y168701D01*
X201083D01*
X189188Y175591D02*
X192141Y178543D01*
X201083D01*
X189399Y178347D02*
X191565Y180512D01*
X201083D01*
X188583Y183465D02*
X189567Y184449D01*
X201083D01*
X167323Y356004D02*
X171555Y360236D01*
X177165D01*
X153543Y362205D02*
X156890Y358858D01*
X156791Y332283D02*
Y337303D01*
X153543Y340551D02*
X156791Y337303D01*
X167323Y334252D02*
X171653Y338583D01*
X177165D01*
X153543Y318898D02*
X156791Y315650D01*
X167323Y312500D02*
X171752Y316929D01*
X177165D01*
X151575Y301181D02*
X163878D01*
X167323Y304626D01*
Y312500D01*
X152559Y322835D02*
X163976D01*
X167323Y326181D01*
Y334252D01*
X151575Y344488D02*
X163976D01*
X167323Y347835D01*
Y356004D01*
X153543Y297244D02*
X156890Y293898D01*
X167323Y290748D02*
X171850Y295276D01*
X177165D01*
X149606Y281496D02*
X151378Y279724D01*
X164567D01*
X167323Y282480D01*
Y290748D01*
X167323Y269193D02*
X171752Y273622D01*
X177166D01*
X151575Y257874D02*
X164075D01*
X167323Y261122D01*
Y269193D01*
X153543Y275590D02*
X156890Y272244D01*
X153543Y253937D02*
X156791Y250689D01*
X167323Y247540D02*
X171752Y251969D01*
X177166D01*
X151575Y236221D02*
X163976D01*
X167323Y239567D01*
Y247540D01*
Y225689D02*
X171949Y230315D01*
X177166D01*
X153543Y232283D02*
X156693Y229134D01*
X151575Y214567D02*
X164567D01*
X167323Y217323D01*
Y225689D01*
X167323Y204035D02*
X171949Y208661D01*
X177165D01*
X151575Y192913D02*
X163779D01*
X167323Y196457D01*
Y204035D01*
X153543Y210630D02*
X156791Y207382D01*
X153543Y188976D02*
X156791Y185728D01*
X167323Y182579D02*
X171752Y187008D01*
X177165D01*
X151575Y171260D02*
X164272D01*
X167323Y174311D01*
Y182579D01*
Y160728D02*
X171949Y165354D01*
X177165D01*
X153543Y167323D02*
X156791Y164075D01*
X151575Y149606D02*
X164370D01*
X167323Y152559D01*
Y160728D01*
Y139173D02*
X171850Y143701D01*
X177165D01*
X151575Y127953D02*
X163976D01*
X167323Y131299D01*
Y139173D01*
X153543Y145669D02*
X156791Y142421D01*
X153543Y124016D02*
X156791Y120768D01*
X167323Y117618D02*
X171752Y122047D01*
X177165D01*
X151575Y106299D02*
X164469D01*
X167323Y109153D01*
Y117618D01*
X153543Y102362D02*
X156791Y99114D01*
X167323Y95866D02*
X171850Y100394D01*
X177165D01*
X151575Y84646D02*
X163779D01*
X167323Y88189D01*
Y95866D01*
X153543Y80709D02*
X156890Y77362D01*
X167323Y74311D02*
X171752Y78740D01*
X177165D01*
X151575Y62992D02*
X163976D01*
X167323Y66339D01*
Y74311D01*
X153543Y59055D02*
X156890Y55709D01*
X167323Y52559D02*
X171850Y57087D01*
X177165D01*
X151575Y41339D02*
X164665D01*
X167323Y43996D01*
Y52559D01*
X153543Y37402D02*
X156890Y34055D01*
X167323Y30906D02*
X171850Y35433D01*
X177165D01*
X151575Y19685D02*
X163583D01*
X167323Y23425D01*
Y30906D01*
X102362Y245079D02*
X111089D01*
X102362Y353346D02*
X111417D01*
X111417Y353346D01*
X96260Y353346D02*
X102362D01*
X117323Y353346D02*
X120866D01*
X120866Y353346D01*
X126772D01*
X111352Y331693D02*
X111417Y331627D01*
X117323D02*
X117388Y331693D01*
X102362Y310039D02*
X111286D01*
X102362Y288386D02*
X111221D01*
X102362Y266732D02*
X111155D01*
X102362Y223425D02*
X111024D01*
X102362Y201772D02*
X110958D01*
X102362Y180118D02*
X110892D01*
X102362Y158465D02*
X110827D01*
X102362Y136811D02*
X110761D01*
X117979D02*
X119882D01*
X102362Y115157D02*
X110696D01*
X102362Y93504D02*
X110630D01*
X102362Y71850D02*
X110564D01*
X118176D02*
X119882D01*
X102362Y50197D02*
X110499D01*
X102362Y27559D02*
X111417D01*
X97835Y27165D02*
X98228Y27559D01*
X117323D02*
X118307Y28543D01*
X110499Y50197D02*
X111417Y49278D01*
X117323D02*
X118242Y50197D01*
X117323Y70997D02*
X118176Y71850D01*
X110564D02*
X111417Y70997D01*
X117323Y92716D02*
X118110Y93504D01*
X96260D02*
X102362D01*
X110630D02*
X111417Y92716D01*
X117323Y114436D02*
X118045Y115157D01*
X127362D01*
X96260Y113157D02*
X98260D01*
X96260Y115157D02*
X102362D01*
X110696D02*
X111417Y114436D01*
X96260Y136811D02*
X102362D01*
X110761D02*
X111417Y136155D01*
X117323D02*
X117979Y136811D01*
X117323Y157874D02*
X117913Y158465D01*
X96260D02*
X102362D01*
X110827D02*
X111417Y157874D01*
X117323Y179593D02*
X117848Y180118D01*
X96260D02*
X102362D01*
X110892D02*
X111417Y179593D01*
X117323Y201312D02*
X117782Y201772D01*
X96260D02*
X102362D01*
X110958D02*
X111417Y201312D01*
X96260Y223425D02*
X102362D01*
X111024D02*
X111417Y223031D01*
X117323D02*
X117717Y223425D01*
X117323Y244751D02*
X117651Y245079D01*
X111089D02*
X111417Y244751D01*
X117323Y266470D02*
X117585Y266732D01*
X96260D02*
X102362D01*
X111155D02*
X111417Y266470D01*
X117323Y288189D02*
X117520Y288386D01*
X96260D02*
X102362D01*
X111221D02*
X111417Y288189D01*
X111286Y310039D02*
X111417Y309908D01*
X117323D02*
X117454Y310039D01*
X96260Y331693D02*
X111352D01*
X275197Y245965D02*
X275590Y246358D01*
X275197Y234350D02*
Y245620D01*
Y245965D01*
X298950Y234350D02*
Y245669D01*
X310827Y234350D02*
Y244291D01*
X288189Y334449D02*
Y342913D01*
X287008Y333268D02*
X288189Y334449D01*
X298031Y335236D02*
Y342913D01*
Y335236D02*
X300000Y333268D01*
X287008Y313681D02*
Y322441D01*
X286713Y313386D02*
X287008Y313681D01*
X300000Y313878D02*
Y322441D01*
Y313878D02*
X300492Y313386D01*
X311811Y314862D02*
Y322539D01*
X310335Y313386D02*
X311811Y314862D01*
X275197Y256840D02*
Y263779D01*
X279252Y267835D01*
Y270079D01*
X284252Y267717D02*
Y270079D01*
Y267717D02*
X287402Y264567D01*
Y256791D02*
Y264567D01*
X307756Y267835D02*
Y270079D01*
Y267835D02*
X311024Y264567D01*
Y256890D02*
Y264567D01*
X298950Y256890D02*
Y264304D01*
X302756Y268110D01*
Y270079D01*
X300492Y289272D02*
X301575Y288189D01*
X300492Y289272D02*
Y295276D01*
X307756Y284646D02*
Y286496D01*
X310335Y289075D01*
Y295276D01*
X284252Y284646D02*
Y286614D01*
X286713Y289075D01*
Y295276D01*
X276870Y288878D02*
Y295276D01*
Y288878D02*
X279252Y286496D01*
Y284646D02*
Y286496D01*
X274803Y315453D02*
Y322441D01*
Y315453D02*
X276870Y313386D01*
X308268Y335827D02*
Y342913D01*
Y335827D02*
X310728Y333366D01*
X311811D01*
X274803Y333268D02*
X275787D01*
X277953Y335433D01*
Y342913D01*
X275197Y146457D02*
Y155413D01*
X275000Y146260D02*
X275197Y146457D01*
X287073Y144488D02*
Y155413D01*
X298950Y146457D02*
Y155413D01*
X298753Y146260D02*
X298950Y146457D01*
X310827D02*
Y155413D01*
X310630Y146260D02*
X310827Y146457D01*
X276476Y72933D02*
Y81201D01*
X275098Y71555D02*
X276476Y72933D01*
X286319Y72310D02*
Y81201D01*
Y72310D02*
X287073Y71555D01*
X300098Y72605D02*
Y81201D01*
X299048Y71555D02*
X300098Y72605D01*
X309941Y72638D02*
Y81201D01*
Y72638D02*
X311024Y71555D01*
X275098Y53248D02*
Y60728D01*
Y53248D02*
X277953Y50394D01*
X287073Y51509D02*
Y60728D01*
Y51509D02*
X288189Y50394D01*
X299048Y51411D02*
Y60728D01*
X298031Y50394D02*
X299048Y51411D01*
X311024Y53150D02*
Y60728D01*
X308268Y50394D02*
X311024Y53150D01*
X276476Y99311D02*
Y104035D01*
X278996Y106555D01*
Y108957D01*
X283996Y106949D02*
Y108957D01*
Y106949D02*
X286319Y104626D01*
Y99311D02*
Y104626D01*
X300098Y99311D02*
Y104035D01*
X302618Y106555D01*
Y108957D01*
X307618Y106555D02*
Y108957D01*
Y106555D02*
X309941Y104232D01*
Y99311D02*
Y104232D01*
X298753Y129593D02*
Y135039D01*
Y129593D02*
X302618Y125728D01*
Y123524D02*
Y125728D01*
X307618Y123524D02*
Y126122D01*
X310630Y129134D01*
Y135039D01*
X283996Y123524D02*
Y125728D01*
X286877Y128609D01*
Y135039D01*
X275000Y129724D02*
Y135039D01*
Y129724D02*
X278996Y125728D01*
Y123524D02*
Y125728D01*
D31*
X190945Y366535D02*
X202165D01*
X42520Y380315D02*
X88976D01*
X48031Y292913D02*
X49606Y291339D01*
X163681Y379035D02*
X225492D01*
X318504Y224410D02*
X327953Y214961D01*
X236221Y342520D02*
X250984D01*
X48031Y292913D02*
Y318898D01*
X23622Y346063D02*
Y361417D01*
X42520Y380315D01*
X251969Y353839D02*
Y368504D01*
X226772Y264173D02*
Y333071D01*
X112992Y379921D02*
X137402D01*
X226772Y333071D02*
X236221Y342520D01*
X23720Y319193D02*
X45276D01*
D32*
X11811Y330709D02*
X21555D01*
D33*
X226772Y232677D02*
Y246063D01*
D34*
Y264173D01*
D35*
X49606Y291339D02*
D03*
Y281339D02*
D03*
Y271339D02*
D03*
Y261339D02*
D03*
Y251339D02*
D03*
Y241339D02*
D03*
Y231339D02*
D03*
Y221339D02*
D03*
Y211339D02*
D03*
Y201339D02*
D03*
Y191339D02*
D03*
Y181339D02*
D03*
Y171339D02*
D03*
Y161339D02*
D03*
Y151339D02*
D03*
Y141339D02*
D03*
Y131339D02*
D03*
Y121339D02*
D03*
Y111339D02*
D03*
Y101339D02*
D03*
X346850Y249606D02*
D03*
Y257480D02*
D03*
Y265354D02*
D03*
Y273228D02*
D03*
Y281102D02*
D03*
Y288976D02*
D03*
Y296850D02*
D03*
Y304724D02*
D03*
X355906Y304724D02*
D03*
Y296850D02*
D03*
Y288976D02*
D03*
Y281102D02*
D03*
Y273228D02*
D03*
Y265354D02*
D03*
Y257480D02*
D03*
Y249606D02*
D03*
X277953Y342913D02*
D03*
X288189D02*
D03*
X298031D02*
D03*
X308268D02*
D03*
Y50394D02*
D03*
X298031D02*
D03*
X288189D02*
D03*
X277953D02*
D03*
X343365Y137601D02*
D03*
Y127601D02*
D03*
Y117501D02*
D03*
Y107601D02*
D03*
Y97501D02*
D03*
X343265Y87601D02*
D03*
X11811Y330709D02*
D03*
D36*
X377953Y377953D02*
D03*
Y15748D02*
D03*
X15748D02*
D03*
Y377953D02*
D03*
D37*
X377165Y143701D02*
D03*
X377265Y81501D02*
D03*
D38*
X49606Y73228D02*
D03*
X53937D02*
D03*
X45276D02*
D03*
X149606Y349409D02*
D03*
X149606Y327756D02*
D03*
X149606Y306102D02*
D03*
Y284449D02*
D03*
X149607Y262795D02*
D03*
Y241142D02*
D03*
Y219488D02*
D03*
X149606Y154527D02*
D03*
Y176181D02*
D03*
Y197835D02*
D03*
Y132874D02*
D03*
Y111221D02*
D03*
Y89567D02*
D03*
Y67913D02*
D03*
Y46260D02*
D03*
Y24606D02*
D03*
X323228Y283465D02*
D03*
Y271654D02*
D03*
Y259842D02*
D03*
Y248031D02*
D03*
Y307087D02*
D03*
X133858Y174213D02*
D03*
X127953Y190945D02*
D03*
X133858Y152559D02*
D03*
X127953Y169291D02*
D03*
X133858Y130905D02*
D03*
X127953Y147638D02*
D03*
X133858Y109252D02*
D03*
X127953Y125984D02*
D03*
X133858Y87598D02*
D03*
X127953Y104331D02*
D03*
X133858Y65945D02*
D03*
X127953Y82677D02*
D03*
X133858Y44291D02*
D03*
X127953Y61024D02*
D03*
X133858Y22638D02*
D03*
X127953Y39370D02*
D03*
X133858Y195866D02*
D03*
X127953Y212598D02*
D03*
X133859Y217520D02*
D03*
X127953Y234252D02*
D03*
X133859Y239173D02*
D03*
X127953Y255906D02*
D03*
X133859Y260827D02*
D03*
X127953Y277559D02*
D03*
X133858Y282480D02*
D03*
X127953Y299213D02*
D03*
X133858Y304134D02*
D03*
X127953Y320866D02*
D03*
X133858Y325787D02*
D03*
X127953Y343307D02*
D03*
X133858Y347441D02*
D03*
X102362Y50197D02*
D03*
Y71850D02*
D03*
Y93504D02*
D03*
Y115157D02*
D03*
Y353346D02*
D03*
Y331496D02*
D03*
Y310039D02*
D03*
Y288386D02*
D03*
Y266732D02*
D03*
Y245079D02*
D03*
Y223425D02*
D03*
Y201772D02*
D03*
Y180118D02*
D03*
Y158465D02*
D03*
Y136811D02*
D03*
X323228Y295276D02*
D03*
Y236221D02*
D03*
Y318898D02*
D03*
X102362Y27559D02*
D03*
X117717Y18898D02*
D03*
D39*
X190945Y366535D02*
D03*
X23622Y346063D02*
D03*
X251969Y368504D02*
D03*
X23720Y319193D02*
D03*
D40*
X327953Y214961D02*
D03*
X318504Y224410D02*
D03*
X24409Y64567D02*
D03*
X17717D02*
D03*
X17323Y52362D02*
D03*
X214567Y108268D02*
D03*
X238189D02*
D03*
X232283D02*
D03*
X226378D02*
D03*
X220579D02*
D03*
D41*
X238189Y147638D02*
D03*
X221654Y143701D02*
D03*
X216142D02*
D03*
X205118D02*
D03*
X210630D02*
D03*
X187008Y146457D02*
D03*
X187008Y154331D02*
D03*
X187008Y162205D02*
D03*
Y178347D02*
D03*
Y183465D02*
D03*
X187008Y190945D02*
D03*
X192126Y209842D02*
D03*
X197244D02*
D03*
X221654Y224213D02*
D03*
X226772Y224410D02*
D03*
X230433Y224291D02*
D03*
X263779Y198819D02*
D03*
Y202756D02*
D03*
Y206693D02*
D03*
Y179134D02*
D03*
X250000Y147638D02*
D03*
X246063D02*
D03*
X242126Y224410D02*
D03*
X253937D02*
D03*
X257874D02*
D03*
X246063D02*
D03*
X250000D02*
D03*
X261811D02*
D03*
X238189D02*
D03*
X234252D02*
D03*
X202756D02*
D03*
X263779Y175197D02*
D03*
X207874Y224311D02*
D03*
X218209D02*
D03*
X242126Y147638D02*
D03*
X153543Y340551D02*
D03*
Y318898D02*
D03*
Y297244D02*
D03*
Y275590D02*
D03*
Y253937D02*
D03*
Y232283D02*
D03*
Y210630D02*
D03*
Y188976D02*
D03*
Y167323D02*
D03*
Y145669D02*
D03*
Y124016D02*
D03*
Y102362D02*
D03*
Y80709D02*
D03*
Y59055D02*
D03*
Y37402D02*
D03*
X275197Y175197D02*
D03*
X287073D02*
D03*
X298950D02*
D03*
X310827D02*
D03*
X287073Y212598D02*
D03*
X298950Y212598D02*
D03*
X214961Y224213D02*
D03*
X153543Y362205D02*
D03*
X224410Y133858D02*
D03*
X248819Y130905D02*
D03*
X244882Y119685D02*
D03*
X187008Y170866D02*
D03*
X188976Y197245D02*
D03*
X263779Y170472D02*
D03*
X275197Y212598D02*
D03*
X310827Y213386D02*
D03*
X255906Y148031D02*
D03*
M02*
