G04 Layer_Color=16711935*
%FSLAX25Y25*%
%MOIN*%
G70*
G01*
G75*
%ADD49C,0.00394*%
D49*
X209449Y203543D02*
G03*
X209449Y203543I-1969J0D01*
G01*
X241732Y68504D02*
Y75197D01*
X244882Y68504D02*
Y75197D01*
X241732Y68504D02*
X244882D01*
X241732Y75197D02*
X244882D01*
X248031Y68504D02*
Y75197D01*
X251181Y68504D02*
Y75197D01*
X248031Y68504D02*
X251181D01*
X248031Y75197D02*
X251181D01*
X247736Y82382D02*
Y88878D01*
X251476Y82382D02*
Y88878D01*
X247736Y82382D02*
X251476D01*
X247736Y88878D02*
X251476D01*
X241437Y82382D02*
Y88878D01*
X245177Y82382D02*
Y88878D01*
X241437Y82382D02*
X245177D01*
X241437Y88878D02*
X245177D01*
X354626Y56201D02*
X361122D01*
X354626Y52461D02*
X361122D01*
Y56201D01*
X354626Y52461D02*
Y56201D01*
X126083Y69193D02*
Y75689D01*
X129823Y69193D02*
Y75689D01*
X126083D02*
X129823D01*
X126083Y69193D02*
X129823D01*
X126083Y330020D02*
Y336516D01*
X129823Y330020D02*
Y336516D01*
X126083D02*
X129823D01*
X126083Y330020D02*
X129823D01*
X126083Y350689D02*
Y357185D01*
X129823Y350689D02*
Y357185D01*
X126083D02*
X129823D01*
X126083Y350689D02*
X129823D01*
X126083Y307382D02*
Y313878D01*
X129823Y307382D02*
Y313878D01*
X126083D02*
X129823D01*
X126083Y307382D02*
X129823D01*
X126083Y285728D02*
Y292224D01*
X129823Y285728D02*
Y292224D01*
X126083D02*
X129823D01*
X126083Y285728D02*
X129823D01*
X126083Y264075D02*
Y270571D01*
X129823Y264075D02*
Y270571D01*
X126083D02*
X129823D01*
X126083Y264075D02*
X129823D01*
X126083Y242421D02*
Y248917D01*
X129823Y242421D02*
Y248917D01*
X126083D02*
X129823D01*
X126083Y242421D02*
X129823D01*
X126083Y220768D02*
Y227264D01*
X129823Y220768D02*
Y227264D01*
X126083D02*
X129823D01*
X126083Y220768D02*
X129823D01*
X126083Y199114D02*
Y205610D01*
X129823Y199114D02*
Y205610D01*
X126083D02*
X129823D01*
X126083Y199114D02*
X129823D01*
X126083Y177461D02*
Y183957D01*
X129823Y177461D02*
Y183957D01*
X126083D02*
X129823D01*
X126083Y177461D02*
X129823D01*
X126083Y155807D02*
Y162303D01*
X129823Y155807D02*
Y162303D01*
X126083D02*
X129823D01*
X126083Y155807D02*
X129823D01*
X126083Y134153D02*
Y140650D01*
X129823Y134153D02*
Y140650D01*
X126083D02*
X129823D01*
X126083Y134153D02*
X129823D01*
X126083Y112500D02*
Y118996D01*
X129823Y112500D02*
Y118996D01*
X126083D02*
X129823D01*
X126083Y112500D02*
X129823D01*
X126083Y90847D02*
Y97342D01*
X129823Y90847D02*
Y97342D01*
X126083D02*
X129823D01*
X126083Y90847D02*
X129823D01*
X126083Y47539D02*
Y54035D01*
X129823Y47539D02*
Y54035D01*
X126083D02*
X129823D01*
X126083Y47539D02*
X129823D01*
X126083Y25886D02*
Y32382D01*
X129823Y25886D02*
Y32382D01*
X126083D02*
X129823D01*
X126083Y25886D02*
X129823D01*
X138484Y355413D02*
X144980D01*
X138484Y359154D02*
X144980D01*
X138484Y355413D02*
Y359154D01*
X144980Y355413D02*
Y359154D01*
X138484Y333760D02*
X144980D01*
X138484Y337500D02*
X144980D01*
X138484Y333760D02*
Y337500D01*
X144980Y333760D02*
Y337500D01*
X138484Y312106D02*
X144980D01*
X138484Y315846D02*
X144980D01*
X138484Y312106D02*
Y315846D01*
X144980Y312106D02*
Y315846D01*
X138484Y290453D02*
X144980D01*
X138484Y294193D02*
X144980D01*
X138484Y290453D02*
Y294193D01*
X144980Y290453D02*
Y294193D01*
X138484Y268799D02*
X144980D01*
X138484Y272539D02*
X144980D01*
X138484Y268799D02*
Y272539D01*
X144980Y268799D02*
Y272539D01*
X138484Y247146D02*
X144980D01*
X138484Y250886D02*
X144980D01*
X138484Y247146D02*
Y250886D01*
X144980Y247146D02*
Y250886D01*
X138484Y225492D02*
X144980D01*
X138484Y229232D02*
X144980D01*
X138484Y225492D02*
Y229232D01*
X144980Y225492D02*
Y229232D01*
X138484Y203839D02*
X144980D01*
X138484Y207579D02*
X144980D01*
X138484Y203839D02*
Y207579D01*
X144980Y203839D02*
Y207579D01*
X138484Y182185D02*
X144980D01*
X138484Y185925D02*
X144980D01*
X138484Y182185D02*
Y185925D01*
X144980Y182185D02*
Y185925D01*
X138484Y160531D02*
X144980D01*
X138484Y164272D02*
X144980D01*
X138484Y160531D02*
Y164272D01*
X144980Y160531D02*
Y164272D01*
X138484Y138878D02*
X144980D01*
X138484Y142618D02*
X144980D01*
X138484Y138878D02*
Y142618D01*
X144980Y138878D02*
Y142618D01*
X138484Y117224D02*
X144980D01*
X138484Y120965D02*
X144980D01*
X138484Y117224D02*
Y120965D01*
X144980Y117224D02*
Y120965D01*
X138484Y95571D02*
X144980D01*
X138484Y99311D02*
X144980D01*
X138484Y95571D02*
Y99311D01*
X144980Y95571D02*
Y99311D01*
X138484Y73917D02*
X144980D01*
X138484Y77658D02*
X144980D01*
X138484Y73917D02*
Y77658D01*
X144980Y73917D02*
Y77658D01*
X138484Y52264D02*
X144980D01*
X138484Y56004D02*
X144980D01*
X138484Y52264D02*
Y56004D01*
X144980Y52264D02*
Y56004D01*
X138484Y30610D02*
X144980D01*
X138484Y34350D02*
X144980D01*
X138484Y30610D02*
Y34350D01*
X144980Y30610D02*
Y34350D01*
X138484Y347539D02*
X144980D01*
X138484Y351279D02*
X144980D01*
X138484Y347539D02*
Y351279D01*
X144980Y347539D02*
Y351279D01*
X138484Y325886D02*
X144980D01*
X138484Y329626D02*
X144980D01*
X138484Y325886D02*
Y329626D01*
X144980Y325886D02*
Y329626D01*
X138484Y304232D02*
X144980D01*
X138484Y307972D02*
X144980D01*
X138484Y304232D02*
Y307972D01*
X144980Y304232D02*
Y307972D01*
X138484Y282579D02*
X144980D01*
X138484Y286319D02*
X144980D01*
X138484Y282579D02*
Y286319D01*
X144980Y282579D02*
Y286319D01*
X138484Y260925D02*
X144980D01*
X138484Y264665D02*
X144980D01*
X138484Y260925D02*
Y264665D01*
X144980Y260925D02*
Y264665D01*
X138484Y239272D02*
X144980D01*
X138484Y243012D02*
X144980D01*
X138484Y239272D02*
Y243012D01*
X144980Y239272D02*
Y243012D01*
X138484Y217618D02*
X144980D01*
X138484Y221358D02*
X144980D01*
X138484Y217618D02*
Y221358D01*
X144980Y217618D02*
Y221358D01*
X138484Y195965D02*
X144980D01*
X138484Y199705D02*
X144980D01*
X138484Y195965D02*
Y199705D01*
X144980Y195965D02*
Y199705D01*
X138484Y174311D02*
X144980D01*
X138484Y178051D02*
X144980D01*
X138484Y174311D02*
Y178051D01*
X144980Y174311D02*
Y178051D01*
X138484Y152657D02*
X144980D01*
X138484Y156398D02*
X144980D01*
X138484Y152657D02*
Y156398D01*
X144980Y152657D02*
Y156398D01*
X138484Y131004D02*
X144980D01*
X138484Y134744D02*
X144980D01*
X138484Y131004D02*
Y134744D01*
X144980Y131004D02*
Y134744D01*
X138484Y109350D02*
X144980D01*
X138484Y113091D02*
X144980D01*
X138484Y109350D02*
Y113091D01*
X144980Y109350D02*
Y113091D01*
X138484Y87697D02*
X144980D01*
X138484Y91437D02*
X144980D01*
X138484Y87697D02*
Y91437D01*
X144980Y87697D02*
Y91437D01*
X138484Y66043D02*
X144980D01*
X138484Y69784D02*
X144980D01*
X138484Y66043D02*
Y69784D01*
X144980Y66043D02*
Y69784D01*
X138484Y44390D02*
X144980D01*
X138484Y48130D02*
X144980D01*
X138484Y44390D02*
Y48130D01*
X144980Y44390D02*
Y48130D01*
X138484Y22736D02*
X144980D01*
X138484Y26476D02*
X144980D01*
X138484Y22736D02*
Y26476D01*
X144980Y22736D02*
Y26476D01*
X115748Y347362D02*
Y359331D01*
X110236Y347362D02*
Y359331D01*
X115748D01*
X110236Y347362D02*
X115748D01*
Y325512D02*
Y337480D01*
X110236Y325512D02*
Y337480D01*
X115748D01*
X110236Y325512D02*
X115748D01*
Y304055D02*
Y316024D01*
X110236Y304055D02*
Y316024D01*
X115748D01*
X110236Y304055D02*
X115748D01*
Y282402D02*
Y294370D01*
X110236Y282402D02*
Y294370D01*
X115748D01*
X110236Y282402D02*
X115748D01*
Y260748D02*
Y272717D01*
X110236Y260748D02*
Y272717D01*
X115748D01*
X110236Y260748D02*
X115748D01*
Y239094D02*
Y251063D01*
X110236Y239094D02*
Y251063D01*
X115748D01*
X110236Y239094D02*
X115748D01*
Y217441D02*
Y229410D01*
X110236Y217441D02*
Y229410D01*
X115748D01*
X110236Y217441D02*
X115748D01*
Y195787D02*
Y207756D01*
X110236Y195787D02*
Y207756D01*
X115748D01*
X110236Y195787D02*
X115748D01*
Y174134D02*
Y186102D01*
X110236Y174134D02*
Y186102D01*
X115748D01*
X110236Y174134D02*
X115748D01*
Y152480D02*
Y164449D01*
X110236Y152480D02*
Y164449D01*
X115748D01*
X110236Y152480D02*
X115748D01*
Y130827D02*
Y142795D01*
X110236Y130827D02*
Y142795D01*
X115748D01*
X110236Y130827D02*
X115748D01*
Y109173D02*
Y121142D01*
X110236Y109173D02*
Y121142D01*
X115748D01*
X110236Y109173D02*
X115748D01*
Y87520D02*
Y99488D01*
X110236Y87520D02*
Y99488D01*
X115748D01*
X110236Y87520D02*
X115748D01*
Y65866D02*
Y77835D01*
X110236Y65866D02*
Y77835D01*
X115748D01*
X110236Y65866D02*
X115748D01*
Y44213D02*
Y56181D01*
X110236Y44213D02*
Y56181D01*
X115748D01*
X110236Y44213D02*
X115748D01*
X115748Y21575D02*
Y33543D01*
X110236Y21575D02*
Y33543D01*
X115748D01*
X110236Y21575D02*
X115748D01*
X215748Y234350D02*
X221260D01*
X215748Y242815D02*
X221260D01*
Y234350D02*
Y242815D01*
X215748Y234350D02*
Y242815D01*
X234252Y266142D02*
X248031D01*
X234252Y255512D02*
X248031D01*
Y266142D01*
X234252Y255512D02*
Y266142D01*
X233720Y274508D02*
X240689D01*
X233720Y270768D02*
X240689D01*
Y274508D01*
X233720Y270768D02*
Y274508D01*
X270177Y188583D02*
Y194095D01*
X278642Y188583D02*
Y194095D01*
X270177Y188583D02*
X278642D01*
X270177Y194095D02*
X278642D01*
X249272Y163681D02*
X256240D01*
X249272Y159941D02*
X256240D01*
Y163681D01*
X249272Y159941D02*
Y163681D01*
X246752Y150394D02*
Y155905D01*
X255217Y150394D02*
Y155905D01*
X246752Y150394D02*
X255217D01*
X246752Y155905D02*
X255217D01*
X354626Y64468D02*
X361122D01*
X354626Y60728D02*
X361122D01*
Y64468D01*
X354626Y60728D02*
Y64468D01*
X244390Y111909D02*
Y115650D01*
X250886Y111909D02*
Y115650D01*
X244390Y111909D02*
X250886D01*
X244390Y115650D02*
X250886D01*
X335105Y317027D02*
Y320768D01*
X328609Y317027D02*
Y320768D01*
X335105D01*
X328609Y317027D02*
X335105D01*
Y305217D02*
Y308957D01*
X328609Y305217D02*
Y308957D01*
X335105D01*
X328609Y305217D02*
X335105D01*
X335138Y293406D02*
Y297146D01*
X328642Y293406D02*
Y297146D01*
X335138D01*
X328642Y293406D02*
X335138D01*
X335105Y281594D02*
Y285335D01*
X328609Y281594D02*
Y285335D01*
X335105D01*
X328609Y281594D02*
X335105D01*
X335138Y269783D02*
Y273524D01*
X328642Y269783D02*
Y273524D01*
X335138D01*
X328642Y269783D02*
X335138D01*
X335105Y257972D02*
Y261713D01*
X328609Y257972D02*
Y261713D01*
X335105D01*
X328609Y257972D02*
X335105D01*
Y246161D02*
Y249902D01*
X328609Y246161D02*
Y249902D01*
X335105D01*
X328609Y246161D02*
X335105D01*
Y234350D02*
Y238090D01*
X328609Y234350D02*
Y238090D01*
X335105D01*
X328609Y234350D02*
X335105D01*
X331201Y117028D02*
Y123524D01*
X334941Y117028D02*
Y123524D01*
X331201D02*
X334941D01*
X331201Y117028D02*
X334941D01*
X307858Y190831D02*
Y197327D01*
X311598Y190831D02*
Y197327D01*
X307858D02*
X311598D01*
X307858Y190831D02*
X311598D01*
X299705Y190847D02*
Y197343D01*
X303445Y190847D02*
Y197343D01*
X299705D02*
X303445D01*
X299705Y190847D02*
X303445D01*
X343110Y153937D02*
Y165748D01*
X336417Y153937D02*
Y165748D01*
X343110D01*
X336417Y153937D02*
X343110D01*
X326279Y150492D02*
Y156988D01*
X322539Y150492D02*
Y156988D01*
Y150492D02*
X326279D01*
X322539Y156988D02*
X326279D01*
X295505Y59449D02*
Y72835D01*
X302592Y59449D02*
Y72835D01*
X295505Y59449D02*
X302592D01*
X295505Y72835D02*
X302592D01*
X137165Y374409D02*
Y387402D01*
X162047Y374409D02*
Y387402D01*
X137165D02*
X162047D01*
X137165Y374409D02*
X162047D01*
X87953D02*
Y387402D01*
X112835Y374409D02*
Y387402D01*
X87953D02*
X112835D01*
X87953Y374409D02*
X112835D01*
X44783Y331299D02*
X51673D01*
X44783Y318307D02*
X51673D01*
Y331299D01*
X44783Y318307D02*
Y331299D01*
X72402Y346850D02*
Y359842D01*
X97284Y346850D02*
Y359842D01*
X72402D02*
X97284D01*
X72402Y346850D02*
X97284D01*
X72402Y325197D02*
Y338189D01*
X97284Y325197D02*
Y338189D01*
X72402D02*
X97284D01*
X72402Y325197D02*
X97284D01*
X72402Y303543D02*
Y316535D01*
X97284Y303543D02*
Y316535D01*
X72402D02*
X97284D01*
X72402Y303543D02*
X97284D01*
X72402Y281890D02*
Y294882D01*
X97284Y281890D02*
Y294882D01*
X72402D02*
X97284D01*
X72402Y281890D02*
X97284D01*
X72402Y260236D02*
Y273228D01*
X97284Y260236D02*
Y273228D01*
X72402D02*
X97284D01*
X72402Y260236D02*
X97284D01*
X72402Y238583D02*
Y251575D01*
X97284Y238583D02*
Y251575D01*
X72402D02*
X97284D01*
X72402Y238583D02*
X97284D01*
X72402Y216929D02*
Y229921D01*
X97284Y216929D02*
Y229921D01*
X72402D02*
X97284D01*
X72402Y216929D02*
X97284D01*
X72402Y195275D02*
Y208268D01*
X97284Y195275D02*
Y208268D01*
X72402D02*
X97284D01*
X72402Y195275D02*
X97284D01*
X72402Y173622D02*
Y186614D01*
X97284Y173622D02*
Y186614D01*
X72402D02*
X97284D01*
X72402Y173622D02*
X97284D01*
X72402Y151969D02*
Y164961D01*
X97284Y151969D02*
Y164961D01*
X72402D02*
X97284D01*
X72402Y151969D02*
X97284D01*
X72402Y130315D02*
Y143307D01*
X97284Y130315D02*
Y143307D01*
X72402D02*
X97284D01*
X72402Y130315D02*
X97284D01*
X72402Y108661D02*
Y121653D01*
X97284Y108661D02*
Y121653D01*
X72402D02*
X97284D01*
X72402Y108661D02*
X97284D01*
X72402Y87008D02*
Y100000D01*
X97284Y87008D02*
Y100000D01*
X72402D02*
X97284D01*
X72402Y87008D02*
X97284D01*
X72402Y65354D02*
Y78346D01*
X97284Y65354D02*
Y78346D01*
X72402D02*
X97284D01*
X72402Y65354D02*
X97284D01*
X72402Y43701D02*
Y56693D01*
X97284Y43701D02*
Y56693D01*
X72402D02*
X97284D01*
X72402Y43701D02*
X97284D01*
X72402Y22047D02*
Y35039D01*
X97284Y22047D02*
Y35039D01*
X72402D02*
X97284D01*
X72402Y22047D02*
X97284D01*
X126083Y351476D02*
X132579D01*
X126083Y355217D02*
X132579D01*
Y351476D02*
Y355217D01*
X126083Y351476D02*
Y355217D01*
X126083Y329823D02*
X132579D01*
X126083Y333563D02*
X132579D01*
Y329823D02*
Y333563D01*
X126083Y329823D02*
Y333563D01*
X126083Y308169D02*
X132579D01*
X126083Y311909D02*
X132579D01*
Y308169D02*
Y311909D01*
X126083Y308169D02*
Y311909D01*
Y286516D02*
X132579D01*
X126083Y290256D02*
X132579D01*
Y286516D02*
Y290256D01*
X126083Y286516D02*
Y290256D01*
X126083Y264862D02*
X132579D01*
X126083Y268602D02*
X132579D01*
Y264862D02*
Y268602D01*
X126083Y264862D02*
Y268602D01*
Y243209D02*
X132579D01*
X126083Y246949D02*
X132579D01*
Y243209D02*
Y246949D01*
X126083Y243209D02*
Y246949D01*
Y221555D02*
X132579D01*
X126083Y225295D02*
X132579D01*
Y221555D02*
Y225295D01*
X126083Y221555D02*
Y225295D01*
X126083Y199902D02*
X132579D01*
X126083Y203642D02*
X132579D01*
Y199902D02*
Y203642D01*
X126083Y199902D02*
Y203642D01*
Y178248D02*
X132579D01*
X126083Y181988D02*
X132579D01*
Y178248D02*
Y181988D01*
X126083Y178248D02*
Y181988D01*
Y156595D02*
X132579D01*
X126083Y160335D02*
X132579D01*
Y156595D02*
Y160335D01*
X126083Y156595D02*
Y160335D01*
Y134941D02*
X132579D01*
X126083Y138681D02*
X132579D01*
Y134941D02*
Y138681D01*
X126083Y134941D02*
Y138681D01*
Y113287D02*
X132579D01*
X126083Y117028D02*
X132579D01*
Y113287D02*
Y117028D01*
X126083Y113287D02*
Y117028D01*
Y91634D02*
X132579D01*
X126083Y95374D02*
X132579D01*
Y91634D02*
Y95374D01*
X126083Y91634D02*
Y95374D01*
Y69980D02*
X132579D01*
X126083Y73721D02*
X132579D01*
Y69980D02*
Y73721D01*
X126083Y69980D02*
Y73721D01*
Y48327D02*
X132579D01*
X126083Y52067D02*
X132579D01*
Y48327D02*
Y52067D01*
X126083Y48327D02*
Y52067D01*
Y26673D02*
X132579D01*
X126083Y30413D02*
X132579D01*
Y26673D02*
Y30413D01*
X126083Y26673D02*
Y30413D01*
X180512Y347736D02*
Y358957D01*
X173819Y347736D02*
Y358957D01*
X180512D01*
X173819Y347736D02*
X180512D01*
X173819Y326083D02*
X180512D01*
X173819Y337303D02*
X180512D01*
X173819Y326083D02*
Y337303D01*
X180512Y326083D02*
Y337303D01*
X180512Y304429D02*
Y315650D01*
X173819Y304429D02*
Y315650D01*
X180512D01*
X173819Y304429D02*
X180512D01*
X173819Y282776D02*
X180512D01*
X173819Y293996D02*
X180512D01*
X173819Y282776D02*
Y293996D01*
X180512Y282776D02*
Y293996D01*
X180512Y261122D02*
Y272342D01*
X173819Y261122D02*
Y272342D01*
X180512D01*
X173819Y261122D02*
X180512D01*
X173819Y239469D02*
X180512D01*
X173819Y250689D02*
X180512D01*
X173819Y239469D02*
Y250689D01*
X180512Y239469D02*
Y250689D01*
Y217815D02*
Y229035D01*
X173819Y217815D02*
Y229035D01*
X180512D01*
X173819Y217815D02*
X180512D01*
X173819Y196161D02*
X180512D01*
X173819Y207382D02*
X180512D01*
X173819Y196161D02*
Y207382D01*
X180512Y196161D02*
Y207382D01*
Y174508D02*
Y185728D01*
X173819Y174508D02*
Y185728D01*
X180512D01*
X173819Y174508D02*
X180512D01*
X173819Y152854D02*
X180512D01*
X173819Y164075D02*
X180512D01*
X173819Y152854D02*
Y164075D01*
X180512Y152854D02*
Y164075D01*
Y131201D02*
Y142421D01*
X173819Y131201D02*
Y142421D01*
X180512D01*
X173819Y131201D02*
X180512D01*
X173819Y109547D02*
X180512D01*
X173819Y120768D02*
X180512D01*
X173819Y109547D02*
Y120768D01*
X180512Y109547D02*
Y120768D01*
Y87894D02*
Y99114D01*
X173819Y87894D02*
Y99114D01*
X180512D01*
X173819Y87894D02*
X180512D01*
X173819Y66240D02*
X180512D01*
X173819Y77461D02*
X180512D01*
X173819Y66240D02*
Y77461D01*
X180512Y66240D02*
Y77461D01*
Y44587D02*
Y55807D01*
X173819Y44587D02*
Y55807D01*
X180512D01*
X173819Y44587D02*
X180512D01*
X173819Y22933D02*
X180512D01*
X173819Y34154D02*
X180512D01*
X173819Y22933D02*
Y34154D01*
X180512Y22933D02*
Y34154D01*
X157677Y350590D02*
X166142D01*
X157677Y356102D02*
X166142D01*
Y350590D02*
Y356102D01*
X157677Y350590D02*
Y356102D01*
Y328937D02*
X166142D01*
X157677Y334449D02*
X166142D01*
Y328937D02*
Y334449D01*
X157677Y328937D02*
Y334449D01*
Y307283D02*
X166142D01*
X157677Y312795D02*
X166142D01*
Y307283D02*
Y312795D01*
X157677Y307283D02*
Y312795D01*
Y285630D02*
X166142D01*
X157677Y291142D02*
X166142D01*
Y285630D02*
Y291142D01*
X157677Y285630D02*
Y291142D01*
Y263976D02*
X166142D01*
X157677Y269488D02*
X166142D01*
Y263976D02*
Y269488D01*
X157677Y263976D02*
Y269488D01*
Y242323D02*
X166142D01*
X157677Y247835D02*
X166142D01*
Y242323D02*
Y247835D01*
X157677Y242323D02*
Y247835D01*
Y220669D02*
X166142D01*
X157677Y226181D02*
X166142D01*
Y220669D02*
Y226181D01*
X157677Y220669D02*
Y226181D01*
Y199016D02*
X166142D01*
X157677Y204527D02*
X166142D01*
Y199016D02*
Y204527D01*
X157677Y199016D02*
Y204527D01*
Y177362D02*
X166142D01*
X157677Y182874D02*
X166142D01*
Y177362D02*
Y182874D01*
X157677Y177362D02*
Y182874D01*
Y155709D02*
X166142D01*
X157677Y161221D02*
X166142D01*
Y155709D02*
Y161221D01*
X157677Y155709D02*
Y161221D01*
Y134055D02*
X166142D01*
X157677Y139567D02*
X166142D01*
Y134055D02*
Y139567D01*
X157677Y134055D02*
Y139567D01*
Y112402D02*
X166142D01*
X157677Y117913D02*
X166142D01*
Y112402D02*
Y117913D01*
X157677Y112402D02*
Y117913D01*
Y90748D02*
X166142D01*
X157677Y96260D02*
X166142D01*
Y90748D02*
Y96260D01*
X157677Y90748D02*
Y96260D01*
Y69095D02*
X166142D01*
X157677Y74606D02*
X166142D01*
Y69095D02*
Y74606D01*
X157677Y69095D02*
Y74606D01*
Y47441D02*
X166142D01*
X157677Y52953D02*
X166142D01*
Y47441D02*
Y52953D01*
X157677Y47441D02*
Y52953D01*
Y25787D02*
X166142D01*
X157677Y31299D02*
X166142D01*
Y25787D02*
Y31299D01*
X157677Y25787D02*
Y31299D01*
X307480Y59449D02*
Y72835D01*
X314567Y59449D02*
Y72835D01*
X307480Y59449D02*
X314567D01*
X307480Y72835D02*
X314567D01*
X295308Y147146D02*
X302198D01*
X295308Y134153D02*
X302198D01*
Y147146D01*
X295308Y134153D02*
Y147146D01*
X288642Y266929D02*
Y287795D01*
X274862Y266929D02*
Y287795D01*
X288642D01*
X274862Y266929D02*
X288642D01*
X288484Y295079D02*
Y313583D01*
X275098Y295079D02*
Y313583D01*
X288484D01*
X275098Y295079D02*
X288484D01*
X312146Y266929D02*
Y287795D01*
X298366Y266929D02*
Y287795D01*
X312146D01*
X298366Y266929D02*
X312146D01*
X312106Y295079D02*
Y313583D01*
X298721Y295079D02*
Y313583D01*
X312106D01*
X298721Y295079D02*
X312106D01*
X298228Y126673D02*
X312008D01*
X298228Y105807D02*
X312008D01*
Y126673D01*
X298228Y105807D02*
Y126673D01*
X298327Y81004D02*
Y99508D01*
X311713Y81004D02*
Y99508D01*
X298327Y81004D02*
X311713D01*
X298327Y99508D02*
X311713D01*
X274606Y126673D02*
X288386D01*
X274606Y105807D02*
X288386D01*
Y126673D01*
X274606Y105807D02*
Y126673D01*
X274705Y81004D02*
Y99508D01*
X288090Y81004D02*
Y99508D01*
X274705Y81004D02*
X288090D01*
X274705Y99508D02*
X288090D01*
X203937Y159843D02*
X251181D01*
X203937Y207087D02*
X251181D01*
Y159843D02*
Y207087D01*
X203937Y159843D02*
Y207087D01*
X21654Y325394D02*
X35433D01*
X21654Y336024D02*
X35433D01*
Y325394D02*
Y336024D01*
X21654Y325394D02*
Y336024D01*
X31358Y63484D02*
X38327D01*
X31358Y67224D02*
X38327D01*
Y63484D02*
Y67224D01*
X31358Y63484D02*
Y67224D01*
X232736Y129035D02*
X239705D01*
X232736Y132776D02*
X239705D01*
Y129035D02*
Y132776D01*
X232736Y129035D02*
Y132776D01*
X211713Y114626D02*
Y121595D01*
X215453Y114626D02*
Y121595D01*
X211713Y114626D02*
X215453D01*
X211713Y121595D02*
X215453D01*
X218701Y123327D02*
X224213D01*
X218701Y114862D02*
X224213D01*
Y123327D01*
X218701Y114862D02*
Y123327D01*
X283530Y59449D02*
Y72835D01*
X290617Y59449D02*
Y72835D01*
X283530Y59449D02*
X290617D01*
X283530Y72835D02*
X290617D01*
X271555Y59449D02*
Y72835D01*
X278642Y59449D02*
Y72835D01*
X271555Y59449D02*
X278642D01*
X271555Y72835D02*
X278642D01*
X248425Y341732D02*
Y355118D01*
X255512Y341732D02*
Y355118D01*
X248425Y341732D02*
X255512D01*
X248425Y355118D02*
X255512D01*
X228543Y113878D02*
X234055D01*
X228543Y122343D02*
X234055D01*
X228543Y113878D02*
Y122343D01*
X234055Y113878D02*
Y122343D01*
X242028Y113642D02*
Y120610D01*
X238287Y113642D02*
Y120610D01*
X242028D01*
X238287Y113642D02*
X242028D01*
X47933Y355906D02*
Y362598D01*
X36713Y355906D02*
Y362598D01*
Y355906D02*
X47933D01*
X36713Y362598D02*
X47933D01*
X36713Y342126D02*
X47933D01*
X36713Y348819D02*
X47933D01*
Y342126D02*
Y348819D01*
X36713Y342126D02*
Y348819D01*
X35531Y44291D02*
Y50984D01*
X24311Y44291D02*
Y50984D01*
Y44291D02*
X35531D01*
X24311Y50984D02*
X35531D01*
X24311Y54134D02*
X35531D01*
X24311Y60827D02*
X35531D01*
Y54134D02*
Y60827D01*
X24311Y54134D02*
Y60827D01*
X277854Y225590D02*
Y232677D01*
X272539Y225590D02*
Y232677D01*
X277854D01*
X272539Y225590D02*
X277854D01*
X284416D02*
X289731D01*
X284416Y232677D02*
X289731D01*
X284416Y225590D02*
Y232677D01*
X289731Y225590D02*
Y232677D01*
X301608Y225590D02*
Y232677D01*
X296293Y225590D02*
Y232677D01*
X301608D01*
X296293Y225590D02*
X301608D01*
X308169D02*
X313484D01*
X308169Y232677D02*
X313484D01*
X308169Y225590D02*
Y232677D01*
X313484Y225590D02*
Y232677D01*
X308169Y157087D02*
Y164173D01*
X313484Y157087D02*
Y164173D01*
X308169Y157087D02*
X313484D01*
X308169Y164173D02*
X313484D01*
X296293D02*
X301608D01*
X296293Y157087D02*
X301608D01*
Y164173D01*
X296293Y157087D02*
Y164173D01*
X284416Y157087D02*
Y164173D01*
X289731Y157087D02*
Y164173D01*
X284416Y157087D02*
X289731D01*
X284416Y164173D02*
X289731D01*
X272539D02*
X277854D01*
X272539Y157087D02*
X277854D01*
Y164173D01*
X272539Y157087D02*
Y164173D01*
X117717Y25984D02*
Y29134D01*
X111024Y25984D02*
Y29134D01*
Y25984D02*
X117717D01*
X111024Y29134D02*
X117717D01*
X117815Y48622D02*
Y51772D01*
X111122Y48622D02*
Y51772D01*
Y48622D02*
X117815D01*
X111122Y51772D02*
X117815D01*
Y70276D02*
Y73425D01*
X111122Y70276D02*
Y73425D01*
Y70276D02*
X117815D01*
X111122Y73425D02*
X117815D01*
X117618Y91929D02*
Y95079D01*
X110925Y91929D02*
Y95079D01*
Y91929D02*
X117618D01*
X110925Y95079D02*
X117618D01*
X117717Y113583D02*
Y116732D01*
X111024Y113583D02*
Y116732D01*
Y113583D02*
X117717D01*
X111024Y116732D02*
X117717D01*
Y135236D02*
Y138386D01*
X111024Y135236D02*
Y138386D01*
Y135236D02*
X117717D01*
X111024Y138386D02*
X117717D01*
Y156791D02*
Y159941D01*
X111024Y156791D02*
Y159941D01*
Y156791D02*
X117717D01*
X111024Y159941D02*
X117717D01*
X117913Y178543D02*
Y181693D01*
X111221Y178543D02*
Y181693D01*
Y178543D02*
X117913D01*
X111221Y181693D02*
X117913D01*
X117717Y200197D02*
Y203346D01*
X111024Y200197D02*
Y203346D01*
Y200197D02*
X117717D01*
X111024Y203346D02*
X117717D01*
Y221850D02*
Y225000D01*
X111024Y221850D02*
Y225000D01*
Y221850D02*
X117717D01*
X111024Y225000D02*
X117717D01*
Y243504D02*
Y246654D01*
X111024Y243504D02*
Y246654D01*
Y243504D02*
X117717D01*
X111024Y246654D02*
X117717D01*
Y265158D02*
Y268307D01*
X111024Y265158D02*
Y268307D01*
Y265158D02*
X117717D01*
X111024Y268307D02*
X117717D01*
Y286713D02*
Y289862D01*
X111024Y286713D02*
Y289862D01*
Y286713D02*
X117717D01*
X111024Y289862D02*
X117717D01*
Y308366D02*
Y311516D01*
X111024Y308366D02*
Y311516D01*
Y308366D02*
X117717D01*
X111024Y311516D02*
X117717D01*
Y329921D02*
Y333071D01*
X111024Y329921D02*
Y333071D01*
Y329921D02*
X117717D01*
X111024Y333071D02*
X117717D01*
X117717Y351772D02*
Y354921D01*
X111024Y351772D02*
Y354921D01*
Y351772D02*
X117717D01*
X111024Y354921D02*
X117717D01*
X241535Y356299D02*
Y380709D01*
X215158Y356299D02*
Y380709D01*
X241535D01*
X215158Y356299D02*
X241535D01*
X35138Y73524D02*
X38878D01*
X35138Y80020D02*
X38878D01*
X35138Y73524D02*
Y80020D01*
X38878Y73524D02*
Y80020D01*
X271752Y244734D02*
X278642D01*
X271752Y257726D02*
X278642D01*
X271752Y244734D02*
Y257726D01*
X278642Y244734D02*
Y257726D01*
X283957Y244685D02*
X290846D01*
X283957Y257677D02*
X290846D01*
X283957Y244685D02*
Y257677D01*
X290846Y244685D02*
Y257677D01*
X295505Y244783D02*
X302395D01*
X295505Y257776D02*
X302395D01*
X295505Y244783D02*
Y257776D01*
X302395Y244783D02*
Y257776D01*
X307579Y244783D02*
X314469D01*
X307579Y257776D02*
X314469D01*
X307579Y244783D02*
Y257776D01*
X314469Y244783D02*
Y257776D01*
X307185Y147146D02*
X314075D01*
X307185Y134153D02*
X314075D01*
Y147146D01*
X307185Y134153D02*
Y147146D01*
X283432D02*
X290321D01*
X283432Y134153D02*
X290321D01*
Y147146D01*
X283432Y134153D02*
Y147146D01*
X271555D02*
X278445D01*
X271555Y134153D02*
X278445D01*
Y147146D01*
X271555Y134153D02*
Y147146D01*
X247342Y134153D02*
X251083D01*
X247342Y140650D02*
X251083D01*
X247342Y134153D02*
Y140650D01*
X251083Y134153D02*
Y140650D01*
X315354Y321260D02*
Y334646D01*
X308268Y321260D02*
Y334646D01*
X315354D01*
X308268Y321260D02*
X315354D01*
X278346Y321161D02*
Y334547D01*
X271260Y321161D02*
Y334547D01*
X278346D01*
X271260Y321161D02*
X278346D01*
X290551D02*
Y334547D01*
X283465Y321161D02*
Y334547D01*
X290551D01*
X283465Y321161D02*
X290551D01*
X303543D02*
Y334547D01*
X296457Y321161D02*
Y334547D01*
X303543D01*
X296457Y321161D02*
X303543D01*
X204528Y368406D02*
Y376870D01*
X199016Y368406D02*
Y376870D01*
X204528D01*
X199016Y368406D02*
X204528D01*
X240650Y325492D02*
X247146D01*
X240650Y321752D02*
X247146D01*
X240650D02*
Y325492D01*
X247146Y321752D02*
Y325492D01*
X240945Y316929D02*
X247638D01*
X240945Y320079D02*
X247638D01*
Y316929D02*
Y320079D01*
X240945Y316929D02*
Y320079D01*
X348524Y61713D02*
X355020D01*
X348524Y57972D02*
X355020D01*
X348524D02*
Y61713D01*
X355020Y57972D02*
Y61713D01*
X348819Y55512D02*
X355512D01*
X348819Y52362D02*
X355512D01*
X348819D02*
Y55512D01*
X355512Y52362D02*
Y55512D01*
X365453Y161713D02*
X372342D01*
X365453Y174705D02*
X372342D01*
Y161713D02*
Y174705D01*
X365453Y161713D02*
Y174705D01*
X324114Y172933D02*
Y179823D01*
X337106Y172933D02*
Y179823D01*
X324114Y172933D02*
X337106D01*
X324114Y179823D02*
X337106D01*
X59941Y270256D02*
Y272421D01*
X55807Y270256D02*
Y272421D01*
Y270256D02*
X59941D01*
X55807Y272421D02*
X59941D01*
Y260256D02*
Y262421D01*
X55807Y260256D02*
Y262421D01*
Y260256D02*
X59941D01*
X55807Y262421D02*
X59941D01*
Y250256D02*
Y252421D01*
X55807Y250256D02*
Y252421D01*
Y250256D02*
X59941D01*
X55807Y252421D02*
X59941D01*
Y240256D02*
Y242421D01*
X55807Y240256D02*
Y242421D01*
Y240256D02*
X59941D01*
X55807Y242421D02*
X59941D01*
Y230256D02*
Y232421D01*
X55807Y230256D02*
Y232421D01*
Y230256D02*
X59941D01*
X55807Y232421D02*
X59941D01*
Y220256D02*
Y222421D01*
X55807Y220256D02*
Y222421D01*
Y220256D02*
X59941D01*
X55807Y222421D02*
X59941D01*
Y210256D02*
Y212421D01*
X55807Y210256D02*
Y212421D01*
Y210256D02*
X59941D01*
X55807Y212421D02*
X59941D01*
Y200256D02*
Y202421D01*
X55807Y200256D02*
Y202421D01*
Y200256D02*
X59941D01*
X55807Y202421D02*
X59941D01*
Y190256D02*
Y192421D01*
X55807Y190256D02*
Y192421D01*
Y190256D02*
X59941D01*
X55807Y192421D02*
X59941D01*
Y180256D02*
Y182421D01*
X55807Y180256D02*
Y182421D01*
Y180256D02*
X59941D01*
X55807Y182421D02*
X59941D01*
Y170256D02*
Y172421D01*
X55807Y170256D02*
Y172421D01*
Y170256D02*
X59941D01*
X55807Y172421D02*
X59941D01*
Y160256D02*
Y162421D01*
X55807Y160256D02*
Y162421D01*
Y160256D02*
X59941D01*
X55807Y162421D02*
X59941D01*
Y150256D02*
Y152421D01*
X55807Y150256D02*
Y152421D01*
Y150256D02*
X59941D01*
X55807Y152421D02*
X59941D01*
X52854Y50689D02*
X55020D01*
X52854Y54823D02*
X55020D01*
X52854Y50689D02*
Y54823D01*
X55020Y50689D02*
Y54823D01*
X48524Y50591D02*
X50689D01*
X48524Y54724D02*
X50689D01*
X48524Y50591D02*
Y54724D01*
X50689Y50591D02*
Y54724D01*
X59941Y280256D02*
Y282421D01*
X55807Y280256D02*
Y282421D01*
Y280256D02*
X59941D01*
X55807Y282421D02*
X59941D01*
M02*
