M48
;Layer_Color=9474304
;FILE_FORMAT=2:5
INCH,LZ
;TYPE=PLATED
T1F00S00C0.01575
T2F00S00C0.01968
T3F00S00C0.02362
T4F00S00C0.03150
T5F00S00C0.03937
T6F00S00C0.12992
T7F00S00C0.15748
%
T01
X0102362Y0027559
Y0050197
X0127953Y003937
X0133858Y0044291
X0149606Y004626
X0153543Y0037402
X0149606Y0024606
X0133858Y0022638
X0117717Y0018898
X022441Y0133858
X0221654Y0143701
X0216142
X0238189Y0147638
X0242126
X0246063
X025
X0255906Y0148031
X0248819Y0130905
X0244882Y0119685
X0263779Y0170472
Y0175197
Y0179134
X0275197Y0175197
X0287073
X029895
X0310827
Y0213386
X029895Y0212598
X0287073Y0212598
X0275197
X0263779Y0206693
Y0202756
Y0198819
X0188976Y0197245
X0187008Y0190945
X0187008Y0183465
Y0178347
Y0170866
Y0162205
X0187008Y0154331
X0187008Y0146457
X0205118Y0143701
X021063
X0153543Y0145669
X0149606Y0154527
X0153543Y0167323
X0149606Y0176181
X0153543Y0188976
X0149606Y0197835
X0153543Y021063
X0127953Y0212598
Y0190945
X0133858Y0195866
Y0174213
X0127953Y0169291
Y0147638
X0133858Y0152559
Y0130905
X0127953Y0125984
Y0104331
X0133858Y0109252
X0149606Y0111221
X0153543Y0102362
X0149606Y0089567
X0153543Y0080709
X0149606Y0067913
X0153543Y0059055
X0133858Y0065945
X0127953Y0061024
Y0082677
X0133858Y0087598
X0102362Y0093504
Y007185
Y0115157
Y0136811
Y0158465
Y0180118
Y0201772
X0192126Y0209842
X0197244
X0149606Y0132874
X0153543Y0124016
X0053937Y0073228
X0049606
X0045276
X0102362Y0223425
Y0245079
Y0266732
Y0288386
Y0310039
Y0331496
Y0353346
X0127953Y0343307
X0133858Y0347441
X0149606Y0349409
X0153543Y0340551
X0149606Y0327756
X0153543Y0318898
X0149606Y0306102
X0153543Y0297244
X0149606Y0284449
X0153543Y027559
X0149607Y0262795
X0153543Y0253937
X0149607Y0241142
X0153543Y0232283
X0149607Y0219488
X0133859Y021752
Y0239173
X0127953Y0234252
Y0255906
X0133859Y0260827
X0133858Y028248
X0127953Y0277559
Y0299213
X0133858Y0304134
X0133858Y0325787
X0127953Y0320866
X0153543Y0362205
X0202756Y022441
X0207874Y0224311
X0214961Y0224213
X0218209Y0224311
X0221654Y0224213
X0226772Y022441
X0230433Y0224291
X0234252Y022441
X0238189
X0242126
X0246063
X025
X0253937
X0257874
X0261811
T02
X0323228Y0236221
Y0248031
Y0259842
Y0271654
Y0283465
Y0295276
Y0307087
Y0318898
T03
X002372Y0319193
X0023622Y0346063
X0190945Y0366535
X0251969Y0368504
T04
X0017323Y0052362
X0214567Y0108268
X0220579
X0226378
X0232283
X0238189
X0024409Y0064567
X0017717
X0327953Y0214961
X0318504Y022441
T05
X0277953Y0050394
X0288189
X0298031
X0308268
X0343265Y0087601
X0343365Y0097501
Y0107601
Y0117501
Y0127601
Y0137601
X0049606Y0141339
Y0151339
Y0161339
Y0171339
Y0181339
Y0191339
Y0201339
Y0211339
Y0131339
Y0121339
Y0111339
Y0101339
Y0221339
Y0231339
Y0241339
Y0251339
Y0261339
Y0271339
Y0281339
Y0291339
X0011811Y0330709
X0277953Y0342913
X0288189
X0298031
X0308268
X034685Y0304724
Y029685
Y0288976
Y0281102
Y0273228
Y0265354
Y025748
Y0249606
X0355906
Y025748
Y0265354
Y0273228
Y0281102
Y0288976
Y029685
Y0304724
T06
X0377265Y0081501
X0377165Y0143701
T07
X0015748Y0015748
X0377953
Y0377953
X0015748
M30
