G04 Layer_Color=128*
%FSLAX25Y25*%
%MOIN*%
G70*
G01*
G75*
%ADD11R,0.03937X0.03937*%
%ADD14R,0.03150X0.03740*%
%ADD21R,0.05709X0.04921*%
%ADD22R,0.03740X0.03150*%
%ADD26R,0.04528X0.10630*%
%ADD28R,0.04921X0.05709*%
%ADD42R,0.03937X0.02362*%
%ADD43R,0.02165X0.02362*%
D11*
X263386Y162598D02*
D03*
X258661D02*
D03*
X239567Y272638D02*
D03*
X234842D02*
D03*
D14*
X139173Y357283D02*
D03*
X144291D02*
D03*
X139173Y335630D02*
D03*
X144291D02*
D03*
X139173Y313976D02*
D03*
X144291D02*
D03*
X139173Y292323D02*
D03*
X144291D02*
D03*
X139173Y270669D02*
D03*
X144291D02*
D03*
X139173Y249016D02*
D03*
X144291D02*
D03*
X139173Y227362D02*
D03*
X144291D02*
D03*
X139173Y205709D02*
D03*
X144291D02*
D03*
X139173Y184055D02*
D03*
X144291D02*
D03*
X139173Y162402D02*
D03*
X144291D02*
D03*
X139173Y140748D02*
D03*
X144291D02*
D03*
X139173Y119095D02*
D03*
X144291D02*
D03*
X139173Y97441D02*
D03*
X144291D02*
D03*
X139173Y75787D02*
D03*
X144291D02*
D03*
X139173Y54134D02*
D03*
X144291D02*
D03*
X139173Y32480D02*
D03*
X144291D02*
D03*
X139173Y349409D02*
D03*
X144291D02*
D03*
X139173Y327756D02*
D03*
X144291D02*
D03*
X139173Y306102D02*
D03*
X144291D02*
D03*
X139173Y284449D02*
D03*
X144291D02*
D03*
X139173Y262795D02*
D03*
X144291D02*
D03*
X139173Y241142D02*
D03*
X144291D02*
D03*
X139173Y219488D02*
D03*
X144291D02*
D03*
X139173Y197835D02*
D03*
X144291D02*
D03*
X139173Y176181D02*
D03*
X144291D02*
D03*
X139173Y154528D02*
D03*
X144291D02*
D03*
X139173Y132874D02*
D03*
X144291D02*
D03*
X139173Y111221D02*
D03*
X144291D02*
D03*
X139173Y89567D02*
D03*
X144291D02*
D03*
X139173Y67913D02*
D03*
X144291D02*
D03*
X139173Y46260D02*
D03*
X144291D02*
D03*
X139173Y24606D02*
D03*
X144291D02*
D03*
X249409Y114173D02*
D03*
X254528D02*
D03*
X359941Y165551D02*
D03*
X365059D02*
D03*
X359941Y157579D02*
D03*
X365059D02*
D03*
X334416Y236221D02*
D03*
X329298D02*
D03*
X334416Y247638D02*
D03*
X329298D02*
D03*
X334416Y259449D02*
D03*
X329298D02*
D03*
X334449Y270866D02*
D03*
X329331D02*
D03*
X334416Y283465D02*
D03*
X329298D02*
D03*
X334449Y295276D02*
D03*
X329331D02*
D03*
X334416Y306693D02*
D03*
X329298D02*
D03*
X334416Y318898D02*
D03*
X329298D02*
D03*
D21*
X218504Y255512D02*
D03*
Y262205D02*
D03*
Y235236D02*
D03*
Y241929D02*
D03*
D22*
X127953Y75000D02*
D03*
Y69882D02*
D03*
X127953Y335827D02*
D03*
Y330709D02*
D03*
X127953Y356496D02*
D03*
Y351378D02*
D03*
Y313189D02*
D03*
Y308071D02*
D03*
Y291535D02*
D03*
Y286417D02*
D03*
X127953Y269882D02*
D03*
Y264764D02*
D03*
Y248228D02*
D03*
Y243110D02*
D03*
Y226575D02*
D03*
Y221457D02*
D03*
X127953Y204921D02*
D03*
Y199803D02*
D03*
Y183268D02*
D03*
Y178150D02*
D03*
Y161614D02*
D03*
Y156496D02*
D03*
Y139961D02*
D03*
Y134843D02*
D03*
Y118307D02*
D03*
Y113189D02*
D03*
Y96653D02*
D03*
Y91535D02*
D03*
Y53347D02*
D03*
Y48228D02*
D03*
Y31693D02*
D03*
Y26575D02*
D03*
D26*
X247146Y260827D02*
D03*
X235138D02*
D03*
D28*
X257087Y154331D02*
D03*
X263779D02*
D03*
X277165Y195866D02*
D03*
X283858D02*
D03*
D42*
X117717Y357087D02*
D03*
Y349606D02*
D03*
X108268Y353346D02*
D03*
X117717Y335236D02*
D03*
Y327756D02*
D03*
X108268Y331496D02*
D03*
X117717Y313779D02*
D03*
Y306299D02*
D03*
X108268Y310039D02*
D03*
X117717Y292126D02*
D03*
Y284646D02*
D03*
X108268Y288386D02*
D03*
X117717Y270473D02*
D03*
Y262992D02*
D03*
X108268Y266732D02*
D03*
X117717Y248819D02*
D03*
Y241339D02*
D03*
X108268Y245079D02*
D03*
X117717Y227165D02*
D03*
Y219685D02*
D03*
X108268Y223425D02*
D03*
X117717Y205512D02*
D03*
Y198031D02*
D03*
X108268Y201772D02*
D03*
X117717Y183858D02*
D03*
Y176378D02*
D03*
X108268Y180118D02*
D03*
X117717Y162205D02*
D03*
Y154724D02*
D03*
X108268Y158465D02*
D03*
X117717Y140551D02*
D03*
Y133071D02*
D03*
X108268Y136811D02*
D03*
X117717Y118898D02*
D03*
Y111417D02*
D03*
X108268Y115157D02*
D03*
X117717Y97244D02*
D03*
Y89764D02*
D03*
X108268Y93504D02*
D03*
X117717Y75590D02*
D03*
Y68110D02*
D03*
X108268Y71850D02*
D03*
X117717Y53937D02*
D03*
Y46457D02*
D03*
X108268Y50197D02*
D03*
X117717Y31299D02*
D03*
Y23819D02*
D03*
X108268Y27559D02*
D03*
D43*
X343701Y153445D02*
D03*
Y156791D02*
D03*
M02*
