G04 Layer_Color=16711935*
%FSLAX25Y25*%
%MOIN*%
G70*
G01*
G75*
%ADD51R,0.04737X0.04737*%
%ADD54R,0.03950X0.04540*%
%ADD61R,0.06509X0.05721*%
%ADD62R,0.04540X0.03950*%
%ADD66R,0.05328X0.11430*%
%ADD68R,0.05721X0.06509*%
%ADD70C,0.06706*%
%ADD71C,0.24422*%
%ADD72C,0.14579*%
%ADD73C,0.03162*%
%ADD74C,0.03950*%
%ADD75C,0.04343*%
%ADD76C,0.02768*%
%ADD77R,0.04737X0.03162*%
%ADD78R,0.02965X0.03162*%
D51*
X263386Y162598D02*
D03*
X258661D02*
D03*
X239567Y272638D02*
D03*
X234842D02*
D03*
D54*
X139173Y357283D02*
D03*
X144291D02*
D03*
X139173Y335630D02*
D03*
X144291D02*
D03*
X139173Y313976D02*
D03*
X144291D02*
D03*
X139173Y292323D02*
D03*
X144291D02*
D03*
X139173Y270669D02*
D03*
X144291D02*
D03*
X139173Y249016D02*
D03*
X144291D02*
D03*
X139173Y227362D02*
D03*
X144291D02*
D03*
X139173Y205709D02*
D03*
X144291D02*
D03*
X139173Y184055D02*
D03*
X144291D02*
D03*
X139173Y162402D02*
D03*
X144291D02*
D03*
X139173Y140748D02*
D03*
X144291D02*
D03*
X139173Y119095D02*
D03*
X144291D02*
D03*
X139173Y97441D02*
D03*
X144291D02*
D03*
X139173Y75787D02*
D03*
X144291D02*
D03*
X139173Y54134D02*
D03*
X144291D02*
D03*
X139173Y32480D02*
D03*
X144291D02*
D03*
X139173Y349409D02*
D03*
X144291D02*
D03*
X139173Y327756D02*
D03*
X144291D02*
D03*
X139173Y306102D02*
D03*
X144291D02*
D03*
X139173Y284449D02*
D03*
X144291D02*
D03*
X139173Y262795D02*
D03*
X144291D02*
D03*
X139173Y241142D02*
D03*
X144291D02*
D03*
X139173Y219488D02*
D03*
X144291D02*
D03*
X139173Y197835D02*
D03*
X144291D02*
D03*
X139173Y176181D02*
D03*
X144291D02*
D03*
X139173Y154528D02*
D03*
X144291D02*
D03*
X139173Y132874D02*
D03*
X144291D02*
D03*
X139173Y111221D02*
D03*
X144291D02*
D03*
X139173Y89567D02*
D03*
X144291D02*
D03*
X139173Y67913D02*
D03*
X144291D02*
D03*
X139173Y46260D02*
D03*
X144291D02*
D03*
X139173Y24606D02*
D03*
X144291D02*
D03*
X249409Y114173D02*
D03*
X254528D02*
D03*
X359941Y165551D02*
D03*
X365059D02*
D03*
X359941Y157579D02*
D03*
X365059D02*
D03*
X334416Y236221D02*
D03*
X329298D02*
D03*
X334416Y247638D02*
D03*
X329298D02*
D03*
X334416Y259449D02*
D03*
X329298D02*
D03*
X334449Y270866D02*
D03*
X329331D02*
D03*
X334416Y283465D02*
D03*
X329298D02*
D03*
X334449Y295276D02*
D03*
X329331D02*
D03*
X334416Y306693D02*
D03*
X329298D02*
D03*
X334416Y318898D02*
D03*
X329298D02*
D03*
D61*
X218504Y255512D02*
D03*
Y262205D02*
D03*
Y235236D02*
D03*
Y241929D02*
D03*
D62*
X127953Y75000D02*
D03*
Y69882D02*
D03*
X127953Y335827D02*
D03*
Y330709D02*
D03*
X127953Y356496D02*
D03*
Y351378D02*
D03*
Y313189D02*
D03*
Y308071D02*
D03*
Y291535D02*
D03*
Y286417D02*
D03*
X127953Y269882D02*
D03*
Y264764D02*
D03*
Y248228D02*
D03*
Y243110D02*
D03*
Y226575D02*
D03*
Y221457D02*
D03*
X127953Y204921D02*
D03*
Y199803D02*
D03*
Y183268D02*
D03*
Y178150D02*
D03*
Y161614D02*
D03*
Y156496D02*
D03*
Y139961D02*
D03*
Y134843D02*
D03*
Y118307D02*
D03*
Y113189D02*
D03*
Y96653D02*
D03*
Y91535D02*
D03*
Y53347D02*
D03*
Y48228D02*
D03*
Y31693D02*
D03*
Y26575D02*
D03*
D66*
X247146Y260827D02*
D03*
X235138D02*
D03*
D68*
X257087Y154331D02*
D03*
X263779D02*
D03*
X277165Y195866D02*
D03*
X283858D02*
D03*
D70*
X49606Y291339D02*
D03*
Y281339D02*
D03*
Y271339D02*
D03*
Y261339D02*
D03*
Y251339D02*
D03*
Y241339D02*
D03*
Y231339D02*
D03*
Y221339D02*
D03*
Y211339D02*
D03*
Y201339D02*
D03*
Y191339D02*
D03*
Y181339D02*
D03*
Y171339D02*
D03*
Y161339D02*
D03*
Y151339D02*
D03*
Y141339D02*
D03*
Y131339D02*
D03*
Y121339D02*
D03*
Y111339D02*
D03*
Y101339D02*
D03*
X346850Y249606D02*
D03*
Y257480D02*
D03*
Y265354D02*
D03*
Y273228D02*
D03*
Y281102D02*
D03*
Y288976D02*
D03*
Y296850D02*
D03*
Y304724D02*
D03*
X355906Y304724D02*
D03*
Y296850D02*
D03*
Y288976D02*
D03*
Y281102D02*
D03*
Y273228D02*
D03*
Y265354D02*
D03*
Y257480D02*
D03*
Y249606D02*
D03*
X277953Y342913D02*
D03*
X288189D02*
D03*
X298031D02*
D03*
X308268D02*
D03*
Y50394D02*
D03*
X298031D02*
D03*
X288189D02*
D03*
X277953D02*
D03*
X343365Y137601D02*
D03*
Y127601D02*
D03*
Y117501D02*
D03*
Y107601D02*
D03*
Y97501D02*
D03*
X343265Y87601D02*
D03*
X11811Y330709D02*
D03*
D71*
X377953Y377953D02*
D03*
Y15748D02*
D03*
X15748D02*
D03*
Y377953D02*
D03*
D72*
X377165Y143701D02*
D03*
X377265Y81501D02*
D03*
D73*
X49606Y73228D02*
D03*
X53937D02*
D03*
X45276D02*
D03*
X149606Y349409D02*
D03*
X149606Y327756D02*
D03*
X149606Y306102D02*
D03*
Y284449D02*
D03*
X149607Y262795D02*
D03*
Y241142D02*
D03*
Y219488D02*
D03*
X149606Y154527D02*
D03*
Y176181D02*
D03*
Y197835D02*
D03*
Y132874D02*
D03*
Y111221D02*
D03*
Y89567D02*
D03*
Y67913D02*
D03*
Y46260D02*
D03*
Y24606D02*
D03*
X323228Y283465D02*
D03*
Y271654D02*
D03*
Y259842D02*
D03*
Y248031D02*
D03*
Y307087D02*
D03*
X133858Y174213D02*
D03*
X127953Y190945D02*
D03*
X133858Y152559D02*
D03*
X127953Y169291D02*
D03*
X133858Y130905D02*
D03*
X127953Y147638D02*
D03*
X133858Y109252D02*
D03*
X127953Y125984D02*
D03*
X133858Y87598D02*
D03*
X127953Y104331D02*
D03*
X133858Y65945D02*
D03*
X127953Y82677D02*
D03*
X133858Y44291D02*
D03*
X127953Y61024D02*
D03*
X133858Y22638D02*
D03*
X127953Y39370D02*
D03*
X133858Y195866D02*
D03*
X127953Y212598D02*
D03*
X133859Y217520D02*
D03*
X127953Y234252D02*
D03*
X133859Y239173D02*
D03*
X127953Y255906D02*
D03*
X133859Y260827D02*
D03*
X127953Y277559D02*
D03*
X133858Y282480D02*
D03*
X127953Y299213D02*
D03*
X133858Y304134D02*
D03*
X127953Y320866D02*
D03*
X133858Y325787D02*
D03*
X127953Y343307D02*
D03*
X133858Y347441D02*
D03*
X102362Y50197D02*
D03*
Y71850D02*
D03*
Y93504D02*
D03*
Y115157D02*
D03*
Y353346D02*
D03*
Y331496D02*
D03*
Y310039D02*
D03*
Y288386D02*
D03*
Y266732D02*
D03*
Y245079D02*
D03*
Y223425D02*
D03*
Y201772D02*
D03*
Y180118D02*
D03*
Y158465D02*
D03*
Y136811D02*
D03*
X323228Y295276D02*
D03*
Y236221D02*
D03*
Y318898D02*
D03*
X102362Y27559D02*
D03*
X117717Y18898D02*
D03*
D74*
X190945Y366535D02*
D03*
X23622Y346063D02*
D03*
X251969Y368504D02*
D03*
X23720Y319193D02*
D03*
D75*
X327953Y214961D02*
D03*
X318504Y224410D02*
D03*
X24409Y64567D02*
D03*
X17717D02*
D03*
X17323Y52362D02*
D03*
X214567Y108268D02*
D03*
X238189D02*
D03*
X232283D02*
D03*
X226378D02*
D03*
X220579D02*
D03*
D76*
X238189Y147638D02*
D03*
X221654Y143701D02*
D03*
X216142D02*
D03*
X205118D02*
D03*
X210630D02*
D03*
X187008Y146457D02*
D03*
X187008Y154331D02*
D03*
X187008Y162205D02*
D03*
Y178347D02*
D03*
Y183465D02*
D03*
X187008Y190945D02*
D03*
X192126Y209842D02*
D03*
X197244D02*
D03*
X221654Y224213D02*
D03*
X226772Y224410D02*
D03*
X230433Y224291D02*
D03*
X263779Y198819D02*
D03*
Y202756D02*
D03*
Y206693D02*
D03*
Y179134D02*
D03*
X250000Y147638D02*
D03*
X246063D02*
D03*
X242126Y224410D02*
D03*
X253937D02*
D03*
X257874D02*
D03*
X246063D02*
D03*
X250000D02*
D03*
X261811D02*
D03*
X238189D02*
D03*
X234252D02*
D03*
X202756D02*
D03*
X263779Y175197D02*
D03*
X207874Y224311D02*
D03*
X218209D02*
D03*
X242126Y147638D02*
D03*
X153543Y340551D02*
D03*
Y318898D02*
D03*
Y297244D02*
D03*
Y275590D02*
D03*
Y253937D02*
D03*
Y232283D02*
D03*
Y210630D02*
D03*
Y188976D02*
D03*
Y167323D02*
D03*
Y145669D02*
D03*
Y124016D02*
D03*
Y102362D02*
D03*
Y80709D02*
D03*
Y59055D02*
D03*
Y37402D02*
D03*
X275197Y175197D02*
D03*
X287073D02*
D03*
X298950D02*
D03*
X310827D02*
D03*
X287073Y212598D02*
D03*
X298950Y212598D02*
D03*
X214961Y224213D02*
D03*
X153543Y362205D02*
D03*
X224410Y133858D02*
D03*
X248819Y130905D02*
D03*
X244882Y119685D02*
D03*
X187008Y170866D02*
D03*
X188976Y197245D02*
D03*
X263779Y170472D02*
D03*
X275197Y212598D02*
D03*
X310827Y213386D02*
D03*
X255906Y148031D02*
D03*
D77*
X117717Y357087D02*
D03*
Y349606D02*
D03*
X108268Y353346D02*
D03*
X117717Y335236D02*
D03*
Y327756D02*
D03*
X108268Y331496D02*
D03*
X117717Y313779D02*
D03*
Y306299D02*
D03*
X108268Y310039D02*
D03*
X117717Y292126D02*
D03*
Y284646D02*
D03*
X108268Y288386D02*
D03*
X117717Y270473D02*
D03*
Y262992D02*
D03*
X108268Y266732D02*
D03*
X117717Y248819D02*
D03*
Y241339D02*
D03*
X108268Y245079D02*
D03*
X117717Y227165D02*
D03*
Y219685D02*
D03*
X108268Y223425D02*
D03*
X117717Y205512D02*
D03*
Y198031D02*
D03*
X108268Y201772D02*
D03*
X117717Y183858D02*
D03*
Y176378D02*
D03*
X108268Y180118D02*
D03*
X117717Y162205D02*
D03*
Y154724D02*
D03*
X108268Y158465D02*
D03*
X117717Y140551D02*
D03*
Y133071D02*
D03*
X108268Y136811D02*
D03*
X117717Y118898D02*
D03*
Y111417D02*
D03*
X108268Y115157D02*
D03*
X117717Y97244D02*
D03*
Y89764D02*
D03*
X108268Y93504D02*
D03*
X117717Y75590D02*
D03*
Y68110D02*
D03*
X108268Y71850D02*
D03*
X117717Y53937D02*
D03*
Y46457D02*
D03*
X108268Y50197D02*
D03*
X117717Y31299D02*
D03*
Y23819D02*
D03*
X108268Y27559D02*
D03*
D78*
X343701Y153445D02*
D03*
Y156791D02*
D03*
M02*
