G04*
G04 #@! TF.GenerationSoftware,Altium Limited,Altium Designer,18.1.11 (251)*
G04*
G04 Layer_Color=128*
%FSLAX25Y25*%
%MOIN*%
G70*
G01*
G75*
%ADD20R,0.03740X0.03150*%
%ADD22R,0.03150X0.03740*%
%ADD23R,0.05709X0.04921*%
%ADD31R,0.03937X0.03937*%
%ADD32R,0.04528X0.10630*%
%ADD37R,0.04921X0.05709*%
%ADD85O,0.05709X0.01772*%
%ADD86R,0.04528X0.06890*%
%ADD87R,0.03937X0.02362*%
D20*
X261519Y106496D02*
D03*
Y111614D02*
D03*
X347638Y189370D02*
D03*
Y184252D02*
D03*
X301575Y191535D02*
D03*
Y196653D02*
D03*
X309728Y191520D02*
D03*
Y196638D02*
D03*
X127953Y26575D02*
D03*
Y31693D02*
D03*
Y48228D02*
D03*
Y53347D02*
D03*
Y91535D02*
D03*
Y96653D02*
D03*
Y113189D02*
D03*
Y118307D02*
D03*
Y134843D02*
D03*
Y139961D02*
D03*
Y156496D02*
D03*
Y161614D02*
D03*
Y178150D02*
D03*
Y183268D02*
D03*
Y199803D02*
D03*
Y204921D02*
D03*
X127953Y221457D02*
D03*
Y226575D02*
D03*
Y243110D02*
D03*
Y248228D02*
D03*
Y264764D02*
D03*
Y269882D02*
D03*
X127953Y286417D02*
D03*
Y291535D02*
D03*
Y308071D02*
D03*
Y313189D02*
D03*
Y351378D02*
D03*
Y356496D02*
D03*
X127953Y330709D02*
D03*
Y335827D02*
D03*
X127953Y69882D02*
D03*
Y75000D02*
D03*
X240945Y152559D02*
D03*
Y157677D02*
D03*
D22*
X247047Y175330D02*
D03*
X252165D02*
D03*
X329298Y236221D02*
D03*
X334416D02*
D03*
X329298Y248031D02*
D03*
X334416D02*
D03*
X329298Y259842D02*
D03*
X334416D02*
D03*
X329331Y271654D02*
D03*
X334449D02*
D03*
X329298Y283465D02*
D03*
X334416D02*
D03*
X329331Y295276D02*
D03*
X334449D02*
D03*
X329298Y307087D02*
D03*
X334416D02*
D03*
X329298Y318898D02*
D03*
X334416D02*
D03*
X239317Y175197D02*
D03*
X234199D02*
D03*
X246877Y152756D02*
D03*
X251995D02*
D03*
X144291Y24606D02*
D03*
X139173D02*
D03*
X144291Y46260D02*
D03*
X139173D02*
D03*
X144291Y67913D02*
D03*
X139173D02*
D03*
X144291Y89567D02*
D03*
X139173D02*
D03*
X144291Y111221D02*
D03*
X139173D02*
D03*
X144291Y132874D02*
D03*
X139173D02*
D03*
X144291Y154528D02*
D03*
X139173D02*
D03*
X144291Y176181D02*
D03*
X139173D02*
D03*
X144291Y197835D02*
D03*
X139173D02*
D03*
X144291Y219488D02*
D03*
X139173D02*
D03*
X144291Y241142D02*
D03*
X139173D02*
D03*
X144291Y262795D02*
D03*
X139173D02*
D03*
X144291Y284449D02*
D03*
X139173D02*
D03*
X144291Y306102D02*
D03*
X139173D02*
D03*
X144291Y327756D02*
D03*
X139173D02*
D03*
X144291Y349409D02*
D03*
X139173D02*
D03*
X144291Y32480D02*
D03*
X139173D02*
D03*
X144291Y54134D02*
D03*
X139173D02*
D03*
X144291Y75787D02*
D03*
X139173D02*
D03*
X144291Y97441D02*
D03*
X139173D02*
D03*
X144291Y119095D02*
D03*
X139173D02*
D03*
X144291Y140748D02*
D03*
X139173D02*
D03*
X144291Y162402D02*
D03*
X139173D02*
D03*
X144291Y184055D02*
D03*
X139173D02*
D03*
X144291Y205709D02*
D03*
X139173D02*
D03*
X144291Y227362D02*
D03*
X139173D02*
D03*
X144291Y249016D02*
D03*
X139173D02*
D03*
X144291Y270669D02*
D03*
X139173D02*
D03*
X144291Y292323D02*
D03*
X139173D02*
D03*
X144291Y313976D02*
D03*
X139173D02*
D03*
X144291Y335630D02*
D03*
X139173D02*
D03*
X144291Y357283D02*
D03*
X139173D02*
D03*
D23*
X218504Y241929D02*
D03*
Y235236D02*
D03*
D31*
X256693Y168701D02*
D03*
X251969D02*
D03*
X234842Y272638D02*
D03*
X239567D02*
D03*
D32*
X235138Y260827D02*
D03*
X247146D02*
D03*
D37*
X252559Y160711D02*
D03*
X259252D02*
D03*
X277756Y191339D02*
D03*
X271063D02*
D03*
D85*
X282562Y107785D02*
D03*
Y110285D02*
D03*
Y112785D02*
D03*
Y115285D02*
D03*
Y117785D02*
D03*
Y120285D02*
D03*
Y122785D02*
D03*
Y125285D02*
D03*
X304018Y107785D02*
D03*
Y110285D02*
D03*
Y112785D02*
D03*
Y115285D02*
D03*
Y117785D02*
D03*
Y120285D02*
D03*
Y122785D02*
D03*
Y125285D02*
D03*
D86*
X359449Y209449D02*
D03*
X348228D02*
D03*
X370729Y220866D02*
D03*
X359509D02*
D03*
D87*
X357677Y196653D02*
D03*
Y189173D02*
D03*
X368307D02*
D03*
Y192913D02*
D03*
Y196653D02*
D03*
X108268Y27559D02*
D03*
X117717Y23819D02*
D03*
Y31299D02*
D03*
X108268Y50197D02*
D03*
X117717Y46457D02*
D03*
Y53937D02*
D03*
X108268Y71850D02*
D03*
X117717Y68110D02*
D03*
Y75590D02*
D03*
X108268Y93504D02*
D03*
X117717Y89764D02*
D03*
Y97244D02*
D03*
X108268Y115157D02*
D03*
X117717Y111417D02*
D03*
Y118898D02*
D03*
X108268Y136811D02*
D03*
X117717Y133071D02*
D03*
Y140551D02*
D03*
X108268Y158465D02*
D03*
X117717Y154724D02*
D03*
Y162205D02*
D03*
X108268Y180118D02*
D03*
X117717Y176378D02*
D03*
Y183858D02*
D03*
X108268Y201772D02*
D03*
X117717Y198031D02*
D03*
Y205512D02*
D03*
X108268Y223425D02*
D03*
X117717Y219685D02*
D03*
Y227165D02*
D03*
X108268Y245079D02*
D03*
X117717Y241339D02*
D03*
Y248819D02*
D03*
X108268Y266732D02*
D03*
X117717Y262992D02*
D03*
Y270473D02*
D03*
X108268Y288386D02*
D03*
X117717Y284646D02*
D03*
Y292126D02*
D03*
X108268Y310039D02*
D03*
X117717Y306299D02*
D03*
Y313779D02*
D03*
X108268Y331496D02*
D03*
X117717Y327756D02*
D03*
Y335236D02*
D03*
X108268Y353346D02*
D03*
X117717Y349606D02*
D03*
Y357087D02*
D03*
M02*
