G04 Layer_Color=32768*
%FSLAX25Y25*%
%MOIN*%
G70*
G01*
G75*
%ADD49C,0.00394*%
%ADD88C,0.00197*%
D49*
X241732Y71850D02*
X244882D01*
X243307Y70276D02*
Y73425D01*
X248031Y71850D02*
X251181D01*
X249606Y70276D02*
Y73425D01*
X247736Y85630D02*
X251476D01*
X249606Y83760D02*
Y87500D01*
X241437Y85630D02*
X245177D01*
X243307Y83760D02*
Y87500D01*
X357874Y52461D02*
Y56201D01*
X356004Y54331D02*
X359744D01*
X126083Y72441D02*
X129823D01*
X127953Y70571D02*
Y74311D01*
X126083Y333268D02*
X129823D01*
X127953Y331398D02*
Y335138D01*
X126083Y353937D02*
X129823D01*
X127953Y352067D02*
Y355807D01*
X126083Y310630D02*
X129823D01*
X127953Y308760D02*
Y312500D01*
X126083Y288976D02*
X129823D01*
X127953Y287106D02*
Y290846D01*
X126083Y267323D02*
X129823D01*
X127953Y265453D02*
Y269193D01*
X126083Y245669D02*
X129823D01*
X127953Y243799D02*
Y247539D01*
X126083Y224016D02*
X129823D01*
X127953Y222146D02*
Y225886D01*
X126083Y202362D02*
X129823D01*
X127953Y200492D02*
Y204232D01*
X126083Y180709D02*
X129823D01*
X127953Y178839D02*
Y182579D01*
X126083Y159055D02*
X129823D01*
X127953Y157185D02*
Y160925D01*
X126083Y137402D02*
X129823D01*
X127953Y135531D02*
Y139272D01*
X126083Y115748D02*
X129823D01*
X127953Y113878D02*
Y117618D01*
X126083Y94095D02*
X129823D01*
X127953Y92224D02*
Y95965D01*
X126083Y50787D02*
X129823D01*
X127953Y48917D02*
Y52658D01*
X126083Y29134D02*
X129823D01*
X127953Y27264D02*
Y31004D01*
X141732Y355413D02*
Y359154D01*
X139862Y357283D02*
X143602D01*
X141732Y333760D02*
Y337500D01*
X139862Y335630D02*
X143602D01*
X141732Y312106D02*
Y315846D01*
X139862Y313976D02*
X143602D01*
X141732Y290453D02*
Y294193D01*
X139862Y292323D02*
X143602D01*
X141732Y268799D02*
Y272539D01*
X139862Y270669D02*
X143602D01*
X141732Y247146D02*
Y250886D01*
X139862Y249016D02*
X143602D01*
X141732Y225492D02*
Y229232D01*
X139862Y227362D02*
X143602D01*
X141732Y203839D02*
Y207579D01*
X139862Y205709D02*
X143602D01*
X141732Y182185D02*
Y185925D01*
X139862Y184055D02*
X143602D01*
X141732Y160531D02*
Y164272D01*
X139862Y162402D02*
X143602D01*
X141732Y138878D02*
Y142618D01*
X139862Y140748D02*
X143602D01*
X141732Y117224D02*
Y120965D01*
X139862Y119095D02*
X143602D01*
X141732Y95571D02*
Y99311D01*
X139862Y97441D02*
X143602D01*
X141732Y73917D02*
Y77658D01*
X139862Y75787D02*
X143602D01*
X141732Y52264D02*
Y56004D01*
X139862Y54134D02*
X143602D01*
X141732Y30610D02*
Y34350D01*
X139862Y32480D02*
X143602D01*
X141732Y347539D02*
Y351279D01*
X139862Y349409D02*
X143602D01*
X141732Y325886D02*
Y329626D01*
X139862Y327756D02*
X143602D01*
X141732Y304232D02*
Y307972D01*
X139862Y306102D02*
X143602D01*
X141732Y282579D02*
Y286319D01*
X139862Y284449D02*
X143602D01*
X141732Y260925D02*
Y264665D01*
X139862Y262795D02*
X143602D01*
X141732Y239272D02*
Y243012D01*
X139862Y241142D02*
X143602D01*
X141732Y217618D02*
Y221358D01*
X139862Y219488D02*
X143602D01*
X141732Y195965D02*
Y199705D01*
X139862Y197835D02*
X143602D01*
X141732Y174311D02*
Y178051D01*
X139862Y176181D02*
X143602D01*
X141732Y152657D02*
Y156398D01*
X139862Y154528D02*
X143602D01*
X141732Y131004D02*
Y134744D01*
X139862Y132874D02*
X143602D01*
X141732Y109350D02*
Y113091D01*
X139862Y111221D02*
X143602D01*
X141732Y87697D02*
Y91437D01*
X139862Y89567D02*
X143602D01*
X141732Y66043D02*
Y69784D01*
X139862Y67913D02*
X143602D01*
X141732Y44390D02*
Y48130D01*
X139862Y46260D02*
X143602D01*
X141732Y22736D02*
Y26476D01*
X139862Y24606D02*
X143602D01*
X111024Y353346D02*
X114961D01*
X112992Y351378D02*
Y355315D01*
X111024Y331496D02*
X114961D01*
X112992Y329528D02*
Y333465D01*
X111024Y310039D02*
X114961D01*
X112992Y308071D02*
Y312008D01*
X111024Y288386D02*
X114961D01*
X112992Y286417D02*
Y290354D01*
X111024Y266732D02*
X114961D01*
X112992Y264764D02*
Y268701D01*
X111024Y245079D02*
X114961D01*
X112992Y243110D02*
Y247047D01*
X111024Y223425D02*
X114961D01*
X112992Y221457D02*
Y225394D01*
X111024Y201772D02*
X114961D01*
X112992Y199803D02*
Y203740D01*
X111024Y180118D02*
X114961D01*
X112992Y178150D02*
Y182087D01*
X111024Y158465D02*
X114961D01*
X112992Y156496D02*
Y160433D01*
X111024Y136811D02*
X114961D01*
X112992Y134843D02*
Y138779D01*
X111024Y115157D02*
X114961D01*
X112992Y113189D02*
Y117126D01*
X111024Y93504D02*
X114961D01*
X112992Y91535D02*
Y95472D01*
X111024Y71850D02*
X114961D01*
X112992Y69882D02*
Y73819D01*
X111024Y50197D02*
X114961D01*
X112992Y48228D02*
Y52165D01*
X111024Y27559D02*
X114961D01*
X112992Y25591D02*
Y29528D01*
X218504Y236614D02*
Y240551D01*
X216535Y238583D02*
X220472D01*
X241142Y258858D02*
Y262795D01*
X239173Y260827D02*
X243110D01*
X237205Y270768D02*
Y274508D01*
X235335Y272638D02*
X239075D01*
X272441Y191339D02*
X276378D01*
X274410Y189370D02*
Y193307D01*
X252756Y159941D02*
Y163681D01*
X250886Y161811D02*
X254626D01*
X249016Y153150D02*
X252953D01*
X250984Y151181D02*
Y155118D01*
X357874Y60728D02*
Y64468D01*
X356004Y62598D02*
X359744D01*
X245768Y113779D02*
X249508D01*
X247638Y111909D02*
Y115650D01*
X329987Y318898D02*
X333727D01*
X331857Y317027D02*
Y320768D01*
X329987Y307087D02*
X333727D01*
X331857Y305217D02*
Y308957D01*
X330020Y295276D02*
X333760D01*
X331890Y293406D02*
Y297146D01*
X329987Y283465D02*
X333727D01*
X331857Y281594D02*
Y285335D01*
X330020Y271654D02*
X333760D01*
X331890Y269783D02*
Y273524D01*
X329987Y259842D02*
X333727D01*
X331857Y257972D02*
Y261713D01*
X329987Y248031D02*
X333727D01*
X331857Y246161D02*
Y249902D01*
X329987Y236221D02*
X333727D01*
X331857Y234350D02*
Y238090D01*
X331201Y120276D02*
X334941D01*
X333071Y118405D02*
Y122146D01*
X307858Y194079D02*
X311598D01*
X309728Y192209D02*
Y195949D01*
X299705Y194095D02*
X303445D01*
X301575Y192224D02*
Y195965D01*
X337795Y159843D02*
X341732D01*
X339764Y157874D02*
Y161811D01*
X322539Y153740D02*
X326279D01*
X324410Y151870D02*
Y155610D01*
X297080Y66142D02*
X301017D01*
X299048Y64173D02*
Y68110D01*
X147638Y380906D02*
X151575D01*
X149606Y378937D02*
Y382874D01*
X98425Y380906D02*
X102362D01*
X100394Y378937D02*
Y382874D01*
X48228Y322835D02*
Y326772D01*
X46260Y324803D02*
X50197D01*
X82874Y353346D02*
X86811D01*
X84843Y351378D02*
Y355315D01*
X82874Y331693D02*
X86811D01*
X84843Y329724D02*
Y333661D01*
X82874Y310039D02*
X86811D01*
X84843Y308071D02*
Y312008D01*
X82874Y288386D02*
X86811D01*
X84843Y286417D02*
Y290354D01*
X82874Y266732D02*
X86811D01*
X84843Y264764D02*
Y268701D01*
X82874Y245079D02*
X86811D01*
X84843Y243110D02*
Y247047D01*
X82874Y223425D02*
X86811D01*
X84843Y221457D02*
Y225394D01*
X82874Y201772D02*
X86811D01*
X84843Y199803D02*
Y203740D01*
X82874Y180118D02*
X86811D01*
X84843Y178150D02*
Y182087D01*
X82874Y158465D02*
X86811D01*
X84843Y156496D02*
Y160433D01*
X82874Y136811D02*
X86811D01*
X84843Y134843D02*
Y138779D01*
X82874Y115157D02*
X86811D01*
X84843Y113189D02*
Y117126D01*
X82874Y93504D02*
X86811D01*
X84843Y91535D02*
Y95472D01*
X82874Y71850D02*
X86811D01*
X84843Y69882D02*
Y73819D01*
X82874Y50197D02*
X86811D01*
X84843Y48228D02*
Y52165D01*
X82874Y28543D02*
X86811D01*
X84843Y26575D02*
Y30512D01*
X129331Y351476D02*
Y355217D01*
X127461Y353346D02*
X131201D01*
X129331Y329823D02*
Y333563D01*
X127461Y331693D02*
X131201D01*
X129331Y308169D02*
Y311909D01*
X127461Y310039D02*
X131201D01*
X129331Y286516D02*
Y290256D01*
X127461Y288386D02*
X131201D01*
X129331Y264862D02*
Y268602D01*
X127461Y266732D02*
X131201D01*
X129331Y243209D02*
Y246949D01*
X127461Y245079D02*
X131201D01*
X129331Y221555D02*
Y225295D01*
X127461Y223425D02*
X131201D01*
X129331Y199902D02*
Y203642D01*
X127461Y201772D02*
X131201D01*
X129331Y178248D02*
Y181988D01*
X127461Y180118D02*
X131201D01*
X129331Y156595D02*
Y160335D01*
X127461Y158465D02*
X131201D01*
X129331Y134941D02*
Y138681D01*
X127461Y136811D02*
X131201D01*
X129331Y113287D02*
Y117028D01*
X127461Y115157D02*
X131201D01*
X129331Y91634D02*
Y95374D01*
X127461Y93504D02*
X131201D01*
X129331Y69980D02*
Y73721D01*
X127461Y71850D02*
X131201D01*
X129331Y48327D02*
Y52067D01*
X127461Y50197D02*
X131201D01*
X129331Y26673D02*
Y30413D01*
X127461Y28543D02*
X131201D01*
X175197Y353346D02*
X179134D01*
X177165Y351378D02*
Y355315D01*
X177165Y329724D02*
Y333661D01*
X175197Y331693D02*
X179134D01*
X175197Y310039D02*
X179134D01*
X177165Y308071D02*
Y312008D01*
Y286417D02*
Y290354D01*
X175197Y288386D02*
X179134D01*
X175197Y266732D02*
X179134D01*
X177166Y264764D02*
Y268701D01*
Y243110D02*
Y247047D01*
X175197Y245079D02*
X179134D01*
X175197Y223425D02*
X179134D01*
X177166Y221457D02*
Y225394D01*
X177165Y199803D02*
Y203740D01*
X175197Y201772D02*
X179134D01*
X175197Y180118D02*
X179134D01*
X177165Y178150D02*
Y182087D01*
Y156496D02*
Y160433D01*
X175197Y158465D02*
X179134D01*
X175197Y136811D02*
X179134D01*
X177165Y134843D02*
Y138779D01*
Y113189D02*
Y117126D01*
X175197Y115157D02*
X179134D01*
X175197Y93504D02*
X179134D01*
X177165Y91535D02*
Y95472D01*
Y69882D02*
Y73819D01*
X175197Y71850D02*
X179134D01*
X175197Y50197D02*
X179134D01*
X177165Y48228D02*
Y52165D01*
Y26575D02*
Y30512D01*
X175197Y28543D02*
X179134D01*
X161909Y351378D02*
Y355315D01*
X159941Y353346D02*
X163878D01*
X161909Y329724D02*
Y333661D01*
X159941Y331693D02*
X163878D01*
X161909Y308071D02*
Y312008D01*
X159941Y310039D02*
X163878D01*
X161909Y286417D02*
Y290354D01*
X159941Y288386D02*
X163878D01*
X161909Y264764D02*
Y268701D01*
X159941Y266732D02*
X163878D01*
X161909Y243110D02*
Y247047D01*
X159941Y245079D02*
X163878D01*
X161909Y221457D02*
Y225394D01*
X159941Y223425D02*
X163878D01*
X161909Y199803D02*
Y203740D01*
X159941Y201772D02*
X163878D01*
X161909Y178150D02*
Y182087D01*
X159941Y180118D02*
X163878D01*
X161909Y156496D02*
Y160433D01*
X159941Y158465D02*
X163878D01*
X161909Y134843D02*
Y138779D01*
X159941Y136811D02*
X163878D01*
X161909Y113189D02*
Y117126D01*
X159941Y115157D02*
X163878D01*
X161909Y91535D02*
Y95472D01*
X159941Y93504D02*
X163878D01*
X161909Y69882D02*
Y73819D01*
X159941Y71850D02*
X163878D01*
X161909Y48228D02*
Y52165D01*
X159941Y50197D02*
X163878D01*
X161909Y26575D02*
Y30512D01*
X159941Y28543D02*
X163878D01*
X309055Y66142D02*
X312992D01*
X311024Y64173D02*
Y68110D01*
X298753Y138681D02*
Y142618D01*
X296785Y140650D02*
X300722D01*
X279784Y277362D02*
X283720D01*
X281752Y275394D02*
Y279331D01*
X279823Y304331D02*
X283760D01*
X281791Y302362D02*
Y306299D01*
X303287Y277362D02*
X307224D01*
X305256Y275394D02*
Y279331D01*
X303445Y304331D02*
X307382D01*
X305413Y302362D02*
Y306299D01*
X305118Y114272D02*
Y118209D01*
X303150Y116240D02*
X307087D01*
X303051Y90256D02*
X306988D01*
X305020Y88287D02*
Y92224D01*
X281496Y114272D02*
Y118209D01*
X279528Y116240D02*
X283465D01*
X279429Y90256D02*
X283366D01*
X281398Y88287D02*
Y92224D01*
X227559Y181496D02*
Y185433D01*
X225590Y183465D02*
X229528D01*
X28543Y328740D02*
Y332677D01*
X26575Y330709D02*
X30512D01*
X34843Y63484D02*
Y67224D01*
X32972Y65354D02*
X36713D01*
X236221Y129035D02*
Y132776D01*
X234350Y130905D02*
X238090D01*
X211713Y118110D02*
X215453D01*
X213583Y116240D02*
Y119980D01*
X221457Y117126D02*
Y121063D01*
X219488Y119095D02*
X223425D01*
X285105Y66142D02*
X289042D01*
X287073Y64173D02*
Y68110D01*
X273130Y66142D02*
X277067D01*
X275098Y64173D02*
Y68110D01*
X250000Y348425D02*
X253937D01*
X251969Y346457D02*
Y350394D01*
X231299Y116142D02*
Y120079D01*
X229331Y118110D02*
X233268D01*
X238287Y117126D02*
X242028D01*
X240158Y115256D02*
Y118996D01*
X40354Y359252D02*
X44291D01*
X42323Y357283D02*
Y361221D01*
X42323Y343504D02*
Y347441D01*
X40355Y345472D02*
X44292D01*
X27953Y47638D02*
X31890D01*
X29921Y45669D02*
Y49606D01*
Y55512D02*
Y59449D01*
X27953Y57480D02*
X31890D01*
X273228Y229134D02*
X277165D01*
X275197Y227165D02*
Y231102D01*
X287073Y227165D02*
Y231102D01*
X285105Y229134D02*
X289042D01*
X296982D02*
X300919D01*
X298950Y227165D02*
Y231102D01*
X310827Y227165D02*
Y231102D01*
X308858Y229134D02*
X312795D01*
X308858Y160630D02*
X312795D01*
X310827Y158661D02*
Y162598D01*
X298950Y158661D02*
Y162598D01*
X296982Y160630D02*
X300919D01*
X285105D02*
X289042D01*
X287073Y158661D02*
Y162598D01*
X275197Y158661D02*
Y162598D01*
X273228Y160630D02*
X277165D01*
X112795Y27559D02*
X115945D01*
X114370Y25984D02*
Y29134D01*
X112894Y50197D02*
X116043D01*
X114469Y48622D02*
Y51772D01*
X112894Y71850D02*
X116043D01*
X114469Y70276D02*
Y73425D01*
X112697Y93504D02*
X115847D01*
X114272Y91929D02*
Y95079D01*
X112795Y115157D02*
X115945D01*
X114370Y113583D02*
Y116732D01*
X112795Y136811D02*
X115945D01*
X114370Y135236D02*
Y138386D01*
X112795Y158366D02*
X115945D01*
X114370Y156791D02*
Y159941D01*
X112992Y180118D02*
X116142D01*
X114567Y178543D02*
Y181693D01*
X112795Y201772D02*
X115945D01*
X114370Y200197D02*
Y203346D01*
X112795Y223425D02*
X115945D01*
X114370Y221850D02*
Y225000D01*
X112795Y245079D02*
X115945D01*
X114370Y243504D02*
Y246654D01*
X112795Y266732D02*
X115945D01*
X114370Y265158D02*
Y268307D01*
X112795Y288287D02*
X115945D01*
X114370Y286713D02*
Y289862D01*
X112795Y309941D02*
X115945D01*
X114370Y308366D02*
Y311516D01*
X112795Y331496D02*
X115945D01*
X114370Y329921D02*
Y333071D01*
X112795Y353346D02*
X115945D01*
X114370Y351772D02*
Y354921D01*
X226378Y364764D02*
X230315D01*
X228346Y362795D02*
Y366732D01*
X37008Y74902D02*
Y78642D01*
X35138Y76772D02*
X38878D01*
X275197Y249262D02*
Y253199D01*
X273228Y251230D02*
X277165D01*
X287402Y249213D02*
Y253150D01*
X285433Y251181D02*
X289370D01*
X298950Y249311D02*
Y253248D01*
X296982Y251279D02*
X300919D01*
X311024Y249311D02*
Y253248D01*
X309055Y251279D02*
X312992D01*
X310630Y138681D02*
Y142618D01*
X308661Y140650D02*
X312598D01*
X286877Y138681D02*
Y142618D01*
X284908Y140650D02*
X288845D01*
X275000Y138681D02*
Y142618D01*
X273031Y140650D02*
X276969D01*
X249213Y135531D02*
Y139272D01*
X247342Y137402D02*
X251083D01*
X309842Y327953D02*
X313779D01*
X311811Y325984D02*
Y329921D01*
X272835Y327854D02*
X276772D01*
X274803Y325886D02*
Y329823D01*
X285039Y327854D02*
X288976D01*
X287008Y325886D02*
Y329823D01*
X298031Y327854D02*
X301969D01*
X300000Y325886D02*
Y329823D01*
X199803Y372638D02*
X203740D01*
X201772Y370669D02*
Y374606D01*
X243898Y321752D02*
Y325492D01*
X242028Y323622D02*
X245768D01*
X244291Y316929D02*
Y320079D01*
X242717Y318504D02*
X245866D01*
X351772Y57972D02*
Y61713D01*
X349902Y59842D02*
X353642D01*
X352165Y52362D02*
Y55512D01*
X350590Y53937D02*
X353740D01*
X368898Y166240D02*
Y170177D01*
X366929Y168209D02*
X370866D01*
X328642Y176378D02*
X332579D01*
X330610Y174409D02*
Y178347D01*
X56791Y271339D02*
X58957D01*
X57874Y270256D02*
Y272421D01*
X56791Y261339D02*
X58957D01*
X57874Y260256D02*
Y262421D01*
X56791Y251339D02*
X58957D01*
X57874Y250256D02*
Y252421D01*
X56791Y241339D02*
X58957D01*
X57874Y240256D02*
Y242421D01*
X56791Y231339D02*
X58957D01*
X57874Y230256D02*
Y232421D01*
X56791Y221339D02*
X58957D01*
X57874Y220256D02*
Y222421D01*
X56791Y211339D02*
X58957D01*
X57874Y210256D02*
Y212421D01*
X56791Y201339D02*
X58957D01*
X57874Y200256D02*
Y202421D01*
X56791Y191339D02*
X58957D01*
X57874Y190256D02*
Y192421D01*
X56791Y181339D02*
X58957D01*
X57874Y180256D02*
Y182421D01*
X56791Y171339D02*
X58957D01*
X57874Y170256D02*
Y172421D01*
X56791Y161339D02*
X58957D01*
X57874Y160256D02*
Y162421D01*
X56791Y151339D02*
X58957D01*
X57874Y150256D02*
Y152421D01*
X53937Y51673D02*
Y53839D01*
X52854Y52756D02*
X55020D01*
X49606Y51575D02*
Y53740D01*
X48524Y52658D02*
X50689D01*
X56791Y281339D02*
X58957D01*
X57874Y280256D02*
Y282421D01*
D88*
X240551Y66535D02*
Y77165D01*
X246063Y66535D02*
Y77165D01*
X240551Y66535D02*
X246063D01*
X240551Y77165D02*
X246063D01*
X246850Y66535D02*
Y77165D01*
X252362Y66535D02*
Y77165D01*
X246850Y66535D02*
X252362D01*
X246850Y77165D02*
X252362D01*
X246654Y80512D02*
Y90748D01*
X252559Y80512D02*
Y90748D01*
X246654Y80512D02*
X252559D01*
X246654Y90748D02*
X252559D01*
X240354Y80512D02*
Y90748D01*
X246260Y80512D02*
Y90748D01*
X240354Y80512D02*
X246260D01*
X240354Y90748D02*
X246260D01*
X352756Y57284D02*
X362992D01*
X352756Y51378D02*
X362992D01*
Y57284D01*
X352756Y51378D02*
Y57284D01*
X125000Y67323D02*
Y77559D01*
X130905Y67323D02*
Y77559D01*
X125000D02*
X130905D01*
X125000Y67323D02*
X130905D01*
X125000Y328150D02*
Y338386D01*
X130905Y328150D02*
Y338386D01*
X125000D02*
X130905D01*
X125000Y328150D02*
X130905D01*
X125000Y348819D02*
Y359055D01*
X130905Y348819D02*
Y359055D01*
X125000D02*
X130905D01*
X125000Y348819D02*
X130905D01*
X125000Y305512D02*
Y315748D01*
X130905Y305512D02*
Y315748D01*
X125000D02*
X130905D01*
X125000Y305512D02*
X130905D01*
X125000Y283858D02*
Y294094D01*
X130905Y283858D02*
Y294094D01*
X125000D02*
X130905D01*
X125000Y283858D02*
X130905D01*
X125000Y262205D02*
Y272441D01*
X130906Y262205D02*
Y272441D01*
X125000D02*
X130906D01*
X125000Y262205D02*
X130906D01*
X125000Y240551D02*
Y250787D01*
X130906Y240551D02*
Y250787D01*
X125000D02*
X130906D01*
X125000Y240551D02*
X130906D01*
X125000Y218898D02*
Y229134D01*
X130906Y218898D02*
Y229134D01*
X125000D02*
X130906D01*
X125000Y218898D02*
X130906D01*
X125000Y197244D02*
Y207480D01*
X130905Y197244D02*
Y207480D01*
X125000D02*
X130905D01*
X125000Y197244D02*
X130905D01*
X125000Y175591D02*
Y185827D01*
X130905Y175591D02*
Y185827D01*
X125000D02*
X130905D01*
X125000Y175591D02*
X130905D01*
X125000Y153937D02*
Y164173D01*
X130905Y153937D02*
Y164173D01*
X125000D02*
X130905D01*
X125000Y153937D02*
X130905D01*
X125000Y132283D02*
Y142520D01*
X130905Y132283D02*
Y142520D01*
X125000D02*
X130905D01*
X125000Y132283D02*
X130905D01*
X125000Y110630D02*
Y120866D01*
X130905Y110630D02*
Y120866D01*
X125000D02*
X130905D01*
X125000Y110630D02*
X130905D01*
X125000Y88976D02*
Y99213D01*
X130905Y88976D02*
Y99213D01*
X125000D02*
X130905D01*
X125000Y88976D02*
X130905D01*
X125000Y45669D02*
Y55905D01*
X130905Y45669D02*
Y55905D01*
X125000D02*
X130905D01*
X125000Y45669D02*
X130905D01*
X125000Y24016D02*
Y34252D01*
X130905Y24016D02*
Y34252D01*
X125000D02*
X130905D01*
X125000Y24016D02*
X130905D01*
X136614Y354331D02*
X146850D01*
X136614Y360236D02*
X146850D01*
X136614Y354331D02*
Y360236D01*
X146850Y354331D02*
Y360236D01*
X136614Y332677D02*
X146850D01*
X136614Y338583D02*
X146850D01*
X136614Y332677D02*
Y338583D01*
X146850Y332677D02*
Y338583D01*
X136614Y311024D02*
X146850D01*
X136614Y316929D02*
X146850D01*
X136614Y311024D02*
Y316929D01*
X146850Y311024D02*
Y316929D01*
X136614Y289370D02*
X146850D01*
X136614Y295276D02*
X146850D01*
X136614Y289370D02*
Y295276D01*
X146850Y289370D02*
Y295276D01*
X136614Y267717D02*
X146850D01*
X136614Y273622D02*
X146850D01*
X136614Y267717D02*
Y273622D01*
X146850Y267717D02*
Y273622D01*
X136614Y246063D02*
X146850D01*
X136614Y251969D02*
X146850D01*
X136614Y246063D02*
Y251969D01*
X146850Y246063D02*
Y251969D01*
X136614Y224410D02*
X146850D01*
X136614Y230315D02*
X146850D01*
X136614Y224410D02*
Y230315D01*
X146850Y224410D02*
Y230315D01*
X136614Y202756D02*
X146850D01*
X136614Y208661D02*
X146850D01*
X136614Y202756D02*
Y208661D01*
X146850Y202756D02*
Y208661D01*
X136614Y181102D02*
X146850D01*
X136614Y187008D02*
X146850D01*
X136614Y181102D02*
Y187008D01*
X146850Y181102D02*
Y187008D01*
X136614Y159449D02*
X146850D01*
X136614Y165354D02*
X146850D01*
X136614Y159449D02*
Y165354D01*
X146850Y159449D02*
Y165354D01*
X136614Y137795D02*
X146850D01*
X136614Y143701D02*
X146850D01*
X136614Y137795D02*
Y143701D01*
X146850Y137795D02*
Y143701D01*
X136614Y116142D02*
X146850D01*
X136614Y122047D02*
X146850D01*
X136614Y116142D02*
Y122047D01*
X146850Y116142D02*
Y122047D01*
X136614Y94488D02*
X146850D01*
X136614Y100394D02*
X146850D01*
X136614Y94488D02*
Y100394D01*
X146850Y94488D02*
Y100394D01*
X136614Y72835D02*
X146850D01*
X136614Y78740D02*
X146850D01*
X136614Y72835D02*
Y78740D01*
X146850Y72835D02*
Y78740D01*
X136614Y51181D02*
X146850D01*
X136614Y57087D02*
X146850D01*
X136614Y51181D02*
Y57087D01*
X146850Y51181D02*
Y57087D01*
X136614Y29528D02*
X146850D01*
X136614Y35433D02*
X146850D01*
X136614Y29528D02*
Y35433D01*
X146850Y29528D02*
Y35433D01*
X136614Y346457D02*
X146850D01*
X136614Y352362D02*
X146850D01*
X136614Y346457D02*
Y352362D01*
X146850Y346457D02*
Y352362D01*
X136614Y324803D02*
X146850D01*
X136614Y330709D02*
X146850D01*
X136614Y324803D02*
Y330709D01*
X146850Y324803D02*
Y330709D01*
X136614Y303150D02*
X146850D01*
X136614Y309055D02*
X146850D01*
X136614Y303150D02*
Y309055D01*
X146850Y303150D02*
Y309055D01*
X136614Y281496D02*
X146850D01*
X136614Y287402D02*
X146850D01*
X136614Y281496D02*
Y287402D01*
X146850Y281496D02*
Y287402D01*
X136614Y259843D02*
X146850D01*
X136614Y265748D02*
X146850D01*
X136614Y259843D02*
Y265748D01*
X146850Y259843D02*
Y265748D01*
X136614Y238189D02*
X146850D01*
X136614Y244094D02*
X146850D01*
X136614Y238189D02*
Y244094D01*
X146850Y238189D02*
Y244094D01*
X136614Y216535D02*
X146850D01*
X136614Y222441D02*
X146850D01*
X136614Y216535D02*
Y222441D01*
X146850Y216535D02*
Y222441D01*
X136614Y194882D02*
X146850D01*
X136614Y200787D02*
X146850D01*
X136614Y194882D02*
Y200787D01*
X146850Y194882D02*
Y200787D01*
X136614Y173228D02*
X146850D01*
X136614Y179134D02*
X146850D01*
X136614Y173228D02*
Y179134D01*
X146850Y173228D02*
Y179134D01*
X136614Y151575D02*
X146850D01*
X136614Y157480D02*
X146850D01*
X136614Y151575D02*
Y157480D01*
X146850Y151575D02*
Y157480D01*
X136614Y129921D02*
X146850D01*
X136614Y135827D02*
X146850D01*
X136614Y129921D02*
Y135827D01*
X146850Y129921D02*
Y135827D01*
X136614Y108268D02*
X146850D01*
X136614Y114173D02*
X146850D01*
X136614Y108268D02*
Y114173D01*
X146850Y108268D02*
Y114173D01*
X136614Y86614D02*
X146850D01*
X136614Y92520D02*
X146850D01*
X136614Y86614D02*
Y92520D01*
X146850Y86614D02*
Y92520D01*
X136614Y64961D02*
X146850D01*
X136614Y70866D02*
X146850D01*
X136614Y64961D02*
Y70866D01*
X146850Y64961D02*
Y70866D01*
X136614Y43307D02*
X146850D01*
X136614Y49213D02*
X146850D01*
X136614Y43307D02*
Y49213D01*
X146850Y43307D02*
Y49213D01*
X136614Y21654D02*
X146850D01*
X136614Y27559D02*
X146850D01*
X136614Y21654D02*
Y27559D01*
X146850Y21654D02*
Y27559D01*
X120571Y346457D02*
Y360236D01*
X105413Y346457D02*
Y360236D01*
X120571D01*
X105413Y346457D02*
X120571D01*
Y324606D02*
Y338386D01*
X105413Y324606D02*
Y338386D01*
X120571D01*
X105413Y324606D02*
X120571D01*
Y303150D02*
Y316929D01*
X105413Y303150D02*
Y316929D01*
X120571D01*
X105413Y303150D02*
X120571D01*
Y281496D02*
Y295276D01*
X105413Y281496D02*
Y295276D01*
X120571D01*
X105413Y281496D02*
X120571D01*
Y259842D02*
Y273622D01*
X105413Y259842D02*
Y273622D01*
X120571D01*
X105413Y259842D02*
X120571D01*
Y238189D02*
Y251969D01*
X105413Y238189D02*
Y251969D01*
X120571D01*
X105413Y238189D02*
X120571D01*
Y216535D02*
Y230315D01*
X105413Y216535D02*
Y230315D01*
X120571D01*
X105413Y216535D02*
X120571D01*
Y194882D02*
Y208661D01*
X105413Y194882D02*
Y208661D01*
X120571D01*
X105413Y194882D02*
X120571D01*
Y173228D02*
Y187008D01*
X105413Y173228D02*
Y187008D01*
X120571D01*
X105413Y173228D02*
X120571D01*
Y151575D02*
Y165354D01*
X105413Y151575D02*
Y165354D01*
X120571D01*
X105413Y151575D02*
X120571D01*
Y129921D02*
Y143701D01*
X105413Y129921D02*
Y143701D01*
X120571D01*
X105413Y129921D02*
X120571D01*
Y108268D02*
Y122047D01*
X105413Y108268D02*
Y122047D01*
X120571D01*
X105413Y108268D02*
X120571D01*
Y86614D02*
Y100394D01*
X105413Y86614D02*
Y100394D01*
X120571D01*
X105413Y86614D02*
X120571D01*
Y64961D02*
Y78740D01*
X105413Y64961D02*
Y78740D01*
X120571D01*
X105413Y64961D02*
X120571D01*
Y43307D02*
Y57087D01*
X105413Y43307D02*
Y57087D01*
X120571D01*
X105413Y43307D02*
X120571D01*
X120571Y20669D02*
Y34449D01*
X105413Y20669D02*
Y34449D01*
X120571D01*
X105413Y20669D02*
X120571D01*
X214567Y231890D02*
X222441D01*
X214567Y245276D02*
X222441D01*
Y231890D02*
Y245276D01*
X214567Y231890D02*
Y245276D01*
X231890Y267126D02*
X250394D01*
X231890Y254528D02*
X250394D01*
Y267126D01*
X231890Y254528D02*
Y267126D01*
Y275591D02*
X242520D01*
X231890Y269685D02*
X242520D01*
Y275591D01*
X231890Y269685D02*
Y275591D01*
X267717Y187402D02*
Y195276D01*
X281102Y187402D02*
Y195276D01*
X267717Y187402D02*
X281102D01*
X267717Y195276D02*
X281102D01*
X247441Y164764D02*
X258071D01*
X247441Y158858D02*
X258071D01*
Y164764D01*
X247441Y158858D02*
Y164764D01*
X244291Y149213D02*
Y157087D01*
X257677Y149213D02*
Y157087D01*
X244291Y149213D02*
X257677D01*
X244291Y157087D02*
X257677D01*
X352756Y65551D02*
X362992D01*
X352756Y59646D02*
X362992D01*
Y65551D01*
X352756Y59646D02*
Y65551D01*
X242520Y110827D02*
Y116732D01*
X252756Y110827D02*
Y116732D01*
X242520Y110827D02*
X252756D01*
X242520Y116732D02*
X252756D01*
X336975Y315945D02*
Y321850D01*
X326739Y315945D02*
Y321850D01*
X336975D01*
X326739Y315945D02*
X336975D01*
Y304134D02*
Y310039D01*
X326739Y304134D02*
Y310039D01*
X336975D01*
X326739Y304134D02*
X336975D01*
X337008Y292323D02*
Y298228D01*
X326772Y292323D02*
Y298228D01*
X337008D01*
X326772Y292323D02*
X337008D01*
X336975Y280512D02*
Y286417D01*
X326739Y280512D02*
Y286417D01*
X336975D01*
X326739Y280512D02*
X336975D01*
X337008Y268701D02*
Y274606D01*
X326772Y268701D02*
Y274606D01*
X337008D01*
X326772Y268701D02*
X337008D01*
X336975Y256890D02*
Y262795D01*
X326739Y256890D02*
Y262795D01*
X336975D01*
X326739Y256890D02*
X336975D01*
Y245079D02*
Y250984D01*
X326739Y245079D02*
Y250984D01*
X336975D01*
X326739Y245079D02*
X336975D01*
Y233268D02*
Y239173D01*
X326739Y233268D02*
Y239173D01*
X336975D01*
X326739Y233268D02*
X336975D01*
X330118Y115157D02*
Y125394D01*
X336024Y115157D02*
Y125394D01*
X330118D02*
X336024D01*
X330118Y115157D02*
X336024D01*
X306776Y188961D02*
Y199197D01*
X312681Y188961D02*
Y199197D01*
X306776D02*
X312681D01*
X306776Y188961D02*
X312681D01*
X298622Y188976D02*
Y199213D01*
X304528Y188976D02*
Y199213D01*
X298622D02*
X304528D01*
X298622Y188976D02*
X304528D01*
X348031Y152953D02*
Y166732D01*
X331496Y152953D02*
Y166732D01*
X348031D01*
X331496Y152953D02*
X348031D01*
X327362Y148622D02*
Y158858D01*
X321457Y148622D02*
Y158858D01*
Y148622D02*
X327362D01*
X321457Y158858D02*
X327362D01*
X294521Y57087D02*
Y75197D01*
X303576Y57087D02*
Y75197D01*
X294521Y57087D02*
X303576D01*
X294521Y75197D02*
X303576D01*
X134646Y373425D02*
Y388386D01*
X164567Y373425D02*
Y388386D01*
X134646D02*
X164567D01*
X134646Y373425D02*
X164567D01*
X85433D02*
Y388386D01*
X115354Y373425D02*
Y388386D01*
X85433D02*
X115354D01*
X85433Y373425D02*
X115354D01*
X43701Y333661D02*
X52756D01*
X43701Y315945D02*
X52756D01*
Y333661D01*
X43701Y315945D02*
Y333661D01*
X69882Y345866D02*
Y360827D01*
X99803Y345866D02*
Y360827D01*
X69882D02*
X99803D01*
X69882Y345866D02*
X99803D01*
X69882Y324213D02*
Y339173D01*
X99803Y324213D02*
Y339173D01*
X69882D02*
X99803D01*
X69882Y324213D02*
X99803D01*
X69882Y302559D02*
Y317520D01*
X99803Y302559D02*
Y317520D01*
X69882D02*
X99803D01*
X69882Y302559D02*
X99803D01*
X69882Y280906D02*
Y295866D01*
X99803Y280906D02*
Y295866D01*
X69882D02*
X99803D01*
X69882Y280906D02*
X99803D01*
X69882Y259252D02*
Y274213D01*
X99803Y259252D02*
Y274213D01*
X69882D02*
X99803D01*
X69882Y259252D02*
X99803D01*
X69882Y237598D02*
Y252559D01*
X99803Y237598D02*
Y252559D01*
X69882D02*
X99803D01*
X69882Y237598D02*
X99803D01*
X69882Y215945D02*
Y230906D01*
X99803Y215945D02*
Y230906D01*
X69882D02*
X99803D01*
X69882Y215945D02*
X99803D01*
X69882Y194291D02*
Y209252D01*
X99803Y194291D02*
Y209252D01*
X69882D02*
X99803D01*
X69882Y194291D02*
X99803D01*
X69882Y172638D02*
Y187598D01*
X99803Y172638D02*
Y187598D01*
X69882D02*
X99803D01*
X69882Y172638D02*
X99803D01*
X69882Y150984D02*
Y165945D01*
X99803Y150984D02*
Y165945D01*
X69882D02*
X99803D01*
X69882Y150984D02*
X99803D01*
X69882Y129331D02*
Y144291D01*
X99803Y129331D02*
Y144291D01*
X69882D02*
X99803D01*
X69882Y129331D02*
X99803D01*
X69882Y107677D02*
Y122638D01*
X99803Y107677D02*
Y122638D01*
X69882D02*
X99803D01*
X69882Y107677D02*
X99803D01*
X69882Y86024D02*
Y100984D01*
X99803Y86024D02*
Y100984D01*
X69882D02*
X99803D01*
X69882Y86024D02*
X99803D01*
X69882Y64370D02*
Y79331D01*
X99803Y64370D02*
Y79331D01*
X69882D02*
X99803D01*
X69882Y64370D02*
X99803D01*
X69882Y42717D02*
Y57677D01*
X99803Y42717D02*
Y57677D01*
X69882D02*
X99803D01*
X69882Y42717D02*
X99803D01*
X69882Y21063D02*
Y36024D01*
X99803Y21063D02*
Y36024D01*
X69882D02*
X99803D01*
X69882Y21063D02*
X99803D01*
X124213Y350394D02*
X134449D01*
X124213Y356299D02*
X134449D01*
Y350394D02*
Y356299D01*
X124213Y350394D02*
Y356299D01*
X124213Y328740D02*
X134449D01*
X124213Y334646D02*
X134449D01*
Y328740D02*
Y334646D01*
X124213Y328740D02*
Y334646D01*
X124213Y307087D02*
X134449D01*
X124213Y312992D02*
X134449D01*
Y307087D02*
Y312992D01*
X124213Y307087D02*
Y312992D01*
Y285433D02*
X134449D01*
X124213Y291339D02*
X134449D01*
Y285433D02*
Y291339D01*
X124213Y285433D02*
Y291339D01*
X124213Y263780D02*
X134449D01*
X124213Y269685D02*
X134449D01*
Y263780D02*
Y269685D01*
X124213Y263780D02*
Y269685D01*
Y242126D02*
X134449D01*
X124213Y248031D02*
X134449D01*
Y242126D02*
Y248031D01*
X124213Y242126D02*
Y248031D01*
Y220473D02*
X134449D01*
X124213Y226378D02*
X134449D01*
Y220473D02*
Y226378D01*
X124213Y220473D02*
Y226378D01*
X124213Y198819D02*
X134449D01*
X124213Y204724D02*
X134449D01*
Y198819D02*
Y204724D01*
X124213Y198819D02*
Y204724D01*
Y177165D02*
X134449D01*
X124213Y183071D02*
X134449D01*
Y177165D02*
Y183071D01*
X124213Y177165D02*
Y183071D01*
Y155512D02*
X134449D01*
X124213Y161417D02*
X134449D01*
Y155512D02*
Y161417D01*
X124213Y155512D02*
Y161417D01*
Y133858D02*
X134449D01*
X124213Y139764D02*
X134449D01*
Y133858D02*
Y139764D01*
X124213Y133858D02*
Y139764D01*
Y112205D02*
X134449D01*
X124213Y118110D02*
X134449D01*
Y112205D02*
Y118110D01*
X124213Y112205D02*
Y118110D01*
Y90551D02*
X134449D01*
X124213Y96457D02*
X134449D01*
Y90551D02*
Y96457D01*
X124213Y90551D02*
Y96457D01*
Y68898D02*
X134449D01*
X124213Y74803D02*
X134449D01*
Y68898D02*
Y74803D01*
X124213Y68898D02*
Y74803D01*
Y47244D02*
X134449D01*
X124213Y53150D02*
X134449D01*
Y47244D02*
Y53150D01*
X124213Y47244D02*
Y53150D01*
Y25591D02*
X134449D01*
X124213Y31496D02*
X134449D01*
Y25591D02*
Y31496D01*
X124213Y25591D02*
Y31496D01*
X181102Y344291D02*
Y362402D01*
X173228Y344291D02*
Y362402D01*
X181102D01*
X173228Y344291D02*
X181102D01*
X173228Y322638D02*
X181102D01*
X173228Y340748D02*
X181102D01*
X173228Y322638D02*
Y340748D01*
X181102Y322638D02*
Y340748D01*
X181102Y300984D02*
Y319094D01*
X173228Y300984D02*
Y319094D01*
X181102D01*
X173228Y300984D02*
X181102D01*
X173228Y279331D02*
X181102D01*
X173228Y297441D02*
X181102D01*
X173228Y279331D02*
Y297441D01*
X181102Y279331D02*
Y297441D01*
X181103Y257677D02*
Y275787D01*
X173229Y257677D02*
Y275787D01*
X181103D01*
X173229Y257677D02*
X181103D01*
X173229Y236024D02*
X181103D01*
X173229Y254134D02*
X181103D01*
X173229Y236024D02*
Y254134D01*
X181103Y236024D02*
Y254134D01*
Y214370D02*
Y232480D01*
X173229Y214370D02*
Y232480D01*
X181103D01*
X173229Y214370D02*
X181103D01*
X173228Y192717D02*
X181102D01*
X173228Y210827D02*
X181102D01*
X173228Y192717D02*
Y210827D01*
X181102Y192717D02*
Y210827D01*
Y171063D02*
Y189173D01*
X173228Y171063D02*
Y189173D01*
X181102D01*
X173228Y171063D02*
X181102D01*
X173228Y149409D02*
X181102D01*
X173228Y167520D02*
X181102D01*
X173228Y149409D02*
Y167520D01*
X181102Y149409D02*
Y167520D01*
Y127756D02*
Y145866D01*
X173228Y127756D02*
Y145866D01*
X181102D01*
X173228Y127756D02*
X181102D01*
X173228Y106102D02*
X181102D01*
X173228Y124213D02*
X181102D01*
X173228Y106102D02*
Y124213D01*
X181102Y106102D02*
Y124213D01*
Y84449D02*
Y102559D01*
X173228Y84449D02*
Y102559D01*
X181102D01*
X173228Y84449D02*
X181102D01*
X173228Y62795D02*
X181102D01*
X173228Y80905D02*
X181102D01*
X173228Y62795D02*
Y80905D01*
X181102Y62795D02*
Y80905D01*
Y41142D02*
Y59252D01*
X173228Y41142D02*
Y59252D01*
X181102D01*
X173228Y41142D02*
X181102D01*
X173228Y19488D02*
X181102D01*
X173228Y37598D02*
X181102D01*
X173228Y19488D02*
Y37598D01*
X181102Y19488D02*
Y37598D01*
X155217Y349410D02*
X168602D01*
X155217Y357283D02*
X168602D01*
Y349410D02*
Y357283D01*
X155217Y349410D02*
Y357283D01*
Y327756D02*
X168602D01*
X155217Y335630D02*
X168602D01*
Y327756D02*
Y335630D01*
X155217Y327756D02*
Y335630D01*
Y306102D02*
X168602D01*
X155217Y313976D02*
X168602D01*
Y306102D02*
Y313976D01*
X155217Y306102D02*
Y313976D01*
Y284449D02*
X168602D01*
X155217Y292323D02*
X168602D01*
Y284449D02*
Y292323D01*
X155217Y284449D02*
Y292323D01*
Y262795D02*
X168602D01*
X155217Y270669D02*
X168602D01*
Y262795D02*
Y270669D01*
X155217Y262795D02*
Y270669D01*
Y241142D02*
X168602D01*
X155217Y249016D02*
X168602D01*
Y241142D02*
Y249016D01*
X155217Y241142D02*
Y249016D01*
Y219488D02*
X168602D01*
X155217Y227362D02*
X168602D01*
Y219488D02*
Y227362D01*
X155217Y219488D02*
Y227362D01*
Y197835D02*
X168602D01*
X155217Y205709D02*
X168602D01*
Y197835D02*
Y205709D01*
X155217Y197835D02*
Y205709D01*
Y176181D02*
X168602D01*
X155217Y184055D02*
X168602D01*
Y176181D02*
Y184055D01*
X155217Y176181D02*
Y184055D01*
Y154527D02*
X168602D01*
X155217Y162402D02*
X168602D01*
Y154527D02*
Y162402D01*
X155217Y154527D02*
Y162402D01*
Y132874D02*
X168602D01*
X155217Y140748D02*
X168602D01*
Y132874D02*
Y140748D01*
X155217Y132874D02*
Y140748D01*
Y111221D02*
X168602D01*
X155217Y119095D02*
X168602D01*
Y111221D02*
Y119095D01*
X155217Y111221D02*
Y119095D01*
Y89567D02*
X168602D01*
X155217Y97441D02*
X168602D01*
Y89567D02*
Y97441D01*
X155217Y89567D02*
Y97441D01*
Y67913D02*
X168602D01*
X155217Y75787D02*
X168602D01*
Y67913D02*
Y75787D01*
X155217Y67913D02*
Y75787D01*
Y46260D02*
X168602D01*
X155217Y54134D02*
X168602D01*
Y46260D02*
Y54134D01*
X155217Y46260D02*
Y54134D01*
Y24606D02*
X168602D01*
X155217Y32480D02*
X168602D01*
Y24606D02*
Y32480D01*
X155217Y24606D02*
Y32480D01*
X306496Y57087D02*
Y75197D01*
X315551Y57087D02*
Y75197D01*
X306496Y57087D02*
X315551D01*
X306496Y75197D02*
X315551D01*
X294226Y149508D02*
X303281D01*
X294226Y131791D02*
X303281D01*
Y149508D01*
X294226Y131791D02*
Y149508D01*
X289626Y265945D02*
Y288779D01*
X273878Y265945D02*
Y288779D01*
X289626D01*
X273878Y265945D02*
X289626D01*
X289469Y294094D02*
Y314567D01*
X274114Y294094D02*
Y314567D01*
X289469D01*
X274114Y294094D02*
X289469D01*
X313130Y265945D02*
Y288779D01*
X297382Y265945D02*
Y288779D01*
X313130D01*
X297382Y265945D02*
X313130D01*
X313090Y294094D02*
Y314567D01*
X297736Y294094D02*
Y314567D01*
X313090D01*
X297736Y294094D02*
X313090D01*
X297244Y127657D02*
X312992D01*
X297244Y104823D02*
X312992D01*
Y127657D01*
X297244Y104823D02*
Y127657D01*
X297342Y80020D02*
Y100492D01*
X312697Y80020D02*
Y100492D01*
X297342Y80020D02*
X312697D01*
X297342Y100492D02*
X312697D01*
X273622Y127657D02*
X289370D01*
X273622Y104823D02*
X289370D01*
Y127657D01*
X273622Y104823D02*
Y127657D01*
X273721Y80020D02*
Y100492D01*
X289075Y80020D02*
Y100492D01*
X273721Y80020D02*
X289075D01*
X273721Y100492D02*
X289075D01*
X197244Y153150D02*
X257874D01*
X197244Y213779D02*
X257874D01*
Y153150D02*
Y213779D01*
X197244Y153150D02*
Y213779D01*
X19291Y324410D02*
X37795D01*
X19291Y337008D02*
X37795D01*
Y324410D02*
Y337008D01*
X19291Y324410D02*
Y337008D01*
X29528Y62402D02*
X40157D01*
X29528Y68307D02*
X40157D01*
Y62402D02*
Y68307D01*
X29528Y62402D02*
Y68307D01*
X230906Y127953D02*
X241535D01*
X230906Y133858D02*
X241535D01*
Y127953D02*
Y133858D01*
X230906Y127953D02*
Y133858D01*
X210630Y112795D02*
Y123425D01*
X216535Y112795D02*
Y123425D01*
X210630Y112795D02*
X216535D01*
X210630Y123425D02*
X216535D01*
X217520Y125787D02*
X225394D01*
X217520Y112402D02*
X225394D01*
Y125787D01*
X217520Y112402D02*
Y125787D01*
X282546Y57087D02*
Y75197D01*
X291601Y57087D02*
Y75197D01*
X282546Y57087D02*
X291601D01*
X282546Y75197D02*
X291601D01*
X270571Y57087D02*
Y75197D01*
X279626Y57087D02*
Y75197D01*
X270571Y57087D02*
X279626D01*
X270571Y75197D02*
X279626D01*
X247441Y339370D02*
Y357480D01*
X256496Y339370D02*
Y357480D01*
X247441Y339370D02*
X256496D01*
X247441Y357480D02*
X256496D01*
X227362Y111417D02*
X235236D01*
X227362Y124803D02*
X235236D01*
X227362Y111417D02*
Y124803D01*
X235236Y111417D02*
Y124803D01*
X243110Y111811D02*
Y122441D01*
X237205Y111811D02*
Y122441D01*
X243110D01*
X237205Y111811D02*
X243110D01*
X51378Y355315D02*
Y363189D01*
X33268Y355315D02*
Y363189D01*
Y355315D02*
X51378D01*
X33268Y363189D02*
X51378D01*
X33268Y341535D02*
X51378D01*
X33268Y349409D02*
X51378D01*
Y341535D02*
Y349409D01*
X33268Y341535D02*
Y349409D01*
X38976Y43701D02*
Y51575D01*
X20866Y43701D02*
Y51575D01*
Y43701D02*
X38976D01*
X20866Y51575D02*
X38976D01*
X20866Y53543D02*
X38976D01*
X20866Y61417D02*
X38976D01*
Y53543D02*
Y61417D01*
X20866Y53543D02*
Y61417D01*
X278543Y221654D02*
Y236614D01*
X271850Y221654D02*
Y236614D01*
X278543D01*
X271850Y221654D02*
X278543D01*
X283727D02*
X290420D01*
X283727Y236614D02*
X290420D01*
X283727Y221654D02*
Y236614D01*
X290420Y221654D02*
Y236614D01*
X302297Y221654D02*
Y236614D01*
X295604Y221654D02*
Y236614D01*
X302297D01*
X295604Y221654D02*
X302297D01*
X307480D02*
X314173D01*
X307480Y236614D02*
X314173D01*
X307480Y221654D02*
Y236614D01*
X314173Y221654D02*
Y236614D01*
X307480Y153150D02*
Y168110D01*
X314173Y153150D02*
Y168110D01*
X307480Y153150D02*
X314173D01*
X307480Y168110D02*
X314173D01*
X295604D02*
X302297D01*
X295604Y153150D02*
X302297D01*
Y168110D01*
X295604Y153150D02*
Y168110D01*
X283727Y153150D02*
Y168110D01*
X290420Y153150D02*
Y168110D01*
X283727Y153150D02*
X290420D01*
X283727Y168110D02*
X290420D01*
X271850D02*
X278543D01*
X271850Y153150D02*
X278543D01*
Y168110D01*
X271850Y153150D02*
Y168110D01*
X119685Y24803D02*
Y30315D01*
X109055Y24803D02*
Y30315D01*
Y24803D02*
X119685D01*
X109055Y30315D02*
X119685D01*
X119783Y47441D02*
Y52953D01*
X109153Y47441D02*
Y52953D01*
Y47441D02*
X119783D01*
X109153Y52953D02*
X119783D01*
Y69095D02*
Y74606D01*
X109153Y69095D02*
Y74606D01*
Y69095D02*
X119783D01*
X109153Y74606D02*
X119783D01*
X119587Y90748D02*
Y96260D01*
X108957Y90748D02*
Y96260D01*
Y90748D02*
X119587D01*
X108957Y96260D02*
X119587D01*
X119685Y112402D02*
Y117913D01*
X109055Y112402D02*
Y117913D01*
Y112402D02*
X119685D01*
X109055Y117913D02*
X119685D01*
Y134055D02*
Y139567D01*
X109055Y134055D02*
Y139567D01*
Y134055D02*
X119685D01*
X109055Y139567D02*
X119685D01*
Y155610D02*
Y161122D01*
X109055Y155610D02*
Y161122D01*
Y155610D02*
X119685D01*
X109055Y161122D02*
X119685D01*
X119882Y177362D02*
Y182874D01*
X109252Y177362D02*
Y182874D01*
Y177362D02*
X119882D01*
X109252Y182874D02*
X119882D01*
X119685Y199016D02*
Y204527D01*
X109055Y199016D02*
Y204527D01*
Y199016D02*
X119685D01*
X109055Y204527D02*
X119685D01*
Y220669D02*
Y226181D01*
X109055Y220669D02*
Y226181D01*
Y220669D02*
X119685D01*
X109055Y226181D02*
X119685D01*
Y242323D02*
Y247835D01*
X109055Y242323D02*
Y247835D01*
Y242323D02*
X119685D01*
X109055Y247835D02*
X119685D01*
Y263976D02*
Y269488D01*
X109055Y263976D02*
Y269488D01*
Y263976D02*
X119685D01*
X109055Y269488D02*
X119685D01*
Y285531D02*
Y291043D01*
X109055Y285531D02*
Y291043D01*
Y285531D02*
X119685D01*
X109055Y291043D02*
X119685D01*
Y307185D02*
Y312697D01*
X109055Y307185D02*
Y312697D01*
Y307185D02*
X119685D01*
X109055Y312697D02*
X119685D01*
Y328740D02*
Y334252D01*
X109055Y328740D02*
Y334252D01*
Y328740D02*
X119685D01*
X109055Y334252D02*
X119685D01*
X119685Y350590D02*
Y356102D01*
X109055Y350590D02*
Y356102D01*
Y350590D02*
X119685D01*
X109055Y356102D02*
X119685D01*
X242520Y341929D02*
Y387598D01*
X214173Y341929D02*
Y387598D01*
X242520D01*
X214173Y341929D02*
X242520D01*
X34055Y71653D02*
X39961D01*
X34055Y81890D02*
X39961D01*
X34055Y71653D02*
Y81890D01*
X39961Y71653D02*
Y81890D01*
X270669Y242372D02*
X279724D01*
X270669Y260089D02*
X279724D01*
X270669Y242372D02*
Y260089D01*
X279724Y242372D02*
Y260089D01*
X282874Y242323D02*
X291929D01*
X282874Y260039D02*
X291929D01*
X282874Y242323D02*
Y260039D01*
X291929Y242323D02*
Y260039D01*
X294423Y242421D02*
X303478D01*
X294423Y260138D02*
X303478D01*
X294423Y242421D02*
Y260138D01*
X303478Y242421D02*
Y260138D01*
X306496Y242421D02*
X315551D01*
X306496Y260138D02*
X315551D01*
X306496Y242421D02*
Y260138D01*
X315551Y242421D02*
Y260138D01*
X306102Y149508D02*
X315158D01*
X306102Y131791D02*
X315158D01*
Y149508D01*
X306102Y131791D02*
Y149508D01*
X282349D02*
X291404D01*
X282349Y131791D02*
X291404D01*
Y149508D01*
X282349Y131791D02*
Y149508D01*
X270472D02*
X279528D01*
X270472Y131791D02*
X279528D01*
Y149508D01*
X270472Y131791D02*
Y149508D01*
X246260Y132283D02*
X252165D01*
X246260Y142520D02*
X252165D01*
X246260Y132283D02*
Y142520D01*
X252165Y132283D02*
Y142520D01*
X316339Y318898D02*
Y337008D01*
X307283Y318898D02*
Y337008D01*
X316339D01*
X307283Y318898D02*
X316339D01*
X279331Y318799D02*
Y336909D01*
X270276Y318799D02*
Y336909D01*
X279331D01*
X270276Y318799D02*
X279331D01*
X291535D02*
Y336909D01*
X282480Y318799D02*
Y336909D01*
X291535D01*
X282480Y318799D02*
X291535D01*
X304528D02*
Y336909D01*
X295472Y318799D02*
Y336909D01*
X304528D01*
X295472Y318799D02*
X304528D01*
X205709Y365945D02*
Y379331D01*
X197835Y365945D02*
Y379331D01*
X205709D01*
X197835Y365945D02*
X205709D01*
X238779Y326575D02*
X249016D01*
X238779Y320669D02*
X249016D01*
X238779D02*
Y326575D01*
X249016Y320669D02*
Y326575D01*
X238976Y315748D02*
X249606D01*
X238976Y321260D02*
X249606D01*
Y315748D02*
Y321260D01*
X238976Y315748D02*
Y321260D01*
X346654Y62795D02*
X356890D01*
X346654Y56890D02*
X356890D01*
X346654D02*
Y62795D01*
X356890Y56890D02*
Y62795D01*
X346850Y56693D02*
X357480D01*
X346850Y51181D02*
X357480D01*
X346850D02*
Y56693D01*
X357480Y51181D02*
Y56693D01*
X364370Y159350D02*
X373425D01*
X364370Y177067D02*
X373425D01*
Y159350D02*
Y177067D01*
X364370Y159350D02*
Y177067D01*
X321752Y171850D02*
Y180905D01*
X339469Y171850D02*
Y180905D01*
X321752Y171850D02*
X339469D01*
X321752Y180905D02*
X339469D01*
X61417Y269567D02*
Y273110D01*
X54331Y269567D02*
Y273110D01*
Y269567D02*
X61417D01*
X54331Y273110D02*
X61417D01*
Y259567D02*
Y263110D01*
X54331Y259567D02*
Y263110D01*
Y259567D02*
X61417D01*
X54331Y263110D02*
X61417D01*
Y249567D02*
Y253110D01*
X54331Y249567D02*
Y253110D01*
Y249567D02*
X61417D01*
X54331Y253110D02*
X61417D01*
Y239567D02*
Y243110D01*
X54331Y239567D02*
Y243110D01*
Y239567D02*
X61417D01*
X54331Y243110D02*
X61417D01*
Y229567D02*
Y233110D01*
X54331Y229567D02*
Y233110D01*
Y229567D02*
X61417D01*
X54331Y233110D02*
X61417D01*
Y219567D02*
Y223110D01*
X54331Y219567D02*
Y223110D01*
Y219567D02*
X61417D01*
X54331Y223110D02*
X61417D01*
Y209567D02*
Y213110D01*
X54331Y209567D02*
Y213110D01*
Y209567D02*
X61417D01*
X54331Y213110D02*
X61417D01*
Y199567D02*
Y203110D01*
X54331Y199567D02*
Y203110D01*
Y199567D02*
X61417D01*
X54331Y203110D02*
X61417D01*
Y189567D02*
Y193110D01*
X54331Y189567D02*
Y193110D01*
Y189567D02*
X61417D01*
X54331Y193110D02*
X61417D01*
Y179567D02*
Y183110D01*
X54331Y179567D02*
Y183110D01*
Y179567D02*
X61417D01*
X54331Y183110D02*
X61417D01*
Y169567D02*
Y173110D01*
X54331Y169567D02*
Y173110D01*
Y169567D02*
X61417D01*
X54331Y173110D02*
X61417D01*
Y159567D02*
Y163110D01*
X54331Y159567D02*
Y163110D01*
Y159567D02*
X61417D01*
X54331Y163110D02*
X61417D01*
Y149567D02*
Y153110D01*
X54331Y149567D02*
Y153110D01*
Y149567D02*
X61417D01*
X54331Y153110D02*
X61417D01*
X52165Y49213D02*
X55709D01*
X52165Y56299D02*
X55709D01*
X52165Y49213D02*
Y56299D01*
X55709Y49213D02*
Y56299D01*
X47835Y49114D02*
X51378D01*
X47835Y56201D02*
X51378D01*
X47835Y49114D02*
Y56201D01*
X51378Y49114D02*
Y56201D01*
X61417Y279567D02*
Y283110D01*
X54331Y279567D02*
Y283110D01*
Y279567D02*
X61417D01*
X54331Y283110D02*
X61417D01*
M02*
